/* XPM */
static char *_[] = {
/* columns rows colors chars-per-pixel */
"42 42 149 2 ",
"   c None",
".  c #000000",
"X  c #0C0300",
"o  c #000C04",
"O  c #0B0805",
"+  c #05090D",
"@  c #0C0C0D",
"#  c #170700",
"$  c #1C0800",
"%  c #110F0B",
"&  c #001006",
"*  c #001709",
"=  c #001A0A",
"-  c #12100C",
";  c #030C14",
":  c #040E18",
">  c #0B0F12",
",  c #05121E",
"<  c #131313",
"1  c #1E1A13",
"2  c #1C1C1B",
"3  c #210A00",
"4  c #2A0C00",
"5  c #350F00",
"6  c #29170C",
"7  c #391908",
"8  c #241F16",
"9  c #00240E",
"0  c #003414",
"q  c #003815",
"w  c #003E18",
"e  c #262219",
"r  c #2A261C",
"t  c #2D2C2B",
"y  c #2C2A26",
"u  c #332D22",
"i  c #363024",
"p  c #3D3628",
"a  c #3F3829",
"s  c #3B3427",
"d  c #373839",
"f  c #3E3E3E",
"g  c #501800",
"h  c #5F1C00",
"j  c #631D00",
"k  c #691F00",
"l  c #4F2610",
"z  c #732200",
"x  c #7A2400",
"c  c #403A2D",
"v  c #00461B",
"b  c #004D1E",
"n  c #005721",
"m  c #005E24",
"M  c #006B29",
"N  c #00762E",
"B  c #007B2F",
"V  c #007F31",
"C  c #4E4635",
"Z  c #564C39",
"A  c #584E3B",
"S  c #534A37",
"D  c #3F4042",
"F  c #374451",
"G  c #424242",
"H  c #4B4B4B",
"J  c #525252",
"K  c #5A5A5A",
"L  c #615846",
"P  c #6B5F47",
"I  c #6E6249",
"U  c #74664D",
"Y  c #63625F",
"T  c #7A6D52",
"R  c #746952",
"E  c #7E7054",
"W  c #7D7058",
"Q  c #626262",
"!  c #686662",
"~  c gray42",
"^  c #7B7871",
"/  c #7E7E7E",
"(  c #8B2A00",
")  c #9B2E00",
"_  c #A03000",
"`  c #B65A28",
"'  c #AA6134",
"]  c #C06D3B",
"[  c #87785A",
"{  c #8C7C5C",
"}  c #80745B",
"|  c #008333",
" . c #008C36",
".. c #008F38",
"X. c #009038",
"o. c #938362",
"O. c #988765",
"+. c #9D8B68",
"@. c #94866A",
"#. c #86837E",
"$. c #A68E68",
"%. c #A6946F",
"&. c #A89670",
"*. c #AC9973",
"=. c #A4967A",
"-. c #B6A179",
";. c #CC9563",
":. c #D79A65",
">. c #838383",
",. c #8C8C8C",
"<. c #8E8B86",
"1. c #9D9D9D",
"2. c gray64",
"3. c #BEB6A6",
"4. c #B3B3B3",
"5. c #BCBCBC",
"6. c #CBB487",
"7. c #D4BC8D",
"8. c #DBBF8D",
"9. c #DEC594",
"0. c #E2C997",
"q. c #E9CF9B",
"w. c #E5CB98",
"e. c #EBD19D",
"r. c #D3CBB9",
"t. c #F5D7A0",
"y. c #F6DBA4",
"u. c #FADEA6",
"i. c #F8DEA9",
"p. c #FCE0A8",
"a. c #FCE8BF",
"s. c #FCE5B6",
"d. c #C3C3C3",
"f. c #CCCCCC",
"g. c #D5D5D5",
"h. c #DDDDDC",
"j. c #F4E7CF",
"k. c #FDEAC5",
"l. c #FDEED1",
"z. c #FEF2DB",
"x. c #E6E6E6",
"c. c #EDEDED",
"v. c #FEF8EB",
"b. c #F3F3F3",
"n. c #FEFBF4",
"m. c white",
"M. c #FEFEFE",
"N. c #FDFDFC",
"B. c #FAFAFA",
/* pixels */
"                                                                                    ",
"                                                                                    ",
"                                        $ $ $ $ $ $ #                               ",
"                                  X X 3 x ( ( ( ( ( h X X                           ",
"                                X g k z ) _ _ _ _ _ ( k k 5                         ",
"                                X z _ _ _ _ _ _ ) x j j j 4 .                       ",
"                                3 x _ _ _ _ _ ) ( l 1 O 8 % .                       ",
"                              3 x ) _ _ _ _ _ ( 7 { { r &.A .                       ",
"                              3 ( _ _ _ _ _ ` ;.$.7.9.O.P r +                       ",
"                              6 ' ] ] ] ] ] :.u.p.p.p.w.U A C                       ",
"                              u 8.t.t.t.t.t.y.u.p.p.p.u.t.t.%.%                     ",
"                              i 9.p.p.p.p.p.p.p.p.p.p.p.p.p.*.%                     ",
"                              i 9.p.p.p.p.p.p.p.p.p.p.p.p.p.*.%                     ",
"                            . i 9.p.p.p.p.p.p.p.p.p.p.p.p.p.*.%                     ",
"                        . . . i 9.p.p.p.p.p.p.p.p.p.p.p.u.e.O.%                     ",
"                  . . .     @ i 9.p.p.p.p.p.p.p.p.p.p.p.u.[ 8 X . . .               ",
"                  ^ ,.1.g.H J #.} 7.p.p.p.p.p.p.p.p.p.q.{ u r E [ [ I -             ",
"                K g.m.c.4.Q 1.g.Y @.7.u.p.p.p.p.u.7.-.+.1 . C e.p.p.6.S             ",
"              H h.B.m.d.f 4.b.B.h.! W 0.0.0.0.0.9.R t y 2 2 L e.p.p.y.7.p           ",
"            . H c.m.m.5.t 5.m.m.B.g.#.p p p p p c <.d.d.d.d.r.i.p.p.p.0.a           ",
"            A =.j.n.5./ ,.h.m.m.m.m.d.>./ / / / >.f.m.m.m.m.n.l.s.p.p.0.a           ",
"          . o.p.p.z.^ G x.m.m.m.m.m.m.m.m.m.m.m.m.m.m.m.m.m.m.n.s.p.p.0.a           ",
"          . { p.p.p.T G x.m.m.m.m.m.m.m.m.m.m.m.m.m.m.m.m.m.m.n.a.p.y.7.p           ",
"          . { p.p.p.T G x.m.m.m.m.m.m.m.m.m.m.m.m.m.m.m.m.m.m.m.v.k.6.S             ",
"          . { p.p.p.T G x.m.m.m.m.m.m.m.m.m.m.m.B.4.4.B.m.m.m.m.m.3.I -             ",
"          . { p.p.p.T G x.m.m.m.m.m.m.m.m.m.m.m.B.>.~ f.b.m.m.B.g.K .               ",
"          . [ e.e.e.U G x.m.m.m.m.m.m.m.m.m.m.m.m.c.2.J f.c.c.g.H @ .               ",
"            s C C C e G x.m.m.m.m.m.m.m.m.m.m.m.m.m.x.2.Q J J G < .                 ",
"              . . + . G x.m.m.m.m.m.m.m.m.m.m.m.m.m.m.c.>.~ ~ K <                   ",
"                      D d.b.m.m.m.m.m.m.m.m.m.m.m.m.m.m.m.m.c.5.t                   ",
"                      F d 5.b.b.b.b.b.b.b.b.b.b.b.b.b.b.b.b.4.t +                   ",
"                      > + G K K K K K K K K K K K K K K K K f + . .                 ",
"                    . . . . . o 0 q q q q q q q q q q q 0 * . . . . .               ",
"                  . . . . . . = M |  . . . . . . . . . . .q . . . . .               ",
"                  . . . . . . . = M  .X.X.X.X. . . . . . .q . . . . .               ",
"                  . . . . . . . . 9 m ..X.X.X.| v q n V v * . . . .                 ",
"                  . . . . . . . . . w  . .M m b o . 9 b & . . . .                   ",
"                  . . . . . . . . . 0 B N 0 . . . . . . . . . . .                   ",
"                    . . . . . . . . o = =         . . . . . . .                     ",
"                      . . . . . . . .             . . . . . .                       ",
"                        + ; ; ; ; ;               , : : ; ; :                       ",
"                                                                                    "
};
