/* XPM */
static char *_[] = {
/* columns rows colors chars-per-pixel */
"40 44 217 2 ",
"   c #000000",
".  c #0B0001",
"X  c #140301",
"o  c #1C0301",
"O  c #100D0D",
"+  c #1A1111",
"@  c #220202",
"#  c #280401",
"$  c #380900",
"%  c #281417",
"&  c #3E302D",
"*  c #2F2828",
"=  c #490B01",
"-  c #460A01",
";  c #5B0F01",
":  c #530E01",
">  c #5E1102",
",  c #610F01",
"<  c #790106",
"1  c #611002",
"2  c #6C1201",
"3  c #761302",
"4  c #7C1401",
"5  c #610219",
"6  c #531825",
"7  c #741623",
"8  c #413B3C",
"9  c #442927",
"0  c #782F24",
"q  c #67363E",
"w  c #7F4035",
"e  c #594B45",
"r  c #645D5C",
"t  c #7C5A4D",
"y  c #6A675C",
"u  c #78685E",
"i  c #7E6C6A",
"p  c #73706D",
"a  c #8E0F01",
"s  c #830802",
"d  c #930600",
"f  c #920905",
"g  c #9B0E01",
"h  c #99060C",
"j  c #821401",
"k  c #8A1701",
"l  c #8F1800",
"z  c #9D1200",
"x  c #941901",
"c  c #9B1A02",
"v  c #931408",
"b  c #8D031C",
"n  c #950110",
"m  c #9A0113",
"M  c #970118",
"N  c #941617",
"B  c #A90803",
"V  c #BE0C02",
"C  c #BE090C",
"Z  c #B30800",
"A  c #A41300",
"S  c #AC1200",
"D  c #A31B02",
"F  c #AC1D01",
"G  c #B41500",
"H  c #BC1301",
"J  c #B31E01",
"K  c #BB1F01",
"L  c #AE0014",
"P  c #BD0911",
"I  c #BD0416",
"U  c #A32007",
"Y  c #B42003",
"T  c #BB2102",
"R  c #B3321C",
"E  c #A32714",
"W  c #8D0520",
"Q  c #910027",
"!  c #8E1226",
"~  c #B10832",
"^  c #AF0B27",
"/  c #8E2521",
"(  c #8B3A3B",
")  c #A93D2B",
"_  c #BC3E3E",
"`  c #B63C26",
"'  c #C70000",
"]  c #C90300",
"[  c #C30D02",
"{  c #CA0907",
"}  c #D40E00",
"|  c #DC0D05",
" . c #DC0C0B",
".. c #D80A0C",
"X. c #C41400",
"o. c #CC1400",
"O. c #C41B03",
"+. c #CC1C04",
"@. c #D51302",
"#. c #DB1403",
"$. c #D31B04",
"%. c #DB1B03",
"&. c #D4190C",
"*. c #C2011B",
"=. c #D61916",
"-. c #C81817",
";. c #E40505",
":. c #E30D03",
">. c #E4040B",
",. c #E8000C",
"<. c #E30B0C",
"1. c #E9090A",
"2. c #E41203",
"3. c #E51B07",
"4. c #E50114",
"5. c #E90316",
"6. c #E30A12",
"7. c #E5031A",
"8. c #E9031A",
"9. c #E8081C",
"0. c #E70918",
"q. c #F2081C",
"w. c #C42203",
"e. c #CB2104",
"r. c #C42208",
"t. c #CF220C",
"y. c #D12202",
"u. c #DB2D1A",
"i. c #D11726",
"p. c #D10F32",
"a. c #CE1434",
"s. c #C71C34",
"d. c #CB1C35",
"f. c #D31936",
"g. c #CD0B2A",
"h. c #E40422",
"j. c #ED0323",
"k. c #E90922",
"l. c #EB032C",
"z. c #E9062B",
"x. c #F70325",
"c. c #EC0232",
"v. c #C42329",
"b. c #D42120",
"n. c #CA392B",
"m. c #CD2932",
"M. c #914437",
"N. c #AA4533",
"B. c #B44D3A",
"V. c #C4452E",
"C. c #C9432E",
"Z. c #D1482F",
"A. c #C74335",
"S. c #D34730",
"D. c #B95C4B",
"F. c #B65F54",
"G. c #AF6558",
"H. c #B86557",
"J. c #807F79",
"K. c #9E7A74",
"L. c #BA756B",
"P. c #BB7C72",
"I. c #AD6675",
"U. c #C95A59",
"Y. c #D45C52",
"T. c #D3574B",
"R. c #C36251",
"E. c #C96053",
"W. c #CC6359",
"Q. c #C4695B",
"!. c #CB695A",
"~. c #C76759",
"^. c #D16A5A",
"/. c #D86255",
"(. c #C96466",
"). c #C67A76",
"_. c #D57A74",
"`. c #82817C",
"'. c #BF867F",
"]. c #C6877E",
"[. c #CD867E",
"{. c #D7827C",
"}. c #98948D",
"|. c #9F9590",
" X c #878581",
".X c #ACA29F",
"XX c #BCB1AE",
"oX c #CD8583",
"OX c #C48B83",
"+X c #D5938E",
"@X c #CC8A91",
"#X c #CE9F9F",
"$X c #D39B97",
"%X c #D68E8A",
"&X c #C7A6A4",
"*X c #CCB1B1",
"=X c #CCBAB7",
"-X c #D0B6BA",
";X c #D3C3BC",
":X c #CEC4C7",
">X c #CFCBCF",
",X c #CDC4C8",
"<X c #CFCCD1",
"1X c #CFCDD2",
"2X c #D0CFD5",
"3X c #CFD1D6",
"4X c #CFD6DC",
"5X c #CFD8DE",
"6X c #D0D1D6",
"7X c #D0D6DC",
"8X c #D1D8DE",
"9X c #DCD9D8",
"0X c #E1DDDC",
"qX c #CFDAE1",
"wX c #D1DAE1",
"eX c #EAF2EA",
"rX c #F6F7F2",
/* pixels */
"        . 5 ~ a.f.a.a.a.d.d.d.d.d.s.s.s.s.s.s.s.s.d.d.d.d.f.f.p.p.Q @           ",
"        5 g.l.l.j.j.j.z.j.j.j.j.j.j.j.j.j.j.j.j.j.j.j.j.j.j.j.j.z.c.W           ",
"        b z.z.z.k.k.k.k.9.9.9.9.9.9.9.9.9.0.9.9.9.9.9.9.9.9.k.k.h.h.^ X         ",
"        M x.h.9.9.0.0.0.5.5.5.5.5.5.5.5.5.5.5.5.5.5.5.5.5.0.0.8.h.h.*.o         ",
"        m x.7.7.5.5.5.4.5.5.5.5.5.5.5.5.5.5.5.5.5.5.5.5.5.5.8.7.7.8.*.o         ",
"        m q.4.4.5.,.>.,.4.4.4.4.7.7.4.4.6.<.<.1.1.4.4.4.4.7.8.4.7.8.*.o         ",
"        n 8.>.1.1.;.>.<.>.<.2.:.;.:.2.2.2.:.:.2.3.:.<.4.4.4.5.0.6.0.I o         ",
"        n 5.;.:.;. .<.#.%.%.| u./.{.+X+X%X_.T.=.;.2.#. .5.5.6.6.6.6.P o         ",
"        h 1.:.:.<.| #.$.$.&._.:X4XqX5X4X5XqX4X-XY.| #.@.<.7.6.6.<.6.P o         ",
"        h 2.%.#.#.$.y.+.t.#XqX3X<X<X<X>X<X<X<X3XqX_.@.@.@. .6.<.| <.C o         ",
"        h 2.%.#.$.+.e.o.[.qX>X<X<X<X4XqX3X<X<X<X<XqXY.} $.@. .| | <.C o         ",
"        f %.%.%.$.+.o.n.>X1X<X<X<X4X#XW.-X3X<X<X<X4X*X+.+.$.@.| @.:.C @         ",
"        f %.%.%.$.+.o.!.qX<X<X<X<X3XA.' (.qX<X1X<X<X<XC.o.+.$.@.@.#.V @         ",
"        f %.$.$.$.+.o.[.qX>X<X<X1X<Xn.' W.5X<X<X<X<X4XT.o.e.+.$.$.@.V @         ",
"        a $.$.$.$.+.@.[.qX<X<X1X1X<Xn.' W.5X<X<X<X<X4XE.o.e.+.+.+.$.V @         ",
"        l $.$.$.$.+.@.[.qX<X<X1X1X<Xn.' W.5X<X<X<X<X7XE.X.e.+.+.+.$.H @         ",
"        l $.+.+.+.+.o.[.qX<X<X<X1X<XC.] W.5X<X1X1X<X7XR.X.e.e.+.O.+.H @         ",
"        a $.+.+.+.+.o.[.qX<X<X<X1X<XC.{ !.5X<X<X<X<X4XU.X.w.e.+.O.+.V #         ",
"        < { H O.+.e.o.[.qX<X<X<X1X<XS.} ^.4X<X<X<X<X4XE.X.r.w.+.O.V L #         ",
"      + 6 ! v G +.e.o.oXqX<X<X<X1X<XS.@.^.4X<X<X<X<X4XE.X.r.+.+.F N 7 %         ",
"      i |.|.( B +.O.X.].wX<X1X<X1X<XC.[ ~.7X<X<X<X<X4XR.H w.w.o.g K.}.}.8       ",
"      XXrXeXI.L -.-.{ oXwX<X1X1X1X<X_ Z (.8X<X<X<X<X4XU.{ =.&...N ;XeXrXy       ",
"      .X9X0XI.^ m.m.v.@X8X<X<X<X1X<XU.v.).7X<X<X<X<X4X(.i.i.=.b./ =X9X0Xr       ",
"      r J.`.q s F D A '.wX<X<X<X1X<XN.d G.7X<X<X<X<X7XF.A F F F 3 u p  X8       ",
"      e y y 0 A w.w.X.].wX<X<X<X1X<XV.[ ~.4X<X<X1X<X7XR.H T K J j t y y *       ",
"      9 w N.E F T T H ].wX<X<X<X1X<XZ.@.^.4X<X<X1X<X7XR.H T K J c ) M.& O       ",
"      . < A D J T T H ].wX<X<X<X1X<XC.o.!.4X<X<X1X<X7XR.G T J J F S d o         ",
"        3 J F J K T G ].wX<X<X<X1X<XV.[ ~.4X<X<X<X<X7XR.G Y J J J T D o         ",
"        3 K J J J Y G ].wX<X<X<X1X<XV.V ~.7X<X<X<X<X7XH.G Y J J J K c o         ",
"        3 K J J J Y G ).wX<X1X<X1X<XV.V Q.wX<X<X<X<X6XD.G Y J J J J c o         ",
"        3 K F F J Y S H.7X<X<X<X<X7XQ.G OXwX<X<X<X1X<X` G J J J J J c o         ",
"        2 J D F F F J R ,X6X<X<X<X6X,X&X<X2X1X1X1X7X&XF F F J J J J c o         ",
"        2 J D D F F Y S L.wX<X<X<X<X6X7X<X<X<X<X2X7XB.A F F F F F J c o         ",
"        1 F D D F F D D D OXwX7X<X<X<X>X<X<X<X7X6XH.A D D D F F F F x o         ",
"        1 D c D D D c c D D F.*X1X8XwXwXwX7X<X&XN.A D D D D D D D F l o         ",
"        > D c c c c c c c D z U N.H.P.P.L.G.) c z c c c c D c D c D k X         ",
"        > D c c c c c c c c D D z g g z g g z c c c c c c c c c c D j X         ",
"        1 c x x x x c x x c c c c c x c c c x c c c c c c c x x x c 2 .         ",
"        , x x x x x x x x x x x x x x x x x x x x x x x x x x l l x 1           ",
"        ; k k k l l l l l l l l l l l l l l l l l l l l l l l k k x ;           ",
"        : k j j j k k k k k k k k k k k k k k k k k k k k k k j j k :           ",
"        = j j 4 4 4 j j j j j j j j j j j j j j j j j j j j j 4 4 j =           ",
"        # 3 4 4 4 4 4 4 4 j j j j j j j j j j 4 4 4 4 4 4 4 4 4 4 4 $           ",
"        . - 3 3 3 3 3 3 3 3 3 3 3 3 3 3 3 3 4 4 4 4 4 4 4 4 3 2 2 ; X           "
};
