/* XPM */
static char *_[] = {
/* columns rows colors chars-per-pixel */
"40 44 198 2 ",
"   c #000000",
".  c #0B0200",
"X  c #0D0B0B",
"o  c #120101",
"O  c #1D0301",
"+  c #240401",
"@  c #2A0302",
"#  c #2A0109",
"$  c #340501",
"%  c #231617",
"&  c #331B1E",
"*  c #332826",
"=  c #3B3636",
"-  c #450A01",
";  c #520D01",
":  c #5A0E01",
">  c #5D1001",
",  c #650F01",
"<  c #770609",
"1  c #651101",
"2  c #6C1201",
"3  c #721201",
"4  c #7D1301",
"5  c #761908",
"6  c #610218",
"7  c #591F29",
"8  c #741E27",
"9  c #402623",
"0  c #7D2C21",
"q  c #76392E",
"w  c #6A323A",
"e  c #7B3C31",
"r  c #584945",
"t  c #575353",
"y  c #665E5A",
"u  c #6C665C",
"i  c #74695C",
"p  c #7C6A64",
"a  c #7F7E78",
"s  c #8C0B04",
"d  c #93030D",
"f  c #831401",
"g  c #8C1600",
"h  c #861508",
"j  c #911701",
"k  c #941801",
"l  c #9C1A01",
"z  c #991509",
"x  c #8A041D",
"c  c #950114",
"v  c #971F1E",
"b  c #AD0F03",
"n  c #A2050B",
"m  c #B30B03",
"M  c #BC0D06",
"N  c #B7090B",
"B  c #A61604",
"V  c #AB1603",
"C  c #A31B01",
"Z  c #AC1C01",
"A  c #BA1603",
"S  c #B31D00",
"D  c #BC1E00",
"F  c #B60911",
"G  c #BB011A",
"H  c #B4091A",
"J  c #9D2310",
"K  c #B6260A",
"L  c #AC2D15",
"P  c #850022",
"I  c #8E1D29",
"U  c #A5082C",
"Y  c #B90526",
"T  c #BC192F",
"R  c #AC1C31",
"E  c #BC1A31",
"W  c #922C27",
"Q  c #973E2F",
"!  c #8D3437",
"~  c #A63C2A",
"^  c #B83F29",
"/  c #C90E00",
"(  c #DB0C05",
")  c #DE0508",
"_  c #DD0A0B",
"`  c #C51401",
"'  c #CA1501",
"]  c #C41C02",
"[  c #CC1C03",
"{  c #C51F0D",
"}  c #D41503",
"|  c #DB1404",
" . c #D21B03",
".. c #DA1B03",
"X. c #D3190C",
"o. c #DF0A12",
"O. c #DE001A",
"+. c #C51415",
"@. c #CC1213",
"#. c #D91E18",
"$. c #E40406",
"%. c #E40B04",
"&. c #E5030B",
"*. c #E8010F",
"=. c #E30A0C",
"-. c #E31503",
";. c #E21208",
":. c #E50214",
">. c #E80315",
",. c #E20913",
"<. c #E6061B",
"1. c #E9051B",
"2. c #E70A1B",
"3. c #E8091C",
"4. c #C32001",
"5. c #C92102",
"6. c #CA240D",
"7. c #D12303",
"8. c #CA2518",
"9. c #DA2714",
"0. c #C9092C",
"q. c #DD022A",
"w. c #C1142F",
"e. c #D11C28",
"r. c #C41231",
"t. c #C81632",
"y. c #C21A31",
"u. c #E70320",
"i. c #E30422",
"p. c #E70521",
"a. c #E70326",
"s. c #E90523",
"d. c #E70821",
"f. c #E80822",
"g. c #E2052A",
"h. c #C9262C",
"j. c #C8292C",
"k. c #C93A34",
"l. c #AB402D",
"z. c #BB412B",
"x. c #B74E3B",
"c. c #C34129",
"v. c #CB432A",
"b. c #D0442B",
"n. c #CF4837",
"m. c #825A4E",
"M. c #B35241",
"N. c #BB5A4B",
"B. c #B76658",
"V. c #9E5C6C",
"C. c #AE5968",
"Z. c #BB766C",
"A. c #A27A73",
"S. c #B97A70",
"D. c #CE5857",
"F. c #D95C53",
"G. c #C0604F",
"H. c #C26250",
"J. c #CB675B",
"K. c #D4665A",
"L. c #C96C67",
"P. c #D66E67",
"I. c #CD726A",
"U. c #C37F74",
"Y. c #D37C77",
"T. c #83807C",
"R. c #BB8179",
"E. c #C78076",
"W. c #D6847F",
"Q. c #8F8985",
"!. c #9A8F8A",
"~. c #98938C",
"^. c #A08D88",
"/. c #BF8B85",
"(. c #A09695",
"). c #ACA19F",
"_. c #CB8C84",
"`. c #C88A89",
"'. c #C6948D",
"]. c #CD8F95",
"[. c #CD9792",
"{. c #CF9E9B",
"}. c #D49A97",
"|. c #D49F9D",
" X c #C8AAA9",
".X c #C5B1A9",
"XX c #CBB2B3",
"oX c #CFB8B6",
"OX c #CFBFC2",
"+X c #CEC1C4",
"@X c #CEC5C8",
"#X c #CECACC",
"$X c #D4CDCC",
"%X c #CFCDD2",
"&X c #CFCED3",
"*X c #DDDCD8",
"=X c #E1DDD9",
"-X c #E1E3DD",
/* pixels */
"        o 6 U r.w.w.w.w.y.y.y.T T T E E E E E E E E y.y.y.y.t.r.Y P #           ",
"      . 6 0.g.g.a.a.a.p.p.p.p.p.p.p.a.a.u.u.a.a.p.p.<.<.a.u.p.a.q.q.x .         ",
"      o x g.a.s.f.d.d.3.3.3.<.<.<.<.<.<.<.<.<.<.<.<.<.<.<.3.p.p.i.q.Y O         ",
"      o c a.i.<.2.2.1.1.>.>.>.>.>.>.>.>.>.>.>.>.>.>.>.>.>.1.3.<.i.i.Y #         ",
"      o c 1.<.,.>.>.>.>.>.>.>.>.>.>.>.>.>.>.>.>.>.>.>.>.>.>.>.>.:.O.G +         ",
"      o c 1.:.:.*.&.&.*.:.:.:.:.:.:.:.:.=.=.=.=.=.*.:.:.:.>.>.:.:.:.G +         ",
"      o d :.&.&.$.$.&.&.=.=.;.;.;.;.;.-.-.-.-.-.-.%.&.:.:.:.:.>.,.,.G +         ",
"      o d :.$.%.$.) _ | ....| 9.K.W.}.|.}.W.F.#.-.| ( _ :.>.,.,.,.o.F +         ",
"      o d =.%.%.=.( |  . .X.Y.#X&X&X&X&X&X&X&X@XP.| | | =.>.,.,.=.o.F +         ",
"      o d | | | | }  .[ [ {.&X&X&X&X&X&X&X&X&X&X&XY.| } | _ ,._ ( _ N +         ",
"      o d | ..|  .[ [ [ I.&X&X&X&X&X&X&X&X&X&X&X&X&Xn. .} } ( ( ( ( N +         ",
"      o s } .... .[ [ [ OX&X&X&X&X&XI.k.oX&X&X&X&X&X[.[ [ ' } ( } ( N +         ",
"      o s  ... . .[ [ n.&X&X&X&X&X#X` / I.&X&X&X&X&X@X[ [ [  .} } | m +         ",
"      o s  . . . .[ [ J.&X&X&X&X&X@X/ / L.&X&X&X&X&X&X6.[ [ [  . .} m +         ",
"      o s [  . . .[ [ E.&X&X&X&X&X@X` ` J.+X+X+X+X+X+X6.[ [ [ [ [ } m @         ",
"      o g [  . . .[ [ _.&X&X&X&X&X@X' ' ` ` ` ` ] ] ] ] ] 5.[ [ [ [ m @         ",
"      o g [ [ [ [ [ [ _.&X&X&X&X&X@X] ' ` { ] A A ] ] ] ] 5.[ [ ] [ b @         ",
"      o s [ [ ] [ [ [ _.&X&X&X&X&X@X[ D.oX&X&XXXL.] ] ] ] 4.5.[ ] ' m $         ",
"      . < M A ] [ [ [ _.&X&X&X&X&X@XJ.&X&X&X&X&X&X[.] ] ] ] 5.[ ] M n @         ",
"      % 7 I z A [ [ [ _.&X&X&X&X&X#X#X&X&X&X&X&X&X&XJ.[ ] ] [ ] B v 8 & X       ",
"      p !.^.! b ] ] ] _.&X&X&X&X&X&X&X&X&X&X&X&X&X&XXX] ] ] ] ` z A.~.Q.=       ",
"      ).-X=XC.H +.+.+.`.&X&X&X&X&X&X&X&X&X&X&X&X&X&X&Xj.@.@.@.@.v oX-X*Xt       ",
"      (.#X$XV.R h.h.h.].&X&X&X&X&X&XL.k.`.&X&X&X&X&X&XD.e.e.#.8.W .X$X#Xt       ",
"      y a T.w h C C C /.&X&X&X&X&X#Xl k ~ &X&X&X&X&X&XN.C C Z C 5 p a T.=       ",
"      r u i 0 B D D D _.&X&X&X&X&X@X4.4.c.&X&X&X&X&X&XH.D D D S h m.u y *       ",
"      9 q Q J S D D D _.&X&X&X&X&X@X7.7.b.&X&X&X&X&X&XH.D D D Z l ~ e * X       ",
"      o < B Z S D D D _.&X&X&X&X&X@X5.5.v.&X&X&X&X&X&XH.D S S S Z V s +         ",
"      . 3 Z Z S S D D _.&X&X&X&X&X@X] 4.c.&X&X&X&X&X&XG.S S S S S S l +         ",
"      . 3 S S S S S S U.&X&X&X&X&X@XD 4.c.&X&X&X&X&X&XN.S S S S S S k +         ",
"      . 3 S Z S S S S B.&X&X&X&X&X@XD D z.&X&X&X&X&X&X^ S S S S S S k +         ",
"      . 2 S Z Z S S S z.&X&X&X&X&X&XK S x.&X&X&X&X&X@XS S S S S S S k +         ",
"      . 2 Z C Z Z Z S Z XX&X&X&X&X&X'.N. X&X&X&X&X&XE.Z Z Z Z S S Z k +         ",
"      . 1 Z C C Z Z Z Z M.&X&X&X&X&X&X&X&X&X&X&X&X+XL Z Z Z Z Z Z Z j +         ",
"      . 1 C C C Z Z C C C Z.&X&X&X&X&X&X&X&X&X&X#Xx.C C C C C Z Z Z g +         ",
"      . > C l C C C l l C C M.XX&X&X&X&X&X&X&X Xl.C C C C C C C C C f O         ",
"      . > l l l l l l l l C C C ~ B.S.R.S.B.~ l l l l l l l C C l C f O         ",
"      . > l l l l l l l l l l C l l l l l l l l l l l l l l l l l l 4 o         ",
"      . > k k k k k l k k l l l l l l l l l k k k k k k l l k k k k 2 .         ",
"      . : g j j j j k j k k k k k j j k j j j j j j j j j j j g j g , .         ",
"      . : g g g g g g g g g g g g g g j g g g g g g g g j g g g g g :           ",
"      . ; f f f f f g g g g g g g g g g g g g g g g g g g g g f f f ;           ",
"      . - 4 4 4 4 4 f f f f f f f f f f f f f f f f f f f f f 4 4 4 -           ",
"        + 2 4 4 4 4 4 4 4 4 4 4 4 4 4 4 4 4 4 4 4 4 4 4 4 4 4 4 3 2 $           ",
"        . - 2 3 3 3 3 3 3 3 3 3 2 2 3 3 3 3 3 3 3 3 3 3 3 3 2 2 1 ; o           "
};
