/* XPM */
static char *_[] = {
/* columns rows colors chars-per-pixel */
"40 44 201 2 ",
"   c #000000",
".  c #0B0200",
"X  c #0D0B0B",
"o  c #120101",
"O  c #1D0301",
"+  c #240401",
"@  c #2A0302",
"#  c #2A0109",
"$  c #340501",
"%  c #231617",
"&  c #331B1E",
"*  c #332826",
"=  c #3B3636",
"-  c #450A01",
";  c #520D01",
":  c #5A0E01",
">  c #5D1001",
",  c #650F01",
"<  c #770609",
"1  c #651101",
"2  c #6C1201",
"3  c #721201",
"4  c #7D1301",
"5  c #761908",
"6  c #610218",
"7  c #591F29",
"8  c #741E27",
"9  c #402623",
"0  c #7D2C21",
"q  c #703634",
"w  c #7B3C31",
"e  c #584945",
"r  c #575353",
"t  c #665E5A",
"y  c #6C665C",
"u  c #74695C",
"i  c #7C6A64",
"p  c #7F7E78",
"a  c #8C0B04",
"s  c #93030D",
"d  c #831401",
"f  c #8C1600",
"g  c #861508",
"h  c #911701",
"j  c #941801",
"k  c #9C1A01",
"l  c #991509",
"z  c #8A041D",
"x  c #950114",
"c  c #971F1E",
"v  c #AD0F03",
"b  c #A2050B",
"n  c #B30B03",
"m  c #BC0D06",
"M  c #B7090B",
"N  c #A81604",
"B  c #A31B01",
"V  c #AC1C01",
"C  c #BA1603",
"Z  c #B31D00",
"A  c #BC1F00",
"S  c #B60911",
"D  c #BB011A",
"F  c #B4091A",
"G  c #9D2310",
"H  c #A62209",
"J  c #B2331D",
"K  c #850022",
"L  c #8E1D29",
"P  c #A5082C",
"I  c #B90526",
"U  c #BC192F",
"Y  c #AC1C31",
"T  c #BC1A31",
"R  c #90302F",
"E  c #973E2F",
"W  c #A13729",
"Q  c #BA3B24",
"!  c #C90E00",
"~  c #CC0F0E",
"^  c #DB0C05",
"/  c #DE0508",
"(  c #DD0A0B",
")  c #C71402",
"_  c #CA1502",
"`  c #C51D02",
"'  c #CB1C03",
"]  c #D41503",
"[  c #DB1404",
"{  c #D21B03",
"}  c #DA1B03",
"|  c #DF0A12",
" . c #DE001A",
".. c #C51516",
"X. c #CB1214",
"o. c #D41C1D",
"O. c #E40406",
"+. c #E40B04",
"@. c #E5030B",
"#. c #E8010F",
"$. c #E30A0C",
"%. c #E31503",
"&. c #E21208",
"*. c #E50214",
"=. c #E80315",
"-. c #E20913",
";. c #E6061B",
":. c #E9051B",
">. c #E70A1B",
",. c #E8091C",
"<. c #C32001",
"1. c #C92102",
"2. c #C9240B",
"3. c #D22404",
"4. c #CA2B14",
"5. c #CA2619",
"6. c #DA2414",
"7. c #C6341D",
"8. c #CD321C",
"9. c #D9301F",
"0. c #C9092C",
"q. c #DD022A",
"w. c #C1142F",
"e. c #D11C28",
"r. c #C41231",
"t. c #C81632",
"y. c #C21A31",
"u. c #E70320",
"i. c #E30422",
"p. c #E70521",
"a. c #E70326",
"s. c #E90523",
"d. c #E70821",
"f. c #E80822",
"g. c #E2052A",
"h. c #CB252C",
"j. c #C93427",
"k. c #CB3A2A",
"l. c #CD3C31",
"z. c #AC412F",
"x. c #B44C39",
"c. c #C34027",
"v. c #CA432B",
"b. c #D04228",
"n. c #CC4432",
"m. c #CC4D3A",
"M. c #825A4E",
"N. c #AC5043",
"B. c #BD5847",
"V. c #B66558",
"C. c #9E5C6C",
"Z. c #AE5968",
"A. c #B36E64",
"S. c #B9776D",
"D. c #A27A73",
"F. c #BB7D74",
"G. c #CE554D",
"H. c #CB5F54",
"J. c #C2614F",
"K. c #C36554",
"L. c #C96457",
"P. c #CB645A",
"I. c #D4685A",
"U. c #CB6C62",
"Y. c #C87368",
"T. c #C27C70",
"R. c #D57C77",
"E. c #83807C",
"W. c #C6857C",
"Q. c #D6847E",
"!. c #CB7C80",
"~. c #8F8985",
"^. c #9A8F8A",
"/. c #98938C",
"(. c #A08D88",
"). c #BF8B83",
"_. c #A09695",
"`. c #ACA19F",
"'. c #C48B83",
"]. c #CA8B85",
"[. c #D48B87",
"{. c #D1928F",
"}. c #CB9997",
"|. c #D49C99",
" X c #CEA19F",
".X c #CCA7A7",
"XX c #CEACAC",
"oX c #C5B1A9",
"OX c #CBB6B7",
"+X c #CFB9B5",
"@X c #CCB9BA",
"#X c #CDBFC2",
"$X c #CDC2C5",
"%X c #CEC6CA",
"&X c #CEC9CB",
"*X c #D2CACB",
"=X c #CFCCD1",
"-X c #CFCED3",
";X c #DDDCD8",
":X c #E1DDD9",
">X c #E1E3DD",
/* pixels */
"        o 6 P r.w.w.w.w.y.y.y.U U U T T T T T T T T y.y.y.y.t.r.I K #           ",
"      . 6 0.g.g.a.a.a.p.p.p.p.p.p.p.a.a.u.u.a.a.a.a.;.;.a.u.p.a.q.q.z .         ",
"      o z g.a.s.f.d.d.,.,.,.;.;.;.;.;.;.:.:.:.;.;.;.;.;.;.,.p.p.i.q.I O         ",
"      o x a.i.;.>.>.:.:.=.=.=.=.=.=.=.=.=.=.=.=.=.=.=.=.=.:.,.;.i.i.I #         ",
"      o x :.;.-.=.=.=.=.=.=.=.=.=.=.=.=.=.=.=.=.=.=.=.=.=.=.=.=.*. .D +         ",
"      o x :.*.*.#.@.@.#.*.*.*.*.*.*.*.*.$.$.$.$.$.#.*.*.*.=.=.*.*.*.D +         ",
"      o s *.@.@.O.O.@.@.$.$.&.&.&.&.&.%.%.%.%.%.%.+.@.*.*.*.*.=.-.-.D +         ",
"      o s *.O.+.O./ / [ } } [ 9.I.[.|.|.|.Q.I.6.%.[ ^ / *.=.-.-.-.| S +         ",
"      o s $.+.+.$.^ [ { { 6.[.-X-X-X-X-X-X-X-X&XR.} [ [ $.=.-.-.$.| S +         ",
"      o s [ [ [ [ ] { ' 3..X-X-X-X-X-X-X-X-X-X-X-X{.[ ] [ ( -./ ^ ( M +         ",
"      o s [ } [ { ' ' ' Y.-X-X-X-X-X-X-X-X-X-X-X-X-XG.{ ] ] ^ ^ ^ ^ M +         ",
"      o a ] } } { ' ' ' @X-X-X-X-X-X].l..X-X-X-X-X-X X' ' _ ] ^ ] ^ M +         ",
"      o a { } { { ' ' 8.-X-X-X-X-X-Xk.! P.-X-X-X-X-X&X' ' ' { ] ] [ n +         ",
"      o a { { { { ' ' n.-X-X-X-X-X-Xj.! H.-X-X-X-X-X-X4.' ' ' { { ] n +         ",
"      o a ' { { { ' ' m.-X-X-X-X-X-Xj.) L.-X-X-X-X-X-X7.' ' ' ' ' ] n @         ",
"      o f ' { { { ' ' n.-X-X-X-X-X-Xj._ L.-X-X-X-X-X-X4.` 1.' ' ' ' n @         ",
"      o f ' ' ' ' ' ' 4.-X-X-X-X-X-Xn._ U.-X-X-X-X-X$X` ` 1.' ' ` ' v @         ",
"      o a ' ' ` ' ' ' ' .X-X-X-X-X-X|.H.@X-X-X-X-X-X].` ` <.1.' ` _ n $         ",
"      . < m C ` ' ' ' ' n.%X-X-X-X-X-X-X-X-X-X-X-X#X7.` ` ` 1.' ` m b @         ",
"      % 7 L l C ' ' ' ' ' k. X-X-X-X-X-X-X-X-X-X}.7.` ' ` ` ' ` N c 8 & X       ",
"      i ^.(.R v ` ` ` ` 7.XX-X-X-X-X-X-X-X-X-X-X-X|.2.` ` ` ` ) l D./.~.=       ",
"      `.>X:XZ.F .........X-X-X-X-X-X-X-X-X-X-X-X-X-X!.X.X.X.~ ~ c +X>X;Xr       ",
"      _.&X*XC.Y h.h.h.G.-X-X-X-X-X-X#X}.%X-X-X-X-X-X%Xh.e.e.o.5.R oX*X&Xr       ",
"      t p E.q g B B B V.-X-X-X-X-X-XN.j A.-X-X-X-X-X-Xz.B B V B 5 i p E.=       ",
"      e y u 0 N A A A W.-X-X-X-X-X-Xc.<.K.-X-X-X-X-X-XJ.A A A Z g M.y t *       ",
"      9 w E G Z A A A ].-X-X-X-X-X-Xb.3.I.-X-X-X-X-X-XJ.A A A V k W w * X       ",
"      o < N V Z A A A ].-X-X-X-X-X-Xv.1.P.-X-X-X-X-X-XK.A Z Z Z V N a +         ",
"      . 3 V V Z Z A A '.-X-X-X-X-X-Xc.<.L.-X-X-X-X-X-XK.Z Z Z Z Z Z k +         ",
"      . 3 Z Z Z Z Z Z '.-X-X-X-X-X-Xc.<.K.-X-X-X-X-X-XB.Z Z Z Z Z Z j +         ",
"      . 3 Z V Z Z Z Z T.-X-X-X-X-X-XQ A K.-X-X-X-X-X-XB.Z Z Z Z Z Z j +         ",
"      . 2 Z V V Z Z Z V.-X-X-X-X-X-Xx.Z Y.-X-X-X-X-X-XQ Z Z Z Z Z Z j +         ",
"      . 2 V B V V V Z J -X-X-X-X-X-XOXW.%X-X-X-X-X-XOXV V V V Z Z V j +         ",
"      . 1 V B B V V V V '.-X-X-X-X-X-X-X-X-X-X-X-X-XV.V V V V V V V h +         ",
"      . 1 B B B V V B B H .X-X-X-X-X-X-X-X-X-X-X-X).B B B B B V V V f +         ",
"      . > B k B B B k k B H F.$X-X-X-X-X-X-X-X@XV.B B B B B B B B B d O         ",
"      . > k k k k k k k k B B H x.V.S.F.S.V.z.k k k k k k k B B k B d O         ",
"      . > k k k k k k k k k k B k k k k k k k k k k k k k k k k k k 4 o         ",
"      . > j j j j j k j j k k k k k k k k k j j j j j j k k j j j j 2 .         ",
"      . : f h h h h j h j j j j j h h j h h h h h h h h h h h f h f , .         ",
"      . : f f f f f f f f f f f f f f h f f f f f f f f h f f f f f :           ",
"      . ; d d d d d f f f f f f f f f f f f f f f f f f f f f d d d ;           ",
"      . - 4 4 4 4 4 d d d d d d d d d d d d d d d d d d d d d 4 4 4 -           ",
"        + 2 4 4 4 4 4 4 4 4 4 4 4 4 4 4 4 4 4 4 4 4 4 4 4 4 4 4 3 2 $           ",
"        . - 2 3 3 3 3 3 3 3 3 3 2 2 3 3 3 3 3 3 3 3 3 3 3 3 2 2 1 ; o           "
};
