/* XPM */
static char *_[] = {
/* columns rows colors chars-per-pixel */
"42 42 210 2 ",
"   c None",
".  c #8D220F",
"X  c #972C18",
"o  c #8C3914",
"O  c #9E3313",
"+  c #99381A",
"@  c #A52C10",
"#  c #A13B17",
"$  c #B73F18",
"%  c #A13A22",
"&  c #8A4313",
"*  c #9B4C1B",
"=  c #9A431A",
"-  c #A64B1F",
";  c #AA4C1E",
":  c #BE4A16",
">  c #A35519",
",  c #9D6C1E",
"<  c #AB6A1E",
"1  c #BF6714",
"2  c #9E4523",
"3  c #974738",
"4  c #A84528",
"5  c #A55623",
"6  c #BF542B",
"7  c #AA5636",
"8  c #9F6032",
"9  c #B96726",
"0  c #A97325",
"q  c #C25A15",
"w  c #CF6A1D",
"e  c #D26110",
"r  c #DB7B16",
"t  c #DB7D1C",
"y  c #D8751D",
"u  c #EC6E08",
"i  c #F16E0E",
"p  c #EE7405",
"a  c #EC7409",
"s  c #EC7D0C",
"d  c #E7770B",
"f  c #F37A04",
"g  c #F37B0F",
"h  c #F47105",
"j  c #EB6D11",
"k  c #E0681D",
"l  c #EB7415",
"z  c #E47B16",
"x  c #EA7B14",
"c  c #E47C1C",
"v  c #E8761B",
"b  c #D06228",
"n  c #C6792D",
"m  c #DB7225",
"M  c #D47E22",
"N  c #DC7D24",
"B  c #DB772B",
"V  c #D67B2B",
"C  c #DB7C2D",
"Z  c #CE6F30",
"A  c #D47B33",
"S  c #D37D39",
"D  c #D97834",
"F  c #C9702E",
"G  c #E17A23",
"H  c #EA7C23",
"J  c #E5752B",
"K  c #E27C34",
"L  c #A55A48",
"P  c #B87848",
"I  c #BC7C53",
"U  c #AE7371",
"Y  c #C97745",
"T  c #D77D46",
"R  c #D17F51",
"E  c #B18615",
"W  c #DB801E",
"Q  c #C78319",
"!  c #EE830C",
"~  c #EC8A09",
"^  c #F08906",
"/  c #F88904",
"(  c #F4840A",
")  c #F98D09",
"_  c #F68608",
"`  c #E9950C",
"'  c #FA9305",
"]  c #FA9C06",
"[  c #F79B0C",
"{  c #F99B0B",
"}  c #F79707",
"|  c #E58B1E",
" . c #EA8817",
".. c #F18615",
"X. c #F58813",
"o. c #ED921C",
"O. c #E3951A",
"+. c #F49614",
"@. c #F69E14",
"#. c #F99A15",
"$. c #CDB91C",
"%. c #D5B61A",
"&. c #F6A406",
"*. c #F9A306",
"=. c #FBA907",
"-. c #FBA20A",
";. c #F5AD0C",
":. c #F9AE0B",
">. c #F6A609",
",. c #E4B80F",
"<. c #F5B30C",
"1. c #FAB60E",
"2. c #E8A91A",
"3. c #F6A715",
"4. c #EAB617",
"5. c #F5B313",
"6. c #F6BA13",
"7. c #F7B31A",
"8. c #F6BD1C",
"9. c #FABC19",
"0. c #FAB816",
"q. c #C2892F",
"w. c #D2812A",
"e. c #DE862A",
"r. c #DE9526",
"t. c #DF9B2F",
"y. c #C18333",
"u. c #C98739",
"i. c #DB8535",
"p. c #D3813B",
"a. c #D88535",
"s. c #C99939",
"d. c #D79C32",
"f. c #E88728",
"g. c #E49B22",
"h. c #F59220",
"j. c #D9A428",
"k. c #DAB32B",
"l. c #D6B526",
"z. c #DCBB38",
"x. c #D8AD3A",
"c. c #EBA62A",
"v. c #F2AD24",
"b. c #E2B52B",
"n. c #E8B32D",
"m. c #F4B223",
"M. c #F6BD24",
"N. c #F4AD37",
"B. c #E7B237",
"V. c #E2C40D",
"C. c #FAC91D",
"Z. c #F9C51A",
"A. c #EBDB1C",
"S. c #F6D11F",
"D. c #FBDE1D",
"F. c #F7F50F",
"G. c #F9EF1C",
"H. c #F5E51B",
"J. c #F7F214",
"K. c #FBF516",
"L. c #FCF916",
"P. c #F5F61C",
"I. c #FAF51B",
"U. c #FCFA1A",
"Y. c #F7FA1A",
"T. c #DDC527",
"R. c #F4C225",
"E. c #FBCC24",
"W. c #FCCC29",
"Q. c #F7C627",
"!. c #EBD724",
"~. c #E7D628",
"^. c #FBD426",
"/. c #F7DA22",
"(. c #FCD926",
"). c #F6D42C",
"_. c #FBD52A",
"`. c #F9D92A",
"'. c #F5D628",
"]. c #F6CB35",
"[. c #FADB32",
"{. c #F7D932",
"}. c #E3C827",
"|. c #F9E425",
" X c #F5EB24",
".X c #FAEC23",
"XX c #F5E026",
"oX c #FAF523",
"OX c #FCF821",
"+X c #EEE530",
"@X c #F7EB37",
"#X c #BF8941",
"$X c #B58972",
"%X c #CD8442",
"&X c #CC874B",
"*X c #C98C4F",
"=X c #D48243",
"-X c #D4854D",
";X c #D28A4C",
":X c #C2845F",
">X c #CA865B",
",X c #C58656",
"<X c #DCB345",
"1X c #EDBF4D",
"2X c #C59461",
"3X c #B87C80",
"4X c #BE9E86",
"5X c #D3ABB2",
"6X c #DDB8BC",
"7X c #DEC3BD",
/* pixels */
"                                                                                    ",
"                                          ;X;X&X>X>X:X                              ",
"                                      ;Xf.o.f.D ,X  :X                              ",
"                                    B  . .t =X                                      ",
"                                  A o.v.w.                                          ",
"                                *Xr.m.c.%X                                          ",
"                                t.7.@.t                                             ",
"                              d.Q.5._ N                                             ",
"                            #Xc.W.8.+.M                                             ",
"                              a.3.<.0.o.p.                                          ",
"                                a.` 3.g j T                                         ",
"                                  A +.) f d A                                       ",
"                                    t ' *.^ j                                       ",
"                                    y f -.} f C                                     ",
"                                    v ^ >.:.' x *X                                  ",
"                              w.D J i ] ;.9.] ^ w.                                  ",
"                            B a p ( ) -.<.9.*.' z                                   ",
"                          J i h / -.*.;.Z.C.1.-.! K                                 ",
"                        %Xj h / ] =.;.Z.^.^.E.6.[ v R                               ",
"                        G ( ' -.:.9.C.^.^.^.^.Z.*._ J                               ",
"                      V ! -.9.E.W.^.^.(.(.^.^.^.6.] s C                             ",
"                    &Xz ~ 1.E.).`.^.^.^.E.^.(._.^.6.{ ( i.                          ",
"                    N x g.).).).^././.S.,./.`.`.S.W.7.r w -                         ",
"                  -XH m ; y.k.{.4.4.H.I.J.G.|.[.).].q.L O k =X                      ",
"                  C ..m 3 3XI r.2.4. XY.L.U.OX.X{.s.$X7X3 H c ;X                    ",
"                  N #.O.P 5X6X7 b. XP.L.L.L.L.J.@X8 5X4Xn h.u S                     ",
"                  e.[ 5.b.P U 3 5 E A.U.U.U.K.$.0 + L q.R.[ u A                     ",
"                p.d -.<.(.j.Q k.l.%.H.U.U.L.U.~.%.l.l.'.Z.[ p A                     ",
"                V p -.C.(.2.,.I.J.K.L.L.U.U.L.I.K.J.P./.C.[ a S                     ",
"                V p ] 6._.4.V.K.K.K.I.I.U.U.L.K.J.I.I.|.E.3...n                     ",
"                A a ] <.^.XXG.K.G.!. XOXOXU.U.U.oX~.}.).Q.@.e 5                     ",
"                  W { <.^.`..XK.+X, s.T.oXU.U.OX~.> o B.R.| $ Y                     ",
"                  N ..| ]._.D.oXl.o 5 0 l.oXU.@X0 2 X n 2.e.%                       ",
"                  %Xb O 9 j.M.N.- < ~.z.& k.@Xz.& u.n O e.q 7                       ",
"                  2XZ : # = a.b X x.I.!.9 0 <X* > B.1X+ 4 @ Y                       ",
"                    T f.| 1 9 + . M 5.|.z.2 4 * B.8.m.w : 6                         ",
"                      G X.#. .r e.c.~ ` g.d.d.n.8.>.] ( J                           ",
"                      =Xz _ { -.3.5.7.m.M.W.Z.:.>.-.( G                             ",
"                        p.c s ) ] *.:.<.<.=.] ' ~ c K                               ",
"                            S v s ^ { ] ] / g x y                                   ",
"                                p.l l l l l =X                                      ",
"                                                                                    "
};
