/* XPM */
static char *_[] = {
/* columns rows colors chars-per-pixel */
"42 42 221 2 ",
"   c None",
".  c #842A0F",
"X  c #8F3813",
"o  c #923910",
"O  c #963C1C",
"+  c #822A17",
"@  c #A93A17",
"#  c #9B3E37",
"$  c #9C4E16",
"%  c #97471C",
"&  c #9B5319",
"*  c #BC4B11",
"=  c #AA5C1F",
"-  c #BB5B13",
";  c #A84D18",
":  c #9C6713",
">  c #AC7519",
",  c #B17E1D",
"<  c #944429",
"1  c #9A4723",
"2  c #9F5020",
"3  c #A25A24",
"4  c #B75423",
"5  c #B15333",
"6  c #A66121",
"7  c #B87828",
"8  c #BB7B34",
"9  c #C95316",
"0  c #D75B0C",
"q  c #C7600F",
"w  c #CA6D13",
"e  c #D06611",
"r  c #C97B1F",
"t  c #DD751B",
"y  c #DD7B1A",
"u  c #ED6F0D",
"i  c #F66F07",
"p  c #F96C05",
"a  c #F36E0B",
"s  c #F46709",
"d  c #ED730C",
"f  c #ED7C0C",
"g  c #E97509",
"h  c #F37305",
"j  c #F2720B",
"k  c #F27A0A",
"l  c #F67B04",
"z  c #EE6F14",
"x  c #E96A15",
"c  c #F26E16",
"v  c #E67612",
"b  c #EA7312",
"n  c #EC7915",
"m  c #EB741D",
"M  c #EA781B",
"N  c #E57B1A",
"B  c #CA6823",
"V  c #DE6E22",
"C  c #C57821",
"Z  c #DE7625",
"A  c #DF7926",
"S  c #D6742A",
"D  c #DE7C2C",
"F  c #D87829",
"G  c #C47434",
"H  c #D57C34",
"J  c #DC7C32",
"K  c #D37C3A",
"L  c #D97938",
"P  c #D76B35",
"I  c #E06F24",
"U  c #E27523",
"Y  c #E97121",
"T  c #E27A25",
"R  c #BB6D41",
"E  c #B47C50",
"W  c #A96766",
"Q  c #B67C62",
"!  c #C97F41",
"~  c #D37D42",
"^  c #D27C4C",
"/  c #B9961B",
"(  c #BB8733",
")  c #BA8426",
"_  c #DC891E",
"`  c #EC870E",
"'  c #F68106",
"]  c #F98405",
"[  c #F48907",
"{  c #F5840D",
"}  c #F9830E",
"|  c #F48B0A",
" . c #F98C0A",
".. c #F98B06",
"X. c #E9970C",
"o. c #FC9406",
"O. c #FA9C06",
"+. c #F5930C",
"@. c #F8930B",
"#. c #F69A0A",
"$. c #F69706",
"%. c #E48413",
"&. c #EA811A",
"*. c #E98A13",
"=. c #F48D11",
"-. c #ED9C13",
";. c #E89819",
":. c #F19316",
">. c #FB9513",
",. c #F59C12",
"<. c #F49C1B",
"1. c #E2A30F",
"2. c #FBA106",
"3. c #F6A40B",
"4. c #FAA40B",
"5. c #F6AB0C",
"6. c #FAAC0E",
"7. c #F4A007",
"8. c #F2B20D",
"9. c #F9B20C",
"0. c #F7B90C",
"q. c #E5A817",
"w. c #F9A114",
"e. c #F6AD15",
"r. c #FAAC12",
"t. c #F2A617",
"y. c #F4B211",
"u. c #FAB414",
"i. c #F4B912",
"p. c #FABC15",
"a. c #FBBD1B",
"s. c #C38823",
"d. c #D9822B",
"f. c #D58429",
"g. c #CE9324",
"h. c #C8992A",
"j. c #DE9C20",
"k. c #CF8435",
"l. c #C8893C",
"z. c #D3833A",
"x. c #DC8A3C",
"c. c #C79439",
"v. c #D59337",
"b. c #D89735",
"n. c #E29B2B",
"m. c #E99823",
"M. c #F19822",
"N. c #E38526",
"B. c #CDAF2F",
"V. c #D2AB2A",
"C. c #D5B12C",
"Z. c #D0AF31",
"A. c #E4A526",
"S. c #E5B723",
"D. c #EAB525",
"F. c #EDBA2B",
"G. c #FABD25",
"H. c #F2B623",
"J. c #E4AA3B",
"K. c #E5B432",
"L. c #F4C41D",
"P. c #F9CC1D",
"I. c #F9C41C",
"U. c #EFE319",
"Y. c #F9E21B",
"T. c #F5EE1E",
"R. c #FBEB1D",
"E. c #F5E11B",
"W. c #FAF416",
"Q. c #F6F913",
"!. c #FDFA16",
"~. c #F7F31B",
"^. c #FAF51A",
"/. c #FCFA1A",
"(. c #F7F718",
"). c #D9C42A",
"_. c #E9CB2C",
"`. c #FCC523",
"'. c #FBCB23",
"]. c #F4C42A",
"[. c #F9C32D",
"{. c #FACD2A",
"}. c #F4CC23",
"|. c #ECDD21",
" X c #EADA2A",
".X c #E9D524",
"XX c #F6D225",
"oX c #FDD326",
"OX c #F6DF23",
"+X c #F7D72B",
"@X c #FBD42A",
"#X c #F7DC29",
"$X c #FBDA2B",
"%X c #FBDC26",
"&X c #E0C232",
"*X c #F7C634",
"=X c #FAD330",
"-X c #F5E226",
";X c #F6ED23",
":X c #FAEF24",
">X c #FBE329",
",X c #FAF223",
"<X c #FCF330",
"1X c #BD8579",
"2X c #CF8646",
"3X c #CA8842",
"4X c #CB864C",
"5X c #CB8B4C",
"6X c #C38640",
"7X c #D38443",
"8X c #D0834B",
"9X c #DA8346",
"0X c #CF9742",
"qX c #CA8755",
"wX c #D38852",
"eX c #EAC640",
"rX c #F2DF44",
"tX c #B67C83",
"yX c #CEAAA3",
"uX c #DDC0C1",
"iX c #E2C7C8",
/* pixels */
"                                                                                    ",
"                                                                                    ",
"                                                                                    ",
"                                      z.m.m.n.;.F.A.v.                              ",
"                        5X            b.m.x.  v.D.y.:.z.                            ",
"                        v.0X        8Xk.        c.*Xe._                             ",
"                          b.3X      qXqX          J.G.;.!                           ",
"                          qX!                   8Xb =.M.l.                          ",
"                                                H j } f 3X                          ",
"                                              9Xy X.t.g 3X                          ",
"                                            J b +.5.H.y qX                          ",
"                                          Y s h #.e.<.z.                            ",
"                                      wXm j { $.9.,.h J                             ",
"                                    U c h  .3.y.,.i s K                             ",
"                                  M l ..O.4.r.G.{ p b                               ",
"                                Z ' $.6.i.'.a.+.i i a L                             ",
"                              7Xn  .6.`.+X@XP.u. .h s c ^                           ",
"                            2Xv k r.'.@X@X@X@XoXr.] h i Z                           ",
"                            J d ,.`.{.a.a.'.@X@Xi.3. .h u 8X                        ",
"                          ~ z g r.oXa.6.5.a.oX@X}.I.2.] h Z                         ",
"                          K h | 3.a.u.I.'.'.@X@X@X'.6.O.| j B                       ",
"                          S 0 *.r.a.{.@XoXoXoXoX@XoXa.4.%.9 4                       ",
"                        4Xx @ 4 C *X@X@X@XoXoXoX@X@X+Xn.R # P 4X                    ",
"                        U s @ tX1Xc.{.+XOXR.R.Y.#X+XK.E uXW U D                     ",
"                      wXz } d.Q iXQ C _.T././.Q.T._.c.W yXG :.v 7X                  ",
"                      5Xv @.t.J.5 < O 6  X/.!.!.;X> & < 6Xq.,.l D                   ",
"                      5X%.#.8.P.q.S.|.|.~.!././.Q.U.|..X}.I.3. .d.                  ",
"                      k.` 3.`.[.1.:XQ.Q.Q.!.!.!.!.!./.R.%X@X6.@.F                   ",
"                      t [ 3.'.[.1.,X^.^.^.W.!.!./././.,X>XoX8.*.9 ^                 ",
"                      T >.3.`.].1.~.;X/ ).U./.!./.^.).: g.XXD.- V ^                 ",
"                    5X&.w.X.H.+XE.W._.1 2 ,  X^.Q. X& + = ].K.@ Y ~                 ",
"                    A k w.- B A.#X<X7 $ &XB.>  X:Xh.3 0Xo v.f.* I                   ",
"                    N ..w.w ; X b.eX= Z.^..X$ ( Z.o ) rX7 5 @ N.H                   ",
"                    d.#.6.L.].g.8 1 . C.W./.h.1 % s.-XOXj.w e M ~                   ",
"                    4X&.@.6.i.P.F.r q S.~.!..XV.C.-XY.P.p.2.' U                     ",
"                        b l o.4.0.P.-.X.L.Y.R.T.-X$XP.9.3.>.N                       ",
"                          U n  .2.p.{.[.-.*.t.XX@X=X{.u.$.k S                       ",
"                            H u  .r.'.$X@X{.`.a.a.p.3.O.=.d.                        ",
"                              L M { 3.p.a.u.2.4.3.7.[ f S                           ",
"                                  J d ` [ o.o.' f f t K                             ",
"                                        A d d x 2X                                  ",
"                                                                                    "
};
