/* XPM */
static char *_[] = {
/* columns rows colors chars-per-pixel */
"42 42 229 2 ",
"   c None",
".  c #008E05",
"X  c #009504",
"o  c #009C03",
"O  c #07940B",
"+  c #01A302",
"@  c #01AB02",
"#  c #0AAD03",
"$  c #0BAB0B",
"%  c #0BA409",
"&  c #12AF0E",
"*  c #15A904",
"=  c #02B303",
"-  c #00BB03",
";  c #0CB606",
":  c #14B50B",
">  c #14B909",
",  c #17AA16",
"<  c #1DB717",
"1  c #22AF04",
"2  c #29B90A",
"3  c #23AF1F",
"4  c #25BE15",
"5  c #22B51E",
"6  c #24BA19",
"7  c #2ABE1C",
"8  c #28BF14",
"9  c #34BD05",
"0  c #25B221",
"q  c #2AB425",
"w  c #2DB329",
"e  c #32B92B",
"r  c #3BBD33",
"t  c #35B930",
"y  c #41BF3B",
"u  c #01C502",
"i  c #01CC03",
"p  c #0CC80A",
"a  c #13C70A",
"s  c #01D304",
"d  c #01DB03",
"f  c #06D009",
"g  c #0AD40C",
"h  c #0BDF0B",
"j  c #07D908",
"k  c #1AD70B",
"l  c #11D910",
"z  c #1CCB17",
"x  c #35CA0A",
"c  c #25C213",
"v  c #29C518",
"b  c #32C715",
"n  c #3ACC13",
"m  c #31C419",
"M  c #3ACA17",
"N  c #26DC17",
"B  c #35D30B",
"V  c #01E304",
"C  c #01ED03",
"Z  c #0CEC0C",
"A  c #01F205",
"S  c #02F408",
"D  c #0BF40E",
"F  c #0DEE10",
"G  c #12EC14",
"H  c #1CED1B",
"J  c #14EA15",
"K  c #0EF411",
"L  c #14F515",
"P  c #17F519",
"I  c #1BF51B",
"U  c #15FA19",
"Y  c #1DF91D",
"T  c #14FA17",
"R  c #14E20D",
"E  c #20F81E",
"W  c #33EA15",
"Q  c #2BC621",
"!  c #38CA28",
"~  c #3DD122",
"^  c #34D72A",
"/  c #3CC433",
"(  c #3ECD32",
")  c #3BD432",
"_  c #29D023",
"`  c #24FA23",
"'  c #2BFA2A",
"]  c #27F726",
"[  c #33FC2F",
"{  c #37F028",
"}  c #35FD33",
"|  c #3AFC32",
" . c #3EFE3A",
".. c #45CA0E",
"X. c #5ACC09",
"o. c #58CD07",
"O. c #4BDA0D",
"+. c #57CD16",
"@. c #44D214",
"#. c #41DA13",
"$. c #44D41C",
"%. c #47D81A",
"&. c #57D81D",
"*. c #70DB1D",
"=. c #43E60B",
"-. c #44E611",
";. c #56E51C",
":. c #4EF015",
">. c #51F019",
",. c #69EB1B",
"<. c #43CD2F",
"1. c #42D520",
"2. c #4BDB2B",
"3. c #47D627",
"4. c #52DB29",
"5. c #41C237",
"6. c #44C83B",
"7. c #4ADC33",
"8. c #46DC3A",
"9. c #4CDF3B",
"0. c #42D733",
"q. c #56DA38",
"w. c #51CC3A",
"e. c #72DE2D",
"r. c #7CDF37",
"t. c #62DC3C",
"y. c #4CE12C",
"u. c #47EC29",
"i. c #52E52C",
"p. c #57E726",
"a. c #46F327",
"s. c #5AF328",
"d. c #4DE336",
"f. c #4DE33A",
"g. c #51E433",
"h. c #5BEB34",
"j. c #53E53C",
"k. c #52E93D",
"l. c #58EB3D",
"z. c #41FE3C",
"x. c #52FE34",
"c. c #79E934",
"v. c #68FD31",
"b. c #7CF430",
"n. c #63EE2C",
"m. c #4AC842",
"M. c #4CD644",
"N. c #54D649",
"B. c #5AC755",
"V. c #5EDF54",
"C. c #58CB4B",
"Z. c #71DA4E",
"A. c #61CD55",
"S. c #67D25A",
"D. c #66D854",
"F. c #54EC43",
"G. c #5CED46",
"H. c #5AEB4C",
"J. c #5AE644",
"K. c #4DFC42",
"L. c #5CF44B",
"P. c #59F848",
"I. c #5DEA50",
"U. c #5FF250",
"Y. c #68EA4A",
"T. c #75E944",
"R. c #61F342",
"E. c #64F64B",
"W. c #66F64D",
"Q. c #67E753",
"!. c #77E954",
"~. c #64F454",
"^. c #65F954",
"/. c #6BF35D",
"(. c #6DFA5C",
"). c #6BF755",
"_. c #72F65B",
"`. c #74FA5E",
"'. c #7DF455",
"]. c #69C965",
"[. c #73D667",
"{. c #7CD875",
"}. c #6BD561",
"|. c #6EEE61",
" X c #6FF460",
".X c #6FF960",
"XX c #75FB64",
"oX c #79FC65",
"OX c #7DFE6D",
"+X c #76F667",
"@X c #7FFE70",
"#X c #86E92D",
"$X c #8EE133",
"%X c #92EE32",
"&X c #94FC33",
"*X c #89FD39",
"=X c #A3F63E",
"-X c #96DD46",
";X c #92EE4B",
":X c #BCF24F",
">X c #BAEF50",
",X c #B5F657",
"<X c #A9ED53",
"1X c #8ADE7E",
"2X c #8CEC65",
"3X c #81FE6E",
"4X c #8AF069",
"5X c #82FE72",
"6X c #89F979",
"7X c #84EA78",
"8X c #B0EA62",
"9X c #C8FC5B",
"0X c #D8FA6D",
"qX c #E8FD65",
"wX c #EAFB76",
"eX c #94DE8C",
"rX c #98DD92",
"tX c #91EE85",
"yX c #9CF78C",
"uX c #9EE490",
"iX c #A6F59B",
"pX c #BAEAB3",
"aX c #EEFC83",
"sX c #F4FE84",
"dX c #F5FE8D",
"fX c #F6FE92",
"gX c #F9FE99",
"hX c #D3F0CF",
"jX c #CBECC8",
/* pixels */
"                                          6X6X                                      ",
"                                    3XOXOXOXOXOXOXOX5X                              ",
"                                  3XOX`.R.R.R.^.OXOXOXOX                            ",
"                            3X5XOXOXW.4X;.2XT.;.4XyXOXOX@X                          ",
"                        3XOXOXOXOX+Xj.Q.i.a.).!.;.T.R.`.OX@X                        ",
"                      3XOXXX/.F.f.2.%.@.O.O.,.W.a.i.p.4X5XOXOX                      ",
"                      OX+XF.9.$.n M 2.g.g.l.c.b.z.u.i.Y.h.oXOXOX                    ",
"                    oX Xf.1.n m 9.~._.Y.4.q.~.'.tX{ #.!.i.p.).OX5X                  ",
"                  OX/.j.1.2.~ H.2.&.X.o.X.X...0.H.^ k t.i.p.h.XXOX                  ",
"                  XXq.~ ! c f.Q 1 o.O.=.B B 9 2 4 H.N k n y.p.E.OX3X                ",
"                  G.D.! : v ! * B W | } ] G u # * ( |.l c @.i.p.XX3X                ",
"                OX0.m : : 8.= N [  . .z.z. .Y s + % 7XH.a b %.g.E.3X                ",
"                /.) 7 & 6 p R |  .z.z.z.z.z. .' f o / iX] k @.d.h.3X                ",
"              @XQ.6.< 0 = V &Xx. .} ' ` ] '  .z.' - % tX~.Z n 2.l.OX                ",
"            OXXXN.6 q @ s ' x.| H f - - d C D [  .J @ m.yXH v $.F.OX                ",
"            OXI.[.e ; - K U } h @ o o o @ u V D ` ' i & iXz c n d.OX                ",
"            XXN.pXM.f s V E F = o - i s s - @ @ i H G @ [.< : M y.OX                ",
"          5XH.6.eX~.j d %Xs.i - V V i - i V - . o i P - y , : M 2..X3X              ",
"          OX8.! 5.^ f x aX#X- C s o @ + o u i X @ i P u 0 $ # v 3.~.OX              ",
"          oXV.uXr 0 - +.dX*.i d X X d s + i s o - s D i + + # 8 1.~.OX              ",
"          XXM.S.5.w o +.qXx d - X s V d - u i @ u d Y i + + # m %.L.OX5X            ",
"           X) 6./ t o x &X- - o X G i @ = @ i = i V ` s @ i ; M 3.L.OX3X            ",
"           X) Q _ e o -XdXx = o . i L f i d i + - G ` i u d > m y.L.oX3X            ",
"          XX) {.6Xt X -XfX$Xi @ X X f P G u o + s ` L u d s > m f.L.oX3X            ",
"          OX8.4 ) / O +.qXaX=.s - o X + X X @ i P ' j u V u : n k.^.OX5X            ",
"            9.4 > B., n wXdX:.Y ` H g u - u d ` } K d V d ; 4 @.F.).OX              ",
"            J.7 rX].w a ,X*X[ `  . . .} ] ` } } T A C C u # c 3.L.oX3X              ",
"            I.}.hXjXB.6.k Y  . .} L Y ' ' Y L S A C A V - : n d.(.OX                ",
"            ~.<.A.B.q r = d L } } D V V V V V C V C C i i c @.L.OXOX                ",
"            _.$.C.# # 5 0 @ u V P Y T K S A C C C C -.-.k n y.(.OX                  ",
"            oX2.w.: {.5 ].+ o o - d V Z A C C S D >.0X=XB %.G.OX5X                  ",
"            OXl...4 / = e < + X . @ d d s ;.b.s.v.9XgX<X#.k.(.OX                    ",
"            OX~.&.n : - < 5 $ X . X @ h s.9XdXfXsXqX:X#Xg.~.OX5X                    ",
"              OXh.+.4 # = < 0 X X @ d h ,XsXdXdXsXwXr.Q.L.oXOX                      ",
"              5X(.2XuX6 ; : 5 3 , $ ) g e.fXwXqX;Xs.y.E.(.OX3X                      ",
"                OXR.!.~ c 7 m.0 q [.( v ! <X8X>Xp.!.K.K.OXOX                        ",
"                  OXp.g.$.3.m.< : / ! D.S.[.Z.4.k.P.5XOX3X                          ",
"                    `.E.L.d.~ w.m 1X~ M 3.q.j. XOXOX6X5X                            ",
"                    OXOXoX^.F.d.9.Q.d.f.F.U.6XOX5XOXOX                              ",
"                      3XOXOXXX^.^.^.^.^.(.OXOX3X3X                                  ",
"                          3XOXOXOXOXOXOXOX3X                                        ",
"                            5X5X5X                                                  "
};
