/* XPM */
static char *_[] = {
/* columns rows colors chars-per-pixel */
"42 42 230 2 ",
"   c None",
".  c #008E05",
"X  c #009404",
"o  c #009C02",
"O  c #07940A",
"+  c #129D13",
"@  c #00A302",
"#  c #02AA03",
"$  c #0AAD05",
"%  c #08A508",
"&  c #0DAC0B",
"*  c #08A606",
"=  c #17AC08",
"-  c #01B402",
";  c #0AB204",
":  c #01BB02",
">  c #0CBD05",
",  c #08B408",
"<  c #14B409",
"1  c #15B809",
"2  c #18AC15",
"3  c #15B313",
"4  c #19B414",
"5  c #1CBA11",
"6  c #1DB819",
"7  c #26B80A",
"8  c #24BC14",
"9  c #28BF13",
"0  c #22B41C",
"q  c #25BC1C",
"w  c #26B422",
"e  c #29B425",
"r  c #26B821",
"t  c #2FBB24",
"y  c #33B82D",
"u  c #32B52D",
"i  c #3BBC34",
"p  c #01C403",
"a  c #01CB03",
"s  c #06CE08",
"d  c #15C509",
"f  c #01D303",
"g  c #01DB03",
"h  c #0AD50A",
"j  c #09DC0B",
"k  c #07D708",
"l  c #1AD515",
"z  c #1ED51D",
"x  c #14D10C",
"c  c #26C609",
"v  c #38CB0C",
"b  c #27D907",
"n  c #2DC414",
"m  c #25C716",
"M  c #33C614",
"N  c #3BCB13",
"B  c #36CB1A",
"V  c #3CCD1C",
"C  c #39C512",
"Z  c #29D617",
"A  c #3BD513",
"S  c #01E403",
"D  c #01EC04",
"F  c #0DE20D",
"G  c #0AE90B",
"H  c #01F104",
"J  c #03F409",
"K  c #08F60C",
"L  c #0FEC11",
"P  c #14E914",
"I  c #0FF513",
"U  c #13F315",
"Y  c #17F619",
"T  c #1AF51B",
"R  c #1CFA1E",
"E  c #14F916",
"W  c #27E50B",
"Q  c #33E90A",
"!  c #39E711",
"~  c #2BEC19",
"^  c #2BC621",
"/  c #34CD22",
"(  c #38CA27",
")  c #3CD32B",
"_  c #3BC432",
"`  c #3BD331",
"'  c #37D230",
"]  c #1FFB21",
"[  c #23F523",
"{  c #25FA25",
"}  c #2DFB2B",
"|  c #2AF925",
" . c #35F92A",
".. c #34FD32",
"X. c #39FD36",
"o. c #3EFE3A",
"O. c #3AE233",
"+. c #47CA0A",
"@. c #5ACB08",
"#. c #57C908",
"$. c #4CDA06",
"%. c #58D20B",
"&. c #42C913",
"*. c #43D114",
"=. c #42D41C",
"-. c #49D914",
";. c #53D317",
":. c #51C916",
">. c #67CD1F",
",. c #59E81C",
"<. c #4DE818",
"1. c #46CF2C",
"2. c #44D623",
"3. c #4ADB24",
"4. c #49DE2D",
"5. c #46DB28",
"6. c #42C439",
"7. c #46CA3A",
"8. c #44DB36",
"9. c #4BD13C",
"0. c #49DD3D",
"q. c #48DA35",
"w. c #5CDB3F",
"e. c #5BDA22",
"r. c #79DD25",
"t. c #7FDF37",
"y. c #4DE12D",
"u. c #46EE26",
"i. c #55E624",
"p. c #52E62C",
"a. c #5AE728",
"s. c #48FC25",
"d. c #4DE334",
"f. c #4DE53B",
"g. c #44E73D",
"h. c #52E433",
"j. c #59E331",
"k. c #53E539",
"l. c #5AE23E",
"z. c #56EC39",
"x. c #41FE3D",
"c. c #49FD38",
"v. c #52F532",
"b. c #68EA38",
"n. c #72F12D",
"m. c #49C442",
"M. c #4AC845",
"N. c #54CB4C",
"B. c #54CB46",
"V. c #56DD4B",
"C. c #58D94C",
"Z. c #5CCC53",
"A. c #5CD452",
"S. c #62C85E",
"D. c #67D359",
"F. c #74DA5D",
"G. c #54E543",
"H. c #55EC44",
"J. c #5AEE4A",
"K. c #5BE747",
"L. c #5CF44B",
"P. c #5FF649",
"I. c #5EEB52",
"U. c #66EB46",
"Y. c #71ED48",
"T. c #6AF64F",
"R. c #63F94F",
"E. c #64F74B",
"W. c #63ED53",
"Q. c #6EE25B",
"!. c #79EA59",
"~. c #62F452",
"^. c #67FA56",
"/. c #68F954",
"(. c #6CF75A",
"). c #6DFB5C",
"_. c #6AF752",
"`. c #71F652",
"'. c #73F55E",
"]. c #77F65C",
"[. c #76D66B",
"{. c #7ADC6C",
"}. c #76D170",
"|. c #73CD6F",
" X c #6FF961",
".X c #72F662",
"XX c #75FC65",
"oX c #78FE67",
"OX c #7EF76E",
"+X c #77FC68",
"@X c #7DFE6D",
"#X c #7FFE70",
"$X c #75EE6A",
"%X c #82E435",
"&X c #9EF935",
"*X c #91EE32",
"=X c #9EE04C",
"-X c #8AE95E",
";X c #84F250",
":X c #A7F947",
">X c #BDEF5C",
",X c #B7F958",
"<X c #BAF64E",
"1X c #80DD62",
"2X c #83D879",
"3X c #81FE6F",
"4X c #88F068",
"5X c #80E176",
"6X c #82FE71",
"7X c #94ED74",
"8X c #CAF758",
"9X c #C1EF66",
"0X c #D4F964",
"qX c #EDFD6B",
"wX c #E8FE61",
"eX c #E4FA77",
"rX c #EAFD7A",
"tX c #F0FD79",
"yX c #8EF081",
"uX c #94F886",
"iX c #9EE196",
"pX c #9DF093",
"aX c #A5F699",
"sX c #BAEAB4",
"dX c #F5FE8B",
"fX c #F5FE82",
"gX c #F8FE95",
"hX c #F9FE9C",
"jX c #C0E8BE",
"kX c #D5F1D0",
/* pixels */
"                            6X3X3X3X6X                                              ",
"                        6X3X@XoXoXoXoXoX@X3X                                        ",
"                      3X@XoX).~.L.L.L.~.^.oX6X@X@X@X                                ",
"                    @XoX).~.z.4.q.Q.5.4.f.J.OX+X6X@X@X                              ",
"                    `.E.z.4.V B.9 [./ B 1.w.h.W..XoXuX6X                            ",
"                  XX,.y.V 9.Z.4 0 Z.' A.D.F.1Xe.h.P. XXX3X                          ",
"                @Xb.7X( 8 5 y w w N.N.m V 9X>X8Xa.U.c.c.oX@X                        ",
"              #X_.-X{.5 ; 3 0 2 % # z F %XgXtXqX,Xn.j.'.).@X3X                      ",
"              oXj.:.8 ; , 4 w X X # a s ,XfXdXdXfXrX%Xl.L.XX@X                      ",
"            @X~.;.C 1 - 0 r # o . . : L ~ <XdXdXrXwX0X*Xy.L.oX#X                    ",
"            @Xk.&.8 N., i 3 @ X . : g f f ! <.Q s.,XhX:XA f.^.@X                    ",
"            +X3.D.< S.r |.@ o @ a S D U J H H J J Q 8X&Xb =.H.oX6X                  ",
"            '.V 6.# @ 0 2 - f G { { E J H H D D D H W b h v 3.(.@X                  ",
"            W.9.2X}.i m., S ] o...D g S S S S D D D H a p m *.H.oX@X                ",
"            I.D.kXjXm._ W | o.o...R { ....| R K J D D S : < C d.^.@X3X              ",
"            G.8 }.S.u d 0X:X .{ o.o.X.} R Y } X.R H D D a ; 9 2.L.oX3X              ",
"            0.8 > N.+ &.qXgX,.Y Y F p - # - f Y ..U g S S > 8 *.H.^.@X              ",
"          @X8.^ V.6.O >.qXeXQ a - X X # @ X @ p L } j p S a 1 N f.R.oX6X            ",
"          .X` {.$Xy X =XgXr.a # X @ j T U f @ @ a { Y p f f 1 M d.L.oX3X            ",
"           X' m ^ y o %XrXc - o X k P p p a a @ : L { a : g > M 4.L.oX3X            ",
"          .X) B.6.y o v &X> p @ X L a - - # a - a S { f # p > B 3.L.oX3X            ",
"          .XC.[.i e @ ;.eXv g : X p D S : p a # p f Y a @ @ $ n =.L.@X6X            ",
"          +XV.2X_ r p :.dXr.p S o X a p @ p f o : f U a % @ $ 9 2.~.@X              ",
"          @X0._ m.O.f c eX*X: S g @ # @ @ a a X @ a T p e & $ n 5.^.@X              ",
"          6XW.9.iXI.k g ,.s.f - f S g a g S - . o h Y - m.3 < B 4..X3X              ",
"            +XC.sXM.s f D T U : o # : p p - - : g [ F # 5X6 5 V y.oX                ",
"            @XI.A.t = - I ] X.P : o o o : f D I } { p 4 aXl m N k.@X                ",
"              +XC.8 y % a { n.c.| F a p g D E ..X.j # A.uXP n =.H.@X                ",
"              6XW.7.5 e # g n.c.x.o...} ..X.o.x.[ - & pXL.F A 4.z.@X                ",
"                .X` q & q d h ..o.x.o.x.x.x.o.[ p o 7.aX~ m *.d.z.3X                ",
"                @Xq.^ 1 ; f.$ b  .o.o.x.x.X.U p o = yXg.d N 3.p.T.3X                ",
"                  U.F._ 1 5 8.* +.!  .} T G : = = 0.I.h m *.p.p.oX3X                ",
"                  +Xk.=.) / q.` = @.%.$.$.+.+.7 ^ K.l Z *.p.i._.@X3X                ",
"                    .XK.=.2./ G.G.a.%.@.@.#.&.G.~.Z W !.h.i.z.oX@X                  ",
"                    @X.XG.2.N M ) ~.+X~.l.K.'.;XuX .-.U.i.a.).@X6X                  ",
"                      @XOXJ.G.2.*.N =.3.3.p.r.n. .u.h.!.Y.@X@X@X                    ",
"                      6X@X@X).L.H.l.3.-.-.-.,..Xu.i.,.].6X@X@X                      ",
"                          3X@X@X6XOXk.!.v.v.].Y.,.-XT.oX@X#X                        ",
"                              6X3X@X`.4X,.!.b.i.7XuX@X@X6X                          ",
"                                  3X3XXXR.E.E.).oX@X@X@X                            ",
"                                      @X@X@X@X@X@X@X                                ",
"                                                                                    "
};
