/* XPM */
static char *_[] = {
/* columns rows colors chars-per-pixel */
"42 42 229 2 ",
"   c None",
".  c #008E05",
"X  c #009504",
"o  c #009C03",
"O  c #07940B",
"+  c #01A302",
"@  c #01AB02",
"#  c #0AAD03",
"$  c #0BAB0B",
"%  c #0BA409",
"&  c #12AF0E",
"*  c #15A904",
"=  c #02B303",
"-  c #00BB03",
";  c #0CB606",
":  c #14B50B",
">  c #14B909",
",  c #17AA16",
"<  c #1DB717",
"1  c #22AF04",
"2  c #29B90A",
"3  c #23AF1F",
"4  c #25BE15",
"5  c #22B51E",
"6  c #24BA19",
"7  c #2ABE1C",
"8  c #28BF14",
"9  c #34BD05",
"0  c #25B221",
"q  c #2AB425",
"w  c #2DB329",
"e  c #32B92B",
"r  c #3BBD33",
"t  c #35B930",
"y  c #41BF3B",
"u  c #01C502",
"i  c #01CC03",
"p  c #0CC80A",
"a  c #13C70A",
"s  c #01D304",
"d  c #01DB03",
"f  c #06D009",
"g  c #0AD40C",
"h  c #0BDF0B",
"j  c #07D908",
"k  c #1AD70B",
"l  c #11D910",
"z  c #1CCB17",
"x  c #35CA0A",
"c  c #25C213",
"v  c #29C518",
"b  c #32C715",
"n  c #3ACC13",
"m  c #31C419",
"M  c #3ACA17",
"N  c #26DC17",
"B  c #35D30B",
"V  c #01E304",
"C  c #01ED03",
"Z  c #0CEC0C",
"A  c #01F205",
"S  c #02F408",
"D  c #0BF40E",
"F  c #0DEE10",
"G  c #12EC14",
"H  c #1CED1B",
"J  c #14EA15",
"K  c #0EF411",
"L  c #14F515",
"P  c #17F519",
"I  c #1BF51B",
"U  c #15FA19",
"Y  c #1DF91D",
"T  c #14FA17",
"R  c #14E20D",
"E  c #20F81E",
"W  c #33EA15",
"Q  c #2BC621",
"!  c #38CA28",
"~  c #3DD122",
"^  c #34D72A",
"/  c #3CC433",
"(  c #3ECD32",
")  c #3BD432",
"_  c #29D023",
"`  c #24FA23",
"'  c #2BFA2A",
"]  c #27F726",
"[  c #33FC2F",
"{  c #37F028",
"}  c #35FD33",
"|  c #3AFC32",
" . c #3EFE3A",
".. c #45CA0E",
"X. c #5ACC09",
"o. c #58CD07",
"O. c #4BDA0D",
"+. c #57CD16",
"@. c #44D214",
"#. c #41DA13",
"$. c #44D41C",
"%. c #47D81A",
"&. c #57D81D",
"*. c #70DB1D",
"=. c #43E60B",
"-. c #44E611",
";. c #56E51C",
":. c #4EF015",
">. c #51F019",
",. c #69EB1B",
"<. c #43CD2F",
"1. c #42D520",
"2. c #4BDB2B",
"3. c #47D627",
"4. c #52DB29",
"5. c #41C237",
"6. c #44C83B",
"7. c #4ADC33",
"8. c #46DC3A",
"9. c #4CDF3B",
"0. c #42D733",
"q. c #56DA38",
"w. c #51CC3A",
"e. c #72DE2D",
"r. c #7CDF37",
"t. c #62DC3C",
"y. c #4CE12C",
"u. c #47EC29",
"i. c #52E52C",
"p. c #57E726",
"a. c #46F327",
"s. c #5AF328",
"d. c #4DE336",
"f. c #4DE33A",
"g. c #51E433",
"h. c #5BEB34",
"j. c #53E53C",
"k. c #52E93D",
"l. c #58EB3D",
"z. c #41FE3C",
"x. c #52FE34",
"c. c #79E934",
"v. c #68FD31",
"b. c #7CF430",
"n. c #63EE2C",
"m. c #4AC842",
"M. c #4CD644",
"N. c #54D649",
"B. c #5AC755",
"V. c #5EDF54",
"C. c #58CB4B",
"Z. c #71DA4E",
"A. c #61CD55",
"S. c #67D25A",
"D. c #66D854",
"F. c #54EC43",
"G. c #5CED46",
"H. c #5AEB4C",
"J. c #5AE644",
"K. c #4DFC42",
"L. c #5CF44B",
"P. c #59F848",
"I. c #5DEA50",
"U. c #5FF250",
"Y. c #68EA4A",
"T. c #75E944",
"R. c #61F342",
"E. c #64F64B",
"W. c #66F64D",
"Q. c #67E753",
"!. c #77E954",
"~. c #64F454",
"^. c #65F954",
"/. c #6BF35D",
"(. c #6DFA5C",
"). c #6BF755",
"_. c #72F65B",
"`. c #74FA5E",
"'. c #7DF455",
"]. c #69C965",
"[. c #73D667",
"{. c #7CD875",
"}. c #6BD561",
"|. c #6EEE61",
" X c #6FF460",
".X c #6FF960",
"XX c #75FB64",
"oX c #79FC65",
"OX c #7DFE6D",
"+X c #76F667",
"@X c #7FFE70",
"#X c #86E92D",
"$X c #8EE133",
"%X c #92EE32",
"&X c #94FC33",
"*X c #89FD39",
"=X c #A3F63E",
"-X c #96DD46",
";X c #92EE4B",
":X c #BCF24F",
">X c #BAEF50",
",X c #B5F657",
"<X c #A9ED53",
"1X c #8ADE7E",
"2X c #8CEC65",
"3X c #81FE6E",
"4X c #8AF069",
"5X c #82FE72",
"6X c #89F979",
"7X c #84EA78",
"8X c #B0EA62",
"9X c #C8FC5B",
"0X c #D8FA6D",
"qX c #E8FD65",
"wX c #EAFB76",
"eX c #94DE8C",
"rX c #98DD92",
"tX c #91EE85",
"yX c #9CF78C",
"uX c #9EE490",
"iX c #A6F59B",
"pX c #BAEAB3",
"aX c #EEFC83",
"sX c #F4FE84",
"dX c #F5FE8D",
"fX c #F6FE92",
"gX c #F9FE99",
"hX c #D3F0CF",
"jX c #CBECC8",
/* pixels */
"                                                  5X5X5X                            ",
"                                        3XOXOXOXOXOXOXOX3X                          ",
"                                  3X3XOXOX(.^.^.^.^.^.XXOXOX3X                      ",
"                              OXOX5XOX6XU.F.f.d.Q.9.d.F.^.oXOXOX                    ",
"                            5X6XOXOX Xj.q.3.M ~ 1Xm w.~ d.L.E.`.                    ",
"                          3XOX5XP.k.4.Z.[.S.D.! / : < m.3.$.g.p.OX                  ",
"                        OXOXK.K.!.p.>X8X<X! v ( [.q 0 m.7 c ~ !.R.OX                ",
"                      3XOX(.E.y.s.;XqXwXfXe.g ) $ , 3 5 : ; 6 uX2X(.5X              ",
"                      OXoXL.Q.c.wXsXdXdXsX,Xh d @ X X 0 < = # 8 +.h.OX              ",
"                    5XOX~.g.#X:XqXsXfXdX9Xs.h @ X . X $ 5 < = : n &.^.OX            ",
"                    OX(.k.#.<XgX9Xv.s.c.;.s d d @ . X + < e = / 4 ..l.OX            ",
"                  5XOXG.$.B =X0X>.D S C C A Z V d - o o + ].5 {.: w.2.oX            ",
"                  OX(.y.n k -.-.C C C C A S K T Y P V u @ 0 5 % % C.$._.            ",
"                OXOXL.@.c i i C C V C C V V V V D } } L d = r q B.A.<.~.            ",
"                OX(.d.n : - V A C A S L I ' ' I L }  . .Y k 6.B.jXhX}.I.            ",
"              3XoXL.3.c # u C C A T } } ` ' }  . . .` [ *X,Xa w ].rX7 J.            ",
"              OX).F.@.4 ; d V d K } ` d u = u g H ` Y :.dXwXn , B.> 8 9.            ",
"            5XOXE.k.n : u V u j ' P i @ X X + X o - s =.aXqX+.O 5.) 8 8.OX          ",
"            3XoXL.f.b > s d u G ] s + o u G P f X X @ i $XfX-XX t 6X{.) +X          ",
"            3XoXL.y.b > d u i ] G - + i d i f L i . o = x dX-Xo e _ Q )  X          ",
"            3XOXL.3.M > i @ s ] V i = i @ = @ i G X o - - &Xx o t / 6.)  X          ",
"            5XOXL.%.b # + + i Y d u @ i u - d V s X - d x qX+.o w 5.S.M..X          ",
"              OX~.1.c # + + i D s - o s i + s d X X d i *.dX+.- 0 r rXV.+X          ",
"              OX^.3.v # $ 0 u I i @ X i u o + @ o s C - #XaXx f ^ 5.! 8.OX          ",
"              3X.X2.M : , y - I i o . - V i - i V V - i s.%Xd j ~.eX6.H.5X          ",
"                OXy.M : < [.@ G H i @ @ - s s i = o = F E V s f M.pXN.+X            ",
"                OXd.n c z iX& i ' ` D V u @ o o o @ h } U K - ; e [.I.OX            ",
"                OXF.$.v H yXm.@ J  .[ D C d = - f H | x.' j @ q 6 N.XXOX            ",
"                OXl.2.n Z ~.tX% - ' z. .' ] ` ' }  .x.&XV = 0 < 6.Q.@X              ",
"                3Xh.d.@.k ] iX/ o f '  .z.z.z.z.z. .| R p 6 & 7 ) /.                ",
"                3XE.g.%.b a I.7X% + s I  .z.z. . .[ N = 8.: : m 0.OX                ",
"                3XXXp.i.@.c l |.( * # u G ] } | W B * ! v : ! D.G.                  ",
"                3XOXE.p.y.n k N H.4 2 9 x B =.O.o.1 Q f.c ! ~ q.XX                  ",
"                  OXXXh.p.i.t.k ^ H.0...X.X.X.X.&.2.H.~ 2.1.j./.OX                  ",
"                  5XOX).p.i.!.#.{ tX'.~.q.4.J._.^.9.m n 1.f. XoX                    ",
"                    OXOXoXh.Y.i.a.z.b.c.l.g.g.2.M n $.7.F.+XOX                      ",
"                      OXOX5X4Xp.i.a.W.,.O.O.@.%.2.f.F./.OXOX3X                      ",
"                        @XOX`.R.T.;.!.).a.i.Q.j.+XOXOXOXOX3X                        ",
"                          @XOXOXyX4X;.T.2X;.4XW.OXOX5X3X                            ",
"                            3XOXOXOX^.R.R.R.`.OX3X                                  ",
"                              5XOXOXOXOXOXOXOX3X                                    ",
"                                      6X6X                                          "
};
