/* XPM */
static char *_[] = {
/* columns rows colors chars-per-pixel */
"42 42 174 2 ",
"   c None",
".  c #010101",
"X  c #000A04",
"o  c #0A0907",
"O  c #03090F",
"+  c #0B0B0B",
"@  c #010409",
"#  c #1D0800",
"$  c #110F0B",
"%  c #120903",
"&  c #001006",
"*  c #15130E",
"=  c #030A12",
"-  c #151515",
";  c #1E1B14",
":  c #1B1C1B",
">  c #1A1712",
",  c #260D02",
"<  c #310F00",
"1  c #351000",
"2  c #211D16",
"3  c #231611",
"4  c #00240E",
"5  c #003414",
"6  c #0D3515",
"7  c #29241C",
"8  c #242018",
"9  c #242424",
"0  c #2E2A21",
"q  c #2E2D2D",
"w  c #262926",
"e  c #312B20",
"r  c #363024",
"t  c #383225",
"y  c #353229",
"u  c #3D3629",
"i  c #353433",
"p  c #3C3C3B",
"a  c #441400",
"s  c #491600",
"d  c #611D00",
"f  c #412918",
"g  c #4B3918",
"h  c #5C3A18",
"j  c #004119",
"k  c #00491C",
"l  c #005B23",
"z  c #105B2D",
"x  c #006728",
"c  c #1F6829",
"v  c #00792F",
"b  c #007F31",
"n  c #4C4433",
"m  c #4A463F",
"M  c #514836",
"N  c #544B38",
"B  c #5D523D",
"V  c #454545",
"C  c #494A49",
"Z  c #5C5446",
"A  c #565656",
"S  c #5B5B5B",
"D  c #505C55",
"F  c #655A43",
"G  c #685D46",
"H  c #615640",
"J  c #6B614D",
"K  c #71654B",
"L  c #75684E",
"P  c #7A6D51",
"I  c #7E7154",
"U  c #696969",
"Y  c #696764",
"T  c #7D7566",
"R  c #767166",
"E  c #717171",
"W  c #7C7B7B",
"Q  c #7C7A75",
"!  c #8B2C04",
"~  c #842801",
"^  c #9A2E00",
"/  c #8E3109",
"(  c #9F3000",
")  c #97340A",
"_  c #9E3D13",
"`  c #A4390B",
"'  c #926B2D",
"]  c #827356",
"[  c #83755B",
"{  c #87785A",
"}  c #8C7C5D",
"|  c #AB7158",
" . c #008132",
".. c #008B36",
"X. c #008F38",
"o. c #1C8B36",
"O. c #009038",
"+. c #29933A",
"@. c #A9943D",
"#. c #CE973F",
"$. c #8D8066",
"%. c #948464",
"&. c #988765",
"*. c #9D8C69",
"=. c #998966",
"-. c #BE856C",
";. c #A3916C",
":. c #AE9A74",
">. c #A99771",
",. c #B29E77",
"<. c #BCA77E",
"1. c #C78468",
"2. c #DBA67B",
"3. c #8D8A85",
"4. c #8D8D8D",
"5. c #969696",
"6. c #9A9997",
"7. c #9C9C9C",
"8. c #989794",
"9. c #A6A299",
"0. c #A2A2A1",
"q. c #ABABAB",
"w. c #B2B0AA",
"e. c #B3B3B3",
"r. c #BBBBBB",
"t. c #D09981",
"y. c #DBA984",
"u. c #C8B285",
"i. c #CEB789",
"p. c #CFB98B",
"a. c #C7B185",
"s. c #D3BB8C",
"d. c #C7B693",
"f. c #DCB29E",
"g. c #DDB4A3",
"h. c #C6BFB1",
"j. c #DDC493",
"k. c #DFC898",
"l. c #D7C59F",
"z. c #E2C997",
"x. c #E5CB98",
"c. c #EDD29E",
"v. c #D7C7A7",
"b. c #DFD0B1",
"n. c #E1CDA5",
"m. c #F1D6A1",
"M. c #F5DAA3",
"N. c #FBDFA7",
"B. c #F4DBA9",
"V. c #FCE0A9",
"C. c #FCE3B4",
"Z. c #F7E4BC",
"A. c #C4C4C4",
"S. c #CBCBCB",
"D. c #D7D3CB",
"F. c #D3D3D3",
"G. c #D7D8D7",
"H. c #DCD9D6",
"J. c #DBDBDB",
"K. c #E9CFC4",
"L. c #E0D6C2",
"P. c #F2E2C1",
"I. c #EFE7D8",
"U. c #EEE5D3",
"Y. c #F8EAD7",
"T. c #FEF1D9",
"R. c #E6E5E5",
"E. c #ECECEB",
"W. c #EFEBE5",
"Q. c #FEF5E3",
"!. c #F1F1EF",
"~. c #F4F4F4",
"^. c #FDFBF6",
"/. c #FEFEFE",
/* pixels */
"                                                                                    ",
"                                    . . . . . .                                     ",
"                                  < s s s s s a ,                                   ",
"                              # # d ( ( ( ( ( ^ s # # # %                           ",
"                          . < ~ / ) ` ` ` ` ` ` ) ! ! ~ a .                         ",
"                          . 1 _ t.g.g.f.2.y.g.g.g.1.) s ,                           ",
"                          o f -.I.S.0.0.n.v.0.0.J.K.| 3                             ",
"                          e Y W./.W + ; *.} 0 y 6.R.H.m u                           ",
"                        $ { b.^./.Q . o 2 L p.u.J Q W.l.G o                         ",
"                        o &.C.T.^.A.3.$.} <.N.m.B Z Z.V.K .                         ",
"                        o &.V.V.T.D.h.B.V.j.,.:.K } M.N.K .                         ",
"                        o &.V.V.V.%.Z p.z.{ * ; =.c.N.N.K .                         ",
"                        o &.V.V.V.j.*.n u 2 . o *.V.V.N.K .                         ",
"                        o &.V.V.V.V.j.{ P P P P I :.M.N.K .                         ",
"                        o &.V.V.V.V.V.M.s.j.N.m.B B m.N.K .                         ",
"                      + o } m.N.V.m.c.j.F ] c.z.H F c.c.G .                         ",
"                    A 4.: e } m.V.;.M N %.] M N { u.z.J 8 . . . . .                 ",
"                  A q.R.W U R %.%.P F K s.<.F G [ %.] > . ; B F r .                 ",
"                w r././.^.^.e.p q [ i.i.s.s.i.a.J q w + * H x.M.%.2 .               ",
"              9 q.!././././.~.G.G.W 0 0 7 7 0 y 8.G.r.w L j.N.V.c.>.>               ",
"              i H.T.Q././././././.S.6.4.q V 5.7.G./.J.q } V.V.V.V.u.;               ",
"              i L.C.v.r.~././././././.E.C E /./././.J.q } V.V.V.V.u.;               ",
"              t k.V.*.p G././././.E.R.R.C E ^.R.~./.J.q } V.V.V.V.u.;               ",
"              t j.V.%.q G././././.5.U G.C E G.S e./.J.q } V.V.V.V.u.;               ",
"              t s.;.T 6.E././././.r.0.J.C E R.6.F./.J.q } V.V.V.V.u.;               ",
"              t i.M U ^./././././././.E.C E /./././.J.q $.C.V.V.C.d.;               ",
"              r i.n U ^./././././.~.!.E.C E ^.E.~./.J.p 3.U.C.V.P.w.:               ",
"              r i.n U ^./././././.0.Q G.C E J.U r./.~.A.Q Q I.Q.9.i                 ",
"              7 P L T 7.E././././.e.5.G.C E R.4.S./././.e.Q 4.4.S                   ",
"                $ %.P w e.F.F.F.F.F.J.R.C E /./././.^.G.F.5.- .                     ",
"                  ; * o : 9 9 9 9 9 S S.V U ~.~.~.~.G.C w : .                       ",
"                    . . . . . . . . - C : w S S S S D z l j X                       ",
"                      . . . . . . . . . f h g 6 5 5 j b O.x X                       ",
"                      . . . . . . . . % ' #.@.o.......X.O.x X                       ",
"                      . . . . . . . . X c +.+.O.O.O.O.O.O.x X                       ",
"                      . . . . . . . . X x O.O.O.O.O.O.O.O.x X                       ",
"                      . . . . . . . . X k v X.O.O.O.O.O.v k X                       ",
"                      . . . . . . . . . X j  . . . . . .j X .                       ",
"                      . . . . . . . . . . & 4 4 4 4 4 4 & . .                       ",
"                      . . . . . . . . @ . . . . . . . . . . .                       ",
"                        . . . . @ @ O       = = = = = = O =                         ",
"                                                                                    "
};
