/* XPM */
static char *_[] = {
/* columns rows colors chars-per-pixel */
"42 42 245 2 ",
"   c None",
".  c black",
"X  c #000101",
"o  c #000102",
"O  c #000203",
"+  c #010203",
"@  c #030302",
"#  c #070200",
"$  c #000401",
"%  c #000703",
"&  c #000204",
"*  c #010204",
"=  c #020304",
"-  c #030405",
";  c #060604",
":  c #070707",
">  c #0D0400",
",  c #000803",
"<  c #000903",
"1  c #000B04",
"2  c #000C05",
"3  c #000D05",
"4  c #050708",
"5  c gray3",
"6  c gray5",
"7  c gray6",
"8  c #1A0700",
"9  c #1B0800",
"0  c #001006",
"q  c #001307",
"w  c #001B0A",
"e  c #001C0B",
"r  c #001E0B",
"t  c #001F0C",
"y  c #16130E",
"u  c #17140F",
"i  c #1E130B",
"p  c #171510",
"a  c #151616",
"s  c #181510",
"d  c #181611",
"f  c #1F1C15",
"g  c gray10",
"h  c gray11",
"j  c #1D1D1D",
"k  c gray12",
"l  c #200900",
"z  c #210B01",
"x  c #250B00",
"c  c #3A1100",
"v  c #3B1100",
"b  c #00200C",
"n  c #00220D",
"m  c #00230D",
"M  c #00250E",
"N  c #00270F",
"B  c #012411",
"V  c #012612",
"C  c #003012",
"Z  c #003815",
"A  c #003B17",
"S  c #003C17",
"D  c #232018",
"F  c #2A251C",
"G  c #312317",
"H  c #1B1E21",
"J  c #1D2721",
"K  c gray13",
"L  c #232323",
"P  c #252525",
"I  c gray15",
"U  c #282521",
"Y  c #2F2C26",
"T  c gray17",
"R  c gray18",
"E  c #352F23",
"W  c gray19",
"Q  c #313131",
"!  c gray20",
"~  c #36383A",
"^  c gray22",
"/  c gray24",
"(  c #411300",
")  c #501800",
"_  c #5A2B13",
"`  c #642002",
"'  c #702100",
"]  c #712200",
"[  c #752300",
"{  c #772300",
"}  c #782400",
"|  c #792400",
" . c #00431A",
".. c #00461B",
"X. c #00471B",
"o. c #00481C",
"O. c #004B1D",
"+. c #004C1D",
"@. c #004E1E",
"#. c #005C24",
"$. c #005E25",
"%. c #0E5329",
"&. c #0E5429",
"*. c #006627",
"=. c #006728",
"-. c #006E2B",
";. c #00722C",
":. c #00732C",
">. c #00742D",
",. c #00752D",
"<. c #00772E",
"1. c #007A2F",
"2. c #017430",
"3. c #007B30",
"4. c #007C30",
"5. c #007F31",
"6. c #44423F",
"7. c #45433F",
"8. c #0C2A48",
"9. c #0C2B49",
"0. c #0D2C4B",
"q. c #0D2C4C",
"w. c #0D2D4E",
"e. c #0E2E4F",
"r. c #0E2F50",
"t. c #0E2E51",
"y. c #0E2F51",
"u. c #0E4057",
"i. c #0E6666",
"p. c #414141",
"a. c #434343",
"s. c gray31",
"d. c gray33",
"f. c #5B5954",
"g. c #5D5A56",
"h. c #5A5A5A",
"j. c #635D51",
"k. c #626262",
"l. c #646464",
"z. c #676868",
"x. c #686868",
"c. c #637369",
"v. c #65746B",
"b. c #7E7768",
"n. c #717171",
"m. c gray45",
"M. c #767676",
"N. c #777777",
"B. c gray47",
"V. c #787879",
"C. c #7B7B7B",
"Z. c #7C7C7C",
"A. c gray49",
"S. c #7E7E7E",
"D. c #8F2B00",
"F. c #952C00",
"G. c #983E13",
"H. c #A03000",
"J. c #A23303",
"K. c #A73E0E",
"L. c #AE4B1A",
"P. c #AE4C1B",
"I. c #AF4E1C",
"U. c #B04E1D",
"Y. c #826F51",
"T. c #8C7352",
"R. c #857758",
"E. c #008232",
"W. c #008333",
"Q. c #008634",
"!. c #008834",
"~. c #008A35",
"^. c #008D37",
"/. c #008F37",
"(. c #009038",
"). c #908060",
"_. c #908160",
"`. c #928261",
"'. c #948462",
"]. c #A08E6B",
"[. c #A28F6C",
"{. c #A0906F",
"}. c #A29170",
"|. c #AF9B74",
" X c #B29E78",
".X c #BCA77D",
"XX c #BEA97E",
"oX c #DFA973",
"OX c #E0AA74",
"+X c #E3B07A",
"@X c #E5B47E",
"#X c #808080",
"$X c #898989",
"%X c #8D8D8D",
"&X c #9A9A9A",
"*X c gray61",
"=X c #A2A2A2",
"-X c #A5A5A5",
";X c #ADACAB",
":X c #B4B4B4",
">X c #B7B7B7",
",X c gray72",
"<X c #BBBBBB",
"1X c gray75",
"2X c #C4AF83",
"3X c #D9C190",
"4X c #D9C191",
"5X c #DDC594",
"6X c #DEC694",
"7X c #F5D39C",
"8X c #F6D49D",
"9X c #F1D7A1",
"0X c #F2D7A1",
"qX c #FCE0A8",
"wX c #C3C3C3",
"eX c gray77",
"rX c gray78",
"tX c #C8C8C8",
"yX c gray79",
"uX c gray80",
"iX c gray82",
"pX c #D2D1D1",
"aX c #D2D2D2",
"sX c #D5D5D5",
"dX c gainsboro",
"fX c #DDDDDD",
"gX c gray89",
"hX c gray90",
"jX c #E7E7E7",
"kX c #E9E9E9",
"lX c #EAEAEA",
"zX c gray92",
"xX c #ECECEC",
"cX c gray93",
"vX c #EEEEEE",
"bX c gray94",
"nX c #F1F1F1",
"mX c gray95",
"MX c #F3F3F3",
"NX c #F4F4F4",
"BX c #F8F8F8",
"VX c #F9F9F9",
"CX c gray99",
"ZX c #FDFDFD",
"AX c white",
/* pixels */
"                                                                                    ",
"                                                                                    ",
"                                  z x x x x x z                                     ",
"                          . # > 9 ] D.D.D.D.D.] 8 >                                 ",
"                        . . v [ | F.H.H.H.H.H.F.| [ ( .                             ",
"                        # v [ H.H.H.H.H.H.H.H.H.H.H.) .                             ",
"                        i ` G.I.H.H.H.H.H.H.H.H.H.U._ .                             ",
"                          G T.oXL.K.K.K.K.K.K.K.P.OXY.f                             ",
"                        F '.4X7X@X+X+X+X+X+X+X+X@X8X4X`.D                           ",
"                        s XXqXqXqXqXqXqXqXqXqXqXqXqXqX.Xu                           ",
"                        s XXqXqXqXqXqXqXqXqXqXqXqXqXqX.Xu                           ",
"                        s XXqXqXqXqXqXqXqXqXqXqXqXqXqX.Xu                           ",
"                        s XXqXqXqXqXqXqXqXqXqXqXqXqXqX.Xu                           ",
"                        s XXqXqXqXqXqXqXqXqXqXqXqXqXqX.Xp                           ",
"                        s XXqXqXqXqXqXqXqXqXqXqXqXqXqX.Xs                           ",
"                        y |.0XqXqXqXqXqXqXqXqXqXqXqX0X XU a H                       ",
"                  . . . ; E [.qXqXqXqXqXqXqXqXqXqXqX].j.;X,Xz.- .                   ",
"                  5 d.B.B.B.b.R.`.6XqXqXqXqXqX6X`.R.b.&XnXAX,XB.m.T                 ",
"                ;   AXnXpXnX&X^ 7.}.2X2X2X2X2X{.7.^ *XAXAXAXAXAXcXx.P               ",
"                h 1XNX,Xd.uXnXgXpXf.Y Y Y Y Y g.pXgXnXAXAXAXAXAXAXzXm..             ",
"              h %XzX=Xl.>XcXAXAXBXtX>X>X>X>X>XtXBXAXAXAXAXAXAXAXAXAXS..             ",
"              R dXAXS.p.jXAXAXAXAXAXAXAXAXAXAXAXAXAXAXAXAXAXAXAXnX-Xp..             ",
"              ! dXAXS.p.jXAXAXAXAXAXAXAXAXAXAXAXAXAXAXAXBXsXrXrX>X! . .             ",
"              7   jXS.s.zXAXAXAXAXAXAXAXAXAXAXAXAXAXAXAXzXk.P h g ; .               ",
"                7 / #XtXBXAXAXAXAXAXAXAXAXAXAXAXAXAXAXAXBXtXh.=                     ",
"                . . #XAXAXAXAXAXAXAXAXAXAXAXAXAXAXAXAXAXAXAXS..                     ",
"                  . #XAXAXAXAXAXAXAXAXAXAXAXAXAXAXAXAXAXAXAXS..                     ",
"                  . B.nXAXAXAXAXAXAXAXAXAXAXAXAXAXAXAXAXAXnXB..                     ",
"                    ! M.cXAXAXAXAXAXAXAXAXAXAXAXAXAXAXAXcXM.~                       ",
"                    . K S.$XrXAXAXAXAXAXAXAXAXAXAXAXwX$XB.K 4                       ",
"                    . % w r v.tXtXtXtXtXtXtXtXtXtXtXc.r w %                         ",
"                    . b >.5.%.J J J J J J J J J J J &.5.:.t                         ",
"                    . M W.(.1.*.*.*.*.*.*.*.*.*.*.*.3.(.W.b                         ",
"                    . M W.(.(.(.(.(.-.$.!.(.-.@.@.@.@.$.5.b                         ",
"                    . M W.(.(.(.(.(...r =.:.A . . . . r $.r                         ",
"                      b 1.^.(.(.^.!...2 0 0 < . . . . % 2 %                         ",
"                      1 C >.(.(.Q. .o.@.< . . . . . . . . .                         ",
"                    . . % A @.@...0 M o.S 0 . . . . . . . .                         ",
"                  . . . . . . . . . . M >.b . . . . . . . .                         ",
"                  . . . . . = = = = = B 2.B = = = = = . .                           ",
"                          8.0.w.w.r.r.u.i.u.r.r.r.w.w.8.                            ",
"                                                                                    "
};
