/* XPM */
static char *_[] = {
/* columns rows colors chars-per-pixel */
"42 42 170 2 ",
"   c None",
".  c #000000",
"X  c #000C04",
"o  c #010509",
"O  c #07080B",
"+  c #0C0C0C",
"@  c #0B0A07",
"#  c #130500",
"$  c #1E0900",
"%  c #100E0A",
"&  c #001508",
"*  c #15130E",
"=  c #0F1419",
"-  c #131313",
";  c #181610",
":  c #1E1C15",
">  c #1F1F1F",
",  c #2F0E00",
"<  c #330F00",
"1  c #361000",
"2  c #3B1302",
"3  c #241C16",
"4  c #00240E",
"5  c #00290F",
"6  c #16231B",
"7  c #003213",
"8  c #003B17",
"9  c #003E18",
"0  c #2D261C",
"q  c #2F2A1F",
"w  c #262219",
"e  c #1B2628",
"r  c #202020",
"t  c #2D2A22",
"y  c #2D2D2D",
"u  c #342F23",
"i  c #393326",
"p  c #34332C",
"a  c #3C3B3B",
"s  c #363633",
"d  c #491701",
"f  c #541C03",
"g  c #591B00",
"h  c #671F00",
"j  c #692507",
"k  c #792400",
"l  c #423B2C",
"z  c #573A27",
"x  c #423F37",
"c  c #01421A",
"v  c #004C1E",
"b  c #005A23",
"n  c #1B5B34",
"m  c #006728",
"M  c #006125",
"N  c #00722C",
"B  c #007E31",
"V  c #4F4635",
"C  c #49463D",
"Z  c #5B4C38",
"A  c #5D533E",
"S  c #7E432A",
"D  c #293542",
"F  c #394555",
"G  c #464646",
"H  c #4C4C4C",
"J  c #4A4A43",
"K  c #524E46",
"L  c #575041",
"P  c #505050",
"I  c #5A5A5A",
"U  c #5D5A55",
"Y  c #615640",
"T  c #655A44",
"R  c #785D40",
"E  c #6F634A",
"W  c #776A4F",
"Q  c #74674E",
"!  c #6B6457",
"~  c #7B6D52",
"^  c #706652",
"/  c #7E7258",
"(  c #525E69",
")  c #4E637E",
"_  c #636465",
"`  c #6A6E6C",
"'  c #7E7667",
"]  c #747474",
"[  c #7B7B7B",
"{  c #822700",
"}  c #872800",
"|  c #8D2C02",
" . c #952D00",
".. c #9C2F00",
"X. c #9F3506",
"o. c #A03000",
"O. c #A53B0A",
"+. c #AB4718",
"@. c #874229",
"#. c #A14820",
"$. c #C3723F",
"%. c #847659",
"&. c #87785A",
"*. c #897A5B",
"=. c #008D37",
"-. c #008F38",
";. c #008032",
":. c #009038",
">. c #918161",
",. c #9A8967",
"<. c #9A8969",
"1. c #9B8E72",
"2. c #A6936E",
"3. c #B89267",
"4. c #AD9A73",
"5. c #A89570",
"6. c #B19D76",
"7. c #B6A27A",
"8. c #BBA67C",
"9. c #BEA97F",
"0. c #CC8B65",
"q. c #CF9562",
"w. c #D89B67",
"e. c #C58B71",
"r. c #CD9278",
"t. c #69829F",
"y. c #7C9FC8",
"u. c #828282",
"i. c #8A8A8A",
"p. c #939393",
"a. c #9D9D9C",
"s. c #A2A2A2",
"d. c #AAAAAA",
"f. c #B3B3B3",
"g. c #BCBCBC",
"h. c #C5AF83",
"j. c #CDB689",
"k. c #CFB88A",
"l. c #D3BB8C",
"z. c #D2BD94",
"x. c #DDC493",
"c. c #E2C997",
"v. c #E6CC99",
"b. c #E9CF9B",
"n. c #EAC193",
"m. c #ECD29D",
"M. c #E9D4AA",
"N. c #F1D7A1",
"B. c #F4D9A3",
"V. c #F9DEA9",
"C. c #EBD9B5",
"Z. c #FCE0A8",
"A. c #FCE3B2",
"S. c #C3C3C3",
"D. c #CACACA",
"F. c #D6CFC8",
"G. c #DBD2C0",
"H. c #D3D3D3",
"J. c #DCDCDC",
"K. c #EAD1C2",
"L. c #EFE2C9",
"P. c #EBE7DF",
"I. c #FDF3DC",
"U. c #E6E6E6",
"Y. c #EAEAEA",
"T. c #FEF8EB",
"R. c #F9F4E8",
"E. c #F4F4F4",
"W. c #FFFFFF",
"Q. c #FEFAF1",
/* pixels */
"                                                                                    ",
"                                . . . . . . . .                                     ",
"                              $ 1 1 1 1 1 1 1 <                                     ",
"                          # # d |  . . . . . .} < # #                               ",
"                        $ j k } ..o.o.o.o.o.o...{ k h #                             ",
"                        3 @.j S e.r.0.$.O.o.} g f k { #                             ",
"                            = G D.E.I.n.+.| j 0 @ d } ,                             ",
"                        @ + o + a D.W.K.#.d Z 7.i f X.| 2 .                         ",
"                      A ,.>.i . > S.W.F.z R 8.m.6.3.w.q.z .                         ",
"                    . / Z.B.>.K _ J.Q.G.^ 8.Z.Z.Z.Z.Z.N.Y .                         ",
"                    . W v.V.N.C.P.U.L.V.m.B.Z.Z.Z.Z.Z.N.Y .                         ",
"                      p T c.Z.Z.M.! 1.Z.Z.Z.Z.Z.Z.Z.Z.N.Y .                         ",
"                      ) ( / &.&.%.~ 7.Z.Z.Z.Z.Z.Z.Z.Z.N.Y .                         ",
"                      y.t.s 0 0 l j.Z.Z.Z.Z.Z.Z.Z.Z.Z.N.Y .                         ",
"                      D a 7.k.l.x.B.Z.Z.Z.Z.Z.Z.Z.Z.V.m.A .                         ",
"                      e * Z T ,.B.Z.Z.Z.Z.Z.Z.Z.Z.Z.x.Q w o                         ",
"                      C V V V E 2.4.l.Z.Z.Z.Z.B.9.4.<.U P G                         ",
"                    : %.b.b.b.2.u ; W c.c.c.c.j.L t P H.Y.s.-                       ",
"                  : ,.x.Z.Z.Z.v.5.0 3 l l l l C a.g.D.E.W.d.-                       ",
"                  : h.Z.Z.Z.Z.Z.x.i a ] ] ] ] u.J.W.W.W.W.H.] y                     ",
"                  : h.Z.Z.Z.Z.m.8.q [ W.W.W.W.W.W.W.W.W.W.W.U.a                     ",
"                  : h.Z.Z.Z.Z.6.q + u.W.W.W.W.W.W.W.W.W.W.W.U.G o                   ",
"                  : h.Z.Z.Z.Z.2.3 ] D.W.W.W.W.W.W.W.W.W.W.W.E.f._                   ",
"                  * *.l.Z.Z.Z.9.^ H.W.W.W.W.W.E.S.H.W.W.W.W.W.W.i..                 ",
"                  . % &.Z.Z.Z.B.M.R.W.W.W.W.E.H.I p.W.W.W.W.W.W.i..                 ",
"                  . . ~ Z.Z.Z.Z.A.T.W.W.W.W.g.I a.J.W.W.W.W.W.W.i..                 ",
"                  + I ' 2.m.Z.Z.A.T.W.Y.a.i.u.u.J.W.W.W.W.W.W.W.i..                 ",
"                  > S.p.J 9.l.l.z.F.H.f.G y ] Y.W.W.W.W.W.W.W.W.i..                 ",
"                  r S.Y.f.x t t t y y H S.H.U.W.W.W.W.W.W.W.W.W.i..                 ",
"                  F _ f.Y.s.p.p.p.p.p.d.E.W.W.W.W.W.W.W.W.W.W.W.i..                 ",
"                  F O I f.g.U.W.W.W.W.W.W.W.W.W.W.W.W.W.H.f.f.f.` O                 ",
"              . . o . + - r a.U.U.U.U.U.U.U.U.U.U.U.U.J.` 6 6 6 e                   ",
"            . . . . . . . . y G G G G G G G G G G G G G n m m m c O                 ",
"            . . . . . . . . . & 8 9 9 9 9 9 9 9 9 9 9 c N :.:.:.v .                 ",
"            . . . . . . . . . 5 N =.=.=.=.=.=.=.=.=.=.=.=.:.=.B c .                 ",
"            . . . . . . . . . X 4 N =.=.=.=.=.-.:.:.:.:.:.=.;.7 X . .               ",
"              . . . . . . . . . . 7 9 9 9 9 b =.:.:.:.:.:.N 8 X . . . .             ",
"              . . . . . . . . . . . . . . . 4 M m m m m m c . . . . . .             ",
"              . . . . . . . . . .         . . X X X X X X X . . . . . .             ",
"                . . . . . . . . .               . . . . . . . . . . . .             ",
"                  . . . . . . . .                 . . . . . . . . . . .             ",
"                    o o o o o o                     o o o o o o o o .               "
};
