/* XPM */
static char *_[] = {
/* columns rows colors chars-per-pixel */
"42 42 178 2 ",
"   c None",
".  c #010101",
"X  c #000A04",
"o  c #02060B",
"O  c #07090C",
"+  c #0D0B09",
"@  c #090806",
"#  c #140600",
"$  c #110F0B",
"%  c #001608",
"&  c #011B0A",
"*  c #071609",
"=  c #13110D",
"-  c #0D1014",
";  c #141414",
":  c #191711",
">  c #1F1E1E",
",  c #1E1B14",
"<  c #2F0E00",
"1  c #2B1C0C",
"2  c #251C0C",
"3  c #3C1301",
"4  c #211D16",
"5  c #00240E",
"6  c #002B11",
"7  c #003313",
"8  c #003A16",
"9  c #2D281F",
"0  c #28231B",
"q  c #252525",
"w  c #2D2922",
"e  c #2D2D2D",
"r  c #322E26",
"t  c #3B3427",
"y  c #3E352B",
"u  c #34322E",
"i  c #343434",
"p  c #3C3C3C",
"a  c #4C1903",
"s  c #471500",
"d  c #511800",
"f  c #7F2600",
"g  c #722200",
"h  c #463E2E",
"j  c #00421A",
"k  c #005A22",
"l  c #005220",
"z  c #275639",
"x  c #006226",
"c  c #006E2A",
"v  c #00772E",
"b  c #007B30",
"n  c #217D31",
"m  c #3D7F32",
"M  c #494232",
"N  c #544B38",
"B  c #5D523E",
"V  c #655824",
"C  c #656529",
"Z  c #3C614B",
"A  c #464646",
"S  c gray30",
"D  c #52514F",
"F  c #5C5C5C",
"G  c #515151",
"H  c #6B5F48",
"J  c #635647",
"K  c #6D624B",
"L  c #71644B",
"P  c #74684D",
"I  c #6D6451",
"U  c #7B6D51",
"Y  c #736B59",
"T  c #7F7154",
"R  c #7C7059",
"E  c #6E6E6E",
"W  c #656461",
"Q  c #74726F",
"!  c #7D7566",
"~  c #757575",
"^  c #7C7C7C",
"/  c #7D7971",
"(  c #872800",
")  c #9E2F00",
"_  c #9F3305",
"`  c #A03000",
"'  c #A23709",
"]  c #9F461F",
"[  c #AE5027",
"{  c #B3582C",
"}  c #B55D37",
"|  c #B05730",
" . c #827357",
".. c #84765A",
"X. c #8B7B5D",
"o. c #87785A",
"O. c #8D7E62",
"+. c #008433",
"@. c #008B36",
"#. c #009038",
"$. c #179139",
"%. c #5C8E39",
"&. c #54933B",
"*. c #7D837F",
"=. c #B58638",
"-. c #CF8538",
";. c #8E826A",
":. c #928161",
">. c #9E8D69",
",. c #858178",
"<. c #A18F6B",
"1. c #A5936E",
"2. c #A99771",
"3. c #AD9A74",
"4. c #B19D76",
"5. c #B9A57C",
"6. c #BAA57C",
"7. c #858584",
"8. c #8B8B8B",
"9. c #878888",
"0. c #93918E",
"q. c #979286",
"w. c #939392",
"e. c #9D9D9D",
"r. c #A39D92",
"t. c #A59D8C",
"y. c #B8A783",
"u. c #A1A09E",
"i. c #B5AC9C",
"p. c #A2A2A2",
"a. c gray68",
"s. c #B4AFA3",
"d. c gray70",
"f. c #BCBCBC",
"g. c #C3AE82",
"h. c #C7B184",
"j. c #CAB487",
"k. c #CDB689",
"l. c #C5B189",
"z. c #D4BC8D",
"x. c #CCAB9D",
"c. c #CFBA92",
"v. c #DDB4A3",
"b. c #E0BFB1",
"n. c #DCC493",
"m. c #E5CC99",
"M. c #E5CB98",
"N. c #ECD29D",
"B. c #C7C0B3",
"V. c #EDCDA4",
"C. c #E9D1AB",
"Z. c #F6DAA4",
"A. c #FBDFA7",
"S. c #F0D6A0",
"D. c #E7CBBF",
"F. c #F4DFB6",
"G. c #FCE0A9",
"H. c #FCE4B4",
"J. c #FCE6B9",
"K. c #C5C5C5",
"L. c gray80",
"P. c #D4D4D4",
"I. c #DCDCDC",
"U. c #E5D7D1",
"Y. c #ECDED8",
"T. c #E6D6CB",
"R. c #F9E8C7",
"E. c #FDF3DE",
"W. c #E7E2D8",
"Q. c #E5E5E5",
"!. c #EDEDED",
"~. c #E8E7E5",
"^. c #F5EDE9",
"/. c #FEF5E3",
"(. c #F7F1E4",
"). c #F4F4F4",
"_. c #FEFBF5",
"`. c #FEFEFE",
/* pixels */
"                                                                                    ",
"                                  # # # # # # #                                     ",
"                              . . a f f f f f f 3 . . .                             ",
"                            < d d f ` ` ` ` ` ) g d d d 3                           ",
"                          . s ' | } } } { { } } } [ _ ( d .                         ",
"                          . a | D.Y.U.T.V.C.U.U.Y.v.] 3 #                           ",
"                          @ J b.^.e.F W c.y.F F f.^.x.y +                           ",
"                          N r.`._.E . + P  .B B ,.f.~.,.M                           ",
"                        : 4.R._._.^ > 4 0  .N.N.K D W.F.X.@                         ",
"                        : 5.H.R._.I.B.l.g.n.A.Z.H M C.G.:..                         ",
"                        : 5.G.G.R.s.t.S.G.h. .T T <.S.G.:..                         ",
"                        : 5.G.G.Z.o.B 6.h.L . . :.G.G.G.:..                         ",
"                        : 5.G.G.A.N.1.t 9 , + $ X.Z.A.G.:..                         ",
"                        : 5.G.G.G.G.M.1.>.>.>.>.U X.N.G.:..                         ",
"                        : 5.G.G.G.G.G.Z.6.j.A.Z.H M m.G.:..                         ",
"                        = 1.N.A.A.N.n.k.B U n.n.L B m.m.T .                         ",
"                      . . 0 O.A.Z.X.t h >...t t o.z.m.L 4 . .                       ",
"                    F ^ ^ ^ /  . .U U ..z.g.U U T  . ./ ^ ^ ^ A                     ",
"                q i a.`.`.`.p.i i O.j.j.j.j.j.h.Y i A K.`.`._.8.i i                 ",
"              F P.I.)._.).`.!.I.I.Q w w 0 0 w r 0.I.I.)._.).`.!.I.L.G               ",
"          ; ~ K.`.`.`.L.^ P.`.`.`.K.e.8.e A e.p.P.`.`.`.f.^ Q.`.`.).f.E             ",
"          ; i.E./._.L.~ q f.`.`.`.`.`.Q.A E _.`.`.`.`.`.w.> 8.I._././.q.@           ",
"          : y.G.J.(.Q ; e a.!.`.`.!.!.Q.A E ).Q.).`.`.!.8.> ; w./.J.G.:.@           ",
"          : 6.G.G.F.H p p.W w.`._.8.~ P.A E I.F a.`.!.~ ~ p.q ;.J.G.G.:.@           ",
"          : 6.G.G.A.3.! 7.^ d.`._.d.p.I.A E Q.w.K.`.).e.^ ,.R g.G.G.G.:.@           ",
"          : 6.G.G.G.G.3.w f.`.`.`.`.`.Q.A E _.`.`.`.`.`.w.w z.G.G.G.G.:.@           ",
"          : 5.Z.G.A.Z.3.u f.`.`.`._._.Q.A E _.)._.`.`.`.w.r k.Z.G.A.Z.:.@           ",
"            N 2.A.Z.<.Y u.Q.`.`._.p.w.I.A E Q.^ f.`.`.`.P.0.I 5.G.N.:.M             ",
"              B 2.1.h S !.`.`.`._.e.9.I.A E I.~ d.`.`.`.`.P.e J 2.<.t               ",
"                = = @ A P.Q.!.`.`.).).Q.A E _.).).`.`.!.Q.f.q + = =                 ",
"                    O ; p p w.`.`.`.`.~.A E _.`.`.`.!.~ p i + -                     ",
"                    O % 8 j Z 9.8.8.8.^ q p 9.8.8.8.*.z j 8 X                       ",
"                    . 6 +.#.k & & & * 1 1 1 2 * & & 5 c #.v %                       ",
"                    . 6 +.@.+.b b b m =.-.-.=.n b b b +.@.v %                       ",
"                    . % 7 8 x @.#.#.$.%.V C &.$.#.#.@.l 8 7 X                       ",
"                    . . . . 6 x x x x k & 6 x x x x k & . . .                       ",
"                    . . . . . X X X X X . . X X X X X . . . .                       ",
"                        . . . . . . . . . . . . . . . . . .                         ",
"                        . . . . . . . . . . . . . . . . .                           ",
"                          . . . . . . o     o o o o o o o                           ",
"                                                                                    ",
"                                                                                    "
};
