/* XPM */
static char *da2b4fdd5989455cb37a8735160365caLFGLfpkUfiUqxWlV[] = {
/* columns rows colors chars-per-pixel */
"47 47 242 2 ",
"   c #382800",
".  c #2E3B1B",
"X  c #212D15",
"o  c #2F3B26",
"O  c #4C3D05",
"+  c #513F19",
"@  c #3B4639",
"#  c #594705",
"$  c #574B13",
"%  c #5C571D",
"&  c #524D15",
"*  c #67580C",
"=  c #665718",
"-  c #6D540F",
";  c #7C6F18",
":  c #5A5625",
">  c #4E512C",
",  c #665A24",
"<  c #715D2A",
"1  c #6B5C33",
"2  c #5E6136",
"3  c #6D6329",
"4  c #786726",
"5  c #69663A",
"6  c #776738",
"7  c #7A7436",
"8  c #7E7025",
"9  c #745F40",
"0  c #786B49",
"q  c #656954",
"w  c #777656",
"e  c #6F7347",
"r  c #787B64",
"t  c #6B726A",
"y  c #505443",
"u  c #846C09",
"i  c #987B00",
"p  c #8C730C",
"a  c #A57D04",
"s  c #856D29",
"d  c #84752A",
"f  c #8A7B35",
"g  c #957B2E",
"h  c #826C43",
"j  c #867848",
"k  c #806A52",
"l  c #7A8249",
"z  c #7E826D",
"x  c #988900",
"c  c #9C9100",
"v  c #9D8715",
"b  c #8F8100",
"n  c #A38401",
"m  c #A68A01",
"M  c #AA8B02",
"N  c #A9830A",
"B  c #B58705",
"V  c #AC9201",
"C  c #A79A08",
"Z  c #B19502",
"A  c #B49A02",
"S  c #B6970C",
"D  c #A58A12",
"F  c #AA9717",
"G  c #B89918",
"H  c #B38B12",
"J  c #BBA102",
"K  c #B4A60A",
"L  c #BAA617",
"P  c #B4A815",
"I  c #988727",
"U  c #958535",
"Y  c #958922",
"T  c #AC9627",
"R  c #B8992B",
"E  c #A99A3A",
"W  c #B59B39",
"Q  c #A68C32",
"!  c #B9A727",
"~  c #BAA837",
"^  c #B5AB2E",
"/  c #C49612",
"(  c #C3950C",
")  c #C4A901",
"_  c #C5A606",
"`  c #CBB205",
"'  c #D5BA0A",
"]  c #C6A818",
"[  c #C9B417",
"{  c #D6BA17",
"}  c #D7AA1D",
"|  c #C19E34",
" . c #C59D25",
".. c #C9A929",
"X. c #C9B629",
"o. c #D6B627",
"O. c #C6A639",
"+. c #D3AF34",
"@. c #C9B537",
"#. c #D7B838",
"$. c #E5B825",
"%. c #E0BF3E",
"&. c #DDC41A",
"*. c #D9C109",
"=. c #E4CA17",
"-. c #EBD318",
";. c #E1CA0C",
":. c #DDC227",
">. c #DAC43A",
",. c #E6CA2A",
"<. c #EBD02A",
"1. c #F5DC2A",
"2. c #E7CA37",
"3. c #EDD337",
"4. c #F4D837",
"5. c #F0C430",
"6. c #FCE42B",
"7. c #9A8759",
"8. c #8F894F",
"9. c #AA9A47",
"0. c #AB9653",
"q. c #BCA749",
"w. c #BBB15C",
"e. c #9B8E66",
"r. c #959979",
"t. c #92906E",
"y. c #A89A79",
"u. c #A19969",
"i. c #9BA479",
"p. c #A4A868",
"a. c #A3A877",
"s. c #B6A773",
"d. c #C7AA45",
"f. c #C8B746",
"g. c #D3B644",
"h. c #CBB754",
"j. c #D6BA57",
"k. c #D3AD46",
"l. c #C6B869",
"z. c #D7C85B",
"x. c #D4C650",
"c. c #E7C74E",
"v. c #F7DA49",
"b. c #EED250",
"n. c #FEE347",
"m. c #FFE454",
"M. c #D9C769",
"N. c #CDC975",
"B. c #E2D26B",
"V. c #FBD968",
"C. c #EAD477",
"Z. c #EAC966",
"A. c #FFE062",
"S. c #959D87",
"D. c #A79A82",
"F. c #99A293",
"G. c #A8A885",
"H. c #ABB387",
"J. c #B0AE93",
"K. c #A2ACA8",
"L. c #B0B7B0",
"P. c #C7BA8A",
"I. c #C4B197",
"U. c #C8B7A9",
"Y. c #BDC691",
"T. c #DEDC85",
"R. c #D8D996",
"E. c #D1CB8D",
"W. c #EDD888",
"Q. c #E9EA9C",
"!. c #F6EB8F",
"~. c #D9D8A9",
"^. c #C8C9B7",
"/. c #CED3B6",
"(. c #D7DAB7",
"). c #D2CBAB",
"_. c #E7D4B5",
"`. c #EAE7A7",
"'. c #FDFDB7",
"]. c #EEE8AC",
"[. c #CAD5C9",
"{. c #D9D8C8",
"}. c #C2CAD2",
"|. c #DBDAD7",
" X c #CFD2D0",
".X c #E8DAC6",
"XX c #E6D7D8",
"oX c #E1CECD",
"OX c #DCE2C4",
"+X c #DEE2D9",
"@X c #E6E7C9",
"#X c #F7E9C9",
"$X c #ECF3C8",
"%X c #FBF6C6",
"&X c #E3E4DB",
"*X c #E7E7D6",
"=X c #F9EDD4",
"-X c #F5EEDB",
";X c #FBEBDD",
":X c #F3E4D5",
">X c #EEF2D7",
",X c #EEF1DD",
"<X c #FBF4D8",
"1X c #D4DAE8",
"2X c #DDDBFB",
"3X c #E7DDF9",
"4X c #FFDEFF",
"5X c #DDE4E9",
"6X c #DEE4F8",
"7X c #E5E5E3",
"8X c #EDEEE6",
"9X c #EEEEEC",
"0X c #E9E5EA",
"qX c #F3EEE3",
"wX c #FBEAE3",
"eX c #FDE6EB",
"rX c #F3ECEC",
"tX c #F9EBEB",
"yX c #F4E3E7",
"uX c #EDF1E3",
"iX c #EBF0E9",
"pX c #E6F1ED",
"aX c #F3F4E5",
"sX c #FEFEE4",
"dX c #F2F5EB",
"fX c #FEF4EA",
"gX c #FDFCEC",
"hX c #F9F8E6",
"jX c #EEEDF3",
"kX c #E9E6FC",
"lX c #EEEBFD",
"zX c #E6E6F6",
"xX c #FDE5F4",
"cX c #F3EAF3",
"vX c #FDE2FE",
"bX c #F3E9FD",
"nX c #F6E7F7",
"mX c #EDF3FE",
"MX c #ECF4F3",
"NX c #F2F4FF",
"BX c #FFFDFC",
"VX c #F8F9F6",
/* pixels */
"lXlXlXlXlXlXlXlXlXjXjXjXjXjX9XjXmXlXlXkXmXmXNXVXpXpXmXmXmXmXNXNXvX4XvXvXxXwXwX-X-X-XqX9XjXlXlX",
"lXlXlXlXlXlXlXlXlXjXjXjXjX9X9XjXkXkXkX6X6X5X5X5XpXpXpXzX6X6X2X2XvX4XvXvXxXwX;X-X-X-XqX8XjXlXlX",
"lXlXlXlXlXlXlXlXlXjXjXjXjX9X9XjXlXlXmXmXlXzX7X+XiXiXjXjXkXkXkXkXvX4XvXvXxXwX;X-X-X-XqX8XjXlXlX",
"lXlXlXlXlXlXlXlXjXjXjXjX9X9X9XjXkXlXbXNXNXjX0X7X&X7X0XjXbXNXNXNXvXvXvXxXeXwX;X-X-X-XqX9XjXjXlX",
"lXlXlXlXlXlXlXlXjXjXjX9X9X9X9XjX1X2X3XzX0X0X8X7X&X&X7X0XzXkXkX3XvXvXxXxXeXwXwX-X-XqXqX9XjXjXjX",
"lXlXlXlXlXlXlXjXjXjX9X9X9X9X9XrXbXbXnXcXrXrXfXgXgXgXVXcXcXzX3X3XvXxXxXeXwXwXwX-X-XqXqX9XjXjXjX",
"lXlXlXlXlXlXjXjXjX9X9X9X8XuXuXrXBXVXyXXX{..X.X@X@X@X:X*XyXyXyXyXeXeXeXwXwXwXwXqXqXqXqX9XjXjXjX",
"lXlXlXlXlXjXjXjX9X9X9X8XuXuXuXqX:XoXU.J.D.y.s.H.e.u.y.J.U.^.oXXXwX;X;X;X;X;XwXqXqXqXrX9XjXjXjX",
"lXlXlXlXjXjXjX9XBX8X|.&XaXhX&X^.:XI.k + O O $ $       + 9 e.I._..X_..X#X;XfXfXfXqXrXrX9XjXjXjX",
"jXjXlXjXjXjX9X9XiX&X+X8XgX,X^.S.0 h j 7.0.0.9.U U f s < < < 6 h P._.=X<X#X.XwXBXrXrXrXjXjX9X9X",
"jXjXjXjXjX9X9X9X&X&X*XaX,X/.S.w $ s w.W.W.C.M.h.B.j.d.Q s - # # 7.P.%X<X_._.:XBXrXcXcXjXjX9XiX",
"jXjXjXjX9X9X9X8X&X8X,X{.L.S.t.8.l.M.C.C.z.g.x.c.g.g.d.O.W Q I g f 0.P.~._.:XwXVXcXcXcXjX9X9XiX",
"jXjXjX9X9X9X8XuX8XaX*XL.z w r.P.!.!.V.g.F m G X.V S G ..O.O.d.d.U d 7 p.#XgXgXXXcXcXcXjX9X9XiX",
"9X9X9X9X9X9X8XuXaX*X^.r.w r J.`.h.#.+.] V V V A A A A S G G G T E ; * j ).sXfXoXcXcXcXjX9XiXiX",
"9X9X9X9X9X8XuXuX,X^.S.t.S.J./.~.T S S ] [ [ ` ) ` ` _ J A V M D E U 8 7 e.I.oXyXcXcXcXjX9XiXiX",
"rX9XjXjXjXjX9X9X&XJ.r t.).%X].N.@.] G ] :.3.<.&.&.{ [ ] ] L L ! T W 9.f < j U.gXrXcXjXjX9X9X8X",
"|.0XjX0XkXNXNX5X|.q > J.'.l.E d.G 2.m.2.] } o...o.] G ] +.#...G G  .O.W - O e.<X,XuX9X9X9XcXrX",
"XXrXcXzXkXNXlX1XK.t w E.!.j.T ! #.m.m.#.S Z S Z ] G H G +.#...G / /  .R u # 8.(.>XuXiXiX9XcXcX",
"yXtXcX0XkXmX6X}.t z G.R.W.j.R F c.m.m.o.M i m M ] S M S ..o...] / B G | I * 6 a.>XuXiX9X9XcXcX",
"wXfXrX0XjXmX1XL.@ S.~.R.h.d.^ G 2.3.3.[ M n A [ :.] M m S ..o.o.] B H O.W 4 : e ,XuXiX9XjXcXcX",
"<XfXqX7XiXMX XK.o J.%XE.E ! @.X.2.<.,.[ Z m _ ,.n.o.Z n V ] :.5.} B N O.q.d & > >XuXiX9XjXcXcX",
"<X<X-X&XiXMX[.F.o H.%XN.Y D X.2.v.4.3.{ A i V { n.&.A m A ' ,.<.$.B a O.d.d & & >XuXiX9XjXcXcX",
"=X=X@X*XdXVX[.S.. H.'.T.Y x [ 3.n.4.<.:.A p i ) { ) Z A ` =.=.=.$.S N | q.d % > >XuXiX9XjXcXcX",
"#X#X@X@XhXVX[.S.. i.'.!.T b P 3.3.,.,.{ A u i ) V m V ) ;.-.=.' 5./ N R q.d : 2 >XuXiX9XjXcXcX",
"#X#X@X@XhXVX[.S.> 8.R.!.x.F K :.n.,.o.:._ m m ) ' ' ' *.=.-.;.' $.S H O.q.8 : 5 >XuXiX9XjXcXcX",
"=X=X@X*XdXVX[.S.. H.'.T.E F X.2.v.2.2.,._ m Z { <.=.=.-.1.1.-.;.$.B a O.d.f % > >XuXiX9XjXcXcX",
"<X<X-X&XiXMX[.F.X J.%XN.Y F >.2.v.v.v.2.S n J <.4.1.1.6.6.6.-.' $.B a O.h.U % > >XuXiX9XjXcXcX",
"<XfXqX7XiXMX XK.@ i.].R.q.T X.>.b.V.A.%.M i S 2.4.4.1.6.1.-.' ) _ B H O.q.d % 5 >XuXiX9XjXcXcX",
"wXfXrX0XjXmX1XL.t q u.`.!.~ D ..c.V.V.g.N i S o.v.4.4.1.1.=.` _ B B ..g.Q * 3 r.>XuXiX9XjXcXcX",
"yXtXcX0XzXmX6X}.K.y 5 `.'.h.v ..d.Z.V.k.D N G ..m.v.3.<.<.=.' ) B ( +.k.p # j (.>XuXiX9XjXcXcX",
"XXrXcXzXkXNXlX1X}.t 9 E.'.C.~ O.R j.Z.k.| +.#.#.m.3.:.{ ' ' ` ) ( / ..R u * u.<X>XuXiX9XjXcXcX",
"|.0XcX0XkXNXNX5X XS.w s.Q.!.M.h.v d.j.k.g.b.b.2.b.:.] A A J J A +.R Q I 4 3 H.sX,XiX9XjXjXcXcX",
"cXjXjXjXjXjX9XuXOX/.a.l p.`.Q.N.~ F D G X.X.[ K L [ [ A x x C ~ l.7.5 : 0 G./.*X9XjXjXlXlXlXlX",
"lXlXjXjX9X8XuX,XsX@XH.l l p.R.Q.z.f.@.! L P K C P K C C C F F I e.r q r F.^.|.&XjXjXlXlXlXlXlX",
"lXlXjXjX9X9XuX,XsX$X).a.l 7 p.Q.M.z.x.@.P C c c C c c P @.x.d.9.e q r J.{.dX9X|.jXjXlXlXlXlXlX",
"lXlXjXjX9X9XuX,X@X(.@X$XY.l e p.w.M.B.B.x.^ ^ ^ X.^ ~ f.h.f.E U 2 r J.{.aXgXdX9XjXjXjXlXlXlXlX",
"lXjXjXjX9X9XuX,X@X(.@X<X$Xa.l 8.f 0.M.C.B.M.z.z.x.z.z.q.I * # O w F.|.dX8X&X9XBXjXjXjXjXlXlXlX",
"lXjXjXjX9X9XuXuXgX@XOX$X$X).H.a., 4 8.0.9.9.9.E ; Y U d * # = 5 G.[.gXVX&X X7XBXjXjXjXjXjXjXlX",
"jXjXjXjX9X9X8XuXaXaX>XOX@X$X@X).y.7.h 3 < = = * O O # = 6 7.I.).{.&XdXVX9X7X7X7XjXjXjXjXjXjXjX",
"jXjXjXjX9X9X8XuX[.hXgX>X>XsXsXOXgX.XD.0 1 , = $ f 3 : 5 e.).:XwXrX7X|.9XBXBX7X X9X9XjXjXjXjXjX",
"jXjXjXjX9X9X9X8XuXuXuX,X,X,X,X,XwXwXwX;X=X=X#X#X#X#X=X=X;XwXwXtXrXjXjXjXjX9XjX9X9X9X9X9X9X9X9X",
"jXjXjX9X9X9X9X9XuX8XuXuXuXuXuXqXrXtXtXwX;X-X=X=X=X=X;X;XwXtXtXcXcXjXjXjXjXjXjX9X9X9X9X9X9X9X8X",
"9X9X9X9X9X9X9X9XiX9X9XiX9X9X9XrXcXnXtXtXwX;X-X=X=X-XwXwXtXnXnXbXbXlXjXjXjXjXjX9X9X9X9X8XuXuXuX",
"9X9X9X9X9X9X9X9X9X9X9X9X9X9X9XjXbXbXcXcXrXwX-X-X-X-XwXrXcXcXbXbXlXlXlXlXjXjXjXjX9X9X8XuXuXuXuX",
"9X9X9X9X9X9X9XjXjXjXjXjXjXjXjXjXbXbXbXcXrXqXqX-X-XqXqXrXcXbXbXbXlXlXlXlXlXjXjXjX9X9XuXuXuX,X,X",
"9X9X9X9X9X9XjXjXjXjXjXjXjXjXjXlXbXbXbXcXrXrXqXqXqXqXrXrXcXbXbXbXlXlXlXlXlXjXjXjX9X9XuXuX,X,X,X",
"9X9X9X9X9X9XjXjXjXjXjXjXlXlXlXlXbXbXbXcXrXrXqXqXqXqXrXrXcXbXbXbXlXlXlXlXlXlXjX9X9X8XuXuX,X,X,X"
};
