/* XPM */
static char *result[] = {
/* columns rows colors chars-per-pixel */
"73 89 19 1 ",
"  c #51371F",
". c #6D4626",
"X c #765130",
"o c #404041",
"O c #4A4A4B",
"+ c #62574D",
"@ c #7D6F63",
"# c #835A34",
"$ c #8B613A",
"% c #92663D",
"& c #8C8781",
"* c #9B9A99",
"= c #AFADAA",
"- c gray",
"; c #CBCBCB",
": c #D5D5D6",
"> c #D6D6D7",
", c #EFEFEF",
"< c None",
/* pixels */
"<<<<<<<<<<<<<<<<<<<<<<<:::::::::::::::::::::::::::<<<<<<<<<<<<<<<<<<<<<<<",
"<<<<<<<<<<<<<<<<<<<<:>>>>>>;>>>>>>>>>>>>>>>>>>>>>>>>>:<<<<<<<<<<<<<<<<<<<",
"<<<<<<<<<<<<<<<<<:;,>>>;;;;-;;;;;;;;;;;;;--;;;;;;;;>>>>;:<<<<<<<<<<<<<<<<",
"<<<<<<<<<<<<<<<:,>-;;;;;;;;--;;;;;;;;;;;;;;;;;;;--;;;;-;,>:<<<<<<<<<<<<<<",
"<<<<<<<<<<<<<:>>;;-;;;--;;;--;;;;;;;;--;;;;;;;;---;;;;-;;>,>:<<<<<<<<<<<<",
"<<<<<<<<<<<<>,>;;;-;;--;;;;;;;;-=-;----;;;;;;;;-;;;;;;-;;;;>,:<<<<<<<<<<<",
"<<<<<<<<<<:,>;;;;;-;--;;;;;;;-=*=------**----;;;;;;;;;;;;;;;;,><<<<<<<<<<",
"<<<<<<<<<:,>;;;;;;-;;;;;;;----==*=-----===------;;;;;;-;----;;>><<<<<<<<<",
"<<<<<<<<:,>;-;;;;;-;;;;-==------;;--;;;=-;---===--;;;;;;;-----;>><<<<<<<<",
"<<<<<<<:,>;----;;;;;;---*&*;;-==&&@$.@&&&*=;;--===--;;;;;;;;;-;;>><<<<<<<",
"<<<<<<<,>;--;;;;;;;;-----=-=&$X.....  ....X$&=-;==----;;;;;;;;;;;>><<<<<<",
"<<<<<<>>;;;;;;;;;;;-=--;;*@....&*X#% .###=@...#&;;---==;>;;;;;;;;;,:<<<<<",
"<<<<<:,;;;;;;;;;;-=*=;;*#.X*@.X==#$% .%$%-&X.&&.X&;;--=*=>;;;;;;;;;,:<<<<",
"<<<<<,;;-;;;;;;;-**=>-@...$>@.$##$$% .%$$###.*-...#=;--=*=;;;;;--;;>><<<<",
"<<<<>>;;-;;;;;;-**->*.$@.#$$X.$$$$$% .%$$$$#.#$$XX@X@;--=**;;;;;-;;;,:<<<",
"<<<:,;;;-;;;;;-**;;&..*;$$$$X.$$$$$% .%$$$%#.#$$#%>@ @-;--**;;;;;-;;>><<<",
"<<<>>;;;-;;;;-**;;@...#@$$$$X.$$$$$% .%$$###.#$$$%@...X=;--*=>;;;;;;;,:<<",
"<<<>;;;;;;;;;=*;;@XXX#X#$$$$X.$%XX$% .%$$XX$.#$$$$#.X.XX=;--*-;;;;;;;>><<",
"<<:>;;;;;;;;-*=>&.==##X$$$$$X.$%XX$% .%$$XX#.#$$$$#X##;&.-;-=*;;;;;;;;><<",
"<<>;;;;;;;;-=*>*..@&$$X$$$$$#.$$##$% .%$$XX$.#$$$$#X$$&@.@;--*-;;;;;;;>:<",
"<<,-;;;;;;--=;=..XX#$$#$$$$$X.$$$$$% .$$$#$#.#$$$$#X$$#X..@;--=;;;;;;;>:<",
"<:>-;;;;;;---;#..X%$$$#$$X$$X.$$$$$% .##$$$#.#$$$$##$$$$X..*;--;;;;;;;;><",
"<:>-;;;;;;--;&#&XX%$$$#$$#$$X.$$$$$% .%$$$$#.#$$$$#$$$$$.$&$--==;;;;;;;><",
"<:>-;;;;;==--.@>#.$$$$$$$$$$X.$$$$#$ .%$$$$#.#$X$$$$$$$$.&;X&;-==;;;;;;>:",
"<:>-;;---==;&.X$XX$$$$$$$$$$#.$$$$$$ .%$$$$#.#$$$$$$$$$$.##.X----;;;;;->:",
"<>>-;;;;--=-X.X#XX$$$$$$$$$%#.$%$$$% .%$$$$#.#$$$$$$$$$$X##X &;==;;;;;;;:",
"<>>-;;;;-*=*XX#$XX$$$$$$$$##X.##$$$% .%$$#XX.#$$$$$$$$$$X#%#X+--*=;;;;;;:",
"<>>-;;;;--;@*;#$XX$$$$$$$$$#X.##$$$% .%$$$$X.X#$$$$$$$$$X##@;@*;--;;--;;:",
"<>>-;;;----.@&$$XX$$$$$$$$$%#.$$$$$$ .$$$$$#.#$$$#XXX$$$X#$%&X@;--;-;;;;:",
"<>>;;;;;-;*..##$XX$$$$$$$$$$X.$$$$$% .%$$$$#.#$$$$$##X#$X#$#X.+---;;-;;;:",
"<>>-;;;;*-&.X$#$X#$$$$$$##$$X.$$$$$% .%$$$$#.#$$$#$$%$#$X###$.X=;-;;-;;;:",
"<>>;;-;-*;@.X$X#X#$#$$$$##$$X.$$$$$% .%$$$$#.#$$$X#$##$$X##X$..*;--;-;;;:",
"<>>;;;;==-#@&#X$X#%X#$$$$$$$X.$$$$$% .%$$$$#.#$$$##$##$$X##X%*$&;--;;-;>:",
"<>>;;;;-=-X*-##$X#$#$$$$$$$$#.$$$$$% .%$$$$#.#$$$$$$$$$$X##X%;&@---;;;;>:",
"<>>;;;;-==XX$$#$X#$$$$$$$$$$#.$$$$$% .$$$$$#.#$$$$$$$$$$##$#$#.@;--;;;;;:",
"<>>;;-;-==..$%%$X#%%%$#$%$%%#.$%%%#% .$#%%%#.#%%$%$#%%$%##%%%$.%;--;;;;;:",
"<>>;;-;-==OO+++++++++++++++++O+++++% .#+++++O+++++++++++++++++o+;--;;;;;:",
"<>>;;-;-==OOOOooOOOOOOooOOOOOOooOOO$ X+OOOooOOOOOOooOOOOOOooOOoO;--;;;;;:",
"<>>;;-;-==OOOoOOoOOOOoOOoOOOOoOOoOO# X+OOoOOoOOOOoOOoOOOOoOOoOo+;--;;;;;:",
"<>>;;-;-==Ooo*>>+oOOo&>>@oOOo@;,&oO# X+oo=,-+oOOo*,;@oOOo&,>&oo+;--;;;;;:",
"<>>;;;;-==Oo@>,,-oOo+>,,>oOOo;>,,+o# X+o@,,,=oOo+,,,-oOoO,,,>+o+---;;;;;:",
"<>>;;;;-==Oo&,>,=oOo+>>,;oOOO;>>,+o# X+o&,>>=oOo@,>>-oOo+>>>>Oo+---;;;;>:",
"<>>;;;;-=*ooo*>;+oOOo*>;@oOOo@;>&oO# X+OO=>-+oOOO*>;@oOOo&>>&oo+---;;;;>:",
"<>>;;;;-==OOOo+OoOOOOo+OoOOOOoO+oOO# X+Ooo+OoOOOOo+OoOOOOo++oOo+;--;-;;>:",
"<>>;;;;-==OoOOooOOOOOOooOOOOOOooOOO# X+OOOooOOOOOOooOOOOOOooOOoO;--;-;;>:",
"<>>;;;;-==..XXXX.XXXXXXXXXXX..XXX+X% .$XXXXX.XXXXXXXXXXXXXXXXX +;--;-;;>:",
"<>>;;-;-==.X#%%$#$$$%$#$$$%%#.$%$$%% .%%$$%#.#%$$%$#%$$$$#$%$#.%;--;-;;>:",
"<>>;;;;===X=*#$$$$$$$$$$$$$$X.$$$$$% .%$$$$#.#$$$$$$$$$$$#$$#=&$;--;-;;>:",
"<>>;;;;===X*&#$$#$$$$$$$$$$#X.$$$$$% .%$$$$#.##$$$$$$$$$$$$$#=&$;--;;;;>:",
"<>>;;;;=-=.X#$$$#$$$$$$$$$$$#.$$$$$% .%$$$$#.#$$$$$$$$$$$$$$$#.$;--;;;;>:",
"<>>;;;;--=X$#$$$#$$$$$$$$$$$X.$$$$$% .%$$$$#.#$$$$$$$$$$$$$$$$#$;--;;;;>:",
"<>>;;;;-;*X-*#$$$$$.$$$$$$$$X.$$$$$% .%$$$$#.#$$$$$$$$$$$$$$#=*$;--;;;;>:",
"<>>;;;;-;=X&@#$$$$$#$$$$$$$%#.$$$$$% .%$$$$#.#%$$$$$$$$$$$$$$&@$;--;;;;>:",
"<>;;;;;--=X##$#$$$$$$$$$$$$$X.$$#$$% .%$$$$#.#$$$$##$$#$$$$$$#X$;-=;;;;>:",
"<>>;;-;-;=.#$$#$$$$$$$$$$$#XXX$##$$% .%$$$$#.X##$$$#X##$$$$$$$#%;---;;;>:",
"<>>;;;;-;=.##$#$$##$$##$$$$$#.$$X$$% .%$$$$#.#%$$$$$$#X$$$$$$#X%-*;;;;;>:",
"<>>;;;;-;=X*&#$$$$#XX#$$$$$$X.$$##$% .%$$$$#.#$$$$$$$$$$$$$$#*@$-*-;;;;>:",
"<>>;;;;-;=X=*#$$$$$$$$$$$$$$X.$$$$#% .%$$$$#.#$$$$$$$$$$$$$$$=&$-=-;;;;>:",
"<>>;;;;--=.##$$$$$$$$$$$$$$$#.$$$$$% .%$$$$#.#$$$$$$$#$$$$$$$#X%-=-;;;;>:",
"<>>;;;;--=.X#$$$#$$$$$$$$$$$X.$$$$$% .%$$$%#.#$$$#$$$#$$$$$$$#.%---;;;;>:",
"<>>;;;;--=X=*#$$##$$$$$$$$$$X.##$$$% .%$$$##.#$$##$$$$$$$$$$#=&$---;;;;>:",
"<>;--;;--=X*&#$$##$$$$$$$$$$X.X##$$% .%$$##X.#$%#X$$$$$$$$$$$*&$---;;;-;:",
"<>;;;;;--=.X#$$$##$$$#$$$$$$#.$$$$$% .%$$$$#.#$$##$$##$$$##$$#.$---;;;;>:",
"<>>;;;;--=OOOOOOOOOOOOOOOOOOOOOOOO+% .$OOOOOOOOOOOOOOOOOOOOOOOo@;--;;;;>:",
"<>>;;;;-==OOOOooOOOOOOooOOOOOOooOOO# X+OOoooOOOOOOooOOOOOOooOOo@;--;;;;>:",
"<>>;;;;--=OOOo+OoOOOOo++oOOOOo++oOO# X+Ooo+OoOOOOo++oOOOOo++oOo@;--;;;;>:",
"<>>;;;;--=OoO=,,@oOOo*,,&oOOo&,,*oO# X+oO;,>@oOOo=,>&oOOo*,,&oo@;--;;;;>:",
"<>>;;;;--=Oo&,,,-oOo+>,,>oooO;>,,+o# X+o&,,,=oOo@,,>-oOoO,,,>+o@;--;;;;>:",
"<>>;--;-==Oo@,>,=oOo+>>,;oOOo;>>>+o# .+o@,>,=oOo+>>>-oOo+>>>;Oo@;--;;-;>:",
"<>>;;-;-==Ooo&;=+oOOo@--+oOOo+-;@oO# X+Oo*;=OoOOo&--+oOOo@--@oo+;--;;-;>:",
"<>>;;;;--=OOOoOooOOOOoOooOOOOooOoOO# X+OOoOooOOOOoOOoOOOOoOOoOo+;--;;;;>:",
"<>>;;;;--=OoOOoOOOOOOOooOOOOOOOoOOO$ .XOOOoOOOOOOOooOOOOOOooOOo+;--;;;;>:",
"<>>;;;-***X.XXXXXXXXXXXXXXXXX.XXXXX$ .$XXXXX.XXXXXXXXXXXXXXXXX.$;--;;;;>:",
"<>>;;--===#%%$$$%%$$%$$$$$%%X.$%%$$# .#$$$%#.#%$$$$$$$%$$$$$$%$%;--;;;;>:",
"<>>;;;;-;*#;*#$$$$$$$$$$$$$$X.$$$$$% .%$$$$#.#$$$$$$$$$$$$$$X-*$---;;;;>:",
"<>>;;;;-;=#&%$#XXX$$$$$$$$$$X.$$$$$% .%$$$$#.#$$$$$$$$$$$$$$$@@%;--;;;;>:",
"<>>;;;;-;=..#$#XX#$$$$$$$$$$X.$$$$$% .%$$$$#.#$$XXX#$$$$$$$$$#.$;--;-;;>:",
"<>>;;;;--=.@%#$$$$$$#$$$$$$$#.$$$$$% .%$$$$#.#$$$###$$$$#$$$$@$$-=-;-;;>:",
"<>>;-;;-=*X-*#$$$$$$#$$$$$$%#.$$$$$% .%$$$$#.#$$$$$$$$$$#$$$#-*$-=---;;>:",
"<>>;-;;--=X@XX$$$$$$X$$$$$$$X.#$$$$% .%$$$$#.#$$$$$$$$$$X$$#X$$$;=-;-;;>:",
"<>>;-;>--=.....XXXXX.XXXXXXX..XXXXX# .XXXXXX..XXXXXXXXXX.X.....$;=;;;;;>:",
"**********&&&&&&&&&&&&&&&&&&&&&&&&&&@&&&&&&&&&&&&&&&&&&&&&&&&&&&*********",
"*****==*********&&&&&&&&&&&&&&&&&@@&&&&&&&&&&&&&&&&&&&&&**************&&*",
"****====********&****&&&*&&&&@&&&+@&&&&&&&&&&&&*&&*&****&&*************&*",
"****====*******&&&*********&&****&*****************&****&&*****&&******&*",
"*****===*******&*****=****&&**********=-=******************************&*",
"*******&&***********==***&&************-;;*****==**&&***********=-*****&*",
"********************=*********&&*********=*****==*******&&*******-****&&*",
"***********************************************==**********************&*"
};
