/* XPM */
static char *f1e66967b8ba47b8f3e21c22a5d89c36LI6l8MqMkFtinS5P[] = {
/* columns rows colors chars-per-pixel */
"40 40 233 2 ",
"   c #030202",
".  c #0C0102",
"X  c #010905",
"o  c #06010A",
"O  c #0D020B",
"+  c #0B0C0C",
"@  c #040C0A",
"#  c #120003",
"$  c #14030A",
"%  c #18050C",
"&  c #05100C",
"*  c #180B15",
"=  c #0B1815",
"-  c #141414",
";  c #181B1B",
":  c #290004",
">  c #380108",
",  c #230A15",
"<  c #380718",
"1  c #25131A",
"2  c #2E1A0F",
"3  c #19211E",
"4  c #06201F",
"5  c #1F1321",
"6  c #281C26",
"7  c #381624",
"8  c #1A2724",
"9  c #1A2C30",
"0  c #242324",
"q  c #27282A",
"w  c #3A292D",
"e  c #372B36",
"r  c #352E37",
"t  c #44020C",
"y  c #530806",
"u  c #470717",
"i  c #550919",
"p  c #491517",
"a  c #591717",
"s  c #49150A",
"d  c #6A0206",
"f  c #7A0D1C",
"g  c #6B1917",
"h  c #7A191A",
"j  c #6C0910",
"k  c #752319",
"l  c #570D24",
"z  c #4B182A",
"x  c #561628",
"c  c #591D31",
"v  c #490C21",
"b  c #691728",
"n  c #7A1828",
"m  c #681933",
"M  c #791939",
"N  c #58232A",
"B  c #4A2835",
"V  c #5B2737",
"C  c #53333C",
"Z  c #47342E",
"A  c #69272B",
"S  c #762729",
"D  c #6B223B",
"F  c #652738",
"G  c #742938",
"H  c #66343C",
"J  c #793539",
"K  c #6B352B",
"L  c #33423E",
"P  c #514336",
"I  c #3F3D40",
"U  c #453B43",
"Y  c #4A3E4C",
"T  c #573B47",
"R  c #5E3D50",
"E  c #692E42",
"W  c #752741",
"Q  c #683846",
"!  c #7B3A45",
"~  c #364544",
"^  c #484647",
"/  c #55484C",
"(  c #554A57",
")  c #5C5B5D",
"_  c #4E574E",
"`  c #67424E",
"'  c #75424A",
"]  c #694755",
"[  c #744956",
"{  c #6B535B",
"}  c #68585A",
"|  c #75545B",
" . c #64564E",
".. c #566257",
"X. c #6C645C",
"o. c #73665E",
"O. c #5F5361",
"+. c #695A68",
"@. c #7C5563",
"#. c #775A64",
"$. c #5A6765",
"%. c #6C616E",
"&. c #6B696A",
"*. c #766868",
"=. c #776976",
"-. c #697875",
";. c #797379",
":. c #696A74",
">. c #84191D",
",. c #97151F",
"<. c #872719",
"1. c #8D2E1F",
"2. c #881727",
"3. c #991B26",
"4. c #831938",
"5. c #A11F29",
"6. c #882827",
"7. c #982827",
"8. c #8D3528",
"9. c #96382A",
"0. c #882936",
"q. c #972636",
"w. c #883736",
"e. c #983938",
"r. c #A4242C",
"t. c #A52B2D",
"y. c #A1372E",
"u. c #A82B38",
"i. c #A73737",
"p. c #B3353B",
"a. c #B12F3B",
"s. c #9B4338",
"d. c #8F453E",
"f. c #A6433A",
"g. c #B1413D",
"h. c #8B1E43",
"j. c #862546",
"k. c #962649",
"l. c #8D3D44",
"z. c #83354A",
"x. c #9A3844",
"c. c #8C3854",
"v. c #A83847",
"b. c #B73947",
"n. c #B43548",
"m. c #C33B4C",
"M. c #C53D52",
"N. c #864649",
"B. c #994647",
"V. c #9C544D",
"C. c #9A4956",
"Z. c #985358",
"A. c #864E57",
"S. c #A44445",
"D. c #AB4B4C",
"F. c #A74549",
"G. c #B84749",
"H. c #B4534B",
"J. c #AA4855",
"K. c #B74854",
"L. c #A85956",
"P. c #B45252",
"I. c #B85759",
"U. c #A3524D",
"Y. c #B2635E",
"T. c #855863",
"R. c #934962",
"E. c #AA5863",
"W. c #B55964",
"Q. c #84656C",
"!. c #8B6572",
"~. c #856D74",
"^. c #896973",
"/. c #946A75",
"(. c #867778",
"). c #94767D",
"_. c #9C606C",
"`. c #BA6863",
"'. c #B77571",
"]. c #C64956",
"[. c #C65859",
"{. c #C24B4D",
"}. c #C2615A",
"|. c #CA7877",
" X c #C66A67",
".X c #8C8479",
"XX c #9C8176",
"oX c #CD817B",
"OX c #7B7381",
"+X c #7F6B86",
"@X c #8D7D82",
"#X c #857885",
"$X c #937C84",
"%X c #9A7884",
"&X c #8F7E97",
"*X c #A27A86",
"=X c #B27F86",
"-X c #DF7F80",
";X c #E27F81",
":X c #898589",
">X c #9D838B",
",X c #958786",
"<X c #928594",
"1X c #948B94",
"2X c #998A99",
"3X c #9B9697",
"4X c #94938B",
"5X c #A4828C",
"6X c #A98B97",
"7X c #A8959B",
"8X c #B4939F",
"9X c #B78992",
"0X c #A6A198",
"qX c #9F93A1",
"wX c #A598A8",
"eX c #B79BA6",
"rX c #A69DB0",
"tX c #B7A5AA",
"yX c #ADA3B9",
"uX c #B6A9B4",
"iX c #B0ABAE",
"pX c #DE8483",
"aX c #E48782",
"sX c #C6A4AC",
"dX c #C6ABB5",
"fX c #CEB1B8",
"gX c #C99EA7",
"hX c #B7AEC4",
"jX c #C3B7C4",
"kX c #DBBDC5",
"lX c #C7C2C7",
"zX c #E7C8D0",
"xX c #FCDEE8",
/* pixels */
"                @ X     & = = ; @ - 0 0 ; + O O $ $ % $ # . . .                 ",
"                  @ 3 8 = & & = ; ^ ;.wXiX@X/ 6 6 * . . . # # . .               ",
"                  + 8 ; X X 8 L ;.#X1XiXjXfXwX@X} C , # # % % $ .               ",
"                - +       3 ) :X7X@X=.(.7XdXdXtX7X$X{ w % # % 1 .               ",
"                +       0 ) :XwX~.*.*.$XeXsX7X$XdXdX6X{ 1 # # ,                 ",
"                      r ;.3X1X(.7X).#.| ^.5X8XeX8XtXeX~.B $ # #                 ",
"                  % r *.1X7X(.#.8X/.C < < Q ).eX/.%X%X%X^.` 7 #                 ",
"              . 6 Z } ~.).(.=.#.N N x v < < z B @.@.Q.6XsX6X] ,                 ",
"  @ - @   .     w ~.$X{ { >X%X` : t x E Q F z < < [ ).!.^.5X%X{   - -     - -   ",
"=     +     . e / (.$X#.[ @.] z m m D D m x u < z V [ /.%X)./.(.U -     - -     ",
"q     +     1 @X~.~.^.T.[ V z u c.c.W m l l l x F < z !.*XQ.^.7X1Xq     0 @     ",
";     X   . / tXeX^.[ @.[ N z E z.j.M m m m W ! V < u ` !.!.%X7XuX) +   @ @     ",
"  ; 3     ^ ,X7XzX*X] [ Q x F R.M 4.4.4.j.j.z.z.v c x 7 C /.6X>X7X3X)     + -   ",
"  8 q   ; #XuX7XxX6X[ E V x F c.h.h.k.k.j.j.M m u E F : < @.6X>X:XlX3X-   - 0   ",
"  = = = ^ 1XdXtXfX%XQ z x c D W k.k.k.h.4.M M m m F V < : B !.eX1XuX3Xr   + ;   ",
"0     0 +.,XtXkX/.[ x > i G W m k.q.4.2.n n 4.0.z.b l x > : ' fXtXwX:X) q + @ - ",
"  . 1 T =.6XsXfXT.N u A l.w.S n 6.6.>.2.7.7.3.2.2.2.0.0.b y m _.eX<XlXjXe o q 6 ",
"$ $ 1 ] 6XfXgX=XZ.G b w.B.w.0.8.9.8.<.1.t.t.t.5.3.3.u.v.0.d j G eXqXjXyXY o O * ",
"* . , { dXzX9X' N.J J l.l.w.0.e.9.8.<.7.t.t.t.5.r.7.u.K.v.n i u Q.2XqX<X=.6 o * ",
"% . * { eXsX/.N F J l.l.w.6.0.e.8.1.<.1.7.t.r.3.r.7.u.b.K.x.n i B ;.=.;.2XY o 6 ",
"O * w { >X5XT.V N ! C.B.w.0.e.S.e.8.8.9.y.i.u.r.b.n.u.u.v.F.0.x 7 +.%.;.wX( o 6 ",
"+ q / =.@X^.| ' N l.Z.B.x.x.v.i.f.s.9.y.g.G.p.p.].].n.q.q.e.n i B +.OX1X<XU o o ",
"@ 0 ( ;.$X^.[ H p G l.0.0.x.e.6.s.9.9.9.i.p.a.u.u.b.v.2.n 6.n t T ( <XuX=.e * o ",
"  - I *.$X~.Q p > a b j n q.2.d 8.<.<.<.7.7.3.,.d 3.q.2.f 2.n u C e <XjX+.e r o ",
"8 ~ $.;.(.Q.[ H a G 0.n n 2.q.3.k <.9.y.i.t.r.5.,.3.3.f f n b t 1 ) %.#XwX=.q ; ",
"~ $.-.:.=.(.Q.Q ! Z.E.F.v.K.].G.e.s.g.H.{.{.G.b.u.b.n.q.e.x.0.l , ( +.+.2X2X%.O.",
"~ -.-.^ ^ *.| N N.E.W.v.v.b.b.b.8.8.9.f.p.p.a.u.r.n.b.v.v.v.0.i 7 #X;.( =.&X+.( ",
"9 $.-.~ ^ *.| p ! C.J.x.q.u.a.r.h k <.1.7.7.3.3.r.n.b.v.v.F.0.i 7 #XOXU ( =.( e ",
"= _ -.$.&.,XQ.N A.E.W.v.v.b.m.p.9.8.9.y.i.i.p.p.a.].].K.I.I.x.b # ( =.( %.;.( r ",
"X 9 ..-..X(.| N A.E.W.K.n.M.M.b.f.s.f.f.g.G.b.m.a.b.K.b.J.J.l.x , %.<X:X1X+.6 5 ",
"X & L -.:X} C N ! C.J.v.v.b.m.b.y.9.9.y.i.p.p.b.a.b.b.u.x.x.0.x R @XrXuXrXY o o ",
"4 = ~ :X3X} C ' ! L.I.F.v.].].{.f.f.f.f.g.G.G.G.].[.I.F.J.L.C.J C %.1XuXuXU   6 ",
"o 9 OX1X2X>X[ > ! Z.W.D.F.K.[.K.[.I.P.H.H.P.I.I.}.|.|.`.L.L.w.a 2 X.0XiX3X*.w . ",
"r :.rXrXuXsX%XH A J w.w.e.f.i.7.i.F.D.P.P.D.S.s.d.B.B.w.J w.A s 2 ..4X4X(.X./ w ",
"OXrXyXwXeXdX5X' t a g g h 6.>.d >.6.i.D.D.e.6.h g g g y y a y : Z o.4X.X*.X.*.*.",
"yXhXyX<X6XeX*XH u A l.w.6.8.7.<.6.e.F.P.P.S.e.6.h S S k k S a > P .X0X,X*.*.(.,X",
"hXhXyX<X6XeX/.V N Z.|.`.s.f.H.[.P.P.I.I.I.I.P.L.B.L.Y.L.L.L.w.s Z X..X.X*.~.,X>X",
"2XwX2X=.=.%XT.x A Z.'.L.9.e.H.}.P.D.S.i.e.S.D.L.U.Y.Y.L.L.V.J s 2 P X.X.*.(.>X>X",
"+X&X#X] R @.T.H ' Z.V.d.w.U.P.H.I.P.D.S.S.D.P.I.L.L.U.d.d.V.N.K Z /  . .o.).>X).",
"&XwX2X+.] !.*X/.9X'.L.V.`.aXaX XaXaX;X;X-XpXpXpXoX|.`.V.L.'.oX'.XX.X*. .o.).).Q."
};
