/* XPM */
static char *result[] = {
/* columns rows colors chars-per-pixel */
"41 50 146 2 ",
"   c #5F4936",
".  c #5D4B3C",
"X  c #664527",
"o  c #684628",
"O  c #6D4829",
"+  c #754E2C",
"@  c #77502E",
"#  c #79512E",
"$  c #654A32",
"%  c #6A4E36",
"&  c #624D3B",
"*  c #65503E",
"=  c #6D523A",
"-  c #755234",
";  c #7D5531",
":  c #7F5834",
">  c #75553A",
",  c #76583D",
"<  c #7F5C3C",
"1  c #454546",
"2  c #474748",
"3  c #47484A",
"4  c #4A4A4B",
"5  c #574B41",
"6  c #5D4E42",
"7  c #504F4E",
"8  c #5F5042",
"9  c #51504F",
"0  c #535252",
"q  c #585655",
"w  c #595857",
"e  c #575758",
"r  c #575859",
"t  c #5C5B5B",
"y  c #635344",
"u  c #685747",
"i  c #675748",
"p  c #685748",
"a  c #6A5B4C",
"s  c #755B44",
"d  c #7A5C43",
"f  c #615C57",
"g  c #6C5F55",
"h  c #625E5C",
"j  c #7F6045",
"k  c #75604D",
"l  c #7E644E",
"z  c #64625F",
"x  c #7C6654",
"c  c #7E6955",
"v  c #7A6859",
"b  c #5F6061",
"n  c #666463",
"m  c #6A6663",
"M  c #6F6963",
"N  c #6B6A6B",
"B  c #706A65",
"V  c #726F6D",
"C  c #757371",
"Z  c #7B7A78",
"A  c #805630",
"S  c #845B35",
"D  c #885E37",
"F  c #875E39",
"G  c #895F38",
"H  c #86613E",
"J  c #8B613A",
"K  c #805F41",
"L  c #836245",
"P  c #8A6644",
"I  c #82654B",
"U  c #8B6A4B",
"Y  c #906C4B",
"T  c #836A55",
"R  c #8C6E53",
"E  c #836D59",
"W  c #8A7057",
"Q  c #87705D",
"!  c #8D735B",
"~  c #917255",
"^  c #92765C",
"/  c #987A5F",
"(  c #827061",
")  c #8B7663",
"_  c #8D7867",
"`  c #8D7B6C",
"'  c #907760",
"]  c #927962",
"[  c #927E6C",
"{  c #827A72",
"}  c #8A7E72",
"|  c #81807F",
" . c #8C847D",
".. c #948476",
"X. c #998573",
"o. c #948679",
"O. c #97887B",
"+. c #9A8B7C",
"@. c #868583",
"#. c #8B8681",
"$. c #8D8985",
"%. c #8D8A89",
"&. c #978E86",
"*. c #9D8E80",
"=. c #918E8A",
"-. c #9F9286",
";. c #94918E",
":. c #969492",
">. c #989694",
",. c #999897",
"<. c #9B9A99",
"1. c #A29487",
"2. c #A1988F",
"3. c #A39A91",
"4. c #A99D92",
"5. c #A29F9C",
"6. c #ACA095",
"7. c #A1A09F",
"8. c #ACA39A",
"9. c #A4A3A1",
"0. c #ABA7A3",
"q. c #ACA9A5",
"w. c #ADACAB",
"e. c #B1ABA6",
"r. c #B2AFAB",
"t. c #B3B1AE",
"y. c #B8B3AE",
"u. c #B5B4B3",
"i. c #B9B6B4",
"p. c #BAB9B7",
"a. c #BDBCBB",
"s. c #C0BEBC",
"d. c #C0C0BF",
"f. c #BFC0C0",
"g. c #C4C4C4",
"h. c #C8C7C6",
"j. c #C8C8C7",
"k. c #CBCBCB",
"l. c #D0CECE",
"z. c #D1D0CF",
"x. c #CFCFD0",
"c. c #D4D4D5",
"v. c #D7D7D8",
"b. c #DBDBDB",
"n. c #E1E1E2",
"m. c None",
/* pixels */
"m.m.m.m.m.m.m.m.m.m.m.m.v.c.v.c.c.v.c.v.c.c.c.c.c.c.c.c.c.c.m.m.m.m.m.m.m.m.m.m.m.",
"m.m.m.m.m.m.m.m.m.b.c.v.c.k.k.g.k.k.x.k.x.x.x.j.x.x.x.k.x.c.x.v.m.m.m.m.m.m.m.m.m.",
"m.m.m.m.m.m.m.b.c.x.g.k.g.j.k.g.j.j.j.j.g.f.k.k.j.x.g.f.j.k.g.x.v.b.m.m.m.m.m.m.m.",
"m.m.m.m.m.m.b.v.x.k.g.g.g.k.k.k.g.t.u.f.f.a.t.f.f.j.g.k.k.k.j.k.k.c.b.m.m.m.m.m.m.",
"m.m.m.m.m.n.c.j.k.k.g.k.j.f.p.f.f.u.u.p.s.a.t.a.f.a.p.d.k.k.j.g.f.g.j.c.m.m.m.m.m.",
"m.m.m.m.n.c.g.g.j.k.k.h.f.u.9.t.4.O.` T s ( ) ..4.r.p.u.f.g.j.x.j.j.j.k.c.m.m.m.m.",
"m.m.m.b.c.k.j.k.k.k.f.i.g.r.o.( - E E A X + F [ , T X.0.f.f.u.g.x.k.k.k.x.b.m.m.m.",
"m.m.m.v.j.k.k.k.j.u.q.i.-.d : X.> U Y G o S P ~ : _ T > O.u.a.q.p.j.k.j.j.c.b.m.m.",
"m.m.b.k.j.j.k.j.u.w.u.E T ^ F F # G J J o S G G ; A J F [ v e.s.q.u.k.k.j.k.b.m.m.",
"m.m.v.k.j.k.k.p.w.r.E + < U G F @ F F J o S G S ; : J P K O K 4.g.w.a.k.k.k.x.b.m.",
"m.c.k.k.k.k.g.w.u.E } U A G J S # G A F o S G ; # ; G J A A [ ( e.a.w.j.k.k.k.x.m.",
"m.v.k.k.k.h.a.i._ + K P G G G F # F G G o A G F : ; G G S G P > l u.p.g.k.k.k.c.m.",
"m.k.j.k.k.g.s.4.T : G G G G F S + F J J o A G P : A G J F J J A I +.s.p.j.k.k.k.v.",
"m.c.j.j.g.u.u.T ! < G J J J G G # G J G o S J G : A F J F G F : ! I q.p.g.k.k.k.c.",
"v.x.j.k.f.u.>.- A ; F G J J J F @ G J J o A G F # ; J J J G J S A - } p.u.k.k.k.k.",
"v.k.j.k.g.i.....F - F G J J J F + F J J o S J F # # G F F F F S S ) } r.p.j.g.k.c.",
"v.x.j.k.d.r.d K F ; G G G G G F @ G J J o A J J A A J G D A F A S H > 3.g.j.j.k.x.",
"c.x.j.j.i.5.s : S A G G J F F F @ G J J o A J J : A G F F G F S S A - ..g.g.g.k.x.",
"v.c.k.j.i.1._ R : : G G J J J G ; J J J o S J J : # G G G G G S A S X. .a.g.j.k.c.",
"v.x.k.k.p.O.K P F : J J J J F G # J J J o S J G : ; P J G G G F D J P ( a.g.k.k.x.",
"c.c.k.g.p.@.5 i y y p p y i i i 6 y i s X = p i 6 8 p i i i i i y y 8 k p.g.k.k.x.",
"c.c.k.g.a.@.3 0 r 4 4 4 e 0 4 4 7 t 7 6 o y 4 e e 4 4 4 t 7 4 4 e t 2 t a.j.k.k.x.",
"c.c.k.g.p.@.4 7.c.C 1 z j.p.9 1 %.c.%.. o & f j.s.q 1 $.b.;.1 9 a.l.n f p.g.k.k.x.",
"v.x.k.k.p.{ 7 w.c.C 1 n x.p.9 2 ;.c.=.5 o 8 n k.a.q 2 ;.v.;.1 0 p.k.n t i.g.k.k.v.",
"c.c.k.j.a.@.1 0 z 2 2 4 z q 4 4 7 h 7 6 X y 4 h t 2 4 0 n 9 4 4 t z 2 h p.g.j.k.c.",
"c.c.k.j.p. .$ % % - > = % % > % $ % y < o > > > $ % = > % % = = = % $ a a.g.j.l.c.",
"c.c.k.j.u.O.) U J G J J G J J F # G J J o S J J A ; G J J J G G F J ^ ^ s.g.g.k.c.",
"c.c.k.g.u.*.T P G G J G F J J F # G J G X S J J : ; G G J J G G J J ! ^ s.d.k.k.v.",
"v.c.k.k.f.O.R P J G G G J J G F @ G G J o S G J A A J J J J J J J J R ^ a.g.k.k.c.",
"c.x.k.j.g.*._ L G J G G J J G F # G J J o A K J : S J J G J G J J J ) ] a.g.k.x.v.",
"c.c.k.h.g.+.; S F G G G G J G S # F G J o S J G ; # G J F F F G J J S Y p.a.k.k.c.",
"c.c.k.k.g.*.Q P G G F F G J G S # G F J o F J G ; A J G G G G G J J R ~ q.g.k.x.c.",
"c.c.k.j.g.+.) U G J J D J J J D @ J J J X : J J # # J J J J J J J J ^ ! e.d.k.z.v.",
"c.c.k.j.f.+.I P J D J J J J J S + J J J X A J J A : J J G J S J J J U W i.g.k.k.v.",
"c.k.j.j.s.*.` R G S J J J J J D @ : J J o S J J # : J S G J J J J J [ ] i.g.k.k.z.",
"v.x.k.k.s.$.5 y y * y y y y y y 8 8 8 s o > u * . 8 y * y y y y y y . v a.g.k.z.v.",
"c.c.k.k.a.@.2 4 0 2 4 2 9 7 4 2 4 q 3 6 X y 2 7 4 4 4 4 0 4 4 2 4 0 1 M s.g.k.k.c.",
"c.c.k.k.f.%.4 9.l.V 1 h h.t.4 1 %.z.@.. o & t g.p.w 1 @.z.$.2 0 i.j.h B a.g.k.k.v.",
"c.c.g.g.a.@.4 i.b.Z 1 m c.s.0 2 >.v.=.. X & z z.j.t 1 %.v.:.1 0 d.l.m m a.g.j.k.c.",
"c.c.k.j.a.%.1 r N 4 2 4 n t 2 4 9 N 9 8 X y 4 n n 1 2 0 N 0 2 4 h n 2 h a.g.k.k.c.",
"c.c.k.g.t. .$ & & & * *   . * *     * = X @ * *   * * &   . * * & &   l a.g.k.k.v.",
"c.c.k.d.u.+./ U D G J J J G J S + J J J X ; J J # # J J J J J J D F ^ / p.j.k.k.c.",
"c.c.k.k.j.+.W J A ; G J J J J S @ J J J X S J J A A J S S J J J J J T ^ s.g.k.k.c.",
"v.x.k.k.f.O.T H G F J G J J J J @ J J J X : J J : : J S S J J J J J R ~ y.s.g.k.v.",
"v.c.j.k.a.O.Q < D S S : D D D S @ S J J X ; J J # # J S J S J : S A W ^ u.f.j.k.v.",
"w.i.w.u.w.&.v c T Q T T E E E T c E c E k c c Q T c Q T E E c T T c c ] 0.t.u.u.u.",
"<.<.9.q.5.<.,.,.>.$.;.=.#.=.$.#. . .{ {  .$. .$.#.$.$.$.$.=.;.%.:.,.<.,.<.,.<.;.;.",
"<.<.9.w.9.<.<.<.;.;.,.<.,.,.:.$.;.>.=.;.>.,.5.>.>.>.,.,.:.,.<.:.:.<.<.:.:.<.<.:.;.",
"<.<.<.5.:.<.<.<.:.<.<.9.9.<.;.:.<.:.<.<.<.9.u.w.<.<.9.9.:.:.<.,.:.<.<.<.q.7.<.:.=.",
"<.<.<.<.<.<.<.<.<.<.<.<.<.<.<.<.,.:.<.<.<.<.<.7.<.<.9.0.<.<.<.:.:.<.<.<.9.<.<.:.:."
};
