/* XPM */
static char *result[] = {
/* columns rows colors chars-per-pixel */
"41 42 111 2 ",
"   c #54463A",
".  c #53483F",
"X  c #5B4B3E",
"o  c #614226",
"O  c #654629",
"+  c #66482A",
"@  c #68482A",
"#  c #764E2D",
"$  c #7B522F",
"%  c #66503D",
"&  c #6B523B",
"*  c #7D5431",
"=  c #7F5836",
"-  c #72563C",
";  c #75593F",
":  c #7E5C3D",
">  c #464748",
",  c #4C4C4D",
"<  c #554A41",
"1  c #5A4F44",
"2  c #504F4F",
"3  c #5D5145",
"4  c #50504F",
"5  c #4E4F50",
"6  c #4F5052",
"7  c #525353",
"8  c #575758",
"9  c #575859",
"0  c #5A5B5B",
"q  c #615344",
"w  c #6B5641",
"e  c #6E5843",
"r  c #765B40",
"t  c #7F5C40",
"y  c #725D4C",
"u  c #5E5F60",
"i  c #646464",
"p  c #6C6C6C",
"a  c #786D65",
"s  c #7F7166",
"d  c #77706A",
"f  c #7B726C",
"g  c #6F6F70",
"h  c #727373",
"j  c #777879",
"k  c #7A7A7B",
"l  c #805733",
"z  c #855B35",
"x  c #885F37",
"c  c #875E39",
"v  c #895F38",
"b  c #8A6037",
"n  c #8C6239",
"m  c #90673F",
"M  c #805F44",
"N  c #846244",
"B  c #8B6542",
"V  c #8E6844",
"C  c #86664C",
"Z  c #8D6B4B",
"A  c #906944",
"S  c #916D4B",
"D  c #856953",
"F  c #886C56",
"G  c #896F5B",
"H  c #8F7155",
"J  c #8D725D",
"K  c #94775D",
"L  c #857466",
"P  c #8C7461",
"I  c #8D7867",
"U  c #82756A",
"Y  c #88776A",
"T  c #937B65",
"R  c #987F67",
"E  c #937D6A",
"W  c #99816C",
"Q  c #958171",
"!  c #998675",
"~  c #9A897B",
"^  c #7E7F80",
"/  c #7F8080",
"(  c #828383",
")  c #898989",
"_  c #9E8D80",
"`  c #9F9185",
"'  c #939393",
"]  c #9C9C9C",
"[  c #A19285",
"{  c #A2958B",
"}  c #A79C92",
"|  c #ACA49D",
" . c #A4A4A4",
".. c #AEA7A1",
"X. c #AFA9A4",
"o. c #ACACAC",
"O. c #B1ACA7",
"+. c #B3AEAA",
"@. c #B3B0AE",
"#. c #AFB0B0",
"$. c #B4B4B4",
"%. c #B9B7B5",
"&. c #B8B8B7",
"*. c #BBBBBB",
"=. c #BFC0C0",
"-. c #C5C5C5",
";. c #C8C7C7",
":. c #CBCBCB",
">. c #D4D4D4",
",. c #DCDCDC",
"<. c None",
/* pixels */
"<.<.<.<.<.<.<.:.:.;.-.:.-.:.:.-.:.;.-.:.-.;.:.:.:.:.-.-.:.:.-.:.:.:.<.<.<.<.<.<.<.",
"<.<.<.<.<.<.:.:.:.:.-.-.;.:.:.;.-.$.$.*.=.&.$.-.-.-.:.:.:.:.:.:.:.:.:.<.<.<.<.<.<.",
"<.<.<.<.<.:.:.:.:.:.;.:.;.=.*.*.*.$.$.&.&.%.$.&.*.*.*.-.:.:.;.-.-.-.:.:.<.<.<.<.<.",
"<.<.<.<.:.:.-.;.:.:.:.;.=.#. .@.} ~ P F y G I ` | @.$.$.*.;.:.:.:.:.:.:.:.<.<.<.<.",
"<.<.<.:.:.:.:.:.:.:.*.$.*...Q D * G C l o $ N J * G _ +.*.*.&.-.:.:.:.:.>.:.<.<.<.",
"<.<.<.:.:.:.:.:.;.$.o.o.~ : : T * Z A v @ c m S * I N t [ &.$.o.=.:.:.:.:.:.:.<.<.",
"<.<.:.:.:.:.:.:.#.o...F P Z x n * n n n @ n n n * c n Z I J +.&.o.=.:.:.-.:.:.<.<.",
"<.<.:.:.;.:.:.&.#...D # c B n z * v z n @ z n * * z n n N # F O.&.#.;.:.:.:.:.:.<.",
"<.:.;.:.:.:.-.o.X.F E n l n n x $ c * n O c b $ * l n n l n Q J @.$.&.:.:.:.:.;.<.",
"<.:.:.:.:.;.&.$.G # B n l n b z $ n n n O z b z * c n n l n B # J $.$.;.>.:.:.-.<.",
"<.-.:.:.:.=.*.` D * n n n x z c $ n n n O z n n * l n n n n n * D { &.*.;.:.:.;.:.",
":.:.;.:.-.$.o.D P = n n n n n z l n n z O b n n * z c n n n n * K D o.&.-.:.:.:.;.",
":.:.:.:.-.$.~ $ l * n n n n n z $ n n n O b n z $ z n n n n n * l * ` &.*.:.:.;.:.",
":.:.:.:.=.+.E T n * n n n n n l $ n n n O c n n $ l z n b n n * c T Q $.*.;.;.;.:.",
":.:.:.:.*...t B c l n n n n n z $ n n z O z n n * c n n z l n l z n t | =.;.;.:.;.",
":.:.;.-.$.` * l l l n n n n n c $ n n n @ n n n $ z n c n n n l z z * ` =.;.-.;.:.",
":.;.:.-.#.~ I m z l b n n n n c * n n n + c n n l z n n n x n l = n E ~ =.;.:.;.:.",
":.;.:.-.@.Q N m z z n n n n n b l n n z @ c n n l z n n n n n z b n C T *.;.:.:.:.",
":.:.;.-.#.U % & & w e e & w e w % e - - + - w e % & e e w w r w - w % s *.;.:.:.;.",
":.:.;.-.$.h , 7 9 , , , 0 6 , , 7 9 5 3 + 3 , 9 4 , , 7 9 , , , 7 8 > p *.;.:.:.:.",
":.:.:.;.$.h 7 o.-.u , p -. ., 5 ' :.h 1 + 3 p :.] 4 , ] :.h , 0 =.@.8 p *.;.:.:.:.",
":.:.:.;.@.h 8 &.>.p , k >.o.4 6 o.>./ 3 + 3 h >.$.7 ,  .>.) , i ;.-.u p &.;.:.:.:.",
":.:.:.;.$.g > i p 4 , 6 d u , , 0 g 7 3 + 3 6 g i , , 0 g 8 , , p i > p &.;.:.:.:.",
":.:.:.-.$.f   X X X X X X X X X X X X & + - X X   X 1 X X X X X X X   d *.-.;.:.:.",
":.:.:.;.$.Q H b x x n n x x n z $ z n b O b n n * l n n c n n z b n H E *.-.-.:.:.",
":.:.:.;.$.Q K m b n n n n n n l $ n n n O b n n l l n n n n n n b m K W *.;.;.:.:.",
">.:.:.:.$.Q Z b n b x n n n n x * n n b @ z n n l z n n n n n n n n Z E *.;.:.:.>.",
":.:.:.:.*.Q W m n n z n n n n x $ n n n O n n n * c n n n n n n n n W Q &.-.:.>.:.",
":.:.:.-.&.T b b n n n n n n n $ * n n b @ b n n $ l x n x z z n n n b K &.-.:.:.:.",
":.:.:.;.*.Q Z n z n z z n n n z * n z c O c n n l l n n n x z n n n Z R #.-.:.:.:.",
">.:.:.:.*.Q W n n n n b n n n z $ n n z + n n n l z n n n x n n n m W Q #.;.:.:.:.",
":.:.:.;.*.T B n n n n n n n n n $ n n n @ n n n $ z n x n x n n n n n I $.:.>.:.:.",
":.;.:.;.&.Q W m n z n n n m n x # c n n + n n n $ z n z n n n n n n W Q &.;.:.:.;.",
":.:.:.:.*.Y r r ; e ; ; ; ; - - & ; ; : O : ; ; & - ; - r ; ; ; ; ; ; L *.;.:.:.:.",
":.:.:.;.&.h , , 4 , , 4 4 , , , , 6 5 3 O q , 4 4 , , , 6 , 5 , 5 6 , d *.-.:.:.:.",
":.:.:.:.&.h 5 ] $.0 , i %.' , 2 ) *.p 1 + 3 i &.' 7 , ) &.p , 0 o. .7 g *.:.:.:.:.",
">.:.;.-.$.h 0 =.,.g > / ,.&.6 6 o.,.) 1 o 3 ^ ,.%.7 , o.,.) > i >.;.u g *.;.:.:.:.",
":.:.:.;.&.h > h k 7 , 9 Q i , 5 p / 9 3 + 4 6 Q g , , i ( 0 , 6 j j , g *.;.:.:.:.",
":.:.:.-.#.d   < < < < < . < , < . < . % + & . . . < < < < < < < . <   d *.;.:.:.:.",
":.:.:.=.#.Q Z b c b c z b c b = # b b z o = z c * * n b b c b c c b Z E *.;.:.:.:.",
":.>.:.;.*.Q R n = l n n n n n c * n n n + n n n * c n c b n n n n n W Q *.;.:.:.:.",
":.:.:.:.*.E V n c b n n n n n c * n n n @ c n n * l n = = n n n n n B E &.;.;.>.:."
};
