/* XPM */
static char *b76005671cec42ba9b99c520f5fc87fbutTWjYS8dHemvuDY[] = {
/* columns rows colors chars-per-pixel */
"35 40 11 1 ",
"  c None",
". c black",
"X c #158968",
"o c #FFDBA5",
"O c #663B93",
"+ c #8BABBF",
"@ c #566A89",
"# c #5BECF1",
"$ c #222A5C",
"% c #38002C",
"& c white",
/* pixels */
"                                   ",
"                                   ",
"                                   ",
"                                   ",
"                                   ",
"                  ..               ",
"             ..   .X.              ",
"             .X....XX.             ",
"              .XXXXXX.             ",
"             .XXXXXXX.             ",
"             .XXoooo.              ",
"             .Xo.OO..              ",
"              .o.OO..              ",
"             ..ooooo..             ",
"            .++@oooo+@.            ",
"           .++++++++++@.           ",
"           .++@+++##++@.           ",
"          .@@@$@++##+@$.           ",
"         .@@..$$@@##@$.            ",
"        .++. .$@@$$$$@.            ",
"        .++. .$@@@@$@@.            ",
"        .@.   .$@@@$@$$.           ",
"       .@.    .$$$$$$.$.           ",
"       .@.     .$$$$..$.           ",
"       .+...    .%%. .$$.          ",
"       .+++.   ..%%...$$$          ",
"       .++.   .++@@@@@$$$          ",
"        .+.  .+++@@@$$$..          ",
"         ..  .++@@@$$$$.           ",
"             .@@@$..$$$.           ",
"             .@@@. .$$$.           ",
"             .@@@.  .$$$.          ",
"             .+++.  .$$$.          ",
"             .+++.  .$$$.          ",
"             .@@.    .$$$.         ",
"             .$$.    .$$$.         ",
"             .$$.    .$$$.         ",
"             .$$.     .$$.         ",
"             .%%.     .....        ",
"             .%%.     .....        "
};
