/* XPM */
static char *Run1740162047[] = {
/* columns rows colors chars-per-pixel */
"31 33 10 1 ",
"  c black",
". c #38002C",
"X c #222A5C",
"o c #158968",
"O c #663B93",
"+ c #566A89",
"@ c #5BECF1",
"# c #8BABBF",
"$ c #FFDBA5",
"% c None",
/* pixels */
"%%%%%%%%%%%%%%%%%%%%%%%%%%%%%%%",
"%%%%%%%%%%%%%%%%%%%  %%%%%%%%%%",
"%%%%%%%%%%%%%%  %%% o %%%%%%%%%",
"%%%%%%%%%%%%%% o    oo %%%%%%%%",
"%%%%%%%%%%%%%%% oooooo %%%%%%%%",
"%%%%%%%%%%%%%% ooooooo %%%%%%%%",
"%%%%%%%%%%%%%% oo$$$$ %%%%%%%%%",
"%%%%%%%%%%%%%% o$ OO  %%%%%%%%%",
"%%%%%%%%%%%%%%% $ OO  %%%%%%%%%",
"%%%%%%   %%%   +$$$$$ %%%%%%%%%",
"%%%   ##+   ###++$$$$+  %%%%%%%",
"%% +++##+++###########+X %%%%%%",
"% ##      +###+##@@@##+X %%%%%%",
" ### %%%%% ++X+##@@@#+XX %% XX ",
" ## %%%%%%%  XXX+@@@+XX %% XXX ",
"%  %%%%%%%%%% X++XXX++X   XXX %",
"%%%%%%%%%%%%% X+++X++ XXXXX  %%",
"%%%%%%%%%%%%%% X++X+X  XX  %%%%",
"%%%%%%%%%%%%%% XXXXX %%  %%%%%%",
"%%%%%%%%%%%%%%% ..  %%%%%%%%%%%",
"%%%%%%%%%%%%%%  ..  %%%%%%%%%%%",
"%%%%%%%%%%%%% XXX### %%%%%%%%%%",
"%%%%%%%%%%%% XXX+###+ %%%%%%%%%",
"%%%%%%%     XXXX+++++ %%%%%%%%%",
"%%%%%%   XXXXXXX ++++ %%%%%%%%%",
"%%%%%   XXXXXXX % ++## %%%%%%%%",
"%%%%%     XXXX %%% +## %%%%%%%%",
"%%%%%  %%%    %%%% +++ %%%%%%%%",
"%%%%%%%%%%%%%%%%%%% ++ %%%%%%%%",
"%%%%%%%%%%%%%%%%%%% XX %%%%%%%%",
"%%%%%%%%%%%%%%%%%%% XX %%%%%%%%",
"%%%%%%%%%%%%%%%%%%% ... %%%%%%%",
"%%%%%%%%%%%%%%%%%%% ... %%%%%%%"
};
