/* XPM */
static char *_0[] = {
/* columns rows colors chars-per-pixel */
"40 44 200 2 ",
"   c #000000",
".  c #0B0200",
"X  c #0D0B0B",
"o  c #120101",
"O  c #1D0301",
"+  c #240401",
"@  c #2A0302",
"#  c #2A0109",
"$  c #340501",
"%  c #231617",
"&  c #331B1E",
"*  c #332826",
"=  c #3B3636",
"-  c #450A01",
";  c #520D01",
":  c #5A0E01",
">  c #5D1001",
",  c #650F01",
"<  c #770609",
"1  c #651101",
"2  c #6C1201",
"3  c #721201",
"4  c #7D1301",
"5  c #761908",
"6  c #610218",
"7  c #591F29",
"8  c #741E27",
"9  c #402623",
"0  c #7D2C21",
"q  c #703634",
"w  c #7B3C31",
"e  c #584945",
"r  c #575353",
"t  c #665E5A",
"y  c #6C665C",
"u  c #74695C",
"i  c #7C6A64",
"p  c #7F7E78",
"a  c #8C0B04",
"s  c #93030D",
"d  c #831401",
"f  c #8C1600",
"g  c #861508",
"h  c #911701",
"j  c #941801",
"k  c #9C1A01",
"l  c #99150D",
"z  c #8A041D",
"x  c #950114",
"c  c #971F1E",
"v  c #AD0F03",
"b  c #A2050B",
"n  c #B30B03",
"m  c #BC0D06",
"M  c #B7090B",
"N  c #A81604",
"B  c #A31B01",
"V  c #AC1C01",
"C  c #BA1603",
"Z  c #B31D00",
"A  c #BC1F00",
"S  c #B60911",
"D  c #BB011A",
"F  c #B4091A",
"G  c #9D2310",
"H  c #BA2306",
"J  c #BD2F14",
"K  c #850022",
"L  c #8E1D29",
"P  c #A5082C",
"I  c #B90526",
"U  c #BC192F",
"Y  c #AC1C31",
"T  c #BC1A31",
"R  c #90302F",
"E  c #973E2F",
"W  c #A73724",
"Q  c #B73B25",
"!  c #C90E00",
"~  c #DB0C05",
"^  c #DE0508",
"/  c #DD0A0B",
"(  c #C71201",
")  c #CA1501",
"_  c #C51D02",
"`  c #CC1C02",
"'  c #CA1F09",
"]  c #D41503",
"[  c #DC1404",
"{  c #D31B03",
"}  c #DA1B03",
"|  c #D0120D",
" . c #DF0A12",
".. c #DE001A",
"X. c #C51415",
"o. c #CC1213",
"O. c #D41C1D",
"+. c #E40406",
"@. c #E40B04",
"#. c #E5030B",
"$. c #E8010F",
"%. c #E30A0C",
"&. c #E31503",
"*. c #E21208",
"=. c #E50214",
"-. c #E80315",
";. c #E20913",
":. c #E6061B",
">. c #E9051B",
",. c #E70A1B",
"<. c #E8091C",
"1. c #C32001",
"2. c #C92102",
"3. c #D32203",
"4. c #C82819",
"5. c #DA2815",
"6. c #C13014",
"7. c #D2391E",
"8. c #C9092C",
"9. c #DD022A",
"0. c #C1142F",
"q. c #D11C28",
"w. c #C41231",
"e. c #C81632",
"r. c #C21A31",
"t. c #E70320",
"y. c #E30422",
"u. c #E70521",
"i. c #E70326",
"p. c #E90523",
"a. c #E70821",
"s. c #E80822",
"d. c #E2052A",
"f. c #C9262C",
"g. c #C7372B",
"h. c #C93C2A",
"j. c #D13928",
"k. c #C82F35",
"l. c #CC3C32",
"z. c #BF4129",
"x. c #AC4735",
"c. c #BC4C37",
"v. c #BC503C",
"b. c #C34129",
"n. c #CB432A",
"m. c #D1432C",
"M. c #CC4533",
"N. c #C24E38",
"B. c #D14A33",
"V. c #825A4E",
"C. c #BE5946",
"Z. c #B65E4F",
"A. c #B65F53",
"S. c #B46759",
"D. c #9E5C6C",
"F. c #AE5968",
"G. c #B9786E",
"H. c #A27A73",
"J. c #BD7E75",
"K. c #DA4C41",
"L. c #C55A49",
"P. c #CA5F51",
"I. c #C85957",
"U. c #C36251",
"Y. c #CA6052",
"T. c #C96858",
"R. c #D56257",
"E. c #CF6766",
"W. c #CC766D",
"Q. c #D67771",
"!. c #83807C",
"~. c #BB8178",
"^. c #CD847B",
"/. c #8F8985",
"(. c #9A8F8A",
"). c #98938C",
"_. c #A08D88",
"`. c #A09695",
"'. c #ACA19F",
"]. c #C28A83",
"[. c #CD8C85",
"{. c #D28C86",
"}. c #CE908B",
"|. c #CD9793",
" X c #D49A97",
".X c #CBA39F",
"XX c #C8A9A7",
"oX c #C5B1A9",
"OX c #CDB7B5",
"+X c #CDBBBC",
"@X c #D0B6BA",
"#X c #CEBFC1",
"$X c #CDC4C7",
"%X c #CEC5C8",
"&X c #CEC9CC",
"*X c #D4CDCC",
"=X c #CFCED3",
"-X c #DDDCD8",
";X c #E1DDD9",
":X c #E1E3DD",
/* pixels */
"        o 6 P w.0.0.0.0.r.r.r.U U U T T T T T T T T r.r.r.r.e.w.I K #           ",
"      . 6 8.d.d.i.i.i.u.u.u.u.u.u.u.i.i.t.t.i.i.u.u.:.i.i.t.u.i.9.9.z .         ",
"      o z d.i.p.s.a.a.<.<.<.:.:.:.:.:.:.:.:.>.>.:.:.:.:.:.<.u.u.y.9.I O         ",
"      o x i.y.:.,.,.>.>.-.-.-.-.-.-.-.-.-.-.-.-.-.-.-.-.-.>.<.:.y.y.I #         ",
"      o x >.:.;.-.-.-.-.-.-.-.-.-.-.-.-.-.-.-.-.-.-.-.-.-.-.-.-.=...D +         ",
"      o x >.=.=.$.#.#.$.=.=.=.=.=.=.=.=.%.%.%.%.%.$.=.=.=.-.-.=.=.=.D +         ",
"      o s =.#.#.+.+.#.#.%.%.*.*.*.*.*.&.&.&.&.&.&.@.#.=.=.=.=.-.;.;.D +         ",
"      o s =.+.@.+.^ ^ [ } } [ 5.R.{. X X|.Q.K.[ &.[ ~ ^ =.-.;.;.;. .S +         ",
"      o s %.@.@.%.~ [ { { { Q.&X=X=X=X=X=X=X=X@XK.[ [ [ %.-.;.;.%. .S +         ",
"      o s [ [ [ [ ] { ` ` }.=X=X=X=X=X=X=X=X=X=X=XR.[ ] [ / ;.^ ~ / M +         ",
"      o s [ } [ { ` ` ` P.=X=X=X=X=X=X=X=X=X=X=X=X&Xj.{ ] ] ~ ~ ~ ~ M +         ",
"      o a ] } } { ` ` ` @X=X=X=X=X=XW.l.|.=X=X=X=X=X}.` ` ) ] ~ ] ~ M +         ",
"      o a { } { { ` ` M.=X=X=X=X=X&X( ! l.=X=X=X=X=X&X' ` ` { ] ] [ n +         ",
"      o a { { { { ` ` E.=X=X=X=X=X&X! ! g.=X=X=X=X=X=XM.` ` ` { { ] n +         ",
"      o a ` { { { ` ` ^.=X=X=X=X=X&X( ( g.=X=X=X=X=X=XL.` ` ` ` ` ] n @         ",
"      o f ` { { { ` ` [.=X=X=X=X=X&X) ) g.=X=X=X=X=X=XP._ 2.` ` ` ` n @         ",
"      o f ` ` ` ` ` ` [.=X=X=X=X=X&X) ) g.=X=X=X=X=X=XP._ 2.` ` _ ` v @         ",
"      o a ` ` ) ` ` ` [.=X=X=X=X=X%X` ` h.=X=X=X=X=X=XP._ 1.2.` ) ) n $         ",
"      . < m C _ ` ` ` [.=X=X=X=X=X&X{ 3.m.=X=X=X=X=X=XY._ _ 2.` _ m b @         ",
"      % 7 L l C ` ` ` ^.=X=X=X=X=X&X3.3.B.=X=X=X=X=X=XY._ _ ` ) N c 8 & X       ",
"      i (._.R v ) _ _ W.=X=X=X=X=X=XW.h.|.=X=X=X=X=X=XU._ 1.1.( l H.)./.=       ",
"      '.:X;XF.F X.X.X.I.=X=X=X=X=X=X=X=X=X=X=X=X=X=X=XI.o.o.| o.c OX:X-Xr       ",
"      `.&X*XD.Y f.f.f.k.&X=X=X=X=X=X=X=X=X=X=X=X=X=X=XE.q.q.O.4.R oX*X&Xr       ",
"      t p !.q g B B B B J.=X=X=X=X=X=X=X+X=X=X=X=X=X=XA.B B V B 5 i p !.=       ",
"      e y u 0 N A A A A H .X=X=X=X=X=X#XL.=X=X=X=X=X=XU.A A A Z g V.y t *       ",
"      9 w E G Z A A A A Z H T..XOXOX{.7.m.=X=X=X=X=X=XU.A A A V k W w * X       ",
"      o < N V Z A A A A A A 1.1.1.1.2.2.n.=X=X=X=X=X=XU.A Z Z Z V N a +         ",
"      . 3 V V Z Z A A H J J 6.6.J 6.1.1.b.=X=X=X=X=X=XL.Z Z Z Z Z Z k +         ",
"      . 3 Z Z Z Z Z Z C.=X=X=X=X=X=XN.1.b.=X=X=X=X=X=XC.Z Z Z Z Z Z j +         ",
"      . 3 Z V Z Z Z Z v.=X=X=X=X=X=XN.A z.=X=X=X=X=X=XQ Z Z Z Z Z Z j +         ",
"      . 2 Z V V Z Z Z Q =X=X=X=X=X=XC.Z c.=X=X=X=X=X$XZ Z Z Z Z Z Z j +         ",
"      . 2 V B V V V Z V OX=X=X=X=X=XXXZ.XX=X=X=X=X=X].V V V V Z Z V j +         ",
"      . 1 V B B V V V V Z.=X=X=X=X=X=X=X=X=X=X=X=X&XW V V V V V V V h +         ",
"      . 1 B B B V V B B B ].=X=X=X=X=X=X=X=X=X=X=XZ.B B B B B V V V f +         ",
"      . > B k B B B k k B B S.+X=X=X=X=X=X=X=XXXx.B B B B B B B B B d O         ",
"      . > k k k k k k k k B B B x.S.G.~.G.S.W k k k k k k k B B k B d O         ",
"      . > k k k k k k k k k k B k k k k k k k k k k k k k k k k k k 4 o         ",
"      . > j j j j j k j j k k k k k k k k k j j j j j j k k j j j j 2 .         ",
"      . : f h h h h j h j j j j j h h j h h h h h h h h h h h f h f , .         ",
"      . : f f f f f f f f f f f f f f h f f f f f f f h h f f f f f :           ",
"      . ; d d d d d f f f f f f f f f f f f f f f f f f f f f d d d ;           ",
"      . - 4 4 4 4 4 d d d d d d d d d d d d d d d d d d d d d 4 4 4 -           ",
"        + 2 4 4 4 4 4 4 4 4 4 4 4 4 4 4 4 4 4 4 4 4 4 4 4 4 4 4 3 2 $           ",
"        . - 2 3 3 3 3 3 3 3 3 3 2 2 3 3 3 3 3 3 3 3 3 3 3 3 2 2 1 ; o           "
};
