/* XPM */
static char *_[] = {
/* columns rows colors chars-per-pixel */
"40 44 216 2 ",
"   c #000000",
".  c #0B0001",
"X  c #140301",
"o  c #1C0301",
"O  c #100D0D",
"+  c #1A1111",
"@  c #220202",
"#  c #280401",
"$  c #300F0C",
"%  c #3E302D",
"&  c #2F2828",
"*  c #490B01",
"=  c #460A01",
"-  c #5B0F01",
";  c #530E01",
":  c #5E1102",
">  c #610F01",
",  c #790106",
"<  c #611002",
"1  c #6C1201",
"2  c #761302",
"3  c #7C1401",
"4  c #610219",
"5  c #531825",
"6  c #741623",
"7  c #413B3C",
"8  c #442927",
"9  c #703331",
"0  c #7F4035",
"q  c #594B45",
"w  c #645D5C",
"e  c #7C5A4D",
"r  c #6A675C",
"t  c #78685E",
"y  c #776F6C",
"u  c #8E0F01",
"i  c #830802",
"p  c #920905",
"a  c #9B0D01",
"s  c #980609",
"d  c #821401",
"f  c #8A1701",
"g  c #8F1800",
"h  c #9D1300",
"j  c #941901",
"k  c #9B1A02",
"l  c #941305",
"z  c #950110",
"x  c #9A0113",
"c  c #970118",
"v  c #921019",
"b  c #A90803",
"n  c #BE0C03",
"m  c #BE090C",
"M  c #A41400",
"N  c #A41C02",
"B  c #AC1D01",
"V  c #AE1300",
"C  c #B41400",
"Z  c #BC1401",
"A  c #B31E01",
"S  c #BC1D01",
"D  c #AE0014",
"F  c #BD0911",
"G  c #BD0416",
"H  c #BE1918",
"J  c #AF2207",
"K  c #B42103",
"L  c #BB2102",
"P  c #B5230D",
"I  c #A22614",
"U  c #8D0520",
"Y  c #910027",
"T  c #8E1226",
"R  c #AF0A2A",
"E  c #8E2521",
"W  c #8B3A3B",
"Q  c #AB3926",
"!  c #B53D2A",
"~  c #C70600",
"^  c #CA0300",
"/  c #C60B02",
"(  c #CC0D00",
")  c #C9090C",
"_  c #DB0D04",
"`  c #DC0C0B",
"'  c #D80A0C",
"]  c #C61200",
"[  c #CC1300",
"{  c #C41C02",
"}  c #CB1D03",
"|  c #D51402",
" . c #DC1403",
".. c #D31C03",
"X. c #DB1B03",
"o. c #D1130C",
"O. c #C2011B",
"+. c #C61515",
"@. c #CB1618",
"#. c #D61815",
"$. c #E40405",
"%. c #E30C02",
"&. c #E4040B",
"*. c #E8000C",
"=. c #E30A0C",
"-. c #E9090A",
";. c #E41203",
":. c #E51B06",
">. c #E50214",
",. c #E90316",
"<. c #E30A12",
"1. c #E4031A",
"2. c #E9031A",
"3. c #E8081C",
"4. c #E70918",
"5. c #F2081C",
"6. c #C32103",
"7. c #CB2103",
"8. c #C5230B",
"9. c #CC2209",
"0. c #D12304",
"q. c #D12512",
"w. c #D11B29",
"e. c #D10F32",
"r. c #CE1434",
"t. c #C71C34",
"y. c #CB1C35",
"u. c #D31936",
"i. c #CE052C",
"p. c #E40422",
"a. c #ED0323",
"s. c #E90820",
"d. c #EA0924",
"f. c #EB032C",
"g. c #E9062B",
"h. c #F70325",
"j. c #EC0232",
"k. c #C8262E",
"l. c #C7242D",
"z. c #D42120",
"x. c #C82630",
"c. c #CD2932",
"v. c #CF3333",
"b. c #914437",
"n. c #AD4432",
"m. c #B7412B",
"M. c #CD4839",
"N. c #B75A4A",
"B. c #BF604F",
"V. c #B76456",
"C. c #807F79",
"Z. c #9E7A74",
"A. c #BB6F63",
"S. c #B87369",
"D. c #BB7B76",
"F. c #AD6675",
"G. c #CD5043",
"H. c #C7594A",
"J. c #D8564B",
"K. c #C3604F",
"L. c #C26352",
"P. c #CB6A5E",
"I. c #CF6454",
"U. c #D4625A",
"Y. c #CA6F63",
"T. c #C67368",
"R. c #D17365",
"E. c #CC7F7C",
"W. c #C87872",
"Q. c #D77972",
"!. c #82817C",
"~. c #C5857C",
"^. c #CB867D",
"/. c #98948D",
"(. c #9F9590",
"). c #878581",
"_. c #ACA29F",
"`. c #BCB1AE",
"'. c #CC8783",
"]. c #CB8B83",
"[. c #CA8C88",
"{. c #D48D87",
"}. c #CA918A",
"|. c #C1948E",
" X c #C89795",
".X c #D39793",
"XX c #C8A19E",
"oX c #CDA8A7",
"OX c #C4ACB0",
"+X c #CDB3B3",
"@X c #CDB7B8",
"#X c #CDBABB",
"$X c #C8BAB1",
"%X c #D0BABC",
"&X c #D0A6A4",
"*X c #D3C3BC",
"=X c #CEBEC1",
"-X c #D0BBC0",
";X c #CFCACE",
":X c #CEC4C6",
">X c #D1C0C8",
",X c #CFCCD1",
"<X c #CFCDD2",
"1X c #CFD1D6",
"2X c #CFD4DB",
"3X c #CFD8DF",
"4X c #D0D5DB",
"5X c #D1D8DF",
"6X c #DCD9D8",
"7X c #E1DDDC",
"8X c #CFDAE1",
"9X c #D1DBE2",
"0X c #D0E5EE",
"qX c #D0E0E7",
"wX c #EAF2EA",
"eX c #F6F7F2",
/* pixels */
"        . 4 R r.u.r.r.r.y.y.y.y.y.t.t.t.t.t.t.t.t.y.y.y.y.u.u.e.i.Y @           ",
"        4 i.f.f.a.a.a.d.a.a.a.a.a.a.a.a.a.a.a.a.a.a.a.a.a.a.a.a.g.j.U           ",
"        U g.g.d.s.s.s.s.3.3.3.3.3.3.3.3.4.4.4.3.3.3.3.3.3.3.s.d.p.p.R X         ",
"        c h.p.3.3.4.4.4.,.,.,.,.,.,.,.,.,.,.,.,.,.,.,.,.,.3.3.1.p.p.O.@         ",
"        x h.1.1.,.,.,.>.,.,.,.,.,.,.,.,.,.,.,.,.,.,.,.,.,.,.2.1.1.1.O.o         ",
"        x 5.>.>.,.*.&.*.>.,.,.,.1.,.,.,.<.<.=.-.-.>.>.,.,.1.2.,.>.2.O.o         ",
"        z 2.&.-.-.$.&.&.&.=.%.%.%.%.;.;.;.%.%.;.:.%.&.>.>.,.,.4.<.4.G o         ",
"        z ,.$.%.$.` =. .X. .q.J.Q.{..X.X{.Q.J.#.%.;. .` ,.,.<.<.<.<.F o         ",
"        x -.%.-.=._  ...| J.%X2X8X3X2X2X8X8X2X%XJ._  . .=.1.<.=.=.<.F o         ",
"        s ;.X. . ...0.[ G.2X2X,X,X,X,X,X,X,X,X2X3XU._ |  .` <.=._ =.m o         ",
"        s ;.X. ...} } } +X2X,X,X,X1X1X<X1X,X,X,X<X;Xv.| ..| ` _ _ =.m o         ",
"        p  .X.X...} [ M.1X,X,X,X1X;XH.M.#X1X,X,X;X8XE.( } [ | _ | %.m @         ",
"        p X.X.X...} [ P.8X,X,X,X3X X~ ^ '.8X,X,X,X2X&X} } } ..| |  .n @         ",
"        p X.......} [ E.8X;X,X,X8X[./ ~ '.9X,X,X,X2X@X9.} } } .... .n @         ",
"        u ........} | ^.3X;X,X;X4X[./ / '.9X,X,X,X2X@X8.} } } } } ..n @         ",
"        g ........} | ].0X4X3X4X0X X( ( '.8X,X,X,X2X@X8.{ 7.7.} } ..Z @         ",
"        l ..} } } } } M.Y.P.P.P.Y.G.{ ] ].8X,X,X,X4XXX{ { 7.7.} { } C @         ",
"        u ..} } } } } [ ] ] ] [ ^ ( ( 9.+X2X,X,X;X9XY.] 7.6.7.} { } n #         ",
"        , / Z { } 7.} 7.7.7.7.9.I.R.R.&X2X,X,X,X8X&X8.} } 6.7.} { n D @         ",
"      + 5 T l C } 7.} } } } } 9.#X8X8X2X,X,X<X;X].8.] } { } } } B v 6 $         ",
"      y (.(.W b } { { { { { { 8.+X<X;X,X,X,X,X,X=X'.8.S 6.6.6.[ a Z././.7       ",
"      `.eXwXF.D @.+.+.+.+.+.+.H -X9X5X4X,X,X,X,X1XqXE.) @.o.o.o.v *XwXeXr       ",
"      _.6X7XF.R c.l.k.k.x.x.x.v.W.D.D.OX4X,X,X,X,X1X>Xc.w.w.#.z.E $X6X7Xw       ",
"      w C.!.9 i B N N M M M M h a a a I @X4X,X,X<X<X,Xn.M N B B 2 t y ).7       ",
"      q r r 9 M 7.6.{ H.}.~.].~.}.L.6.{ }.5X,X,X<X,X4XH.Z L S A d e r r &       ",
"      8 0 b.I B L L Z ].0X4X9X4X0X.X....{.8X,X,X<X,X4XK.Z L S A k Q b.% O       ",
"      . , M M A L L Z ~.5X;X,X;X2X}.} } ].8X,X,X<X,X4XL.C L A A B V p o         ",
"        2 A A A S L C ~.9X,X,X,X5X}.{ { ].9X,X<X<X,X4XL.C K A A A L N o         ",
"        2 S A A A K C ~.9X,X,X,X5X}.S S ].9X,X<X,X,X4XB.C K A A A S k o         ",
"        2 S A A A K C T.9X;X,X,X5X}.S S ].9X,X,X,X,X4XN.C K A A A A k o         ",
"        2 S B B A K C B.4X,X,X,X4X@XP C XX4X,X,X,X,X,Xm.C A A A A A k o         ",
"        1 A N B B B C ! ,X,X,X,X,X4X X[.<X,X,X,X,X4X@XJ B B A A A A k o         ",
"        1 A N N B B A B XX9X;X,X,X,X4X5X,X,X,X,X;X9XS.M B B B B B A k o         ",
"        < B N N B B N M Q :X9X<X,X,X;X;X,X,X,X4X9X|.N M M M B B B B j o         ",
"        < N k N N N k k h Q  X;X4X9X9X9X9X4X,X+XV.N N N N N N N N B g o         ",
"        : N k k k k k k k M M Q N.S.D.D.S.V.n.N h k k k k N k N k N f X         ",
"        : N k k k k k k k N k h a a a a a a h k k k k k k k k k k N d X         ",
"        < k j j j j k j j k k k k k j k k k j k k k k k k k j j j k 1 .         ",
"        > j j j j j j j j j j j j j j j j j j j j j j j j j j g g j <           ",
"        - f f f g g g g g g g g g g g g g g g g g g g g g g g f f j -           ",
"        ; f d d d f f f f f f f f f f f f f f f f f f f f f f d d f ;           ",
"        * d d 3 3 3 d d d d d d d d d d d d d d d d d d d d d 3 3 d *           ",
"        # 2 3 3 3 3 3 3 3 d d d d d d d d d d 3 3 3 3 3 3 3 3 3 3 3 $           ",
"        . = 2 2 2 2 2 2 2 2 2 2 2 2 2 2 2 2 3 3 3 3 3 3 3 3 2 1 1 - X           "
};
