/* XPM */
static char *_[] = {
/* columns rows colors chars-per-pixel */
"40 44 197 2 ",
"   c #000000",
".  c #0B0200",
"X  c #0D0B0B",
"o  c #120101",
"O  c #1D0301",
"+  c #240401",
"@  c #2A0302",
"#  c #2A0109",
"$  c #340501",
"%  c #231617",
"&  c #331B1E",
"*  c #332826",
"=  c #3B3636",
"-  c #450A01",
";  c #520D01",
":  c #5A0E01",
">  c #5D1001",
",  c #650F01",
"<  c #770609",
"1  c #651101",
"2  c #6C1201",
"3  c #721201",
"4  c #7D1301",
"5  c #761908",
"6  c #610218",
"7  c #591F29",
"8  c #741E27",
"9  c #402623",
"0  c #7D2C21",
"q  c #703634",
"w  c #7B3C31",
"e  c #584945",
"r  c #575353",
"t  c #665E5A",
"y  c #6C665C",
"u  c #74695C",
"i  c #7C6A64",
"p  c #7F7E78",
"a  c #8C0B04",
"s  c #93030D",
"d  c #831401",
"f  c #8C1600",
"g  c #861508",
"h  c #911701",
"j  c #941801",
"k  c #9C1A01",
"l  c #991509",
"z  c #8A041D",
"x  c #950114",
"c  c #971F1E",
"v  c #AD0F03",
"b  c #A2050B",
"n  c #B30B03",
"m  c #BC0D06",
"M  c #B7090B",
"N  c #A81604",
"B  c #A31B01",
"V  c #AC1C01",
"C  c #B81507",
"Z  c #B31D00",
"A  c #BC1F00",
"S  c #B60911",
"D  c #B7051A",
"F  c #9D2310",
"G  c #B72408",
"H  c #BC280D",
"J  c #A72C14",
"K  c #AB331C",
"L  c #850022",
"P  c #8E1D29",
"I  c #A5082C",
"U  c #B90526",
"Y  c #BC192F",
"T  c #AC1C31",
"R  c #BC1A31",
"E  c #90302F",
"W  c #973E2F",
"Q  c #B92222",
"!  c #A43928",
"~  c #C60E00",
"^  c #DB0C05",
"/  c #DE0508",
"(  c #DD0A0B",
")  c #C41302",
"_  c #CA1502",
"`  c #C51C02",
"'  c #CB1C02",
"]  c #D41503",
"[  c #DB1404",
"{  c #D21B03",
"}  c #DA1C02",
"|  c #D6160E",
" . c #DF0A12",
".. c #DE001A",
"X. c #C51415",
"o. c #CC1213",
"O. c #D41C1D",
"+. c #E40406",
"@. c #E40B04",
"#. c #E5030B",
"$. c #E8010F",
"%. c #E30A0C",
"&. c #E41503",
"*. c #E21208",
"=. c #E50214",
"-. c #E80315",
";. c #E20913",
":. c #E6061B",
">. c #E9051B",
",. c #E70A1B",
"<. c #E8091C",
"1. c #C32001",
"2. c #C92102",
"3. c #C2240A",
"4. c #D12303",
"5. c #CA2A1A",
"6. c #DC261C",
"7. c #C9092C",
"8. c #DD022A",
"9. c #C1142F",
"0. c #D11C28",
"q. c #C41231",
"w. c #C81632",
"e. c #C21A31",
"r. c #E70320",
"t. c #E30422",
"y. c #E70521",
"u. c #E70326",
"i. c #E90523",
"p. c #E70821",
"a. c #E80822",
"s. c #E2052A",
"d. c #C9262C",
"f. c #C93629",
"g. c #CA3B2B",
"h. c #DD3527",
"j. c #DD3529",
"k. c #DA3929",
"l. c #DB392B",
"z. c #C93537",
"x. c #BF4129",
"c. c #B64733",
"v. c #AF503F",
"b. c #BD513D",
"n. c #C34129",
"m. c #CB432A",
"M. c #D0442B",
"N. c #D14835",
"B. c #BC3F41",
"V. c #C83E42",
"C. c #825A4E",
"Z. c #AE5444",
"A. c #BE5D4C",
"S. c #B65F53",
"D. c #B06052",
"F. c #9E5C6C",
"G. c #AE5968",
"H. c #BF6F62",
"J. c #B77266",
"K. c #AE7B73",
"L. c #CD5344",
"P. c #C95948",
"I. c #C8575B",
"U. c #C9595D",
"Y. c #C26250",
"T. c #CE6354",
"R. c #CD695E",
"E. c #CC6A66",
"W. c #CC7469",
"Q. c #CA796E",
"!. c #83807C",
"~. c #BB8078",
"^. c #C38278",
"/. c #CC837B",
"(. c #948E89",
"). c #9A8F8A",
"_. c #A08D88",
"`. c #A09695",
"'. c #ACA19F",
"]. c #C58B83",
"[. c #CA8C85",
"{. c #D28985",
"}. c #C0908A",
"|. c #C9A09E",
" X c #C8A8A7",
".X c #CCACAB",
"XX c #C5B1A9",
"oX c #CEBAB9",
"OX c #CEBFC1",
"+X c #CEC2C7",
"@X c #CEC4C8",
"#X c #CEC9CB",
"$X c #D4CDCC",
"%X c #CFCED3",
"&X c #DDDCD8",
"*X c #E1DDD9",
"=X c #E1E3DD",
/* pixels */
"        o 6 I q.9.9.9.9.e.e.e.Y Y Y R R R R R R R R e.e.e.e.w.q.U L #           ",
"      . 6 7.s.s.u.u.u.y.y.y.y.y.y.y.u.u.u.u.u.u.y.y.:.:.u.r.y.u.s.8.z .         ",
"      o z s.u.i.a.p.p.<.<.<.:.:.:.:.:.:.:.:.:.:.:.:.:.:.:.<.y.y.t.8.U O         ",
"      o x u.t.:.,.,.>.>.-.-.-.-.-.-.-.-.-.-.-.-.-.-.-.-.-.>.<.:.t.t.U #         ",
"      o x >.:.;.-.-.-.-.-.-.-.-.-.-.-.-.-.-.-.-.-.-.-.-.-.-.-.-.=...D +         ",
"      o x >.=.=.$.#.#.$.=.=.=.=.=.=.=.=.%.%.%.%.%.$.=.=.=.-.-.=.=.=.D +         ",
"      o s =.#.#.+.+.#.#.%.%.*.*.*.*.*.&.&.&.&.&.&.@.#.=.=.=.=.-.;.;.D +         ",
"      o s =.+.@.+./ / | k.k.k.k.k.k.k.h.h.k.j.j.j.h.6./ =.-.;.;.;. .S +         ",
"      o s %.@.@.%.^ [ N.%X%X%X%X%X%X%X%X%X%X%X%X%X%X{.[ %.-.;.;.%. .S +         ",
"      o s [ [ [ [ ] { N.%X%X%X%X%X%X%X%X%X%X%X%X%X%X{.] [ ( ;./ ^ ( M +         ",
"      o s [ } [ { ' ' L.%X%X%X%X%X%X%X%X%X%X%X%X%X%X{.{ ] ] ^ ^ ^ ^ M +         ",
"      o a ] } } { ' ' L.%X%X%X%X%X%X%X%X%X%X%X%X%X%X[.' ' _ ] ^ ] ^ M +         ",
"      o a { } { { ' ' P.%X%X%X%X%X%Xg.f.f.f.f.g.g.g.5.' ' ' { ] ] [ n +         ",
"      o a { { { { ' ' T.%X%X%X%X%X#X~ ~ ) ~ ) ) ' ' ' ' ' ' ' { { ] n +         ",
"      o a ' { { { ' ' T.%X%X%X%X%XOX) _ ) ) ) ` ` ` ` ` ' ' ' ' ' ] n @         ",
"      o f ' { { { ' ' R.%X%X%X%X%XoX_ L.|.+X@X.XE.3.` ` ` 2.' ' ' ' n @         ",
"      o f ' ' ' ' ' ' E.%X%X%X%X%X.X/.%X%X%X%X%X%X X3.` ` 2.' ' ` ' v @         ",
"      o a ' ' ` ' ' ' W.%X%X%X%X%XoX%X%X%X%X%X%X%X%XQ.` ` 1.2.' ` _ n $         ",
"      . < m C ` ' ' ' Q.%X%X%X%X%X%X%X%X%X%X%X%X%X%XOX` ` ` 2.' ` m b @         ",
"      % 7 P l C ' ' ' /.%X%X%X%X%X%X%X%X%X%X%X%X%X%X%Xg.` ` ' ` N c 8 & X       ",
"      i )._.E v ` ` ` /.%X%X%X%X%X%XQ.5.[.%X%X%X%X%X%XP.` ` ` ) l K.).(.=       ",
"      '.=X*XG.D X.X.X.V.U.U.U.U.U.U.Q C B.%X%X%X%X%X%XI.o.o.o.o.c oX=X&Xr       ",
"      `.#X$XF.T d.d.d.d.d.d.d.z.z.z.z.z.I.%X%X%X%X%X%XE.0.0.O.5.E XX$X#Xr       ",
"      t p !.q g B B B B B B B k k k k j ! %X%X%X%X%X%XS.B B V B 5 i p !.=       ",
"      e y u 0 N A A A G H H H H H 3.1.1.n.%X%X%X%X%X%XY.A A A Z g C.y t *       ",
"      9 w W F Z A A A [.%X%X%X%X%X@X4.4.M.%X%X%X%X%X%XY.A A A V k ! w * X       ",
"      o < N V Z A A A [.%X%X%X%X%X@X2.2.m.%X%X%X%X%X%XY.A Z Z Z V N a +         ",
"      . 3 V V Z Z A A ].%X%X%X%X%X@X` 1.n.%X%X%X%X%X%XY.Z Z Z Z Z Z k +         ",
"      . 3 Z Z Z Z Z Z ].%X%X%X%X%X@XA 1.n.%X%X%X%X%X%XA.Z Z Z Z Z Z j +         ",
"      . 3 Z V Z Z Z Z ^.%X%X%X%X%X@XA A x.%X%X%X%X%X%Xc.Z Z Z Z Z Z j +         ",
"      . 2 Z V V Z Z Z H.%X%X%X%X%X#XG Z b.%X%X%X%X%X%XG Z Z Z Z Z Z j +         ",
"      . 2 V B V V V Z c.%X%X%X%X%X%X].A..X%X%X%X%X%X|.V V V V Z Z V j +         ",
"      . 1 V B B V V V V  X%X%X%X%X%X%X%X%X%X%X%X%X%Xc.V V V V V V V h +         ",
"      . 1 B B B V V B B K oX%X%X%X%X%X%X%X%X%X%X%XJ.B B B B B V V V f +         ",
"      . > B k B B B k k B J }.#X%X%X%X%X%X%X%XXXv.B B B B B B B B B d O         ",
"      . > k k k k k k k k B B J Z.J.K.~.J.D.! k k k k k k k B B k B d O         ",
"      . > k k k k k k k k k k B k k k k k k k k k k k k k k k k k k 4 o         ",
"      . > j j j j j k j j k k k k k k k k k j j j j j j k k j j j j 2 .         ",
"      . : f h h h h j h j j j j j h h j h h h h h h h h h h h f h f , .         ",
"      . : f f f f f f f f f f f f f f h f f f f f f f h h f f f f f :           ",
"      . ; d d d d d f f f f f f f f f f f f f f f f f f f f f d d d ;           ",
"      . - 4 4 4 4 4 d d d d d d d d d d d d d d d d d d d d d 4 4 4 -           ",
"        + 2 4 4 4 4 4 4 4 4 4 4 4 4 4 4 4 4 4 4 4 4 4 4 4 4 4 4 3 2 $           ",
"        . - 2 3 3 3 3 3 3 3 3 3 2 2 3 3 3 3 3 3 3 3 3 3 3 3 2 2 1 ; o           "
};
