/* XPM */
static char *_[] = {
/* columns rows colors chars-per-pixel */
"40 44 188 2 ",
"   c #000000",
".  c #0B0200",
"X  c #0D0B0B",
"o  c #120101",
"O  c #1D0301",
"+  c #240401",
"@  c #2A0302",
"#  c #2A0109",
"$  c #340501",
"%  c #231617",
"&  c #331B1E",
"*  c #332826",
"=  c #3B3636",
"-  c #450A01",
";  c #520D01",
":  c #5A0E01",
">  c #5D1001",
",  c #650F01",
"<  c #770609",
"1  c #651101",
"2  c #6C1201",
"3  c #721201",
"4  c #7D1301",
"5  c #761908",
"6  c #610218",
"7  c #591F29",
"8  c #741E27",
"9  c #402623",
"0  c #7D2C21",
"q  c #76392E",
"w  c #6A323A",
"e  c #7B3C31",
"r  c #584945",
"t  c #575353",
"y  c #665E5A",
"u  c #6C665C",
"i  c #74695C",
"p  c #7C6A64",
"a  c #7F7E78",
"s  c #8C0B04",
"d  c #93030D",
"f  c #831401",
"g  c #8C1600",
"h  c #861508",
"j  c #911701",
"k  c #941801",
"l  c #9C1A01",
"z  c #99150D",
"x  c #8A041D",
"c  c #950114",
"v  c #971F1E",
"b  c #AD0F03",
"n  c #A2050B",
"m  c #B30B03",
"M  c #BC0D06",
"N  c #B7090B",
"B  c #A51603",
"V  c #AB1603",
"C  c #A31B01",
"Z  c #AC1C01",
"A  c #BA1603",
"S  c #B31D01",
"D  c #BB1F00",
"F  c #B60911",
"G  c #BB011A",
"H  c #B4091A",
"J  c #BE1514",
"K  c #9D2310",
"L  c #BE2001",
"P  c #BB2609",
"I  c #A72912",
"U  c #AF321A",
"Y  c #850022",
"T  c #8E1D29",
"R  c #A5082C",
"E  c #B90526",
"W  c #BC192F",
"Q  c #AC1C31",
"!  c #BC1A31",
"~  c #922C27",
"^  c #973E2F",
"/  c #8D3437",
"(  c #A13729",
")  c #BE3E25",
"_  c #DB0C05",
"`  c #DE0508",
"'  c #DD0A0B",
"]  c #C71402",
"[  c #CB1502",
"{  c #C41D02",
"}  c #CB1C02",
"|  c #D41503",
" . c #DB1304",
".. c #D21B03",
"X. c #DA1B03",
"o. c #D0120D",
"O. c #CA0D17",
"+. c #DF0A12",
"@. c #DE001A",
"#. c #C41515",
"$. c #CB1214",
"%. c #D41C1D",
"&. c #E40406",
"*. c #E40B04",
"=. c #E5030B",
"-. c #E8010F",
";. c #E30A0C",
":. c #E41503",
">. c #E21208",
",. c #E50214",
"<. c #E80315",
"1. c #E20913",
"2. c #E6061B",
"3. c #E9051B",
"4. c #E70A1B",
"5. c #E8091C",
"6. c #C42002",
"7. c #CC2003",
"8. c #D12204",
"9. c #CB231B",
"0. c #C9092C",
"q. c #DD022A",
"w. c #C1142F",
"e. c #CD1D2A",
"r. c #D11C28",
"t. c #C41231",
"y. c #C81632",
"u. c #C11A31",
"i. c #C51A32",
"p. c #E70320",
"a. c #E30422",
"s. c #E70521",
"d. c #E70326",
"f. c #E90523",
"g. c #E70821",
"h. c #E80822",
"j. c #E2052A",
"k. c #C9262C",
"l. c #DD2E22",
"z. c #DD3727",
"x. c #DD3529",
"c. c #DA3929",
"v. c #DC3929",
"b. c #CC3739",
"n. c #B84834",
"m. c #C3402E",
"M. c #D04027",
"N. c #C1503B",
"B. c #825A4E",
"V. c #B35746",
"C. c #B9695C",
"Z. c #9E5C6C",
"A. c #AE5968",
"S. c #A27A73",
"D. c #C75748",
"F. c #CD5559",
"G. c #C86455",
"H. c #C9646C",
"J. c #C37265",
"K. c #CA7B71",
"L. c #83807C",
"P. c #CA8178",
"I. c #8F8985",
"U. c #9A8F8A",
"Y. c #98938C",
"T. c #A08D88",
"R. c #A09695",
"E. c #ACA19F",
"W. c #C68683",
"Q. c #CC8B87",
"!. c #CD8E89",
"~. c #CA9189",
"^. c #CA9D98",
"/. c #CEA29F",
"(. c #CBA8A6",
"). c #C5B1A9",
"_. c #CEB3B5",
"`. c #CFBAB2",
"'. c #CDBCBF",
"]. c #D1B4B6",
"[. c #CEBEC0",
"{. c #CFC4C7",
"}. c #CDCACC",
"|. c #D4CDCC",
" X c #CFCED3",
".X c #DDDCD8",
"XX c #E1DDD9",
"oX c #E1E3DD",
/* pixels */
"        o 6 R t.w.w.w.w.u.u.u.W W W ! ! ! ! ! ! ! ! u.u.u.i.y.t.E Y #           ",
"      . 6 0.j.j.d.d.d.s.s.s.s.s.s.s.d.d.d.d.d.d.s.s.2.2.d.p.s.d.q.q.x .         ",
"      o x j.d.f.h.g.g.5.5.5.2.2.2.2.2.2.2.2.2.2.2.2.2.2.2.5.s.s.a.q.E O         ",
"      o c d.a.2.4.4.3.3.<.<.<.<.<.<.<.<.<.<.<.<.<.<.<.<.<.3.5.2.a.a.E #         ",
"      o c 3.2.1.<.<.<.<.<.<.<.<.<.<.<.<.<.<.<.<.<.<.<.<.<.<.<.<.,.@.G +         ",
"      o c 3.,.,.-.=.=.-.,.,.,.,.,.,.,.,.;.;.;.;.;.-.,.,.,.<.<.,.,.,.G +         ",
"      o d ,.=.=.&.&.=.=.;.;.>.>.>.>.>.:.:.:.:.:.:.*.=.,.,.,.,.<.1.1.G +         ",
"      o d ,.&.*.&.` '  .X.c.c.c.c.c.c.z.z.v.x.x.x.l._ ' ,.<.1.1.1.+.F +         ",
"      o d ;.*.*.;._  .| .. X X X X X X X X X X X X]. . .;.<.1.1.;.+.F +         ",
"      o d  . . . .| ..} }  X X X X X X X X X X X X].X.| X.' 1.' _ ' N +         ",
"      o d  .X.X.| } } } 7. X X X X X X X X X X X X_.....| | _ _ _ _ N +         ",
"      o s | X.X...} } } }  X X X X X X X X X X X X_.[ } } [ | _ | _ N +         ",
"      o s | X...| } } } } !.!.!.Q.Q.Q.[. X X X X X_.} } } } ..| |  .m +         ",
"      o s ........} } } } } } ..[ [ ] '. X X X X X_.} } } } } ....| m +         ",
"      o s } ......} } } } } } } ] ] 9. X X X X X X(.{ { } } } } } | m @         ",
"      o g } ......} } } } } } } ] ] D. X X X X X XP.{ { { 7.} } } } m @         ",
"      o g } } } } } } } { { } } { } K. X X X X X XG.{ { { 7.} } { } b @         ",
"      o s } } { } } } } } } } } } } /. X X X X X Xm.{ { { 6.7.} { ] m $         ",
"      . < M A { } } } } } } } 7.7.8.{. X X X X X}.6.{ { { { 6.} { M n @         ",
"      % 7 T z A } } } } } } } 7.7.M. X X X X X X_.{ { } { { } { B v 8 & X       ",
"      p U.T./ b { { { { { { { { { G. X X X X X X!.{ { { { { { ] z S.Y.I.=       ",
"      E.oXXXA.H #.#.#.#.#.#.#.J #.W. X X X X X XH.O.O.$.$.$.o.o.v `.oX.Xt       ",
"      R.}.|.Z.Q k.k.k.k.k.k.k.b.b._. X X X X X XF.e.e.e.r.r.%.9.~ ).|.}.t       ",
"      y a L.w h C C C C C C C l l }. X X X X X XI B C C C C Z C 5 p a L.=       ",
"      r u i 0 C D D D D D D D D n. X X X X X X[.6.D D D D D D S h B.u y *       ",
"      9 q ^ K S D D D D D D 6.6.G. X X X X X X^.6.{ D D D D D Z l ( e * X       ",
"      o < B Z D D D D D D D 6.6.~. X X X X X XK.6.D D D D D D S Z V s +         ",
"      . 3 Z Z D D D D D D D D L _. X X X X X XD.D D D D D D D D S D l +         ",
"      . 3 D S S D D D D D D D P  X X X X X X X) D D D D D D D D D D k +         ",
"      . 3 D Z S S S S D D L D N. X X X X X X}.L D D D S S S S S S S k +         ",
"      . 2 S Z Z S S S S S D D J. X X X X X X).S S S S Z Z S Z Z S S k +         ",
"      . 2 Z C Z Z Z S Z S D D ^. X X X X X XW.Z Z Z Z Z Z Z Z Z S Z k +         ",
"      . 1 Z C C Z Z Z Z Z Z S '. X X X X X XC.Z Z Z Z Z Z Z Z Z Z Z j +         ",
"      . 1 C C C Z Z C C C Z U  X X X X X X Xn.C C C C C C C C Z Z Z g +         ",
"      . > C l C C C l l C C V. X X X X X X XI C C C C C C C C C C C f O         ",
"      . > l l l l l l l l C C C l C C C C l l l l l l l l l C C l C f O         ",
"      . > l l l l l l l l l l C l l l l l l l l l l l l l l l l l l 4 o         ",
"      . > k k k k k l k k l l l l l l l l l k k k k k k l l k k k k 2 .         ",
"      . : g j j j j k j k k k k k j j k j j j j j j j j j j j g j g , .         ",
"      . : g g g g g g g g g g g g g g j g g g g g g g g j g g g g g :           ",
"      . ; f f f f f g g g g g g g g g g g g g g g g g g g g g f f f ;           ",
"      . - 4 4 4 4 4 f f f f f f f f f f f f f f f f f f f f f 4 4 4 -           ",
"        + 2 4 4 4 4 4 4 4 4 4 4 4 4 4 4 4 4 4 4 4 4 4 4 4 4 4 4 3 2 $           ",
"        . - 2 3 3 3 3 3 3 3 3 3 2 2 3 3 3 3 3 3 3 3 3 3 3 3 2 2 1 ; o           "
};
