/* XPM */
static char *_4b6bd0395f346dad7fdd94efb84c60aOSud8bzjPMH2SGdg[] = {
/* columns rows colors chars-per-pixel */
"41 41 20 1 ",
"  c #654646",
". c #634545",
"X c #604343",
"o c #5B3F3F",
"O c #583D3D",
"+ c #5E4141",
"@ c #372626",
"# c #543A3A",
"$ c #3C2A2A",
"% c #684848",
"& c #442F2F",
"* c #4F3737",
"= c #4B3434",
"- c #312222",
"; c #6C4B4B",
": c #281B1B",
"> c #2C1F1F",
", c #1C1414",
"< c #724F4F",
"1 c #7B5656",
/* pixels */
":@,>@@-:,@@@-,@@-,@@@:-@@@-,@@-,@@@,>@@@-",
"& &o   #:   o@X o@  .#O   X:X.O&   @#   X",
"& &+   #:   o@. o$% .Oo   X>X o*   @O   X",
"= &;%% #>%  o@. O$; .+%;%  >. +O%  @X   +",
",@:@$$-,:@-@-:>@-:$@>>$&$$@,&&$-&@&>$@@$$",
"@   XX=- **  .&X   X-X  .Xo>.   +$. .=*.X",
"@     =@ **  .&X   .-.    X>    +&   *#.X",
"&%    =@ *O   *     -%    X>;   +&  .## X",
">;+O#&-$;#O<<;*111<;>%%.o#=,<;%X#@#.*@&=$",
":*==*=@&+ooO=#+O#$o++O@O++o$O+++*$++=$++O",
"@     &#    #X  X&.  X$+   =o   o=  #&  X",
"$     =+    #   X&.  X$+   =X   o*  o=  X",
"=<;;; * <;;;O.;;X=Xo#O$%;; = %.+O=X+#= .o",
"&*&#OO#&:O##$&###===&=&-*##-*#-*O*:****=&",
"# O.   o>   =+        .$+  @oX@o X-o    X",
"X +    X-   *<         $   &X.$+ X-o    X",
"OoX;+ooO-Xoo=1++++++OoO@ ++$+o$++O@<. Xo#",
",@-@@@::@>>$@@>$$$$@,@@@@$@,&&&&$:$&$-@&$",
"@.....&@.=#..X&+...+>X....o:.  .o$...=* X",
"$     =$ *O  .*X   .-X    X>%   +&  .** X",
"&+oooo&$X=#XXX*XXXX+:X++++o:.+++#$Xoo==oO",
":$>@@@-:@$$=&@$*=$==>@$&$$@,&$@-@-$:--@-:",
"&X$OXX+=-XXX#@+XO$XXX*#XXX+:XX#=XXX-#XXXo",
"= &o   #-   o@X o$%  Oo   X>  OO   -o   X",
"=.& %  #@  .o$. o$;%.X.%% .: .OX% .-X...X",
"$o$+ OO=@O+O=-+o&&.X*#X; o#-oO*=;+#@O*##=",
"$oooO&=O#$OO*>O=@oO=&oooOO&OOooOOOOOO&=oO",
"=   .#o X&. o@.#&  #;     #X.       .#O X",
"#%%% #O X=  o@.o&% #.    .O.%   .....#o .",
"=X+o#==OO=.X=@+#$o.O#X#o+O=O X+o#*oO=&oXo",
"-*****@=ooOO&#oO*$o++#-O+oO$#ooo*$+o&$+oO",
"$    .&+    #.  +&   +@+   &X   o=  #&  X",
"=%%%% =.;%%%O<%%X&   .&.;%%= %%%+*%%O=%%.",
"=<<X +&.<;%XO X o=XoO#&<1<;&;;.XO* O*#<;.",
"&oo&+oO&ooo@o#$#O###*$*OOO*@OO&&OOO:#OOO#",
"#  =<  #   $ .*X    X&o   O$  **   >X   X",
"X. *<  #; .$%.*.  ..X=X  .+= .#O  .>%   X",
"O.X*;.X*%X#$ o= ++#OX*%;oOo=*+#O+oX@; O.o",
"=.XoXX+oo+$#+oO+oo=#.+X.&*+o:+++O&Xo++$oo",
"#       X &.      *O    =O  :.  o*   .=XX",
". .. .....&<     .#%    *# .:%  o#  ..=X."
};
