/* XPM */
static char *_72a9027601f4ee7f9430a228d940240uunMAB6cAsmHA96C[] = {
/* columns rows colors chars-per-pixel */
"42 42 221 2 ",
"   c None",
".  c #020205",
"X  c #000D05",
"o  c #02060A",
"O  c #020B0D",
"+  c #0C0E0C",
"@  c #001304",
"#  c #02130B",
"$  c #06160C",
"%  c #090C13",
"&  c #030E13",
"*  c #0D151C",
"=  c #091515",
"-  c #131819",
";  c #11130E",
":  c #00230D",
">  c #052817",
",  c #03361C",
"<  c #19251F",
"1  c #1A2123",
"2  c #1A272B",
"3  c #083724",
"4  c #1F3F2D",
"5  c #262A28",
"6  c #272E34",
"7  c #2C3739",
"8  c #343739",
"9  c #2C312A",
"0  c #573926",
"q  c #583C35",
"w  c #433E34",
"e  c #653D2B",
"r  c #613C34",
"t  c #185637",
"y  c #154D2C",
"u  c #374539",
"i  c #255637",
"p  c #345536",
"a  c #186638",
"s  c #116F34",
"d  c #2B633D",
"f  c #21673A",
"g  c #56433D",
"h  c #5A5138",
"j  c #4A4430",
"k  c #77452B",
"l  c #66493B",
"z  c #774A37",
"x  c #64543B",
"c  c #255642",
"v  c #2B5347",
"b  c #3D524B",
"n  c #1C6741",
"m  c #197744",
"M  c #396244",
"N  c #227444",
"B  c #227548",
"V  c #3A6754",
"C  c #236446",
"Z  c #474C49",
"A  c #544A43",
"S  c #455B4C",
"D  c #49544A",
"F  c #575648",
"G  c #4D5A5A",
"H  c #545859",
"J  c #6A4C45",
"K  c #6C5A4C",
"L  c #655749",
"P  c #71594A",
"I  c #755E5B",
"U  c #6E5A54",
"Y  c #456759",
"T  c #536F58",
"R  c #6E644F",
"E  c #73664A",
"W  c #7B674F",
"Q  c #68665E",
"!  c #766956",
"~  c #7B715A",
"^  c #576764",
"/  c #537169",
"(  c #696866",
")  c #726C62",
"_  c #766D6A",
"`  c #697468",
"'  c #7C7363",
"]  c #73756C",
"[  c #777569",
"{  c #6A777B",
"}  c #747471",
"|  c #7A7A77",
" . c #867457",
".. c #8E6A59",
"X. c #847B63",
"o. c #8B7C63",
"O. c #857563",
"+. c #897A75",
"@. c #897663",
"#. c #AD7D61",
"$. c #1B8048",
"%. c #659377",
"&. c #94855E",
"*. c #998B6E",
"=. c #968361",
"-. c #8C8A7D",
";. c #868477",
":. c #9E8E76",
">. c #9B8D7C",
",. c #948D79",
"<. c #9C917E",
"1. c #8A846E",
"2. c #A78875",
"3. c #A4947C",
"4. c #AB9B7D",
"5. c #A79576",
"6. c #B3856D",
"7. c #789789",
"8. c #728B89",
"9. c #7DA489",
"0. c #8B8C8B",
"q. c #858787",
"w. c #958B87",
"e. c #9C9583",
"r. c #979488",
"t. c #898B93",
"y. c #8B9296",
"u. c #8B969C",
"i. c #939394",
"p. c #969898",
"a. c #8D9087",
"s. c #A49A84",
"d. c #A89886",
"f. c #B49F87",
"g. c #8CAB93",
"h. c #8DA594",
"j. c #92A291",
"k. c #ADA28B",
"l. c #B5A583",
"z. c #B6A689",
"x. c #ABA493",
"c. c #AEA99B",
"v. c #ABA799",
"b. c #B6AB97",
"n. c #9A9EA2",
"m. c #9CA3A7",
"M. c #ACABA4",
"N. c #A6A7A9",
"B. c #B5ACA7",
"V. c #B8B2A8",
"C. c #ABADB1",
"Z. c #B6B7BA",
"A. c #ACB0AE",
"S. c #C8A98C",
"D. c #C6B58D",
"F. c #C9BA97",
"G. c #D4AD98",
"H. c #C7B9A7",
"J. c #D8B9A4",
"K. c #C4BDB6",
"L. c #ADC6B9",
"P. c #CEC19D",
"I. c #D7C59D",
"U. c #DAC6AC",
"Y. c #DCCBAB",
"T. c #D7C7A6",
"R. c #C9C3B7",
"E. c #DACBB4",
"W. c #D9CCBB",
"Q. c #E2CDAE",
"!. c #EFC5AF",
"~. c #E4D2AB",
"^. c #EAD9AC",
"/. c #F2DCAD",
"(. c #EAC9B6",
"). c #E6D5B4",
"_. c #EDDBB3",
"`. c #EAD7B7",
"'. c #F3DCB6",
"]. c #F2DEBA",
"[. c #FADEB6",
"{. c #F5E1B5",
"}. c #F7E3B9",
"|. c #BABDC3",
" X c #B7BDC1",
".X c #C3BFC0",
"XX c #BBC3C8",
"oX c #BFC3C6",
"OX c #C6C8C9",
"+X c #D2DBCD",
"@X c #D5D6CB",
"#X c #C9D7D4",
"$X c #D6DCD3",
"%X c #D9D8D6",
"&X c #CFDACC",
"*X c #E8DBC9",
"=X c #F0DFCD",
"-X c #E2D9D0",
";X c #D4E2D4",
":X c #D9E7DA",
">X c #FBE4CA",
",X c #E4E2D6",
"<X c #E3E4DC",
"1X c #F3E5D9",
"2X c #DBDDE1",
"3X c #DFE7EA",
"4X c #E3E6E9",
"5X c #E5EAEC",
"6X c #EBEDEC",
"7X c #E4E8E5",
"8X c #EBF4EB",
"9X c #F1F3ED",
"0X c #FAF2EE",
"qX c #EBEEF1",
"wX c #F1EFF0",
"eX c #EDF3F4",
"rX c #EEF8F4",
"tX c #F5FAF5",
"yX c #F5FDFB",
"uX c #FAFCFC",
"iX c #F8F9F5",
/* pixels */
"                                                                                    ",
"                                                                                    ",
"                                      w.I P J J K +.B.                              ",
"                                  +.I J r e e e 0 l U +.                            ",
"                                _ g q l z z k k z z q L |                           ",
"                              | A q J ..#.6.6.#.#.2.2.w.w.N.                        ",
"                              _ g l @.S.(.!.G.S.G.J.H.R..XOX                        ",
"                            p.| K W d.(.=XJ.2...2.d.d.K.OXOX                        ",
"                            ] Q ~ o.3.U.>XJ.x 0 K O.d.K.M.m.                        ",
"                            ( Q 3.5.4.T.>XU.:.O.O.>.V.R.i.] p.                      ",
"                            ] -.P.I.I._.).Y.E.E.R.H.H.H.e.F (                       ",
"                            | c.~.{./.^.D.l.F.E.W.b.o.X.1.' )                       ",
"                            } c.T././.^.F.4.*.:.:.@.x E e.x.[                       ",
"                            | x.Q.[.}.{.~.D.o.W W P x X.b.v.]                       ",
"                            } r.T.'.'.]._.Q.H.f.3.3.*.~ ,.r.|                       ",
"                            Q ) f.Q.).].).U.F.2. .W E j ~ -.|                       ",
"                          N.i.w.<.k.U.E.b.d.5.=.=.&. .h L ] q.                      ",
"                        C.C.OX%Xc.s.k.x.~ x  .l.D.Y.P.*.F A 0.                      ",
"                        N.OXqX9X,Xc.X.' h x *.P._.{.~.P.X.j }                       ",
"                      q.C.2XyXtX9X<XR.c.! E 4.Y.]._._.).e.w Z                       ",
"                      y.XX4XyXyXtXtX8X,Xr.R o.F._.}.}.).s.F ( p.                    ",
"                    n.C.3XtXyXyXyXyXtX9XM.! E l.~.{._.).s.) 0.q.                    ",
"                    t.Z.qXuXuXyXuXyXyXtX,Xx.o.f.Q.].`.U.3.;.M.i.m.                  ",
"                    t. XqXuXuXuXeXrXyXiXiX-Xb.U.`.].U.z.<.V.@XOXN.                  ",
"                    t. XqXuXiXuX2X#X4XuX0X1X=X`.].Y.z.:.x.@X6X6X X                  ",
"                    t.Z.6XuXuXwXZ.N.Z.7X0X1X1X=XU.4.o.s.K.%X9XeX|.n.                ",
"                    t. X5XuXuXiX2XZ.n.Z.%X-XW.H.d.~ L s.c.M.$X5XXXu.                ",
"                    y.Z.4XyXuXtXiX%XA.i.r.r.w.,.>.' L v.K.OX7X4X|.u.                ",
"                    u.m.#X8XrXrXtXiX%XM.a.;.;.-.c.r.) v.%X9XeX#Xm.                  ",
"                    u.{ h.L.#X8XrXtX5X;X$X$X+X$XR.M.q.V.<X6XoXy.{ u.                ",
"                    8.b Y / 7.L.;X:X:X;X;X+X&X+XM.0.0.Z.%XOXq.Z 7 G                 ",
"                    / v c i V %.9.g.g.g.h.h.j.j.` D ] 0.i.| b - % * 8               ",
"                    V c C B N a a f t i p p p S D Z u 9 9 5 + O . o %               ",
"                  7.v t a B B s s s a f d d M T ` ` D 5 ; + . . . O o               ",
"                  G 3 3 t n B m $.m m m f d M M S G 8 ; . . . . . o o               ",
"                ^ 2 # : 3 t f N m m m B a t i 4 u u - + o . . . . o -               ",
"                7 = X @ : , y t n a n t t c Y T ^ D 1 O o . o O o % 8               ",
"                1 o o X X $ : > , , y c Y 7.        G - o o . . o 1                 ",
"                6 & O O X @ @ @ @ > S                 6 & O O O 1 H                 ",
"                  5 * = # = $ = <                       6 * = 2                     ",
"                                                                                    ",
"                                                                                    "
};
