/* XPM */
static char *_2dc1da43a8d44b699279cf43d79bf1dfaqTD76diqLjDpN9[] = {
/* columns rows colors chars-per-pixel */
"42 42 217 2 ",
"   c None",
".  c #000000",
"X  c #00000F",
"o  c #1D0000",
"O  c #001E00",
"+  c #000118",
"@  c #1C1F00",
"#  c #270000",
"$  c #2A1C00",
"%  c #003200",
"&  c #002A00",
"*  c #2B2200",
"=  c #0D0E2D",
"-  c #2D2C2C",
";  c #530000",
":  c #482900",
">  c #443800",
",  c #4C3529",
"<  c #004400",
"1  c #004E00",
"2  c #005200",
"3  c #005D00",
"4  c #074919",
"5  c #3E4400",
"6  c #00660C",
"7  c #005120",
"8  c #544500",
"9  c #5C5200",
"0  c #624D00",
"q  c #695800",
"w  c #795200",
"e  c #776B04",
"r  c #7F7502",
"t  c #5E553E",
"y  c #7B6B2F",
"u  c #001640",
"i  c #1F2F50",
"p  c #0A2E4A",
"a  c #2A3552",
"s  c #4F2B4D",
"d  c #2C5156",
"f  c #006C53",
"g  c #394A61",
"h  c #007771",
"j  c #4D4D4D",
"k  c #424141",
"l  c #505E41",
"z  c #534C5B",
"x  c #5D5D5D",
"c  c #555555",
"v  c #615F5F",
"b  c #705451",
"n  c #45695E",
"m  c #706B55",
"M  c #4A5766",
"N  c #5B5564",
"B  c #404C60",
"V  c #695870",
"C  c #4A6065",
"Z  c #6C6D6E",
"A  c #676763",
"S  c #776967",
"D  c #74756D",
"F  c #6B6B78",
"G  c #7C7B7B",
"H  c #787777",
"J  c #647C77",
"K  c #905300",
"L  c #807100",
"P  c #8D7C00",
"I  c #877800",
"U  c #927A00",
"Y  c #8F6E1F",
"T  c #B36900",
"R  c #A97400",
"E  c #907733",
"W  c #837E7C",
"Q  c #897D6E",
"!  c #00925E",
"~  c #1E9F71",
"^  c #3CA679",
"/  c #7A8856",
"(  c #579D74",
")  c #71A47E",
"_  c #9D8C00",
"`  c #958900",
"'  c #9E831D",
"]  c #A89700",
"[  c #BAA815",
"{  c #958A39",
"}  c #A8922E",
"|  c #BCA530",
" . c #D18600",
".. c #CDB932",
"X. c #CCC30A",
"o. c #E3D529",
"O. c #999249",
"+. c #8F8056",
"@. c #AC8641",
"#. c #AA8756",
"$. c #AB934C",
"%. c #B6A554",
"&. c #9A9365",
"*. c #809E7F",
"=. c #8D8C76",
"-. c #A39A6C",
";. c #A99D70",
":. c #B4A968",
">. c #CCBD4F",
",. c #D2B371",
"<. c #F6D451",
"1. c #FFF254",
"2. c #DECD7D",
"3. c #F6D270",
"4. c #FCEB62",
"5. c #FFFF60",
"6. c #FFE979",
"7. c #FFFF76",
"8. c #FFFF7E",
"9. c #EDE36E",
"0. c #787C87",
"q. c #687B83",
"w. c #788588",
"e. c #8A8A8B",
"r. c #85868A",
"t. c #9B8C88",
"y. c #8E9199",
"u. c #979797",
"i. c #9A989B",
"p. c #918599",
"a. c #A28D95",
"s. c #AFA387",
"d. c #ADA897",
"f. c #BAA98E",
"g. c #989BA2",
"h. c #A89EA3",
"j. c #B19BA7",
"k. c #9FA7AC",
"l. c #A4A4A6",
"z. c #A4A3AC",
"x. c #AEACAF",
"c. c #ADA1AB",
"v. c #A8ACB1",
"b. c #A7B6B5",
"n. c #B9B6BA",
"m. c #BBB9BD",
"M. c #B1B0B7",
"N. c #B1A4AB",
"B. c #C2B58D",
"V. c #C9BEB5",
"C. c #BDC194",
"Z. c #9AD3BC",
"A. c #D9C995",
"S. c #DEC583",
"D. c #F9DA8E",
"F. c #E9D596",
"G. c #F4C791",
"H. c #FEE38D",
"J. c #FFEC88",
"K. c #FFF482",
"L. c #FFFF87",
"P. c #FFFF8C",
"I. c #FFF088",
"U. c #FFFE93",
"Y. c #FFF29A",
"T. c #FFFF9C",
"R. c #FFEF97",
"E. c #D8CAB5",
"W. c #E9D8B9",
"Q. c #FCE4AE",
"!. c #FFFDA2",
"~. c #FFFFAB",
"^. c #FFF5A4",
"/. c #FFFAB5",
"(. c #EFE1B2",
"). c #BCBBC3",
"_. c #BBB6C5",
"`. c #C5BFC6",
"'. c #B9C4C0",
"]. c #C4C3C6",
"[. c #CACACD",
"{. c #C8C7C8",
"}. c #D2CDCD",
"|. c #DAC9C5",
" X c #DBD1CA",
".X c #CECDD0",
"XX c #D2CCD6",
"oX c #D3D2D2",
"OX c #DCDBDB",
"+X c #D7D5D9",
"@X c #C2D1D1",
"#X c #F0D6C5",
"$X c #FFFEC3",
"%X c #FFFFCD",
"&X c #FBEAD6",
"*X c #F4FFDC",
"=X c #FFFFDB",
"-X c #FBF7D7",
";X c #F7EFC3",
":X c #DCDAE0",
">X c #E2DCE2",
",X c #EEDDE3",
"<X c #D7F8E5",
"1X c #D9E1E2",
"2X c #E5E3E3",
"3X c #EDEAED",
"4X c #E9E3E3",
"5X c #F9E9E9",
"6X c #EFF0EF",
"7X c #FCFFE5",
"8X c #F9F8E9",
"9X c #EBECF1",
"0X c #FBF5F3",
"qX c #FFFFF3",
"wX c #FFFFFF",
"eX c #F7F5F7",
"rX c #F3F5F4",
/* pixels */
"                                                                                    ",
"                                        0X0X8X8X0XwX                                ",
"                                  0X Xa., . . . o Q |.5X                            ",
"                                }.t.# . . . . . . . . S V.                          ",
"                              }.H . . . . . . . . . . . x {.                        ",
"                              e.. . . ; T  . .T K R K w b n.                        ",
"                            +Xz . . ; 3.~.!.3.<.6.D.G.#XE.>X                        ",
"                            M.- . . @./.=XH.K . R @.#.W. X>XwX                      ",
"                          OXF . . . U R.=XH.. . . . +.W.d.g.9X                      ",
"                          [.a . L P _ K.$XY.q . . y A.(.m . M.                      ",
"                          ].i . <.1.1.U.T.U.^./.Q.F.F.F.L . Z 6X                    ",
"                          ].B -.8.7.7.8.X.] 2./.$XS.8 o > . D 4X                    ",
"                          ].g &.4.5.7.7.o.` 8 e E : . . _ %.H OX                    ",
"                          {.M +.K.L.L.L.8.>.o . . . . 8 >.:.H 2X                    ",
"                          {.g * 3.U.U.T.T.T.D.,.#.$.P . e / w.9X                    ",
"                          n.. . U I.U.~.!.Y.D.Y # . . . . l y.                      ",
"                        4Xh.z . : _ H.^.,.$.' 0 q 9 . . . = z.                      ",
"                      :Xx.a.|.&XO.e O.:.. . . ..<.7.4.q . . x.                      ",
"                      z.r.}.wXwX=XO.. . . . L 6.T.T.L.9.. . 0.3X                    ",
"                    [.M 0.3XwXwXqX=XC.&.. . } U.T.P.P.T.r . u .X                    ",
"                    M.p v.wXwXwXwXwXqX=X5 . . 9.P.T.T.T.I . = n.3X                  ",
"                    g.r.eXwXwXwXwXwXwXwX-.. . [ 7.U.U.T.I . S H ].                  ",
"                  [.F i.wXwXwXwXwXwXwXwX=XO.. ] 8.T.U.I.e . s.V z.2X                ",
"                  ).N c.wXwXwXwXwXwXwXwXwX$X%.J.T.T.6.] q f.&X Xz.+X                ",
"                  `.N j.wXwXwXwX,XXXwXwXwX7X%X~.~.K.| 0 { ;XwXwXm.M.                ",
"                  m.N j.wXwXwXqXa.V j.qXwXqX=X%XY._ . P A.-XwXwX_.z.                ",
"                  ].F x.wXwXwXwX5Xa.s d.-X-XQ.F.} . . { -.=.5XwX`.y.                ",
"                  .X0.z.wXwXwXwXwX5Xt.o . $ + > q . . ;.A.E.wXwX_.g.                ",
"                    g.q.<XwXwXwXwXwX-X=.. . . @ B.+.. s.7XwXwX>Xp._.                ",
"                    k.X h Z.<XwXwXwXwX7X*X*X*X=XW.B.t V.wXwX}.a u _.                ",
"                  eXw.. . . f Z.8XqXqX7X7X7X*X7Xd.v A |.wX5XX . . F ).              ",
"                  1Xd . . . . 6 ! ~ ^ ^ ( ) ) *.. . . D W = . . . . r.              ",
"                  @XO . . . . . . . . . . . . . . . . . . . . . . . A               ",
"                  b.. . . % 2 < . . . . . . . % 7 4 . . . . . . . . x rX            ",
"                OXC . . . O 2 3 3 3 2 % . . . . . . . . . . . . . . x eX            ",
"                r.. . . . . % 1 1 < < & . . . . . . . . . . . . . . Z               ",
"              m.- . . . . . . . . . . . . . d J w.x . . . . . . . . r.              ",
"              l.. . . . . . . . . . . . n b.rX    6Xr.. . . . . . - x.              ",
"              m.- . . . . . . . . . G '.            ].k . . . . . y.                ",
"                g.Z c j j j c v G l.3X                x.G A x G l.                  ",
"                OXoX.XoX}.oXoXoXOX                      +X}.}.oX2X                  ",
"                  G e.u.i.i.u.e.G                       W e.e.G                     "
};
