/* XPM */
static char *_[] = {
/* columns rows colors chars-per-pixel */
"42 42 210 2 ",
"   c None",
".  c #8F2A14",
"X  c #87351C",
"o  c #963A18",
"O  c #B03E07",
"+  c #A03E18",
"@  c #AE3319",
"#  c #B13C11",
"$  c #812122",
"%  c #983A24",
"&  c #8A4A1B",
"*  c #964615",
"=  c #9D5218",
"-  c #9A5718",
";  c #AB4E14",
":  c #B74910",
">  c #B84516",
",  c #BF6718",
"<  c #AC761D",
"1  c #B1771B",
"2  c #984235",
"3  c #A65923",
"4  c #B35C24",
"5  c #A1513C",
"6  c #A86828",
"7  c #B46327",
"8  c #B77B20",
"9  c #B97827",
"0  c #B66C3A",
"q  c #BB7C3C",
"w  c #CB5108",
"e  c #C44314",
"r  c #CB4817",
"t  c #D44E1C",
"y  c #CB5B17",
"u  c #C96B16",
"i  c #DA6617",
"p  c #C77C1F",
"a  c #DF771E",
"s  c #DF7D1B",
"d  c #E76E0F",
"f  c #ED6B0A",
"g  c #F46C0B",
"h  c #F46D07",
"j  c #EC740E",
"k  c #ED7B0E",
"l  c #E97704",
"z  c #F27305",
"x  c #F47C05",
"c  c #FA7B03",
"v  c #F3750C",
"b  c #F47D0A",
"n  c #F97B08",
"m  c #E96214",
"M  c #EC6D12",
"N  c #ED6E1A",
"B  c #E1621E",
"V  c #F16C1C",
"C  c #EE7514",
"Z  c #E67B15",
"A  c #EA7B15",
"S  c #E67319",
"D  c #E9751C",
"F  c #E57919",
"G  c #F37310",
"H  c #F07118",
"J  c #D85828",
"K  c #DF5B26",
"L  c #DF7323",
"P  c #DC7B24",
"I  c #DB7A2E",
"U  c #C16037",
"Y  c #C1733E",
"T  c #D37F35",
"R  c #DD7A33",
"E  c #D57D39",
"W  c #DA7C39",
"Q  c #E47827",
"!  c #E47435",
"~  c #E07C33",
"^  c #9F5451",
"/  c #B16940",
"(  c #B06561",
")  c #CE7F43",
"_  c #D57D44",
"`  c #D87E43",
"'  c #DC8C1D",
"]  c #EC870F",
"[  c #F38506",
"{  c #F88304",
"}  c #F58D04",
"|  c #F2810B",
" . c #F38C0C",
".. c #E9920D",
"X. c #FC9E05",
"o. c #F3940A",
"O. c #FA9209",
"+. c #F19B0C",
"@. c #FA9C0C",
"#. c #F79A04",
"$. c #E3831C",
"%. c #EA8819",
"&. c #ED9714",
"*. c #EE9811",
"=. c #EE9B1C",
"-. c #ED931D",
";. c #F39513",
":. c #F49B14",
">. c #F99913",
",. c #CCA81C",
"<. c #CBB01A",
"1. c #D2B21E",
"2. c #F5A205",
"3. c #FAA204",
"4. c #F9A409",
"5. c #F5A90C",
"6. c #F9AB0C",
"7. c #F2AA05",
"8. c #FAB40F",
"9. c #F5B60C",
"0. c #E7A617",
"q. c #F5A414",
"w. c #F4AC12",
"e. c #FAAF11",
"r. c #F5A41B",
"t. c #F3B312",
"y. c #FAB414",
"u. c #F5BA13",
"i. c #FABC14",
"p. c #F6B51B",
"a. c #FBB61C",
"s. c #F5BA1B",
"d. c #FABC1B",
"f. c #C0842B",
"g. c #DF802B",
"h. c #D7842D",
"j. c #D6932D",
"k. c #D59725",
"l. c #D28633",
"z. c #D5823B",
"x. c #DC9635",
"c. c #EB8F28",
"v. c #E38828",
"b. c #E39524",
"n. c #C7A426",
"m. c #D0AC20",
"M. c #DBB827",
"N. c #CCA433",
"B. c #D7A930",
"V. c #ECAC2B",
"C. c #E9A827",
"Z. c #F3A929",
"A. c #EFB726",
"S. c #EDB82B",
"D. c #F5B926",
"F. c #E2A739",
"G. c #E8B83B",
"H. c #F5C61D",
"J. c #FAC21B",
"K. c #FCCB1D",
"L. c #F6C718",
"P. c #EBDF1F",
"I. c #F9D91D",
"U. c #F8FA0C",
"Y. c #ECE51F",
"T. c #F5E41D",
"R. c #FAE31A",
"E. c #F5EB1C",
"W. c #F9EC1C",
"Q. c #F6F514",
"!. c #F9F514",
"~. c #F6FA14",
"^. c #FBF916",
"/. c #FAF41C",
"(. c #FAF81C",
"). c #F5F519",
"_. c #DCC225",
"`. c #ECCD25",
"'. c #E8CF2E",
"]. c #E8C82A",
"[. c #F6C524",
"{. c #FAC523",
"}. c #F6CA24",
"|. c #FBCD23",
" X c #FBCE2D",
".X c #ECDD23",
"XX c #ECD128",
"oX c #FCD425",
"OX c #FADB24",
"+X c #F6D52C",
"@X c #FCD52A",
"#X c #F5DA29",
"$X c #FBDA2B",
"%X c #F7D126",
"&X c #E6C130",
"*X c #EFCE30",
"=X c #E6C63B",
"-X c #F2C934",
";X c #F4D231",
":X c #F9E423",
">X c #F1E424",
",X c #FBF421",
"<X c #FCEF33",
"1X c #D38041",
"2X c #D69746",
"3X c #BA8B83",
"4X c #CA9A97",
"5X c #C7AA9E",
"6X c #CDA5A3",
"7X c #D0B5B0",
/* pixels */
"                                                                                    ",
"                                  Q                                                 ",
"                                Q W                                                 ",
"                              G.c.                                                  ",
"                            $.r.2X        E I                                       ",
"                            ;.&.        z.k ;.$.W                                   ",
"                            ;.*.T       -.a.{.#.G R                                 ",
"                            $.q.v.    j.D. Xp.5.x f                                 ",
"                              Z.A.l.  C.{.:.b p.w.b                                 ",
"                              F.[.A.G.C.x.Q h  .p.:.P                               ",
"                                h.$.v.l.    a b @.p.%.                              ",
"                                              j } y.=.                              ",
"                                              k 3.4.D.b.                            ",
"                                            W x X.8. Xq.                            ",
"                                          W C O.3.J.oX6.s                           ",
"                                      1XL j x 4.7.i.u.2.F                           ",
"                                      S z } 2.i.J.J.8.#.v R                         ",
"                                    L l +.y.u.H.oX|.i.2.l S                         ",
"                                  E G q.}.+X%XH.@X@XoXa.} z I                       ",
"                                ` v @.a.{.@X@X@X@XoXoX|.@.z D                       ",
"                              _ H c 6.|.d.u.|.@X@XoXOXK.4.{ g                       ",
"                            _ V v o.u.oX@X|.oX@X@X@X@XK.d. .m                       ",
"                            i m >.t. X$X@X@X@X@XoXoXoXt.=.y e U                     ",
"                          I e @ , S.@X@X@X@XoXoX@XoXoXV.Y ^ # M                     ",
"                          N r ( 3Xq -X@X@X:XW.R.oXoX+Xq 5X4XO j                     ",
"                        ! g j 0 7X4X4 C.T./.(.!./.#X=X5 6X0 ] n Q                   ",
"                        S x @.Z./ 2 o * 1.(.(.^.(.n.= % 6 V.@.c g                   ",
"                        D [ 4.H.V.0..X.XE.Q.~.~.(.E.Y.`.*X}.5.n M                   ",
"                        A X.u.|.;.I.^.^.~.~.U.^.^.^.!.!.:X$Xi.b N                   ",
"                        A 3.8.|.;.R.^./.!.Q.~.^.^.^.!.,X<X@Xi.| e                   ",
"                        A 3.u.|.:.R.^.<.,.Y.).^.^.^.>X< 9 ;Xi.w r                   ",
"                        Z +.0.@XOX/.E.1 * 6 _.!.!.Q.< X % G.p.# J                   ",
"                        $.i ; j.-XE.M.* n.=X- _./.'.& N.= 7 Z.> K                   ",
"                        W i : . 9 XX9 8 E.Y.1 = ].3 - '.B.+ > t !                   ",
"                          ] @.' f.3 $ 8 W.!.XXo * 3 ].#XA.u y B                     ",
"                          | 3.e.[.k.p &XW.!.E.M.m.`.OX|.y.@.z S                     ",
"                          b X.3.e.|.s.*. .L.T.,XW.OX|.6.3.{ d                       ",
"                          A { O.4.9.%X Xr...0.I.|.{.y.4.o.Z                         ",
"                            I Q ] q.i.H.}.@X{.J.8.4.O. .P                           ",
"                                  x.%.+.w.y.5.3.X.O.C ~                             ",
"                                      g.b b | [ | v.                                ",
"                                        z.z.z.E )                                   "
};
