/* XPM */
static char *result[] = {
/* columns rows colors chars-per-pixel */
"41 42 47 1 ",
"  c #AAAAAA",
". c gray67",
"X c #ACACAC",
"o c gray68",
"O c #AEAEAE",
"+ c #AFAFAF",
"@ c gray69",
"# c #B1B1B1",
"$ c #B2B2B2",
"% c gray70",
"& c #B4B4B4",
"* c gray71",
"= c #B6B6B6",
"- c #B7B7B7",
"; c gray72",
": c #B9B9B9",
"> c gray73",
", c #BBBBBB",
"< c #BCBCBC",
"1 c gray74",
"2 c #BEBDBD",
"3 c gray",
"4 c gray75",
"5 c #C0C0C0",
"6 c #C1C1C1",
"7 c gray76",
"8 c #C3C3C3",
"9 c #C4C3C3",
"0 c gray77",
"q c #C5C4C4",
"w c #C5C5C5",
"e c #C6C5C5",
"r c #C6C6C6",
"t c #C7C6C6",
"y c gray78",
"u c #C8C7C7",
"i c #C8C8C8",
"p c #C9C8C8",
"a c gray79",
"s c #CAC9C9",
"d c #CACACA",
"f c #CBCACA",
"g c #CBCBCB",
"h c #CCCBCB",
"j c gray80",
"k c #CDCDCD",
"l c None",
/* pixels */
"llllllljjqeiqja8gaydrydgjg8qjgegjjlllllll",
"lllllljjjirqujde6$=32:=50yigjjdggjjllllll",
"llllljddgdiga3><:%&:<=@;,><0dgie9wdjlllll",
"lllljawydjd03X <,<lllll<,:%&3wgjgdigjllll",
"llljgdjjjy-=<:llllllllllll<,<>-rjjjgjjlll",
"lljjajjjwoX><lllllllllllllll<<% 4jjidjjll",
"lljhthjroO>lllllllllllllllllll<*.5kdtgjll",
"ldgjija$#<lllllllllllllllllllll1;+rjfgjil",
"lydjgg,o,lllllllllllllllllllllll1**gjjjrl",
"lydjjr=;lllllllllllllllllllllllll<*rjjjtl",
"jyfjg4<llllllllllllllllllllllllll<:,djjyi",
"jysi3&:lllllllllllllllllllllllllll,-0gjia",
"jugg3@llllllllllllllllllllllllllll1=<jgia",
"jigg<=lllllllllllllllllllllllllllll>>itua",
"jija,,lllllllllllllllllllllllllllll<3tyaa",
"jip8@>lllllllllllllllllllllllllllll<1yraa",
"jpd5+lllllllllllllllllllllllllllllll<iaia",
"jad6$lllllllllllllllllllllllllllllll<yjas",
"jay6#lllllllllllllllllllllllllllllll<yjds",
"jar7#lllllllllllllllllllllllllllllll<yjgs",
"jdi7#lllllllllllllllllllllllllllllll<yjgd",
"jdd7@lllllllllllllllllllllllllllllll>ydgd",
"jgj7#lllllllllllllllllllllllllllllll>rigd",
"jgg6%lllllllllllllllllllllllllllllll<wyjg",
"jgg6&lllllllllllllllllllllllllllllll1wtjg",
"jjj7&lllllllllllllllllllllllllllllll<yagg",
"jjj0:lllllllllllllllllllllllllllllll<yjjj",
"jjjr<lllllllllllllllllllllllllllllll>qjjj",
"jds6:lllllllllllllllllllllllllllllll:6jjj",
"jjd0<lllllllllllllllllllllllllllllll%0djj",
"jjjr<lllllllllllllllllllllllllllllll#yjjj",
"jjj0;lllllllllllllllllllllllllllllll*yjjj",
"gagw;lllllllllllllllllllllllllllllll;yjdi",
"gagw>lllllllllllllllllllllllllllllll,yjda",
"jjj0=lllllllllllllllllllllllllllllll,0jjj",
"jjjw;lllllllllllllllllllllllllllllll<rjjj",
"jgu0&lllllllllllllllllllllllllllllll<yapj",
"jgp0-lllllllllllllllllllllllllllllll<ydsj",
"jjg5&lllllllllllllllllllllllllllllll<yjjj",
"jjy-Xlllllllllllllllllllllllllllllll<ygjj",
"jjjw<lllllllllllllllllllllllllllllll1rajj",
"jgjr:lllllllllllllllllllllllllllllll>wujj"
};
