/* XPM */
static char *_[] = {
/* columns rows colors chars-per-pixel */
"42 42 186 2 ",
"   c None",
".  c #AD2E1D",
"X  c #B4301F",
"o  c #B63221",
"O  c #BB3322",
"+  c #BF3828",
"@  c #C33524",
"#  c #C13927",
"$  c #CC3926",
"%  c #C03628",
"&  c #C43A2D",
"*  c #CD3C2B",
"=  c #D43C2A",
"-  c #DA3E2C",
";  c #CC3B30",
":  c #D43E31",
">  c #D83F31",
",  c #D6402E",
"<  c #CC4336",
"1  c #C84B3C",
"2  c #D24335",
"3  c #DC4435",
"4  c #D64539",
"5  c #DB463A",
"6  c #D24B3E",
"7  c #DD4B3D",
"8  c #E6412E",
"9  c #E64432",
"0  c #E94635",
"q  c #E54836",
"w  c #EC4A37",
"e  c #E34639",
"r  c #E44B3B",
"t  c #EA4E3E",
"y  c #F14835",
"u  c #F24E3C",
"i  c #E6513F",
"p  c #ED513F",
"a  c #F9513F",
"s  c #D54E41",
"d  c #DA4E41",
"f  c #D55144",
"g  c #DD5244",
"h  c #D5564A",
"j  c #DC5648",
"k  c #DA5A4D",
"l  c #D65B50",
"z  c #DC5E53",
"x  c #E54F42",
"c  c #E25243",
"v  c #EB5244",
"b  c #E95846",
"n  c #E5574B",
"m  c #ED5549",
"M  c #E55A4C",
"N  c #EC5B4B",
"B  c #F45544",
"V  c #F95643",
"C  c #F25846",
"Z  c #F95947",
"A  c #F2554B",
"S  c #F85748",
"D  c #F45B4B",
"F  c #FA5C4C",
"G  c #E45E52",
"H  c #EB5F53",
"J  c #F15D51",
"K  c #FB5C52",
"L  c #DA6054",
"P  c #DE6558",
"I  c #E3604E",
"U  c #F4604F",
"Y  c #E46355",
"T  c #ED6453",
"R  c #E3675A",
"E  c #ED6559",
"W  c #EC6B5C",
"Q  c #F46454",
"!  c #FB6354",
"~  c #F66957",
"^  c #FF6956",
"/  c #F56459",
"(  c #FB655A",
")  c #F46B5B",
"_  c #FC6B5B",
"`  c #E2705E",
"'  c #FA705E",
"]  c #E66F62",
"[  c #F36F62",
"{  c #FC6D62",
"}  c #E87462",
"|  c #E2786E",
" . c #EE786D",
".. c #F47365",
"X. c #FD7464",
"o. c #FD7867",
"O. c #F2776C",
"+. c #FB756A",
"@. c #F27C6C",
"#. c #FE7B6B",
"$. c #E37E73",
"%. c #ED7C72",
"&. c #F57F72",
"*. c #FD7D72",
"=. c #FE806F",
"-. c #E68177",
";. c #EC877E",
":. c #EB887E",
">. c #F68074",
",. c #FD8374",
"<. c #FF8877",
"1. c #F4867C",
"2. c #FD8579",
"3. c #FE8C7C",
"4. c #EC917F",
"5. c #E48A82",
"6. c #FE8E82",
"7. c #EE948B",
"8. c #F79382",
"9. c #FF9383",
"0. c #FA9A85",
"q. c #F2938A",
"w. c #FE968E",
"e. c #FE9689",
"r. c #F0998F",
"t. c #FD988B",
"y. c #FE998D",
"u. c #FD9C8F",
"i. c #FE9A8D",
"p. c #FE9A91",
"a. c #FF9D91",
"s. c #FF9E92",
"d. c #FD9D92",
"f. c #FE9F95",
"g. c #FE9E92",
"h. c #F5A28F",
"j. c #FDA28E",
"k. c #EDA69F",
"l. c #F7A793",
"z. c #FAA297",
"x. c #FEA297",
"c. c #FEA095",
"v. c #FEA394",
"b. c #FEAB97",
"n. c #F3A49A",
"m. c #FBA299",
"M. c #FFA398",
"N. c #FFA599",
"B. c #FEA59A",
"V. c #FEA69B",
"C. c #FFA69B",
"Z. c #FEA79B",
"A. c #FEA79C",
"S. c #FFA79C",
"D. c #FFA69C",
"F. c #FEA69E",
"G. c #FFA69B",
"H. c #FFA89D",
"J. c #FEA99E",
"K. c #FEAA9F",
"L. c #FEA89D",
"P. c #FEB39E",
"I. c #FEA7A0",
"U. c #F1A8A1",
"Y. c #FDABA1",
"T. c #FEB3A0",
"R. c #FEB4A0",
"E. c #FEBBA7",
"W. c #F8B4AC",
"Q. c #FEB4AA",
"!. c #FEBAB3",
"~. c #F5BFB9",
"^. c #FBBFB9",
"/. c #FEC7B1",
"(. c #FFCBB5",
"). c #FDC5BF",
"_. c #FED1B7",
"`. c #FED2BB",
"'. c #FED8BF",
"]. c #FED5C0",
"[. c #FFDAC4",
"{. c #F8D3CE",
"}. c #FEDEC9",
"|. c #F6D4D0",
" X c #FFE2CD",
".X c #FEE5D1",
/* pixels */
"                                  J.J.J.J.J.                                        ",
"                              A.A.N.N.c.c.M.N.A.                                    ",
"                            A.A.N.J.9.3.6.3.s.N.A.                                  ",
"                          A.N.N.!.e.*.e.f.2.A.6.c.A.A.A.                            ",
"                        N.N.y.2.2.*.J.y.,.#.,.#.s.f.c.N.A.J.                        ",
"                      N.M.J.I.*.*.<.e.3.( K K K ( X.*.6.s.N.J.                      ",
"                    A.N.p.,.2.X.,.s.j.3.6.2.3.*./ A K _ #.y.c.A.                    ",
"                  A.A.e.*.,.p._ *.m.s.2./ / +.6.e.2.N A K X.e.s.                    ",
"                  N.c.,.*.X.{ ) ..2.G A K K K K K H 6.E +._ X.e.N.                  ",
"                A.N.6.*.{ A Q [ 1.5 r e F X.#.X.! 5 6 >.7 m K +.y.                  ",
"                A.s.*.+.K v ) z.Y ; * D ,.9.9.9.3.X.2 k E 5 n +.*.J.                ",
"                A.6.*.( A J s.r.+ * ~ 3.9.9.9.9.9.9.#.3 ..d 4 v ( c.                ",
"                A.2.#.K / <.).f @ ~ 9.9.9.9.9.9.9.9.9.#.u 6 6 c Q 9.J.              ",
"                A.2.{ K #.c.n.$ i 3.9.9.<.=.#.<.3.9.e.T.' 3 s c H >.A.              ",
"                N.,.K m +.!.R - o.9.3.,.o.Z = - r ' 3.9.3.~ * f g ) t.N.            ",
"                N.#.F x M W.2 D 3.<.+.Q 3 = @ O o @ D 3.<.,.r 7 G q.,.A.            ",
"              N.c.X.F 7 f :.= o.X.q @ $ t ~ ) / c * = X.<._ Q T &.~...y.            ",
"              A.y.{ F 4 6 L q ,.p O . r ~ 7 = r Q X.t w j.P.F Q t.7./ ,.J.          ",
"              N.e.( v 2 < 6 v ,.a - o B w @ = = X i o.9 0.}.I b W G E X.N.          ",
"              N.9.( v 2 & & v ,.V 9 @ V u = / ) # X U C @. X} 4 s z U.,.s.          ",
"            J.N.6.( A 4 : & v <.F u , u 9 8 C Q T o - Z c /.W % h R %.~ y.          ",
"            J.N.9.{ A r Z > D 3._ y = D = = $ N +.o @ 8 r E.W @ k G H K t.          ",
"            J.N.9.X.A r ! v B <.=.0 @ r ) ) ) ,.g . @ 8 Y .Xh.O h ../ ! y.          ",
"            J.N.e.#.A 7 D ! 0 o.3.U $ @ 4 T ) 7 o O - Z l. X4.o z Y.1._ s.          ",
"            B.N.t.,.F 7 t _ B F <.<.U - o X @ O * N ! <. X'.` o P W x { N.          ",
"              A.s.2.! x 5 ! X._ #.9.3.X.D b Q ..<.3.3.<.[.[.M 1 -.j x +.            ",
"              A.N.9.{ v 2 t #.o.#.<.3.9.3.9.9.9.9.9.3.9.v.b.t 6 5.~.M >.            ",
"                A.s.#.A 7 e ! #.o.#.#.#.#.<.<.#.#.9.9.9.,.C ] 5.|.{.1.3.            ",
"                A.N.6.( B S Z X.#._ X.o._ _ ^ _ <.9.3.#.D = j 4 l Y J 9.            ",
"                  N.s.#.F ! 3.3.#.#.#.#.#.,.<.<.<.#.D , $ k s < 2 ;.( s.            ",
"                  A.N.6._ _ R.[.i.<.#.#.o.X._ F F * X O * $.d k.5 J { M.            ",
"                    A.s.<._ P..X(.P.b.P.3.V ! / # . o = 7 g 3 c x K 2.A.            ",
"                      N.y.*.#.j.[. X.X X].v.D $ o . o 2 7 7 3 7 A { y.A.            ",
"                      A.N.9.y.2.`. X X X XE.o.' = o O s x 3 4 v ( 2.N.              ",
"                        N.c.9.*.,.v._.`. X@.C  .4 d f s 5 5 n ^.f.c.A.              ",
"                        A.N.y.i.s.X.v.z.8.) D D 7.f s | H m ! *.9.A.                ",
"                          A.A.Q.s.2.X.*.1.O.@.Q G 5 g E ( _ ,.2.N.                  ",
"                            A.Y.J.Y.s.2.+.( K ! f.A { ( ,.9.y.c.                    ",
"                              A.N.A.N.Y.e.<.,.#.,.#.,.3.s.N.A.                      ",
"                                  A.A.A.N.c.s.s.y.i.s.c.A.J.                        ",
"                                          A.A.A.A.A.N.A.J.                          ",
"                                                                                    "
};
