/* XPM */
static char *_[] = {
/* columns rows colors chars-per-pixel */
"40 44 207 2 ",
"   c #000000",
".  c #0B0001",
"X  c #140301",
"o  c #1C0301",
"O  c #100D0D",
"+  c #1A1111",
"@  c #220202",
"#  c #280401",
"$  c #380900",
"%  c #281417",
"&  c #3E302D",
"*  c #2F2828",
"=  c #490B01",
"-  c #460A01",
";  c #5B0F01",
":  c #530E01",
">  c #5E1102",
",  c #610F01",
"<  c #790106",
"1  c #611002",
"2  c #6C1201",
"3  c #761302",
"4  c #7C1401",
"5  c #610219",
"6  c #531825",
"7  c #741623",
"8  c #413B3C",
"9  c #442927",
"0  c #782F24",
"q  c #67363E",
"w  c #7F4035",
"e  c #594B45",
"r  c #645D5C",
"t  c #7C5A4D",
"y  c #6A675C",
"u  c #78685E",
"i  c #7E6C6A",
"p  c #73706D",
"a  c #8E0F01",
"s  c #830802",
"d  c #920905",
"f  c #9A0F03",
"g  c #980609",
"h  c #821401",
"j  c #8A1701",
"k  c #8F1800",
"l  c #9C1700",
"z  c #941901",
"x  c #9B1A02",
"c  c #931408",
"v  c #8D031C",
"b  c #950110",
"n  c #9A0113",
"m  c #970118",
"M  c #8F1716",
"N  c #991518",
"B  c #A90803",
"V  c #BE0B04",
"C  c #BE090C",
"Z  c #A41300",
"A  c #AC1400",
"S  c #A41C02",
"D  c #AC1D01",
"F  c #B41500",
"G  c #BC1201",
"H  c #B41E01",
"J  c #BB1E01",
"K  c #AE0014",
"L  c #BD0911",
"P  c #BD0416",
"I  c #BE1413",
"U  c #A3260D",
"Y  c #A82004",
"T  c #BC2102",
"R  c #B52103",
"E  c #A32714",
"W  c #8D0520",
"Q  c #910027",
"!  c #8E1226",
"~  c #A40F29",
"^  c #B10832",
"/  c #B90724",
"(  c #8E2521",
")  c #8B3A3B",
"_  c #AC3C2B",
"`  c #AA3C26",
"'  c #B23F29",
"]  c #C90A07",
"[  c #DB0B04",
"{  c #DC0C0B",
"}  c #D60906",
"|  c #C41500",
" . c #CC1401",
".. c #C41D02",
"X. c #CC1D03",
"o. c #D51502",
"O. c #DB1403",
"+. c #D31B03",
"@. c #DB1A03",
"#. c #D1130C",
"$. c #C2011B",
"%. c #C61515",
"&. c #C91617",
"*. c #D21818",
"=. c #E50406",
"-. c #E30C04",
";. c #E4040B",
":. c #E8000C",
">. c #E30A0C",
",. c #E9090A",
"<. c #E41302",
"1. c #E11408",
"2. c #E31905",
"3. c #E60114",
"4. c #E90316",
"5. c #E30A12",
"6. c #E4031A",
"7. c #E9031A",
"8. c #E8081C",
"9. c #E70918",
"0. c #F2081C",
"q. c #C32102",
"w. c #CC2103",
"e. c #C92208",
"r. c #D12102",
"t. c #D2321F",
"y. c #C60421",
"u. c #CD1A29",
"i. c #D11B2A",
"p. c #CE0635",
"a. c #D10F32",
"s. c #CE1434",
"d. c #C71C34",
"f. c #CB1C35",
"g. c #D31936",
"h. c #D7042D",
"j. c #E40422",
"k. c #ED0221",
"l. c #EE0522",
"z. c #EC0426",
"x. c #E90820",
"c. c #EA0924",
"v. c #EB032C",
"b. c #E9062B",
"n. c #F70325",
"m. c #EC0232",
"M. c #C8252E",
"N. c #C7282E",
"B. c #D42120",
"V. c #C43D29",
"C. c #CC3B2A",
"Z. c #DD382C",
"A. c #D63629",
"S. c #CD2C37",
"D. c #CC393C",
"F. c #DA3D31",
"G. c #914437",
"H. c #BB402A",
"J. c #B7402A",
"K. c #C34129",
"L. c #CA412B",
"P. c #D0442F",
"I. c #CE3E4C",
"U. c #B55E4E",
"Y. c #B96354",
"T. c #807F79",
"R. c #9E7A74",
"E. c #AD6675",
"W. c #CC5D4D",
"Q. c #D05D4D",
"!. c #C25F5F",
"~. c #C46554",
"^. c #CB6554",
"/. c #D16756",
"(. c #D2615C",
"). c #CF6861",
"_. c #C97276",
"`. c #82817C",
"'. c #CD837C",
"]. c #98948D",
"[. c #9F9590",
"{. c #878581",
"}. c #ACA29F",
"|. c #BCB1AE",
" X c #CE8781",
".X c #CD9D9C",
"XX c #CFAAAA",
"oX c #CCB1AC",
"OX c #D3C3BC",
"+X c #D0BFC1",
"@X c #CCC2C5",
"#X c #CFC7CB",
"$X c #CFCACE",
"%X c #D0C2C6",
"&X c #CFCDD2",
"*X c #D0CFD4",
"=X c #CFD1D6",
"-X c #CFD6DC",
";X c #CFD9DF",
":X c #D0D1D6",
">X c #D0D7DE",
",X c #DCD9D8",
"<X c #E1DDDC",
"1X c #CFDBE3",
"2X c #D2DAE1",
"3X c #EAF2EA",
"4X c #F6F7F2",
/* pixels */
"        . 5 ^ s.g.s.s.s.f.f.f.f.f.d.d.d.d.d.d.d.d.f.f.f.f.g.g.a.p.Q @           ",
"        5 h.v.b.z.z.z.z.l.l.l.l.l.l.k.k.k.k.k.k.k.k.k.k.k.k.k.z.b.m.W           ",
"        v b.z.z.c.x.x.x.8.8.8.8.8.8.8.8.9.8.9.9.8.8.8.8.8.8.x.c.j.j./ X         ",
"        m n.j.8.8.9.9.9.4.4.4.4.4.4.4.4.4.4.4.4.4.4.4.4.4.8.8.6.j.j.y.@         ",
"        n n.6.6.4.4.4.3.4.4.4.4.4.4.4.4.4.4.4.4.4.4.4.4.4.4.7.7.6.6.$.o         ",
"        n 0.3.3.4.:.;.:.3.3.3.3.3.3.3.3.5.>.>.>.>.3.3.3.3.7.7.3.3.7.$.o         ",
"        b 7.;.=.=.=.;.;.;.>.<.1.1.1.1.<.2.<.<.<.<.-.;.3.3.3.4.9.5.9.P o         ",
"        b 4.=.-.=.{ >.O.@.@.@.@.@.@.@.2.<.A.F.Z.Z.1.O.{ 4.4.5.5.5.5.L o         ",
"        n ,.-.-.>.[ O.+.+.+.O.@.@.o.+.[ F.%X&X&X$XZ.[ O.>.7.5.5.>.5.L o         ",
"        g <.@.O.O.o.r.X.X.+.o.@.+.o.} F.+X-X&X=X&XA.O.o.O.{ 5.>.[ >.C o         ",
"        g 1.@.O.+.X.X.X.X.+.+.o.} o.(.#X-X&X&X&X&XC.o.+.o.o.{ [ [ >.C o         ",
"        d @.@.@.+.X.X.X.X.+.+.t.).oX-X=X&X&X&X&X&XC. .X.X. .o.[ o.-.C @         ",
"        d @.@.@.+.X.X.X. .P.XX#X;X-X&X&X&X&X&X&X&XC. .X.X.X.+.o.o.O.V @         ",
"        d @.+.+.+. .X.X. .Q.2X&X$X&X&X&X&X&X&X&X&XC. .X.X.X.X.+.+.O.V @         ",
"        a +.+.+.+.X.+.X. .W.1X;X1X-X&X&X&X&X&X&X&XV. ...X.X.X.X.X.+.V @         ",
"        k +.+.+.+.X.+.X. .L. X'.'.XX=X&X&X&X&X&X&XV.| ....w.w.X.X.+.G @         ",
"        k +.X.X.X.X.X.X..... . .| X..X-X&X&X&X&X&XV.| ....w.w.X...X.G @         ",
"        a +.X.X.X.X.X.X.X.X.w.w.e. .).1X&X&X&X&X&XV.| ....q.w.X...X.V #         ",
"        < ] G ..X.w.X.X.X.X.X.w.w.o./.-X&X&X&X&X&XV.| X...q.q.X...V K @         ",
"      + 6 ! c F X.X.X.X.X.X.X.w.w.o./.-X&X&X&X&X&XL.| X.......X.D M 7 %         ",
"      i [.[.) B X.................| ^.-X&X&X&X&X&XV.| q.J q.q. .f R.].].8       ",
"      |.4X3XE.K &.%.%.%.%.%.%.I %.V !.>X&X&X&X&X&XS.] &.&.#.#.#.N OX3X4Xy       ",
"      }.,X<XE.~ S.M.M.M.M.M.M.D.D.N._.>X&X&X&X&X&XI.u.i.i.i.*.B.( oX,X<Xr       ",
"      r T.`.q s D S S S S S S x x f Y.>X&X&X&X&X&X_ Z D D S D D 3 u p {.8       ",
"      e y y 0 Z q.q...J J J q.J T | ~.>X&X&X&X&X&XK.J T T J J H h t y y *       ",
"      9 w G.E D T T J J H J w.q.w.+./.-X&X&X&X&X&XK.J T J J J H x _ G.& O       ",
"      . < Z S H J T J J J J q.q.q.| ^.-X&X&X&X&X&XK.J R J J H H D A d o         ",
"        3 H D H J J J J R R J q.T G ~.>X&X&X&X&X&XK.J R H H H J H R S o         ",
"        3 J H H H H H H J J J T T G ~.>X&X&X&X&X&XH.F H H H H H H J x o         ",
"        3 J H H H H H H T T J J R G ~.>X&X&X&X&X&XJ.F H H H H H H H x o         ",
"        3 J D D H H H H H J H H R F ~.>X&X&X&X=X&XJ.F H H H H H H H x o         ",
"        2 H S D D D H H H H H H R F Y.>X&X&X&X=X&X' A D D D H H H H x o         ",
"        2 H S S D D H D D D H H Y A Y.>X&X&X&X&X&X' A D D D D D D H x o         ",
"        1 D S S D D S S S D D D D Z Y.2X*X:X:X:X&X_ Z S S S D D D D z o         ",
"        1 S x S S S x x S S S S S Z U.&X@X@X@X@X@X` Z S S S S S S D k o         ",
"        > S x x x x x x x S S S x S Y U U U U U U x x x x S x S x S j X         ",
"        > S x x x x x x x x x S x x x l x l l l l x x x x x x x x S h X         ",
"        1 x z z z z x z z x x x x x z x x x z x x x x x x x z z z x 2 .         ",
"        , z z z z z z z z z z z z z z z z z z z z z z z z z z k k z 1           ",
"        ; j j j k k k k k k k k k k k k k k k k k k k k k k k j j z ;           ",
"        : j h h h j j j j j j j j j j j j j j j j j j j j j j h h j :           ",
"        = h h 4 4 4 h h h h h h h h h h h h h h h h h h h h h 4 4 h =           ",
"        # 3 4 4 4 4 4 4 4 h h h h h h h h h h 4 4 4 4 4 4 4 4 4 4 4 $           ",
"        . - 3 3 3 3 3 3 3 3 3 3 3 3 3 3 3 3 4 4 4 4 4 4 4 4 3 2 2 ; X           "
};
