/* XPM */
static char *_[] = {
/* columns rows colors chars-per-pixel */
"40 44 212 2 ",
"   c #000000",
".  c #0B0001",
"X  c #140301",
"o  c #1C0301",
"O  c #100D0D",
"+  c #1A1111",
"@  c #220202",
"#  c #280401",
"$  c #300F0C",
"%  c #3E302D",
"&  c #2F2828",
"*  c #490B01",
"=  c #460A01",
"-  c #5B0F01",
";  c #530E01",
":  c #5E1102",
">  c #610F01",
",  c #790106",
"<  c #611002",
"1  c #6C1201",
"2  c #761302",
"3  c #7C1401",
"4  c #610219",
"5  c #531825",
"6  c #741623",
"7  c #413B3C",
"8  c #442927",
"9  c #782F24",
"0  c #67363E",
"q  c #7F4035",
"w  c #594B45",
"e  c #645D5C",
"r  c #7C5A4D",
"t  c #6A675C",
"y  c #78685E",
"u  c #7E6C6A",
"i  c #73706D",
"p  c #8E0F01",
"a  c #830802",
"s  c #920905",
"d  c #980808",
"f  c #821401",
"g  c #8A1701",
"h  c #8F1800",
"j  c #9C1600",
"k  c #941901",
"l  c #9B1A02",
"z  c #961808",
"x  c #8D031C",
"c  c #950110",
"v  c #9A0113",
"b  c #970118",
"n  c #941617",
"m  c #A30F00",
"M  c #AA0405",
"N  c #BE0C03",
"B  c #BE090C",
"V  c #A41500",
"C  c #AE1200",
"Z  c #A41C02",
"A  c #AC1D02",
"S  c #B41400",
"D  c #BB1400",
"F  c #B41E01",
"G  c #BB1F00",
"H  c #AE0014",
"J  c #BD0911",
"K  c #BD0416",
"L  c #BF1614",
"P  c #9F250F",
"I  c #9E311E",
"U  c #A3250C",
"Y  c #AD2409",
"T  c #B52103",
"R  c #BD2102",
"E  c #AF2D18",
"W  c #8D0520",
"Q  c #910027",
"!  c #8E1226",
"~  c #B10832",
"^  c #AF0B27",
"/  c #8E2521",
"(  c #8B3A3B",
")  c #AA3C2E",
"_  c #C60B02",
"`  c #CD0E00",
"'  c #CA0304",
"]  c #DC0D05",
"[  c #DC0C0B",
"{  c #D60B08",
"}  c #C51400",
"|  c #CB1400",
" . c #C41C01",
".. c #CC1C03",
"X. c #CC1C08",
"o. c #D41402",
"O. c #DB1403",
"+. c #D31B03",
"@. c #DB1B03",
"#. c #D4170B",
"$. c #C2011B",
"%. c #C61515",
"&. c #CB1417",
"*. c #D21818",
"=. c #E40405",
"-. c #E30D02",
";. c #E4040B",
":. c #E8000C",
">. c #E30A0C",
",. c #E9090A",
"<. c #E41304",
"1. c #E31A0B",
"2. c #E50114",
"3. c #E90316",
"4. c #E30A12",
"5. c #E5031A",
"6. c #E9031A",
"7. c #E8081C",
"8. c #E70918",
"9. c #F2081C",
"0. c #C42003",
"q. c #CC2104",
"w. c #D12202",
"e. c #C82913",
"r. c #DA2F1C",
"t. c #C7331C",
"y. c #CD1C2A",
"u. c #D11B2A",
"i. c #D10F32",
"p. c #CE1434",
"a. c #C71C34",
"s. c #CB1C35",
"d. c #D31936",
"f. c #CE052C",
"g. c #E40422",
"h. c #ED0323",
"j. c #E90922",
"k. c #EB032C",
"l. c #E9062B",
"z. c #F70325",
"x. c #EC0232",
"c. c #C8252E",
"v. c #C9272E",
"b. c #D42120",
"n. c #C83A29",
"m. c #CB2832",
"M. c #CE352C",
"N. c #914437",
"B. c #BA4C3A",
"V. c #CA402F",
"C. c #CC4633",
"Z. c #CA4837",
"A. c #C9513D",
"S. c #BA6257",
"D. c #807F79",
"F. c #9E7A74",
"G. c #B06C73",
"H. c #CA5448",
"J. c #CB5645",
"K. c #DB5045",
"L. c #D75C53",
"P. c #C46C5E",
"I. c #D46457",
"U. c #C87569",
"Y. c #CD7C74",
"T. c #C77F78",
"R. c #D67771",
"E. c #82817C",
"W. c #BD8179",
"Q. c #C38076",
"!. c #C1827A",
"~. c #CF8178",
"^. c #D5837D",
"/. c #D07A85",
"(. c #98948D",
"). c #9F9590",
"_. c #878581",
"`. c #ACA29F",
"'. c #BCB1AE",
"]. c #CA8B83",
"[. c #D58687",
"{. c #D3938E",
"}. c #CD9592",
"|. c #CB9D9A",
" X c #CF9893",
".X c #D0938D",
"XX c #CDA09C",
"oX c #CCACAD",
"OX c #CDA5A1",
"+X c #CBB7B5",
"@X c #D0B5B8",
"#X c #D3C3BC",
"$X c #CEBEC1",
"%X c #CCC2C5",
"&X c #CEC6C9",
"*X c #CFCACF",
"=X c #C7C4C5",
"-X c #CFCCD1",
";X c #CFCDD2",
":X c #CFD0D6",
">X c #CFD4DA",
",X c #CFD8DE",
"<X c #D0D1D6",
"1X c #D0D5DB",
"2X c #D0D8DF",
"3X c #DCD9D8",
"4X c #D0C6CA",
"5X c #E1DDDC",
"6X c #CFDBE1",
"7X c #D1DBE2",
"8X c #EAF2EA",
"9X c #F6F7F2",
/* pixels */
"        . 4 ~ p.d.p.p.p.s.s.s.s.s.a.a.a.a.a.a.a.a.s.s.s.s.d.d.i.f.Q @           ",
"        4 f.k.k.h.h.h.l.h.h.h.h.h.h.h.h.h.h.h.h.h.h.h.h.h.h.h.h.l.x.W           ",
"        x l.l.l.j.j.j.j.7.7.7.7.7.7.7.7.7.7.7.7.7.7.7.7.7.7.j.j.g.g.^ X         ",
"        b z.g.7.7.8.8.8.3.3.3.3.3.3.3.3.3.3.3.3.3.3.3.3.3.8.8.6.g.g.$.o         ",
"        v z.5.5.3.3.3.2.3.3.3.3.3.3.3.3.3.3.3.3.3.3.3.3.3.3.6.5.5.6.$.o         ",
"        v 9.2.2.3.:.;.:.2.2.2.2.5.5.2.2.4.4.>.,.,.2.2.2.2.5.6.2.5.6.$.o         ",
"        c 6.;.=.=.=.;.>.;.>.<.-.-.-.-.-.<.-.-.<.1.-.>.2.2.2.3.8.4.8.K o         ",
"        c 3.=.-.=.[ >.O.@.@.] r.I.^.{.{.[.R.K.1.-.<.O.[ 3.3.4.4.4.4.J o         ",
"        v ,.-.,.>.] O.+.+.#.R.&X,X6X,X,X6X6X>X@XL.O.O.O.>.5.4.4.>.4.J o         ",
"        d <.O.O.O.o.w..... X6X:X;X;X;X;X;X;X;X>X6X^.O.o.o.[ 4.>.] >.B o         ",
"        d <.@.O.+...q.| U.6X*X;X;X;X:X>X;X;X;X;X-X6XI.` +.o.[ ] ] >.B o         ",
"        s @.@.@.+.....e.$X>X;X;X;X:X%XoX;X;X;X;X-X>X@X......o.] o.-.B @         ",
"        s @.@.@.+...| J.>X;X;X;X:X%Xn._ Y.,X;X;X;X;X;XV.| X.+.o.o.O.N @         ",
"        s @.+.+.+.X.` U.6X-X;X-X,X|._ ' Z.:X;X;X;X;X>XH.| q...+.+.o.N @         ",
"        p +.+.+.+.X.` Y.6X*X;X-X,X}._ _ H.>X;X;X;X;X>XJ.| q.......+.N @         ",
"        h +.+.+.+...o.~.6X;X;X-X,X}.| ` T.6X-X;X;X;X:XZ.} q.X.....+.D @         ",
"        h +.........| Y.6X*X;X*X,X}.} e.$X:X;X;X;X:X&Xe. .q.q... ...S @         ",
"        p +.......X...t.Z.C.C.C.C.n.` Y.6X;X;X;X;X2X}.} 0.0.q.X. ...N #         ",
"        , _ D  .X.......| ........o.M.4X:X;X;X;X;X>XA.| 0.0.0... .N M #         ",
"      + 5 ! z S ..X.....q.q.q.q.q.+..X,X;X;X;X;X2XXX ... . .X...A n 6 $         ",
"      u ).).( M .. . . . . . .0.} A.>X;X;X;X;X;X;Xn.} 0.G 0.0.| d F.(.(.7       ",
"      '.9X8XG.H &.%.%.%.%.%.%.L L oX1X;X;X;X-X7X/.' &.&.&.&.#.#.n #X8X9Xt       ",
"      `.3X5XG.^ m.c.c.c.c.c.m.v.[.2X;X;X;X;X<X$Xm.y.y.y.u.u.*.b./ +X3X5Xe       ",
"      e D.E.0 a A Z Z Z Z Z V I =X<X;X;X;X;X2XS.m Z Z Z A Z A A 2 y i _.7       ",
"      w t t 9 V 0.0. .G G R D .X7X-X;X;X;X,XOX .0.0.G R R G G F f r t t &       ",
"      8 q N.P A R R G G T D A.<X;X;X;X;X;X;XZ...0.0.G G G G G F l ) N.% O       ",
"      . , m Z F G R G G G R oX2X;X;X;X-X6X]. .0.0.R G G G G F F A C s o         ",
"        2 F A F G G G T S P.2X;X;X;X;X>X$Xt. .R R R G F F F F F F T Z o         ",
"        2 G F F F F F F E %X<X;X;X;X;X7XP.D R T T T T F F F F F F G l o         ",
"        2 G F F F F T S ].7X-X;X;X;X2X|.D D D S S S S F F F F F F F l o         ",
"        2 G A A F F S B.<X;X;X;X;X;X<X|.U.Q.Q.Q.T.!.U.T F F F F F F l o         ",
"        1 F Z A A A C !.7X*X;X;X;X;X;X1X7X7X7X7X7X7X*XY A A F F F F l o         ",
"        1 F Z Z A A C !.7X-X;X;X;X;X;X;X;X;X;X;X*X<X+XY A A A A A F l o         ",
"        < A Z Z A A V W.7X;X<X<X<X<X<X<X<X<X<X<X<X1X%XU Z Z A A A A k o         ",
"        < Z l Z Z Z j G.;X%X%X&X%X%X%X%X%X%X%X%X%X&X+XU Z Z Z Z Z Z h o         ",
"        : Z l l l l l l P U U U U U U U U U U U U U U l l Z Z Z l Z g X         ",
"        : Z l l l l l l j l j Z j j j l l j j j j j l l l l l l l Z f X         ",
"        < l k k k k l k k l l l l l k l l l k l l l l l z l k k k l 1 .         ",
"        > k k k k k k k k k k k k k k k k k k k k k k k k k k h h k <           ",
"        - g g g h h h h h h h h h h h h h h h h h h h h h h h g g k -           ",
"        ; g f f f g g g g g g g g g g g g g g g g g g g g g g f f g ;           ",
"        * f f 3 3 3 f f f f f f f f f f f f f f f f f f f f f 3 3 f *           ",
"        # 2 3 3 3 3 3 3 3 f f f f f f f f f f 3 3 3 3 3 3 3 3 3 3 3 $           ",
"        . = 2 2 2 2 2 2 2 2 2 2 2 2 2 2 2 2 3 3 3 3 3 3 3 3 2 1 1 - X           "
};
