/* XPM */
static char *_[] = {
/* columns rows colors chars-per-pixel */
"40 44 217 2 ",
"   c #000000",
".  c #0B0001",
"X  c #140301",
"o  c #1C0301",
"O  c #100D0D",
"+  c #1A1111",
"@  c #220202",
"#  c #280401",
"$  c #300F0C",
"%  c #3E302D",
"&  c #2F2828",
"*  c #490B01",
"=  c #460A01",
"-  c #5B0F01",
";  c #530E01",
":  c #5E1102",
">  c #610F01",
",  c #790106",
"<  c #611002",
"1  c #6C1201",
"2  c #761302",
"3  c #7C1401",
"4  c #610219",
"5  c #531825",
"6  c #741623",
"7  c #413B3C",
"8  c #442927",
"9  c #782F24",
"0  c #67363E",
"q  c #7F4035",
"w  c #594B45",
"e  c #645D5C",
"r  c #7C5A4D",
"t  c #6A675C",
"y  c #78685E",
"u  c #7E6C6A",
"i  c #73706D",
"p  c #8E0F01",
"a  c #830802",
"s  c #920905",
"d  c #9E0F03",
"f  c #980609",
"g  c #821401",
"h  c #8A1701",
"j  c #8F1800",
"k  c #9A1600",
"l  c #941901",
"z  c #9B1A02",
"x  c #931408",
"c  c #8D031C",
"v  c #950110",
"b  c #9A0113",
"n  c #970118",
"m  c #941617",
"M  c #A50F00",
"N  c #AA0703",
"B  c #BE0C03",
"V  c #BE090C",
"C  c #BC0400",
"Z  c #A51300",
"A  c #A41C02",
"S  c #AC1C01",
"D  c #AE1300",
"F  c #B71700",
"G  c #BC1201",
"H  c #B31D01",
"J  c #BB1E01",
"K  c #B7120F",
"L  c #AE0014",
"P  c #BD0911",
"I  c #BD0416",
"U  c #A3260D",
"Y  c #A9240B",
"T  c #A12007",
"R  c #B62204",
"E  c #BC2102",
"W  c #B3260B",
"Q  c #B92D16",
"!  c #BA3217",
"~  c #B73219",
"^  c #A32714",
"/  c #8D0520",
"(  c #910027",
")  c #8E1226",
"_  c #B10832",
"`  c #AF0B27",
"'  c #8E2521",
"]  c #8B3A3B",
"[  c #AB3D2C",
"{  c #B93A22",
"}  c #C20D02",
"|  c #CC0C00",
" . c #C80509",
".. c #DB0C04",
"X. c #DC0C0B",
"o. c #D80906",
"O. c #C41200",
"+. c #CB1501",
"@. c #C51D03",
"#. c #CC1D03",
"$. c #CA1E08",
"%. c #D51502",
"&. c #DB1503",
"*. c #D31B04",
"=. c #DB1A03",
"-. c #D4170A",
";. c #C5051C",
":. c #C71616",
">. c #D21818",
",. c #E50406",
"<. c #E40C02",
"1. c #E4040B",
"2. c #E8000C",
"3. c #E30A0C",
"4. c #E9090A",
"5. c #E51202",
"6. c #E11409",
"7. c #E60114",
"8. c #E90316",
"9. c #E30A12",
"0. c #E4031A",
"q. c #E9031A",
"w. c #E8081C",
"e. c #E70918",
"r. c #F2081C",
"t. c #C42103",
"y. c #CA2103",
"u. c #D12104",
"i. c #CE2B16",
"p. c #D11B2A",
"a. c #D10F32",
"s. c #CE1434",
"d. c #C71C34",
"f. c #CB1C35",
"g. c #D31936",
"h. c #CE052C",
"j. c #E40422",
"k. c #ED0323",
"l. c #E90820",
"z. c #EA0924",
"x. c #EB032C",
"c. c #E9062B",
"v. c #F70325",
"b. c #EC0232",
"n. c #CA232E",
"m. c #C7252D",
"M. c #D42120",
"N. c #CA3E2B",
"B. c #DD3C2D",
"V. c #D73A2B",
"C. c #CA2B31",
"Z. c #DD3B30",
"A. c #C43338",
"S. c #914437",
"D. c #CB493D",
"F. c #B06154",
"G. c #807F79",
"H. c #9E7A74",
"J. c #BD7D73",
"K. c #B16B72",
"L. c #D15D4B",
"P. c #C35A48",
"I. c #CB7567",
"U. c #CD726A",
"Y. c #C9796D",
"T. c #D1796A",
"R. c #D2726A",
"E. c #C76F70",
"W. c #CB7B73",
"Q. c #C07B71",
"!. c #D37777",
"~. c #82817C",
"^. c #D08177",
"/. c #C3867D",
"(. c #CE7B85",
"). c #98948D",
"_. c #9F9590",
"`. c #878581",
"'. c #BF9998",
"]. c #ACA29F",
"[. c #BCB1AE",
"{. c #C98D87",
"}. c #CC9394",
"|. c #CB9A95",
" X c #C7999B",
".X c #D19F99",
"XX c #C6928C",
"oX c #CDA4A4",
"OX c #CCA9A6",
"+X c #CFA9A8",
"@X c #CBB0AF",
"#X c #CFABB0",
"$X c #D1AAB2",
"%X c #CCB9BA",
"&X c #CAB9B4",
"*X c #D0AEAF",
"=X c #D3C3BC",
"-X c #CEBDC1",
";X c #CCC2C5",
":X c #CEC5C9",
">X c #CFCACE",
",X c #CFCBD0",
"<X c #CFCFD4",
"1X c #CFCDD2",
"2X c #D0CFD4",
"3X c #CFD0D6",
"4X c #CFD5DB",
"5X c #CFD9DF",
"6X c #D0D1D6",
"7X c #D0D6DC",
"8X c #D8D9DA",
"9X c #E1DDDC",
"0X c #CFDBE2",
"qX c #D1DCE3",
"wX c #D1E7F1",
"eX c #EAF2EA",
"rX c #F6F7F2",
/* pixels */
"        . 4 _ s.g.s.s.s.f.f.f.f.f.d.d.d.d.d.d.d.d.f.f.f.f.g.g.a.h.( @           ",
"        4 h.x.x.k.k.k.z.k.k.k.k.k.k.k.k.k.k.k.k.k.k.k.k.k.k.k.k.c.b./           ",
"        c c.c.z.z.l.l.l.w.w.w.w.w.w.w.w.w.w.w.w.w.w.w.w.w.w.l.z.j.j.` X         ",
"        n v.j.w.w.e.e.e.8.8.8.8.8.8.8.8.8.8.8.8.8.8.8.8.8.w.w.0.j.j.;.o         ",
"        b v.0.0.8.8.8.7.8.8.8.8.8.8.8.8.8.8.8.8.8.8.8.8.8.8.q.q.0.0.;.o         ",
"        b r.7.7.8.2.1.2.7.7.7.7.7.7.7.7.9.3.3.3.3.7.7.7.7.q.q.7.7.q.;.o         ",
"        v q.1.,.,.,.1.1.1.3.5.6.6.<.<.<.5.5.5.5.5.<.1.7.7.7.8.e.9.e.I o         ",
"        v 8.,.<.,.o.3.&.=.=.=.=.=.B.B.B.B.B.B.Z.Z.M...X.8.8.9.9.9.9.P o         ",
"        b 4.<.<.3...&.*.*.*.&.&.V.>X1X,X,X,X,X>X5X!...&.3.q.9.9.3.9.P o         ",
"        f 5.=.&.&.%.u.#.#.*.-.&.R.0X1X<X<X<X<X1X0X!...&.&.X.9.3...3.V o         ",
"        f 6.=.&.*.#.#.#.#.*.*.%.+X4X1X<X1X1X1X>X0XW.| *.%.%.X.....3.V o         ",
"        s =.=.=.*.#.#.#.#.u.%.V.1X<X1X>X<X1X1X>X0XW.| #.#.+.%...%.<.V @         ",
"        s =.=.=.*.#.#.#.#.u.%.U.0X<X-XoX4X1X1X>X0XW.| #.#.#.*.%.%.&.B @         ",
"        s =.*.*.*.+.#.#.#.#.*.+X4X4X}.}.5X1X1X>X0XW.| #.#.#.#.*.*.&.B @         ",
"        p *.*.*.*.#.*.#.#.+.N.1X1XqXU.{.qX1X1X>XqXW.O.t.#.#.#.#.#.*.B @         ",
"        j *.*.*.*.#.#.#.$.+.U.0X>X4XD.{.0X1X<X>XqXW.O.t.@.y.y.#.#.*.G @         ",
"        x *.#.#.#.#.#.#.@.@.+X4X<X:Xi.}.5X1X1X>XqXW.} @.@.y.y.#.@.#.G @         ",
"        p *.#.#.#.#.#.#.+.N.1X1X4XoX+.|.4X1X1X>XqXW.O.@.@.t.y.#.@.#.B #         ",
"        ,  .G @.#.#.#.y.+.I.0X>X0X^.%..X4X1X1X>XqXW.O.#.@.t.t.#.@.B N #         ",
"      + 5 ) x F #.#.#.#.#.+X4X,X4XL.%..X4X1X1X>XqXW.O.#.@.@.@.#.S m 6 $         ",
"      u _._.] N #.@.t.O.N.1X1X3X:Xi.O.|.5X1X1X>XqXW.O.t.J t.t.+.d H.).).7       ",
"      [.rXeXK.L :.:.:. .E.5X>X4X#X:.K  X7X1X1X,X0X!. .:.:.>.-.-.m =XeXrXt       ",
"      ].8X9XK.` C.m.m.m.$X4X>X5X}.C.A.oX7X1X1X,X0X(.;.n.p.p.>.M.' &X8X9Xe       ",
"      e ~.~.0 a S A Z [ 1X<X1X7XF.k z '.7X1X1X>XqXJ.Z Y S A S S 2 y i `.7       ",
"      w t t 9 Z t.t.G I.qX>X3X:X! } O.|.7X1X1X>XqXY.C J E J J H g r t t &       ",
"      8 q S.^ S E E J OX7X1X3X:XW.T.T.&X4X1X1X1X7XoXY.P.J E J H z [ S.% O       ",
"      . , M A H E J E %X4X1X1X<X0X0X0X4X1X1X1X1X1X4XwX|.F E H H S D s o         ",
"        2 H S H J J R %X7X1X1X1X,X,X,X1X1X1X1X1X1X>X7X{.F R H H H E A o         ",
"        2 J H H H H R %X7X<X3X3X3X3X3X1X1X1X1X1X1X1XqXXXF H H H H J z o         ",
"        2 J H H H H R @X>X:X:X:X:X:X:X1X1X1X1X1X<X>X2X{.F H H H H H z o         ",
"        2 J S S H H H ~ ~ ~ ! ! ~ Q { :X3X1X1X>XqX/.W Q H H H H H H z o         ",
"        1 H A S S S H S S F F F F F W :X3X1X1X>XqXQ.N S S S H H H H z o         ",
"        1 H A A S S H S S S H H S S W :X6X1X1X>XqXJ.Z S S S S S S H z o         ",
"        < S A A S S A A A S S S S S Y :X7X6X6X1XqXJ.M A A A S S S S l o         ",
"        < A z A A A z z A A A A A A Y %X:X;X;X;X3XJ.d A A A A A A S j o         ",
"        : A z z z z z z z A A A z A A U U U U U U T z z z A z A z A h X         ",
"        : A z z z z z z z z z A z z z z z k k k k z z z z z z z z A g X         ",
"        < z l l l l z l l z z z z z l z z z l z z z z z z z l l l z 1 .         ",
"        > l l l l l l l l l l l l l l l l l l l l l l l l l l j j l <           ",
"        - h h h j j j j j j j j j j j j j j j j j j j j j j j h h l -           ",
"        ; h g g g h h h h h h h h h h h h h h h h h h h h h h g g h ;           ",
"        * g g 3 3 3 g g g g g g g g g g g g g g g g g g g g g 3 3 g *           ",
"        # 2 3 3 3 3 3 3 3 g g g g g g g g g g 3 3 3 3 3 3 3 3 3 3 3 $           ",
"        . = 2 2 2 2 2 2 2 2 2 2 2 2 2 2 2 2 3 3 3 3 3 3 3 3 2 1 1 - X           "
};
