/* XPM */
static char *_[] = {
/* columns rows colors chars-per-pixel */
"42 42 179 2 ",
"   c None",
".  c #AD2F1E",
"X  c #B4311F",
"o  c #B63321",
"O  c #BC3322",
"+  c #C23523",
"@  c #CA3725",
"#  c #C73827",
"$  c #CF3927",
"%  c #C13729",
"&  c #C53A2C",
"*  c #CD3B2C",
"=  c #D03A27",
"-  c #D23C2B",
";  c #D93D2B",
":  c #C63E30",
">  c #CD3F33",
",  c #D23F33",
"<  c #E33F2C",
"1  c #CD412F",
"2  c #D1412E",
"3  c #C24333",
"4  c #CD4235",
"5  c #D44335",
"6  c #DD4434",
"7  c #DB4937",
"8  c #D34639",
"9  c #D94539",
"0  c #D34C3E",
"q  c #DB493C",
"w  c #E5412F",
"e  c #E34533",
"r  c #EC4432",
"t  c #E24A37",
"y  c #E24639",
"u  c #E34B3B",
"i  c #EC4B3A",
"p  c #F34D3C",
"a  c #E7513F",
"s  c #EC513F",
"d  c #F7503E",
"f  c #D64F41",
"g  c #DC4D40",
"h  c #D55245",
"j  c #DD5144",
"k  c #D7574A",
"l  c #DB5649",
"z  c #DC5A4E",
"x  c #D75C50",
"c  c #DF5F52",
"v  c #E44E42",
"b  c #E94E42",
"n  c #E45344",
"m  c #EC5344",
"M  c #EA5847",
"N  c #E3574B",
"B  c #ED564B",
"V  c #E55C4C",
"C  c #EC5D4C",
"Z  c #F25443",
"A  c #FA5644",
"S  c #F15947",
"D  c #F85845",
"F  c #F2564B",
"G  c #FB574F",
"H  c #F45B4C",
"J  c #FA5C4C",
"K  c #E05E52",
"L  c #E95D51",
"P  c #F45E52",
"I  c #FB5C53",
"U  c #DA6253",
"Y  c #DD665A",
"T  c #E4604E",
"R  c #F6614F",
"E  c #E46256",
"W  c #EE6354",
"Q  c #E56558",
"!  c #ED675A",
"~  c #E66A5E",
"^  c #F46253",
"/  c #FB6354",
"(  c #F46857",
")  c #FC6956",
"_  c #F36659",
"`  c #FC655A",
"'  c #F56A5A",
"]  c #FC6B5C",
"[  c #EB715F",
"{  c #FF705E",
"}  c #DE766D",
"|  c #E06C62",
" . c #EA6E64",
".. c #F46D62",
"X. c #FC6D62",
"o. c #E47362",
"O. c #EE7264",
"+. c #EC756B",
"@. c #E5786D",
"#. c #F47164",
"$. c #FD7465",
"%. c #FD7867",
"&. c #F37669",
"*. c #FD756A",
"=. c #F47A6D",
"-. c #FE7B6B",
";. c #E17B71",
":. c #EB7E74",
">. c #F47E73",
",. c #FD7D72",
"<. c #FE816F",
"1. c #E38277",
"2. c #E0837A",
"3. c #EA867C",
"4. c #F28471",
"5. c #FE8374",
"6. c #FE8877",
"7. c #F4857B",
"8. c #FD8579",
"9. c #F38C79",
"0. c #FE8B7B",
"q. c #FF907F",
"w. c #FE8D82",
"e. c #E7938B",
"r. c #EF9288",
"t. c #EF9B88",
"y. c #F39682",
"u. c #FF9383",
"i. c #F6948B",
"p. c #FE968A",
"a. c #F59D8A",
"s. c #FE9A8C",
"d. c #F59B93",
"f. c #FE9D92",
"g. c #FEA28E",
"h. c #FEA195",
"j. c #F3A299",
"k. c #FFA79C",
"l. c #FEA49C",
"z. c #FFA69B",
"x. c #FBAC9A",
"c. c #FEA89D",
"v. c #FEA99D",
"b. c #FEB29E",
"n. c #FEB09C",
"m. c #EDA7A1",
"M. c #F4ACA4",
"N. c #F8AAA3",
"B. c #FEAAA0",
"V. c #FEAEA3",
"C. c #FEAEA4",
"Z. c #FCABA1",
"A. c #FEB3A0",
"S. c #FEB5A1",
"D. c #FDBAA6",
"F. c #FEB6AE",
"G. c #FEBEA9",
"H. c #FAB9B1",
"J. c #FFC6B1",
"K. c #FEC9B3",
"L. c #F7C0BA",
"P. c #FDC2BA",
"I. c #FED0BA",
"U. c #FED7BF",
"Y. c #FED5BC",
"T. c #FED3BC",
"R. c #FED8C0",
"E. c #FEDAC3",
"W. c #F5D1CE",
"Q. c #FFDFC9",
"!. c #FEDDC8",
"~. c #F8D6D2",
"^. c #FFE1CB",
"/. c #FFE3CE",
"(. c #FFE2CD",
"). c #FFE4CF",
"_. c #FEE1CD",
"`. c #FEE6D2",
"'. c #FEE4D0",
/* pixels */
"                                                  k.c.k.                            ",
"                                        k.k.z.k.z.z.z.k.c.                          ",
"                                  k.k.k.z.f.s.s.p.p.s.h.z.k.c.                      ",
"                              z.z.c.h.B.u.5.*.*.8.*.*.8.s.h.z.k.                    ",
"                            k.C.c.k.s.,.*.` G I d.m ../ *.0.p.f.                    ",
"                          k.z.V.s.5.X.8.7.>.>.^ Q q g  .` / -.,.h.                  ",
"                        k.z.s.s.s.*.b.x.h.W F _ 3.h h | N m P w.w.z.                ",
"                      z.z.h.s.,.0.S.Y.R.).9.^ #.5 8 f f q 9 n N.f.f.k.              ",
"                      k.h.u.w.8.Y.^././.^.D.' ^ = o o f u 6 9 b I 5.z.              ",
"                    c.z.p.-.0.S.Y.Q.)./.K.u.' 2 X . o - g g 6 q F ] p.k.            ",
"                    k.s.5.` A.`.J.h.u.s.5.D J / 1 . X $ q l 6 Q b I 5.z.            ",
"                  k.z.0.` ] b.I.q.5.<.-.*.-.*.) / q O O $ 1.j e.q ..X.h.            ",
"                  z.s.$.F / -.<.*.%.%.*.-.<.5.6.6.8.' u = 0 f 4 4 +.^ s.            ",
"                k.z.0./ m Z Z *.%.{ %.$.) ] ] ) -.u.u.8./ ; c k } :.^ w.            ",
"                z.s.*.F q y ] -.%.-.<.5.8.0.0.8.5.u.u.u.6.R Q ;.W.~.7.0.            ",
"              c.h.w.] m 5 m *.%.-.6.u.u.6.0.u.u.u.u.0.q.x.G.u h 2.m.n >.            ",
"              k.f.8.I b t ) ] ) <.u.6.) u 7 n W -.6.6.0./.R.T 3 @.j b *.            ",
"            k.z.p.,.F q m ] p J 0.5.Z = X X + X O t S 5.Q.R.o.o Y +.b X.z.          ",
"            c.z.u.-.F u J / i -.0.S @ + n %.-.C o X - d y.`.t.o x N.i.` f.          ",
"            c.z.u.$.F u / i Z 6.-.e + m ^ M C 5.C . + < V /.a.O k ! F / s.          ",
"            c.z.w.X.H u p - S 0.] p 2 m = ; = n %.o + r t b.W % z E ! P s.          ",
"            c.z.u.` F 8 * & m 6.J i - p r w / ] C o 6 J V T.[ % h E :.X.s.          ",
"              z.u.` b 5 & & m 5.A e + D p @ H ^ o X ' m 4./.o.q h K M.,.f.          ",
"              z.p.` m 8 4 f s 5.d - X Z i + @ $ O C %.w s.!.V C O.E H $.z.          ",
"              k.f.X.H 9 0 Y t 5.m O . 6 ] M 7 M ] ] e s s.g.J ^ s.j._ 8.c.          ",
"                h.$.H q h r.- $.*.m 2 $ t H ^ C 7 + ; *.6.] H C &.L.#.f.            ",
"                z.-.G m L H.8 m 0.0.<.] a - + O O - ( u.6.5.t 9 z 7.5.k.            ",
"                z.8.I F *.F.o.- #.u.q.8.*.J 6 t C -.u.s.0.R * h j #.f.z.            ",
"                k.8.X.I %.f.M.* t 6.u.u.0.8.8.6.u.u.u.x.) 5 f v W 7.k.              ",
"                k.8.-.I P 5.P.U + C 0.u.u.u.u.u.u.u.u.] Z j 8 n ^ p.                ",
"                k.u.,.] F C u.j.: # H 6.u.u.u.u.u.w...5 &.q 9 m ] z.                ",
"                k.h.5.-.I m ( i.~ , * s %.0.u.w.5.` > ~ V q L ,.8.                  ",
"                k.z.p.,.*.I ^ ' 7.j u b G X.$.] I 9 z =.N P I *.f.                  ",
"                  k.h.8.,.*.,.] ..0.O.F G I I I X...7.^ X.` -.p.z.                  ",
"                  k.z.s.,.,.w.` 8.N.s.w.*.#.8.s.u.&.B F / *.s.h.                    ",
"                    k.z.h.w.u.-.5.u.s.6.5.-.-...P F / $.5.f.z.                      ",
"                      z.z.c.h.,.,.8.h.6.] ` ` ` $.-.8.p.h.z.c.                      ",
"                        z.z.f.w.p.*.f.h.0.5.0.-.h.z.h.z.k.c.                        ",
"                          k.z.k.F.l.,.w.f.,.k.u.z.k.k.k.                            ",
"                            k.k.z.z.s.u.u.u.f.z.k.                                  ",
"                              k.z.k.z.z.z.z.z.c.                                    ",
"                                      B.c.                                          "
};
