/* XPM */
static char *_[] = {
/* columns rows colors chars-per-pixel */
"42 42 183 2 ",
"   c None",
".  c #AC2E1D",
"X  c #B22F1E",
"o  c #B4301F",
"O  c #B53221",
"+  c #BC3322",
"@  c #C33523",
"#  c #CA3725",
"$  c #CD3827",
"%  c #C03628",
"&  c #C53A2C",
"*  c #CD3C2C",
"=  c #D33C2A",
"-  c #D93E2C",
";  c #CC3F32",
":  c #D43F32",
">  c #E13E2C",
",  c #CE402E",
"<  c #D6412F",
"1  c #C14333",
"2  c #CD4235",
"3  c #CF4B3F",
"4  c #D34335",
"5  c #DD4434",
"6  c #DD4937",
"7  c #D44539",
"8  c #D94539",
"9  c #D44A3D",
"0  c #DB493C",
"q  c #E4412F",
"w  c #E34331",
"e  c #EB4331",
"r  c #E14936",
"t  c #E1473B",
"y  c #EA4738",
"u  c #E54B3B",
"i  c #EC4C3B",
"p  c #F34A37",
"a  c #F44E3C",
"s  c #E6503E",
"d  c #E9503F",
"f  c #D34F42",
"g  c #DD4E42",
"h  c #D45245",
"j  c #DB5044",
"k  c #D6564A",
"l  c #DA5548",
"z  c #DB594D",
"x  c #D65B50",
"c  c #DE5F52",
"v  c #E54F42",
"b  c #EA4F43",
"n  c #E45244",
"m  c #EB5343",
"M  c #E95846",
"N  c #E2564A",
"B  c #EE5449",
"V  c #E55C4C",
"C  c #EC5C4B",
"Z  c #F35443",
"A  c #FA5340",
"S  c #F25947",
"D  c #FC5947",
"F  c #F2564B",
"G  c #FC564F",
"H  c #F45B4D",
"J  c #F95B4C",
"K  c #E95E50",
"L  c #F55D52",
"P  c #FA5D53",
"I  c #D96153",
"U  c #DC6559",
"Y  c #ED614F",
"T  c #F3604E",
"R  c #FC604F",
"E  c #E36256",
"W  c #EE6354",
"Q  c #E46459",
"!  c #ED6559",
"~  c #E6695D",
"^  c #F46355",
"/  c #FB6453",
"(  c #F66957",
")  c #FD6957",
"_  c #F76459",
"`  c #FC655A",
"'  c #F36C5E",
"]  c #FB6B5B",
"[  c #E5715F",
"{  c #EA705E",
"}  c #F7705F",
"|  c #FF705E",
" . c #DE6B61",
".. c #DD766C",
"X. c #EC6D62",
"o. c #F46E63",
"O. c #FC6D61",
"+. c #E37363",
"@. c #EF7164",
"#. c #EB756A",
"$. c #E4786D",
"%. c #F67367",
"&. c #FD7465",
"*. c #FE7867",
"=. c #F1776A",
"-. c #FD766A",
";. c #F3796C",
":. c #FE7B6C",
">. c #E07A71",
",. c #EA7E74",
"<. c #F27D73",
"1. c #FD7D72",
"2. c #DF8279",
"3. c #FE806F",
"4. c #E28177",
"5. c #E9867C",
"6. c #F18470",
"7. c #FD8374",
"8. c #FF8877",
"9. c #F38479",
"0. c #FC8478",
"q. c #F38B79",
"w. c #FE8B7C",
"e. c #FE8E82",
"r. c #FE8F88",
"t. c #E6928A",
"y. c #EE9188",
"u. c #EE9A88",
"i. c #F39582",
"p. c #FE9586",
"a. c #FE9283",
"s. c #F6948A",
"d. c #FE978A",
"f. c #FE9689",
"g. c #F59D89",
"h. c #FE9A8E",
"j. c #FE9A8C",
"k. c #FE9E93",
"l. c #FE9D92",
"z. c #FE9F94",
"x. c #FE9C91",
"c. c #F49B93",
"v. c #FEA18D",
"b. c #F4A197",
"n. c #FFA195",
"m. c #FFA397",
"M. c #FEA295",
"N. c #F1A19A",
"B. c #FEA299",
"V. c #FFA498",
"C. c #FEA599",
"Z. c #FFA599",
"A. c #FFA499",
"S. c #FFA59A",
"D. c #FEA69A",
"F. c #FFA69A",
"G. c #FEA69B",
"H. c #FFA69C",
"J. c #FFA59A",
"K. c #FFA89D",
"L. c #FEAB9B",
"P. c #FEB39E",
"I. c #ECA7A1",
"U. c #F3ABA4",
"Y. c #FBABA2",
"T. c #FEB4A0",
"R. c #FDB9A5",
"E. c #FEB5AD",
"W. c #FEBDA8",
"Q. c #FAB8B0",
"!. c #FFC5B0",
"~. c #FEC8B2",
"^. c #F7C0BA",
"/. c #FDC0B9",
"(. c #FECFBA",
"). c #FED5BD",
"_. c #FED8BF",
"`. c #FEDAC4",
"'. c #F5D1CD",
"]. c #FFDEC9",
"[. c #F8D5D2",
"{. c #FFE2CD",
"}. c #FEE6D2",
/* pixels */
"                                          K.L.                                      ",
"                                    A.A.A.B.A.A.A.A.H.                              ",
"                                  A.A.k.e.e.e.d.A.A.A.A.                            ",
"                            H.A.A.A.a.H.1.l.e.1.B.E.A.A.A.                          ",
"                        A.A.A.m.A.z.:.w.7.w.z.h.-.r.e.k.A.A.                        ",
"                      A.A.m.p.8.-.O.` P ` ` w.k.0.1.:.B.K.A.A.                      ",
"                      B.k.7.&.P F L o.-.-.1.0.j.p.1.-.e.w.m.A.A.                    ",
"                    m.h.-./ F B %.a.d.7.o.%.e.h.Y.7.` e.1.1.h.A.A.                  ",
"                  A.d.:.` O.W 0.o.] P G P G F X.w.' ] 1.-.1.0.m.A.                  ",
"                  h.-.P H N ;.z 8 P ` O.O.J i t j 9.' L L &.:.a.A.A.                ",
"                  0.1.V 0 V ~ ; _ 7.w.w.w.&.d * : ~ s.^ m P -.1.k.A.                ",
"                m.] m 8 0 =.4 o.w.a.a.a.a.a.8.C # & b.e.C F ] 1.a.A.                ",
"                p.^ n 7 j Z ] a.a.a.a.a.a.a.a.w.C @ I /.1.L P -.0.A.                ",
"              A.0.W g f : / L.p.a.a.w.7.8.w.a.a.8.6 * U.h.&.J O.0.A.                ",
"            A.h.o.j h * H w.d.a.-.C r 5 J *.7.w.a.} = +.E.-.B P 7.A.                ",
"            A.7.9.z 9 5 7.8.e.( = + + + = s ] :.w.w.m 4 Q.K n G -.A.                ",
"            k.%.^.=.C H ) 8.*.- @ 8 C T H r $ = m *.&.= y.h 0 H &.m.                ",
"          H.0.^ N.j.^ J v.j.i r ] ] m 6 m ] 5 . + m 7.6 U 9 8 H O.h.A.              ",
"          A.O.C E @.C M `.j.q &.C + $ # @ y Z o = a 7.d f 2 4 m ` p.A.              ",
"          k.1.U.c f 0 [ {.6.m ^ O O T C # p Z + w A 3.m & & 2 v _ a.A.              ",
"          h.O.,.E h % { ).M J 5 O C ] / w e p * i D 8.m & * 4 B ` e.A.H.            ",
"          d.L ! E z + W L.r e @ O %.n $ = $ m < p ) w.H = a u F ] e.A.A.            ",
"          d.P F ! k + g.{.V > + . V 7.C M ^ m @ w -.w.Z y R u B &.a.m.A.            ",
"          h.( s.Y.x O u.{.i.a = o + C :.%.n + # S w.-.y J H 0 B -.a.m.H.            ",
"          A.] v #.U O +._.].7.S r + X @ o o $ Z 7.w.J i ] b 0 F :.d.A.H.            ",
"            %.v g $.1 V `.{.w.w.w.*.Y n 5 u ( 8.a.:./ ] ( t v P 8.h.A.              ",
"            1.n I.2.h u W.L.w.w.a.a.a.a.w.w.w.a.w.:.&.-.m 4 m ] w.m.A.              ",
"            0.9.[.'.>.Q T 8.a.a.w.7.7.w.w.8.7.3.:.&.-.) t 0 F -.h.A.                ",
"            e.^ ,...k c - / 7.w.e.:./ ) ) / | &.] &.*.Z Z m P w.A.A.                ",
"            h.L #.2 ; f 9 = u ( 7.8.8.7.3.:.*.&.&.-.3.-./ F &.h.A.                  ",
"            m.O.X.9 t.j 4.$ + + 6 / / &.-.*.-.3.7.w.(.P.` ` 0.m.A.                  ",
"            A.1.P v Q 5 l 0 $ X . , R D Z 7.j.p.n.!.}.P.` 1.h.A.                    ",
"            A.p.` F 0 5 g 0 * + . o , ( a.~.{.{.].).P.w.:.p.A.A.                    ",
"              m.1.P v 8 8 0 f + O * W ( R.{.{.{.{.).8.w.e.m.A.                      ",
"              A.h.x.Y.n 8 0 9 3 7 4 @.H q.{.`.).T.w.:.d.k.A.A.                      ",
"                A.w.e.L m N  .f h 5.! F W b.L.P.-.d.d.d.A.A.                        ",
"                  m.1.:./ ` X.9 9 Q ^ <.<.9.0.O.1.h.Y.A.A.                          ",
"                    k.a.w.-.P o.m c.P H _ &.:.d.A.H.Y.A.                            ",
"                    A.A.m.d.8.-.&.7.&.-.7.e.K.m.A.A.A.                              ",
"                      A.A.A.n.h.d.d.d.d.k.V.A.A.A.                                  ",
"                          A.A.A.A.A.A.A.A.A.                                        ",
"                            H.H.A.                                                  "
};
