/* XPM */
static char *_[] = {
/* columns rows colors chars-per-pixel */
"42 42 177 2 ",
"   c None",
".  c #AD2F1E",
"X  c #B02F1E",
"o  c #B4311F",
"O  c #B53322",
"+  c #BB3321",
"@  c #BD3D2D",
"#  c #C33524",
"$  c #C93725",
"%  c #C33926",
"&  c #CD3826",
"*  c #C5392C",
"=  c #CB3C2C",
"-  c #D23C2C",
";  c #DB3E2C",
":  c #CD3F31",
">  c #D33F31",
",  c #E13E2C",
"<  c #CC402F",
"1  c #D7412F",
"2  c #DB412E",
"3  c #CF4336",
"4  c #CD473A",
"5  c #D44335",
"6  c #DC4534",
"7  c #D84937",
"8  c #D54539",
"9  c #D94539",
"0  c #D54C3E",
"q  c #DD4A3C",
"w  c #E4422F",
"e  c #E24331",
"r  c #E84431",
"t  c #E34937",
"y  c #E1473B",
"u  c #E34B3B",
"i  c #EB4C3B",
"p  c #F04836",
"a  c #F34D3A",
"s  c #EC513F",
"d  c #D34E42",
"f  c #DE4F41",
"g  c #D55246",
"h  c #DB5245",
"j  c #D75548",
"k  c #DC564A",
"l  c #D75A4D",
"z  c #D9594C",
"x  c #DC5E52",
"c  c #E44E42",
"v  c #E84F44",
"b  c #F24F40",
"n  c #E25242",
"m  c #EC5344",
"M  c #E45846",
"N  c #ED5946",
"B  c #ED5449",
"V  c #E55B4E",
"C  c #EC5C4B",
"Z  c #F35546",
"A  c #FA5542",
"S  c #F35846",
"D  c #FB5946",
"F  c #F3554C",
"G  c #FA574F",
"H  c #F35B4B",
"J  c #FA5B4F",
"K  c #E25F53",
"L  c #EA5F52",
"P  c #F55D52",
"I  c #FA5C52",
"U  c #DB6559",
"Y  c #F1614F",
"T  c #FB614E",
"R  c #E26354",
"E  c #EC6354",
"W  c #E46559",
"Q  c #E8665A",
"!  c #E56B5D",
"~  c #F36352",
"^  c #FC6254",
"/  c #F46659",
"(  c #FC655B",
")  c #F46B5B",
"_  c #FC6C5C",
"`  c #F8705E",
"'  c #DD6E63",
"]  c #E06E62",
"[  c #ED6E63",
"{  c #F06F65",
"}  c #FC6D61",
"|  c #E47166",
" . c #EC7263",
".. c #E57967",
"X. c #EC776A",
"o. c #E7796F",
"O. c #F37467",
"+. c #FD7364",
"@. c #FE7867",
"#. c #F07569",
"$. c #FC766A",
"%. c #F47D6F",
"&. c #FD7B6C",
"*. c #E07E75",
"=. c #E97D73",
"-. c #F37D73",
";. c #FE7D71",
":. c #FD806F",
">. c #E18076",
",. c #E88074",
"<. c #EF8875",
"1. c #E3867B",
"2. c #F58176",
"3. c #FE8373",
"4. c #F48A76",
"5. c #FE8877",
"6. c #F3847A",
"7. c #FD867A",
"8. c #FE8C7C",
"9. c #F4927F",
"0. c #FE907F",
"q. c #EE8C84",
"w. c #F18C84",
"e. c #FC8D83",
"r. c #E89087",
"t. c #E59189",
"y. c #EE958D",
"u. c #FE9383",
"i. c #FB9987",
"p. c #F4948C",
"a. c #FE968A",
"s. c #FE9A8D",
"d. c #F19C93",
"f. c #FE9D92",
"g. c #F1A08E",
"h. c #FCA18D",
"j. c #FEA296",
"k. c #FFA69B",
"l. c #FFA89D",
"z. c #FFA99E",
"x. c #FEA89D",
"c. c #FEB09C",
"v. c #FEB19E",
"b. c #F4AAA3",
"n. c #FEABA0",
"m. c #FBAAA2",
"M. c #FDB5A0",
"N. c #FFB7A4",
"B. c #FBBAA6",
"V. c #FDB9A4",
"C. c #FDBCA7",
"Z. c #FEB3AA",
"A. c #FCB3AA",
"S. c #FCBCB5",
"D. c #FDC1AA",
"F. c #FFC1AD",
"G. c #FEC4AF",
"H. c #FEC5B0",
"J. c #FEC8B1",
"K. c #FECCB6",
"L. c #F7C0BA",
"P. c #FED6BD",
"I. c #FDD4BE",
"U. c #F3CAC5",
"Y. c #FED7C1",
"T. c #FFD9C1",
"R. c #FFDBC5",
"E. c #FFDDC6",
"W. c #FEDAC2",
"Q. c #F8D7D3",
"!. c #FFE1CA",
"~. c #FFE2CD",
"^. c #FFE3CE",
"/. c #FEE4CF",
"(. c #FEE1CC",
"). c #FFE7D3",
"_. c #FFE6D2",
/* pixels */
"                            l.l.l.l.l.                                              ",
"                        l.l.k.k.k.k.k.k.l.l.                                        ",
"                      l.k.k.f.a.u.u.u.a.s.j.l.l.l.l.                                ",
"                    l.k.f.a.;.} } 8.} } &.8.k.k.n.k.k.                              ",
"                    a.u.3.+.P { c w.I F / $.$.e.f.l.Z.l.                            ",
"                  j.&.+.I _ =.0 h X.~ -.6.6.e.+.&.s.k.j.l.                          ",
"                k.7.k.P c f x d g | #.Z E B.M.D.;.u.a.a.k.l.                        ",
"              l.a.a.p.f 9 q 0 4 = - ) _ i./.E.T.H.s.&.f.f.k.k.                      ",
"              j.&.I c 9 6 q 0 + o & M H V.!.^.^.!.R.7.;.8.j.k.                      ",
"            l.u.( Z q 6 f f - + . . 7 +.5.C.^.!.R.P.J.s.$.u.k.l.                    ",
"            k.;.G c o.6 z 9 & X . 7 T A A @.3.3.a.F.).M.( &.s.k.                    ",
"            j.} -.8 >.j 1.& + $ m _ +.5.3.&.&.3.3.3.G.c.( ^ 5.j.l.                  ",
"            s.P W 3 = 0 5 ; S @.8.8.5.&.&.&.&.+.+.&.+._ ^ G } a.k.                  ",
"            e.) y.t.U W 2 _ 8.u.u.@.^ _ _ ^ _ &.+.+.&.Z b m I 7.k.l.                ",
"            7.2.Q.U.' V _ 8.u.u.u.8.8.u.u.8.8.3.3.@.&._ y 9 Z +.s.k.l.              ",
"            %.c r.*.g i K.N.8.8.u.u.u.8.5.5.8.u.8.&.+.&.Z 5 v ( 8.j.l.              ",
"            +.c n | @ R T.).8.5.3.) n 9 = 1 H 3.u.3.T ( ( u c I 5.s.l.              ",
"          k._ V 6.U O ..T.P.@.s 1 o O = % + $ t &.8.^ i _ m q G ;.a.k.l.            ",
"          s.^ e.j.l O g.).<.a & o % ) 3.&.C $ # m 8.:.i J J u Z $.a.k.l.            ",
"          a.^ N L z # 9.R.M , + . E @.u u N N $ r @.8.Z u J i Z +.u.k.l.            ",
"          s.P [ Q z # E c.y p $ O +.M ; ; - m 5 a ^ 8.H - i y G _ e.k.l.            ",
"          f.@.q.R g *  .T.E J t o n +._ w p a = i D 5.m * = 5 B ( u.k.l.            ",
"          j.&.p.K j n ! ^.4.i ` # o m s # a Z + e A 3.m = * 5 m ( u.k.              ",
"          k.+.P ! %.C N Y.h.w _ ) = & $ # s m o & a 3.s g 4 8 B _ a.k.              ",
"          l.8./ b.a.~ ^ 8.i.S 2 Y ` ~ N ~ _ 1 X # H 3.6 ] d 9 F } f.l.              ",
"            j.$.L. .C H +.5.3.e + = q n u 1 ; u ~ 3._ - d.h q I +.k.                ",
"            l.7.#.k 8 6 &.8.u.+.6 # # # 6 H +.5.0.8.i 0 S.E m G &.k.                ",
"              j.O.h z : Z 5.s.a.5.) N i T &.5.u.u.) & ,.Z.&.F ^ 7.k.                ",
"              l.7./ c g > T j.a.a.u.u.8.8.u.u.a.3.6 < A.a.+.I +.7.l.                ",
"                s.^ n 5 k N Y 0.a.a.u.a.a.a.u.5.n + ] S.@.F I &.7.l.                ",
"                k.} N 7 8 %.5 E 8.u.a.a.a.u.3.m # 3 m.3.B G } ;.a.l.                ",
"                  e.e.E q h X.= P &.8.8.5._ e = 5 X.8.~ B ^ &.7.j.l.                ",
"                  j.$.I / E O.! 8 I ^ _ ( I Z y V 7./ ^ I &.;.s.k.l.                ",
"                    s.7.^ / ~ 2.2.$.^ G I G F 2.u.) } e.;.;.8.k.l.                  ",
"                    k.f.;.( G B / e.j.u.-.2.s.s.Z.8.( 7.;.3.f.k.l.                  ",
"                      k.k.8.&.( I F P } } $.5.a.8.3.;.f.a.k.k.l.                    ",
"                      l.l.k.s.8.3.&._ ( ( } 8.l.7.;.;.f.l.k.k.                      ",
"                          l.l.k.l.j.;.a.7.u.k.e.;.f.a.j.k.k.                        ",
"                              l.l.k.s.k.;.f.7.;.n.Z.l.k.l.                          ",
"                                  l.k.j.a.a.a.f.k.k.l.l.                            ",
"                                      l.k.k.k.l.l.l.                                ",
"                                                                                    "
};
