/* XPM */
static char *_[] = {
/* columns rows colors chars-per-pixel */
"42 42 209 2 ",
"   c None",
".  c #861818",
"X  c #973A0B",
"o  c #812A16",
"O  c #94301A",
"+  c #AA3D1D",
"@  c #8F481B",
"#  c #894116",
"$  c #944317",
"%  c #9E431B",
"&  c #9B5819",
"*  c #A9420E",
"=  c #BD5E0E",
"-  c #A24A1D",
";  c #BA4D14",
":  c #A25A1D",
">  c #B75E14",
",  c #AD631C",
"<  c #BD641E",
"1  c #AE5622",
"2  c #AB6924",
"3  c #BC7824",
"4  c #B47D25",
"5  c #CB530E",
"6  c #D4540F",
"7  c #C44012",
"8  c #C05013",
"9  c #C35817",
"0  c #D35213",
"q  c #D25911",
"w  c #DF7F0D",
"e  c #D96F14",
"r  c #C77319",
"t  c #D77F10",
"y  c #DE7E10",
"u  c #DF701B",
"i  c #DC791A",
"p  c #E4640B",
"a  c #F66C05",
"s  c #F46C0C",
"d  c #F86B04",
"f  c #EE730F",
"g  c #EF790D",
"h  c #F57C04",
"j  c #F97C03",
"k  c #F2720E",
"l  c #F37C09",
"z  c #F77807",
"x  c #EF6D16",
"c  c #ED6E1B",
"v  c #E76713",
"b  c #F36B15",
"n  c #EC7414",
"m  c #E97C16",
"M  c #E4731D",
"N  c #EB721C",
"B  c #EA781A",
"V  c #F67811",
"C  c #F37414",
"Z  c #D47D24",
"A  c #DB7729",
"S  c #CA7D34",
"D  c #DC7434",
"F  c #DB773B",
"G  c #D77C3F",
"H  c #D87B39",
"J  c #EA6F22",
"K  c #E37622",
"L  c #E37A23",
"P  c #E3742B",
"I  c #E57626",
"U  c #F17524",
"Y  c #E27932",
"T  c #E07938",
"R  c #B37A49",
"E  c #B16855",
"W  c #B07E54",
"Q  c #AC6871",
"!  c #BE7E7B",
"~  c #D57E41",
"^  c #B6881D",
"/  c #BB9B1A",
"(  c #BC8B21",
")  c #B9862B",
"_  c #BE9821",
"`  c #BC9226",
"'  c #C8861D",
"]  c #DD8B12",
"[  c #C0951D",
"{  c #EA850A",
"}  c #F38106",
"|  c #FA8B03",
" . c #F3840A",
".. c #F98309",
"X. c #F58B09",
"o. c #F98F0C",
"O. c #ED960B",
"+. c #F79406",
"@. c #F99504",
"#. c #F39B05",
"$. c #F5920F",
"%. c #FA960A",
"&. c #F49B0D",
"*. c #F89E08",
"=. c #FA9A05",
"-. c #EC8311",
";. c #EF8A10",
":. c #E7811B",
">. c #F68C11",
",. c #F18E18",
"<. c #F18516",
"1. c #EF9012",
"2. c #EC9619",
"3. c #F69412",
"4. c #F99511",
"5. c #F19C15",
"6. c #F3991C",
"7. c #CBA71B",
"8. c #F9A405",
"9. c #F5A40C",
"0. c #FAA30B",
"q. c #F4AC0C",
"w. c #F9AC0C",
"e. c #F7A303",
"r. c #F5B20F",
"t. c #E7A51F",
"y. c #EBA118",
"u. c #FAAD16",
"i. c #F4A717",
"p. c #EEB216",
"a. c #F4B414",
"s. c #FAB411",
"d. c #F9BB14",
"f. c #FAB51C",
"g. c #F9BE1A",
"h. c #F4B71D",
"j. c #C2862D",
"k. c #DA8228",
"l. c #C39323",
"z. c #C89C25",
"x. c #CF9D29",
"c. c #D29421",
"v. c #DB8237",
"b. c #DF8D33",
"n. c #D69C34",
"m. c #E3852A",
"M. c #ED8B22",
"N. c #E09828",
"B. c #EC9520",
"V. c #CEA627",
"C. c #C5A124",
"Z. c #D0A92F",
"A. c #DABE2C",
"S. c #DEAA39",
"D. c #F6A820",
"F. c #F8AC21",
"G. c #EFB224",
"H. c #F7BE27",
"J. c #FBBE22",
"K. c #FDBC29",
"L. c #E7B637",
"P. c #E6CF1F",
"I. c #F7C016",
"U. c #F8C315",
"Y. c #F7C41D",
"T. c #FBC51D",
"R. c #FBCB1E",
"E. c #EBDF1E",
"W. c #F4DF17",
"Q. c #F8D61F",
"!. c #F8DE1C",
"~. c #FBDB17",
"^. c #F6F90E",
"/. c #F6EB1E",
"(. c #F9ED1C",
"). c #F5E61D",
"_. c #F7F211",
"`. c #FDFB15",
"'. c #FBF41C",
"]. c #FDFB1A",
"[. c #F9F717",
"{. c #DEC727",
"}. c #DDCC22",
"|. c #E4CF27",
" X c #ECC927",
".X c #F4C422",
"XX c #FCC324",
"oX c #F7CA22",
"OX c #FACC23",
"+X c #FCCE2B",
"@X c #E6D823",
"#X c #FCD426",
"$X c #F5D32B",
"%X c #FBD429",
"&X c #F9DB2A",
"*X c #F8DA25",
"=X c #EAC334",
"-X c #E7C235",
";X c #FDD538",
":X c #FDEE20",
">X c #FBE126",
",X c #F6F225",
"<X c #F9F320",
"1X c #F7E031",
"2X c #CE8445",
"3X c #C08D78",
"4X c #BA828C",
"5X c #C8958E",
"6X c #D8B9B4",
/* pixels */
"                                                                                    ",
"                                                                                    ",
"                                        H b.P                                       ",
"                                            m.M.                                    ",
"                                              y.n.                                  ",
"                                              L.B.                                  ",
"                                                o.k.                                ",
"                                                X.B                                 ",
"                                                3.m                                 ",
"                                              i i.:.                                ",
"                                            P ,.J.:.                                ",
"                                    v.M b n <.D.i.Z                                 ",
"                                  B z ..$.5.F.6.v.                                  ",
"                                L X.&.a.oXf.l P                                     ",
"                              I >.T.OXY.u.h n                                       ",
"                            N z f.#XU.#.z b                                         ",
"                            f 3.XXOXq.+.a N                                         ",
"                          Y l K.%X*XI.*.z s F                                       ",
"                          s ..+X%X*XR.s.0.j s F                                     ",
"                        D s %.+X%X%X#X#XXXu...s N                                   ",
"                      2XK ..0.d.%X%X%X%X&XOX9.j d b G                               ",
"                      n k $.8.w.oX%X%X%X%X#XY.9.j a x G                             ",
"                    P k >.0.s.R.OX#X#X%X%X%X#Xd.*.l v v                             ",
"                  P s p y q.R.#X#X#X#X%X%X#X#XT.9.5 7 q                             ",
"                ~ s X.e O 1 L.OXQ.W.(.:X>X#X*X;XS ! + V P                           ",
"                u ..w.] E 6XW -X(._.].].[.(.1Xj.5X6X1 } b                           ",
"                g %.J.9.' 3X4X@ _ E.].].`.(.V.- Q R 2.| C                           ",
"              K } w.oXr..XZ 3 ^ ^ @X].`.`.(./ ( ( -Xf.0.V J                         ",
"              m @.g.+Xa.%X5.!.].].].].`.`.`.`.].'.&XOX0.} c                         ",
"              m.=.g.+Xa.%X5.!.`.].`.].`.`.`.`.].'.&XoXw.-.M                         ",
"                { a.OXa.%Xh.).].}.@X'.[.[.`.'.|.z. X%XN.8 M                         ",
"                k.#.Y.h..X>X'.,X4 & [ /.^.[.@X& o S.oX> 0 N                         ",
"                  ;.y.> t.$X(.{.$ ` 7.^ ).[.Z.2 , - G.= 6 M                         ",
"                  A -.* X 3 .X) ) ,XP.$ C.A.# l.=X% < 9 n A                         ",
"                    U &.t < ; . ' [.<Xl.: % j.*X$Xr ; 0 Y                           ",
"                    Y X.9.a.c.r w q.~. Xz.x.$XU.r.i.4.x                             ",
"                      M  .e.a.+XH.1.O.p.&X#XQ.R.w.} k D                             ",
"                        L | 0.oX#X+XOXoXoXT.g.+.o.n T                               ",
"                          L  .4.f.s.s.8.8.+...s x ~                                 ",
"                              N  .h j } -.f J                                       ",
"                                  A x D                                             ",
"                                                                                    "
};
