/* XPM */
static char *_[] = {
/* columns rows colors chars-per-pixel */
"42 42 208 2 ",
"   c None",
".  c #982D0E",
"X  c #96360F",
"o  c #8A2916",
"O  c #8A3A12",
"+  c #933C1D",
"@  c #95321F",
"#  c #A22C0F",
"$  c #AF3D10",
"%  c #982F24",
"&  c #93353A",
"*  c #8E4119",
"=  c #974918",
"-  c #9A4C1C",
";  c #984418",
":  c #A84A13",
">  c #BC4D16",
",  c #BE4C1C",
"<  c #BA4318",
"1  c #A45719",
"2  c #BC5516",
"3  c #BB5D10",
"4  c #A5651F",
"5  c #B96D1F",
"6  c #AE7E1A",
"7  c #B07A1D",
"8  c #9F4126",
"9  c #A35027",
"0  c #AF6D20",
"q  c #BC6B2D",
"w  c #AD7523",
"e  c #B0702B",
"r  c #B86532",
"t  c #DC520F",
"y  c #C64B1B",
"u  c #C0501D",
"i  c #D6780E",
"p  c #C26219",
"a  c #DC6C13",
"s  c #D96C1A",
"d  c #D97519",
"f  c #EA6B0F",
"g  c #F56D05",
"h  c #F86D04",
"j  c #F26D0B",
"k  c #ED7A0B",
"l  c #E9740C",
"z  c #FA7403",
"x  c #F47E03",
"c  c #F3730C",
"v  c #F57E0C",
"b  c #E76919",
"n  c #F16D11",
"m  c #F16F1B",
"M  c #EC7014",
"N  c #EC7D15",
"B  c #E4751D",
"V  c #EB731A",
"C  c #E57D1D",
"Z  c #E87B1A",
"A  c #F17217",
"S  c #C67728",
"D  c #DE772A",
"F  c #DC792E",
"G  c #D57E2B",
"H  c #C96C3D",
"J  c #DA7533",
"K  c #D67C34",
"L  c #D97C35",
"P  c #D27E3C",
"I  c #DA7C3A",
"U  c #D97637",
"Y  c #EC6D20",
"T  c #E77423",
"R  c #E27922",
"E  c #E47A2C",
"W  c #E4762D",
"Q  c #E27935",
"!  c #914447",
"~  c #A1514D",
"^  c #A66040",
"/  c #B76F46",
"(  c #B77B6A",
")  c #D26F40",
"_  c #C37F44",
"`  c #BD9119",
"'  c #BE8F29",
"]  c #C28A1F",
"[  c #DD8318",
"{  c #C5921E",
"}  c #EE870C",
"|  c #F68305",
" . c #F98205",
".. c #F38A06",
"X. c #FC8F05",
"o. c #F5810A",
"O. c #F9840A",
"+. c #F38B0D",
"@. c #F98D09",
"#. c #EB920C",
"$. c #EF9D0F",
"%. c #F39405",
"&. c #F99304",
"*. c #F99E05",
"=. c #F4940B",
"-. c #F19D0C",
";. c #FA9A0B",
":. c #FB9008",
">. c #EA8C13",
",. c #E7891A",
"<. c #F38116",
"1. c #EC911A",
"2. c #E99116",
"3. c #F39C12",
"4. c #F69517",
"5. c #CBA31D",
"6. c #D3B41E",
"7. c #F5A305",
"8. c #FBA406",
"9. c #F3AA05",
"0. c #F4A40D",
"q. c #FAA30B",
"w. c #F2A90B",
"e. c #F9A90B",
"r. c #EFB90D",
"t. c #F6B40E",
"y. c #FAB00D",
"u. c #E8A419",
"i. c #F3A213",
"p. c #FBAB12",
"a. c #F4A318",
"s. c #F5A918",
"d. c #EEB115",
"f. c #E6B015",
"g. c #F5B513",
"h. c #FAB313",
"j. c #FBBC15",
"k. c #FAB71E",
"l. c #F5BD19",
"z. c #FABC1B",
"x. c #F6B812",
"c. c #C38E24",
"v. c #C58927",
"b. c #C79B22",
"n. c #D8982E",
"m. c #DE8532",
"M. c #D5823A",
"N. c #E28E23",
"B. c #E78320",
"V. c #E59B26",
"C. c #CBA921",
"Z. c #D3A92C",
"A. c #D8A824",
"S. c #D5B622",
"D. c #D3BC23",
"F. c #DFB73C",
"G. c #E6B62C",
"H. c #F6B720",
"J. c #F2B920",
"K. c #EFAB30",
"L. c #EBB73E",
"P. c #F9C31C",
"I. c #F8C719",
"U. c #F6D51C",
"Y. c #F7E419",
"T. c #FBEC1B",
"R. c #FBE71A",
"E. c #F7F417",
"W. c #FBF515",
"Q. c #F5F21A",
"!. c #FBF51A",
"~. c #FCFA1A",
"^. c #FBFA16",
"/. c #DEC630",
"(. c #E4CB24",
"). c #E4C429",
"_. c #FAC122",
"`. c #F5CD23",
"'. c #FBCC22",
"]. c #FBCB2C",
"[. c #F5C527",
"{. c #EADC23",
"}. c #F4D426",
"|. c #FBD426",
" X c #F5DC21",
".X c #FADB25",
"XX c #F4D32C",
"oX c #FCD52A",
"OX c #FAD92A",
"+X c #F4D82E",
"@X c #EAC636",
"#X c #F5CF32",
"$X c #F8D335",
"%X c #F1E626",
"&X c #F4ED23",
"*X c #FCEA21",
"=X c #F9E620",
"-X c #FAF329",
";X c #F0E430",
":X c #BB8151",
">X c #B7836D",
",X c #BA817F",
"<X c #C5864B",
"1X c #D58544",
"2X c #C8A99E",
"3X c #CD9FA0",
"4X c #DFC4C1",
"5X c #E1CCCB",
/* pixels */
"                                                                                    ",
"                                    1XF P       <X                                  ",
"                                  m.V                                               ",
"                                M.+.B.                                              ",
"                              1Xu.3.                                                ",
"                              ,.P.2.                                                ",
"                            m.a.H.} d W D D D L                                     ",
"                            N h.k.;.=.a.a.3.i.2.                                    ",
"                            ,.h.'._.P.e.0.w.g.g.N.                                  ",
"                              N.i.3.1.C Z o.-.l.1.                                  ",
"                                F E       M ..z.1.                                  ",
"                                          n &.j.1.                                  ",
"                                        L v 8.x.>.                                  ",
"                                      I n o.q.t.>.                                  ",
"                                    T c x %.h.g.| W                                 ",
"                                I n h z &.w.l.j. .n                                 ",
"                              1Xj z  .&.8.x.'.I.7.| B                               ",
"                              V z :.q.h.z.'.|.'.z.;.k                               ",
"                            K c &.7.g.oXoXoX|.|.].p...R                             ",
"                          K M x 7.r.'.oXoXoX|.OXoXy.*.} B                           ",
"                          M k =.t.|.oXoXoXoX|..X.XP.7.=.c U                         ",
"                        I l %.t.I.oXoXoXoXOX.X.X.XU.t.$.N ,                         ",
"                      M.s $ [ u.|.|.|..X.X.X.X X.X|._.G 8 < )                       ",
"                      R f % ~ / L.[.J.U.!.!.T.Y.oX#Xn.>X3X, b                       ",
"                      j k r 2X4X:Xu.d.Y.~.!.!.W.*X@X^ 5X( s c                       ",
"                    G g @.V._ ,X! 1 { {.~.~.~.!.C.e & ( ] i.o.J                     ",
"                    V x *._.K.3 c.{ { %X~.~.~.~.6.` ] b.XXg. .n                     ",
"                    h X.8.'.k.0.~.~.~.~.~.~.~.~.~.~.W.R.|.j.| n                     ",
"                    h X.8.'.k.-.!.~.~.~.~.~.~.~.~.~.~.*X|.j...a                     ",
"                    h X.8.'._.d.!.!.{.&X~.~.~.~.^.!.(.).|.z.>.>                     ",
"                    V @.q._.|.=XE.&Xw ' D.Q.W.E.E.A.+ 1 $X_.2 y                     ",
"                    U v i u.]. XQ.S.- 4 6 S.&XE.&X1 9 ; n.k.2 u                     ",
"                      n # : v.OX-Xw 0 ;X/.* C.~.5.= F.q : d > H                     ",
"                      T d p X 5 S + Z.-X%X7 w Z.O c.XXV.. # y                       ",
"                      U 4.a.[ S @ o A.T.~.6.= = v.+XI.i.a t b                       ",
"                        C =.0.s.G.1.+.#.U.U.(.).XX}.t.q.+.c J                       ",
"                        E c %.9.P.]._.3.#.f.}.`.`.g.q.@.c Y                         ",
"                          F k &.p.z.P.'.'.P.P.g.9.=.O.m Q                           ",
"                            M.N +...0.t.h.e.8.q.=.c m                               ",
"                                  E k o.o.o.O.<.m.                                  ",
"                                    M.L L K K P                                     ",
"                                                                                    "
};
