/* XPM */
static char *_[] = {
/* columns rows colors chars-per-pixel */
"42 42 149 2 ",
"   c None",
".  c #010100",
"X  c #090604",
"o  c #000E06",
"O  c #0F0B07",
"+  c #040608",
"@  c #06080A",
"#  c #0C0C0C",
"$  c #130600",
"%  c #1C0800",
"&  c #100E0B",
"*  c #001207",
"=  c #001608",
"-  c #00190A",
";  c #16130E",
":  c #030C14",
">  c #131414",
",  c #191610",
"<  c #10151A",
"1  c #1B1B1B",
"2  c #2D0E00",
"3  c #351000",
"4  c #231E16",
"5  c #00210D",
"6  c #002D11",
"7  c #003113",
"8  c #003815",
"9  c #003F18",
"0  c #2F2A1F",
"q  c #322215",
"w  c #232221",
"e  c #282623",
"r  c #2F2A22",
"t  c #2F2D2B",
"y  c #312B20",
"u  c #393226",
"i  c #3C3628",
"p  c #3F382A",
"a  c #35342F",
"s  c #292D31",
"d  c #313131",
"f  c #3E3E3E",
"g  c #451500",
"h  c #4E1700",
"j  c #541900",
"k  c #5E1C00",
"l  c #641E00",
"z  c #681F00",
"x  c #612104",
"c  c #742603",
"v  c #4C3825",
"b  c #423A2C",
"n  c #413C33",
"m  c #00441A",
"M  c #005D24",
"N  c #006226",
"B  c #006728",
"V  c #006F2B",
"C  c #00752E",
"Z  c #007D30",
"A  c #4E4534",
"S  c #584E3B",
"D  c #564C39",
"F  c #5D523E",
"G  c #704022",
"H  c #4B4B4B",
"J  c #504B41",
"K  c #565146",
"L  c #5D584E",
"P  c #525252",
"I  c #5A5A5A",
"U  c #615641",
"Y  c #635842",
"T  c #6A6457",
"R  c #7C6F55",
"E  c gray39",
"W  c #6D6D6D",
"Q  c #7D7566",
"!  c #7D7D7D",
"~  c #802600",
"^  c #862800",
"/  c #8B2900",
"(  c #932C00",
")  c #9B2E00",
"_  c #A03000",
"`  c #A53B0A",
"'  c #C06D3B",
"]  c #807155",
"[  c #847558",
"{  c #87785A",
"}  c #88795B",
"|  c #917E5D",
" . c #C67946",
".. c #008333",
"X. c #008C36",
"o. c #009038",
"O. c #948362",
"+. c #94876E",
"@. c #9C8B68",
"#. c #A08E6B",
"$. c #A3916D",
"%. c #B89266",
"&. c #AE9B74",
"*. c #B19D75",
"=. c #B5A17A",
"-. c #BDA87E",
";. c #B8A47C",
":. c #CA824E",
">. c #8B8B8C",
",. c gray51",
"<. c #949494",
"1. c #9E9E9E",
"2. c #BFAA81",
"3. c #A3A3A3",
"4. c #ABABAB",
"5. c #B4B3B2",
"6. c #BBBBBB",
"7. c #C4AF83",
"8. c #CFB88A",
"9. c #D2BB8C",
"0. c #D3BD93",
"q. c #DCC392",
"w. c #EEC58E",
"e. c #E2C997",
"r. c #E9CF9C",
"t. c #ECD29D",
"y. c #D3C5A9",
"u. c #C5C3BF",
"i. c #F6D7A0",
"p. c #F5DAA3",
"a. c #FADCA4",
"s. c #FBDFA8",
"d. c #F4DCAB",
"f. c #E9D6B0",
"g. c #FCE0A8",
"h. c #C1C1C1",
"j. c #CDCDCD",
"k. c #D4CEC2",
"l. c LightGray",
"z. c #DDDDDD",
"x. c #FDE9C2",
"c. c #FDF2DC",
"v. c #E3E3E3",
"b. c #EAE7E2",
"n. c #ECECEC",
"m. c #FEF5E3",
"M. c #F3F3F3",
"N. c #FFFFFF",
"B. c #FEFBF4",
/* pixels */
"                                                                                    ",
"                                                                                    ",
"                                % % % % % % $                                       ",
"                          X X 2 ~ / / / / / j X X                                   ",
"                        $ j z c ) _ _ _ _ _ ^ z z 2                                 ",
"                        X h l l z ( _ _ _ _ _ _ ( 3 .                               ",
"                        X 4 ; O q c ( _ _ _ _ _ ) g $                               ",
"                        , $.Y p *.v x _ _ _ _ _ ) / j .                             ",
"                        O A ] =.r.*.%.:.` _ _ _ _ _ k .                             ",
"                      a D S &.g.g.g.g.w. .' ' ' ' ' G .                             ",
"                    . A e.i.p.g.g.g.g.s.i.i.i.i.i.i.| .                             ",
"                    . A t.g.g.g.g.g.g.g.g.g.g.g.g.g.O..                             ",
"                    . A t.g.g.g.g.g.g.g.g.g.g.g.g.g.O..                             ",
"                    + A t.g.g.g.g.g.g.g.g.g.g.g.g.g.O..                             ",
"                    # b 9.p.g.g.g.g.g.g.g.g.g.g.g.g.O.X . . .                       ",
"                . + . & A 9.g.g.g.g.g.g.g.g.g.g.g.g.O.+       . .                   ",
"              b [ { { F ; F -.g.g.g.g.g.g.g.g.g.p.#.Q ! d 3.h.>.>.H                 ",
"            u } p.g.g.&.& . U =.-.t.g.g.g.g.g.t.;.T <.z.E >.l.N.N.<.f               ",
"          X O.t.s.g.g.=.e 1 w t n ;.e.e.e.e.e.2.J 4.M.N.v.E W M.N.M.3.#             ",
"          X @.g.g.g.g.f.u.h.h.h.5.L i i i i i K 5.n.N.N.M.I E M.N.N.4.#             ",
"          X @.g.g.g.x.m.N.N.N.N.M.1.! ! ! ! ! <.n.N.N.N.N.4.! <.n.m.y.R 4           ",
"          X @.g.g.g.c.N.N.N.N.N.N.N.N.N.N.N.N.N.N.N.N.N.N.N.1.t k.x.g.q.y           ",
"          X O.t.s.g.c.N.N.N.N.N.N.N.N.N.N.N.N.N.N.N.N.N.N.N.1.r 0.g.g.q.r           ",
"            u { d.c.B.N.N.N.N.N.N.N.N.N.N.N.N.N.N.N.N.N.N.N.1.r 9.g.g.q.0           ",
"              b +.b.N.N.N.N.N.z.1.v.N.N.N.N.N.N.N.N.N.N.N.N.1.r 9.g.g.q.0           ",
"                1 4.n.N.N.N.v.3.P j.N.N.N.N.N.N.N.N.N.N.N.N.1.r 9.g.g.q.0           ",
"                + 1 <.n.n.n.>.I l.M.N.N.N.N.N.N.N.N.N.N.N.N.1.r 7.t.t.8.0           ",
"                  . t P P P ,.h.N.N.N.N.N.N.N.N.N.N.N.N.N.N.1.> b A A A             ",
"                  . f W W W 6.N.N.N.N.N.N.N.N.N.N.N.N.N.N.N.1.# @ + .               ",
"                  . ! z.N.N.N.N.N.N.N.N.N.N.N.N.N.N.N.N.N.v.>.<                     ",
"                  . > E v.M.M.M.M.M.M.M.M.M.M.M.M.M.M.M.n.W s                       ",
"                . . . 1 P I I I I I I I I I I I I I I I P w + <                     ",
"                . . . . . 6 8 8 8 8 8 8 8 8 8 8 8 8 5 . . . . .                     ",
"                . . . . * V X.X.X.X.X.X.X.X.X.X.X.Z m . . . . . .                   ",
"                . . . . * V X.X.X.X.X.o.o.o.o.X...9 o . . . . . .                   ",
"                  . . . . 6 B C 9 8 N o.o.o.o.Z 9 * . . . . . . .                   ",
"                  . . . . . 7 m . . 6 M N ..o.C * . . . . . . . .                   ",
"                  . . . . . . . . . . . * M Z N o . . . . . . . .                   ",
"                    . . . . . . .         = - * . . . . . . . .                     ",
"                      . . . . . .             . . . . . . . .                       ",
"                        : : : : :               : : : : : :                         ",
"                                                                                    "
};
