/* XPM */
static char *_[] = {
/* columns rows colors chars-per-pixel */
"42 42 174 2 ",
"   c None",
".  c #010101",
"X  c #0A0604",
"o  c #090806",
"O  c #0A0A09",
"+  c #040A07",
"@  c #1C0800",
"#  c #150600",
"$  c #001508",
"%  c #15120E",
"&  c #1B100E",
"*  c #181610",
"=  c #1D1A14",
"-  c #1C1C1A",
";  c #131313",
":  c #320F00",
">  c #211D16",
",  c #331909",
"<  c #00250E",
"1  c #12270F",
"2  c #002C11",
"3  c #003D17",
"4  c #252018",
"5  c #2C271E",
"6  c #2D281E",
"7  c #3C2A11",
"8  c #222222",
"9  c #2C2A26",
"0  c #2B2C2B",
"q  c #272827",
"w  c #342E22",
"e  c #3E3729",
"r  c #3F382A",
"t  c #3A3326",
"y  c #313131",
"u  c gray23",
"i  c #441400",
"p  c #491905",
"a  c #5F1C00",
"s  c #521800",
"d  c #601C00",
"f  c #432A12",
"g  c #7E2600",
"h  c #433C2C",
"j  c #473F36",
"k  c #00421A",
"l  c #004A1D",
"z  c #005521",
"x  c #2E5823",
"c  c #006829",
"v  c #00712B",
"b  c #4B4332",
"n  c #48443C",
"m  c #524937",
"M  c #5D533E",
"N  c #7B5524",
"B  c #2F5E41",
"V  c #454545",
"C  c #4D4D4D",
"Z  c #494846",
"A  c #534F49",
"S  c #5F534D",
"D  c #545453",
"F  c #5D5D5D",
"G  c #605540",
"H  c #655943",
"J  c #695E46",
"K  c #6D6149",
"L  c #72654C",
"P  c #76694F",
"I  c #6C6452",
"U  c #7B6D52",
"Y  c #7C7159",
"T  c #666666",
"R  c #696969",
"E  c #696865",
"W  c #6E706F",
"Q  c #7D766A",
"!  c #747474",
"~  c gray48",
"^  c #882900",
"/  c #832700",
"(  c #9F3304",
")  c #A03000",
"_  c #A0380C",
"`  c #A6512D",
"'  c #B35E39",
"]  c #BC6A3E",
"[  c #807155",
"{  c #87785A",
"}  c #88795A",
"|  c #BD6F4D",
" . c #B86541",
".. c #BD704E",
"X. c #827969",
"o. c #817F7C",
"O. c #008232",
"+. c #008B36",
"@. c #008F38",
"#. c #009038",
"$. c #149139",
"%. c #378535",
"&. c #4A953C",
"*. c #BA8D3B",
"=. c #CF8E3C",
"-. c #918161",
";. c #988765",
":. c #9A8967",
">. c #90887A",
",. c #86827A",
"<. c #A08E6B",
"1. c #A6946F",
"2. c #AF9C75",
"3. c #B19D76",
"4. c #B39F78",
"5. c #B5A17B",
"6. c #BCA77D",
"7. c #838383",
"8. c gray54",
"9. c #99948A",
"0. c #939393",
"q. c #9E9E9E",
"w. c #ABA495",
"e. c #A5A5A5",
"r. c #ABABAB",
"t. c #B4B4B4",
"y. c #BBBBBB",
"u. c #C3AD82",
"i. c #CFB88A",
"p. c #C9B488",
"a. c #D3BB8C",
"s. c #CBBC9E",
"d. c #D7BFB4",
"f. c #DCC493",
"g. c #D5C095",
"h. c #E2C997",
"j. c #E6CC99",
"k. c #E9CF9B",
"l. c #EAD09D",
"z. c #D2CCBF",
"x. c #CDC7BB",
"c. c #E2CDA2",
"v. c #EBD4A8",
"b. c #F1D6A0",
"n. c #F5DAA3",
"m. c #F9DEA6",
"M. c #FBDFA8",
"N. c #EBD3B1",
"B. c #E3C3B5",
"V. c #FCE0A9",
"C. c #F7E3BB",
"Z. c #FBE5BA",
"A. c #C3C3C3",
"S. c gray80",
"D. c #DCD5CC",
"F. c #D5D5D5",
"G. c #DED5D1",
"H. c #DADADA",
"J. c #E3CBC1",
"K. c #E8D9C8",
"L. c #E4DED2",
"P. c #FBE9C5",
"I. c #EBE2DE",
"U. c #E8E2D5",
"Y. c #FDEED0",
"T. c #FDF3DD",
"R. c #E4E4E4",
"E. c #EBEBEB",
"W. c #EBE9E7",
"Q. c #FBF3E9",
"!. c #F4F4F4",
"~. c #F9F6F2",
"^. c #FEF9F0",
"/. c #FEFEFE",
/* pixels */
"                                                                                    ",
"                                  # @ @ @ @ @ @ &                                   ",
"                              . . s ^ ^ ^ ^ ^ ^ i . . . .                           ",
"                            : a d / ) ) ) ( ) ( g a a d i                           ",
"                          . i _  .....| ] ] | ....' ( g s .                         ",
"                          . p ' K.I.G.D.v.N.G.G.I.B.` , X                           ",
"                          O S J.~.0.V A p.5.Z V r.Q.d.j %                           ",
"                        w G w././.! . o G [ L L X.r.W.9.M                           ",
"                        % 3.P.^./.8.9 5 5 [ n.M.L n L.Z.;.o                         ",
"                        % 3.V.Z.^.R.z.g.a.h.n.n.L j c.V.;.o                         ",
"                        % 3.V.V.P.w.>.b.V.u.K J [ 2.b.V.;.o                         ",
"                        % 3.V.V.M.:.H 1.3.J . . } V.V.V.;.o                         ",
"                        % 3.V.V.M.b.5.r 5 4 * * { l.M.V.;.o                         ",
"                        % 3.V.V.V.V.k.6.5.5.5.5.U L k.V.;.o                         ",
"                        % 3.V.V.V.V.V.n.2.6.M.M.L h h.V.;.O                         ",
"                        % -.h.M.M.j.a.u.G L i.a.P M h.f.Y O                         ",
"                . . o o . = U b.n.{ 6 t <.-.w 6 { f.h.K = o O o o                   ",
"              . % U -.J O . 5 J J [ -.:.f.a.-.-.U J K ,.0.0.0.0.~ -                 ",
"            . > H f.V.p.m % - V Z X.4.4.4.4.4.3.Y Z D A././././.F.F                 ",
"            . H j.M.V.n.a.h T R.R.o.9 9 = - 9 9 0.W.W./././././.~.H.D .             ",
"            . K n.V.V.V.j.b R !./.F.t.e.u Z t.t.H././././././.T.Y.W.D .             ",
"            . K n.V.V.V.j.b R !./././.W.C T !././././././.E.e.s.Z.K.A .             ",
"            . K n.V.V.V.j.b R /./.W.R.R.C T !.H.E././././.H.y } V.l.m .             ",
"            . K n.V.V.V.j.b R /./.8.T F.C T H.D q././././.H.y { M.l.m .             ",
"            . K n.V.V.V.j.b R /./.A.r.R.C T R.e.S././././.E.e.Q -.f.m .             ",
"            . I C.V.V.V.v.n R /./././.W.C T !././././././././.! r i.m .             ",
"            . E U.C.V.C.D.D ! /./.!.E.W.C T !.E.!././././././.! e i.m .             ",
"              y E L.Q.x.T 0.F././.q.~ H.C T H.R r././././././.! e i.m .             ",
"                8 7.0.8.~ F./././.r.0.H.C T R.7.y././././.!.r.Q L { e               ",
"                  O o u y.F.R././././.W.C T !.H.F.H.H.H.H.y.0 K <.=                 ",
"                    + O q 0 7.!./././.W.C T F.C 0 0 0 0 0 8 o % 4                   ",
"                    + $ l l B W ! ! ! R 8 0 F ; . . . . . . . .                     ",
"                    . < O.#.c 2 < < 1 7 f , . . . . . . . . .                       ",
"                    . < O.#.+.O.O.O.%.*.=.N . . . . . . . . .                       ",
"                    . < O.#.#.#.#.#.$.&.&.x . . . . . . . . .                       ",
"                    . < O.#.#.#.#.#.#.#.#.z . . . . . . . . .                       ",
"                    . < v +.#.#.#.#.#.@.O.l . . . . . . . . .                       ",
"                    . . < c @.@.@.@.@.O.3 $ . . . . . . . . .                       ",
"                    . . . 2 k k k k k 3 $ . . . . . . . . . .                       ",
"                      . . . . . . . . . . . . . . . . . . . .                       ",
"                        . . . . . . . .       . . . . . . .                         ",
"                                                                                    "
};
