/* XPM */
static char *_[] = {
/* columns rows colors chars-per-pixel */
"42 42 156 2 ",
"   c None",
".  c #000000",
"X  c #050709",
"o  c #0C0D0C",
"O  c #000E05",
"+  c #120500",
"@  c #100E0B",
"#  c #001206",
"$  c #001508",
"%  c #001D0B",
"&  c #1C130C",
"*  c #071A11",
"=  c #1C1913",
"-  c #1C1C1B",
";  c #11171C",
":  c #240A00",
">  c #300E00",
",  c #3E1200",
"<  c #002E12",
"1  c #003113",
"2  c #003916",
"3  c #26221A",
"4  c #2E291F",
"5  c #3C261D",
"6  c #1F2832",
"7  c #252526",
"8  c #2F2B21",
"9  c #252A29",
"0  c #282828",
"q  c #322D22",
"w  c #302F2C",
"e  c #363024",
"r  c #3B3528",
"t  c #313131",
"y  c #393630",
"u  c #3B3D3E",
"i  c #4E1700",
"p  c #421300",
"a  c #551B03",
"s  c #581A00",
"d  c #631D00",
"f  c #5B371F",
"g  c #6C2100",
"h  c #722200",
"j  c #453E2E",
"k  c #5F3921",
"l  c #00471B",
"z  c #00511F",
"x  c #005420",
"c  c #005D24",
"v  c #0E5C2C",
"b  c #006427",
"n  c #00782E",
"m  c #4B4232",
"M  c #49453C",
"N  c #544B3B",
"B  c #564C39",
"V  c #5C523D",
"C  c #38424C",
"Z  c #344253",
"A  c #474A4A",
"S  c #554A46",
"D  c #5F5541",
"F  c #4C5A51",
"G  c #545454",
"H  c #5D5850",
"J  c #5A5A5A",
"K  c #605540",
"L  c #6B5F47",
"P  c #675C45",
"I  c #6E6047",
"U  c #76694E",
"Y  c #7A6C51",
"T  c #7C735E",
"R  c #4F5B67",
"E  c #636363",
"W  c #6C6C6C",
"Q  c #736E61",
"!  c #7B756A",
"~  c #777777",
"^  c #787776",
"/  c #7E7E7E",
"(  c #862800",
")  c #8C2B02",
"_  c #842700",
"`  c #992E00",
"'  c #A03000",
"]  c #A94619",
"[  c #86482D",
"{  c #925A34",
"}  c #A85429",
"|  c #BD6734",
" . c #8B7C5D",
".. c #887D65",
"X. c #008433",
"o. c #008C36",
"O. c #008F38",
"+. c #009038",
"@. c #9D8B69",
"#. c #9A8865",
"$. c #A5936E",
"%. c #A99670",
"&. c #AD9A74",
"*. c #B39F79",
"=. c #B29E76",
"-. c #BBA67D",
";. c #E0AB79",
":. c #7899C1",
">. c #9B9280",
",. c #939393",
"<. c #9B9B9B",
"1. c #BFAA81",
"2. c #AAA395",
"3. c #A0A0A1",
"4. c #AAAAAA",
"5. c #B4B4B4",
"6. c #B8B8B6",
"7. c #BCBCBC",
"8. c #C4AE82",
"9. c #C9B386",
"0. c #CCB688",
"q. c #CFB88A",
"w. c #D4BC8D",
"e. c #D0B485",
"r. c #D4BE93",
"t. c #C6B1A7",
"y. c #DAC291",
"u. c #E0C795",
"i. c #E9CF9B",
"p. c #E4CA98",
"a. c #ECD29D",
"s. c #F4D59E",
"d. c #D4CDBF",
"f. c #F0D5A0",
"g. c #F4D9A3",
"h. c #FBDFA7",
"j. c #EBCEB6",
"k. c #F1D7BD",
"l. c #FCE0A8",
"z. c #F6E0B5",
"x. c #C2C2C2",
"c. c #D0CBC2",
"v. c #D5D5D5",
"b. c gainsboro",
"n. c #EDD7CE",
"m. c #E1DDD6",
"M. c #FCEAC6",
"N. c #EBE0DC",
"B. c #F5E9D2",
"V. c #FDF2DA",
"C. c #E3E3E3",
"Z. c #ECECEC",
"A. c #FDF6E6",
"S. c #F4F4F4",
"D. c #FEFEFE",
"F. c #FEFAF2",
/* pixels */
"                                                                                    ",
"                                                                                    ",
"                                    . . . . . . . .                                 ",
"                                . + i s s s s s s i + .                             ",
"                              : > p ) ' ' ' ' ' ' ) , > :                           ",
"                            . d ) _ ) ` ' ' ] ] ] ] ) ) a .                         ",
"                            . d g : : h ' ] ;.j.n.t.5 S                             ",
"                          + a ( d & U k g } k.F.x.J o ; ;                           ",
"                          & } | { I y. .f [ N.D.,.. X e m j                         ",
"                          3 e.s.s.a.h.f.@.N m.D.3.3 4 &.a.1.=                       ",
"                          3 w.l.l.l.l.l.i.r.z.A.Z.c.r.a.h.9.=                       ",
"                          3 w.l.l.l.l.l.l.l.g.>.2.M.l.l.-.D 9                       ",
"                          3 w.l.l.l.l.l.l.l.g. .U %.%.%.Q Z                         ",
"                          3 w.l.l.l.l.l.l.l.h.g.@.q 4 4 R :.                        ",
"                          3 w.h.l.l.l.l.l.l.l.l.i.q.0.0.T 6                         ",
"                          @ V 8.l.l.l.l.l.l.l.l.l.u.Y P r o                         ",
"                        u G J ..$.*.a.l.l.l.g.8.$.#.K B B N C                       ",
"                      . J Z.Z.^ w M 1.y.y.y.0.m = N y.f.f.9.r                       ",
"                      X E S.D.C.v.6.M 8 8 8 4 o B y.g.l.l.g.9.j                     ",
"                      W 7.S.D.D.D.Z.4.<.<.<.,.t L h.l.l.l.l.a.m .                   ",
"                    X <.D.D.D.D.D.D.D.D.D.D.S.G j =.f.l.l.l.a.m .                   ",
"                    0 4.D.D.D.D.D.D.D.D.D.D.S.W - e y.l.l.l.i.m .                   ",
"                  7 6.Z.D.D.D.D.D.S.D.D.D.D.D.C./ q y.l.l.h.p.j .                   ",
"                  7 v.D.D.D.D.D.x./ Z.D.D.D.D.D.d.&.f.l.l.y.L = .                   ",
"                  7 v.D.D.D.D.D.x.W <.b.D.D.D.D.V.l.l.l.l.9.= . .                   ",
"                  7 v.D.D.D.D.D.D.v.G <.b.b.S.D.V.l.l.l.a.*.y o .                   ",
"                  7 v.D.D.D.D.D.D.S.v.W t G b.S.B.g.g.g.@.S 5.u .                   ",
"                  7 v.D.D.D.D.D.D.D.D.x.3.,.E J H V V V ! 5.C.A .                   ",
"                  7 v.D.D.D.D.D.D.D.D.D.D.C.~ E E E E E 4.Z.3.A                     ",
"                  7 5.v.v.b.S.D.D.D.D.D.D.D.S.S.S.S.S.b.v.4.7 Z                     ",
"                    9 9 9 A v.S.S.S.S.S.S.S.S.S.S.S.C.E 7 - X X X .                 ",
"                  * x c c v F J J J J J J J J J J J G - . . . . . . .               ",
"                  $ n +.+.X.l 2 2 2 2 2 2 2 2 2 2 < . . . . . . . . .               ",
"                  # b X.+.O.O.O.O.O.O.O.O.O.O.O.X.c O . . . . . . . .               ",
"              . . . # c o.O.+.+.+.+.O.o.o.o.o.o.x # . . . . . . . . .               ",
"            . . . . . % x O.+.+.+.+.O.x 1 1 1 1 % . . . . . . . . .                 ",
"            . . . . . . % z x x x x z % . . . . . . . . . . . . . .                 ",
"            . . . . . . . . . . . . . .           . . . . . . . . .                 ",
"            . . . . . . . . . . . .               . . . . . . . .                   ",
"              . . . . . . . . . .                   . . . . . .                     ",
"                                                                                    ",
"                                                                                    "
};
