/* XPM */
static char *_[] = {
/* columns rows colors chars-per-pixel */
"42 42 238 2 ",
"   c None",
".  c black",
"X  c #010101",
"o  c #000200",
"O  c #000201",
"+  c #000301",
"@  c #010102",
"#  c #010203",
"$  c #000502",
"%  c #000602",
"&  c #040403",
"*  c #030304",
"=  c #040404",
"-  c #040406",
";  c #070707",
":  c #000903",
">  c #000A04",
",  c #090806",
"<  c #090807",
"1  c #0A0806",
"2  c #0A0907",
"3  c #080809",
"4  c #090909",
"5  c #0C0B0A",
"6  c #0E0C09",
"7  c #080A0D",
"8  c #0E0E0E",
"9  c #1C0800",
"0  c #1D0800",
"q  c #1E0900",
"w  c #1F0900",
"e  c #001407",
"r  c #001608",
"t  c #0A0D10",
"y  c #0F1318",
"u  c #101010",
"i  c #111111",
"p  c #131313",
"a  c #151716",
"s  c gray9",
"d  c gray11",
"f  c #1E1E1E",
"g  c gray12",
"h  c #240A00",
"j  c #250B00",
"k  c #280C00",
"l  c #2A0D00",
"z  c #2E0E00",
"x  c #26190F",
"c  c #00220D",
"v  c #00240E",
"b  c #002C11",
"n  c #002D11",
"m  c #003414",
"M  c #003916",
"N  c #003F18",
"B  c #28231A",
"V  c #29251C",
"C  c #2D271E",
"Z  c #2F2A1F",
"A  c #202021",
"S  c #232323",
"D  c #262524",
"F  c #2A2A2A",
"G  c #2A2D2B",
"H  c #30302F",
"J  c gray19",
"K  c #353535",
"L  c gray21",
"P  c #3C3931",
"I  c #4A1600",
"U  c #4E1700",
"Y  c #511800",
"T  c #521800",
"R  c #5D1C00",
"E  c #58240B",
"W  c #412B1B",
"Q  c #752300",
"!  c #762300",
"~  c #40392B",
"^  c #413A2B",
"/  c #443F36",
"(  c #00481C",
")  c #00491C",
"_  c #005822",
"`  c #0A5928",
"'  c #006126",
"]  c #006527",
"[  c #006728",
"{  c #006E2B",
"}  c #00722C",
"|  c #00792F",
" . c #494131",
".. c #4A4231",
"X. c #4F493D",
"o. c #504735",
"O. c #584E3B",
"+. c #5E533F",
"@. c #3F4240",
"#. c #414141",
"$. c gray27",
"%. c #464646",
"&. c #4B4B4B",
"*. c #555149",
"=. c #515151",
"-. c gray32",
";. c gray34",
":. c #5C5C5A",
">. c gray37",
",. c #635842",
"<. c #665B44",
"1. c #685C45",
"2. c #695D46",
"3. c #4C6154",
"4. c #6D6149",
"5. c #70654E",
"6. c #76694F",
"7. c #646464",
"8. c #676767",
"9. c #6A6A6A",
"0. c gray44",
"q. c #727272",
"w. c gray45",
"e. c #777777",
"r. c #797979",
"t. c gray48",
"y. c #7B7B7B",
"u. c gray49",
"i. c gray50",
"p. c #802600",
"a. c #8B2A00",
"s. c #922C00",
"d. c #962D00",
"f. c #972D00",
"g. c #982D00",
"h. c #9F2F00",
"j. c #A03000",
"k. c #AF4D1B",
"l. c #B75C2A",
"z. c #B9602E",
"x. c #89795B",
"c. c #B17043",
"v. c #B27447",
"b. c #847A64",
"n. c #817B71",
"m. c #008634",
"M. c #008B36",
"N. c #008C36",
"B. c #008F37",
"V. c #009038",
"C. c #928262",
"Z. c #86837C",
"A. c #A2906C",
"S. c #A3916C",
"D. c #A7946F",
"F. c #A29476",
"G. c #B4A17A",
"H. c #BBA67D",
"J. c #CE8955",
"K. c #D99D68",
"L. c #808080",
"P. c #878686",
"I. c #909090",
"U. c #9B9B9B",
"Y. c gray62",
"T. c #A19E9A",
"R. c #BFAF8E",
"E. c #AAAAAA",
"W. c #ACACAB",
"Q. c #B2B1AF",
"!. c gray70",
"~. c #B7B7B7",
"^. c gray73",
"/. c gray",
"(. c gray75",
"). c #C2AC81",
"_. c #C6B085",
"`. c #C8B185",
"'. c #CDB689",
"]. c #D1BA8B",
"[. c #D4BC8D",
"{. c #D6BF8F",
"}. c #DDC493",
"|. c #E0C391",
" X c #E5CC99",
".X c #EACF9C",
"XX c #EAD09C",
"oX c #EBD19D",
"OX c #F4D29A",
"+X c #F7D69F",
"@X c #F2D7A1",
"#X c #F7DBA5",
"$X c #F7DCA5",
"%X c #F8D8A1",
"&X c #F9DDA5",
"*X c #F9DDA6",
"=X c #FADEA6",
"-X c #FADEA7",
";X c #FCE0A8",
":X c #FCE2AE",
">X c #FCE3B0",
",X c #FCE3B1",
"<X c #FCE3B2",
"1X c gray76",
"2X c gray79",
"3X c #CDCDCD",
"4X c gray81",
"5X c #D2D2D2",
"6X c #D8D8D8",
"7X c #DADADA",
"8X c #DDDDDD",
"9X c #FDEFD4",
"0X c #FDF0D6",
"qX c #FEF2DC",
"wX c gray88",
"eX c #E1E1E1",
"rX c gray91",
"tX c #E9E9E9",
"yX c #EAEAEA",
"uX c gray92",
"iX c #EFEFEF",
"pX c #FEF5E3",
"aX c #FEF5E4",
"sX c #FEF9EF",
"dX c gray94",
"fX c #F1F1F1",
"gX c #F4F4F4",
"hX c #F6F6F6",
"jX c gray97",
"kX c #FEFBF5",
"lX c #F8F8F8",
"zX c #F9F9F9",
"xX c gray98",
"cX c #FEFCF8",
"vX c gray99",
"bX c #FDFDFD",
"nX c #FEFEFE",
"mX c white",
/* pixels */
"                                                                                    ",
"                                                                                    ",
"                                . . . . . .                                         ",
"                            . z Y Y Y Y Y U 9 .                                     ",
"                          l l R j.j.j.j.j.d.I l h                                   ",
"                        9 p.s.g.j.j.j.j.j.h.d.s.Q 9                                 ",
"                        9 a.j.j.j.j.j.j.j.j.j.j.d.Q h                               ",
"                        x v.k.j.j.j.j.j.j.j.j.l.c.E W                               ",
"                      ..<.|.J.z.z.z.z.z.z.z.z.K.].O.+.                              ",
"                    & <..X=X+XOXOXOXOXOXOXOXOX%X#X{.~                               ",
"                    . 2.=X;X;X;X;X;X;X;X;X;X;X;X;X X~                               ",
"                    . 2.=X;X;X;X;X;X;X;X;X;X;X;X;X X~ .                             ",
"                    . 2.=X;X;X;X;X;X;X;X;X;X;X;X;X X~ .                             ",
"                    . 2.=X;X;X;X;X;X;X;X;X;X;X;X;X X~ .                             ",
"                    . 2.=X;X;X;X;X;X;X;X;X;X;X;X;X X~ 7                             ",
"                    . 2.=X;X;X;X;X;X;X;X;X;X;X;X;X X~ y                             ",
"                    . ..H.@X;X;X;X;X;X;X;X;X;X;XoXD.C t                             ",
"                s d d D X._.}.oX;X;X;X;X;X=X X}.G.P 5 u A d ; .                     ",
"              $./.4X4X4XQ./ Z x.;X;X;X;X;XoX2.Z *.W.K 8.4X^.J . .                   ",
"              U.mXmXmXmXtXY.I.n.4.4.4.4.4.5.Z.I.E.8X#.i.mXgXE.$..                   ",
"          ; 0.sXpXaXkXmXmXmXmX!.=.=.=.=.=.>.4XmXmXiXi.i.1XgXmXt..                   ",
"          3 T.0X:X>XqXcXmXmXmXxXdXdXdXdXdXdXxXmXmXmXgXL.&.tXmXt..                   ",
"          , F.>X;X;X>X9XmXmXmXmXmXmXmXmXmXmXmXmXmXmXmXL.#.tXmXt..                   ",
"          , A.;X;X;X;XR.P.tXmXmXmXmXmXmXmXmXmXmXmXmXmXL.#.tXmXt..                   ",
"          , A.;X;X;X;XC.H 8XmXmXmXmXmXmXmXmXmXmXmXmXmXE.9.E.tXt..                   ",
"          , A.;X;X;X;XC.H 8XmXmXmXmXmXmXmXmXmXmXmXmXmXxX~.K /.0..                   ",
"          , A.;X;X;X;XC.H 8XmXmXmXmXmXmXmXmXmXmXmXmXmXmX/.d   A .                   ",
"          , A.;X;X;X;XC.H 8XmXmXmXmXmXmXmXmXmXmXmXmXmXmX/.s .                       ",
"          , 6.`.=X$X).b.e.tXmXmXmXmXmXmXmXmXmXmXmXmXmX5Xt.8 .                       ",
"            , ,.{.'.o.:.4X7X7X7XeXxXmXmXmXmXmXmXgX8X7X0.3 *                         ",
"                V B 6 u F F F F =.eXxXxXxXxXxXxX2X@.G s ;                           ",
"                  . . . . . . . u ;.8.8.8.8.8.8.3.` _ b .                           ",
"                  . . . . . . . . . v m m m m m ) m.V.) .                           ",
"                  . . . . . . . . : ' M.M.M.M.M.N.N.V.) .                           ",
"                  . . . . . . . . > ] V.V.V.V.V.V.V.V.) .                           ",
"                  . . . . . . . . > ] V.V.V.V.V.V.V.V.) .                           ",
"                  . . . . . . . . % N } V.V.V.V.V.M.[ b .                           ",
"                  . . . . . . . . . . M | | | | | { c . .                           ",
"                  . . . . . . . . . . > r r r r r e % . .                           ",
"                    . . . . . . .     . . . . . . . . .                             ",
"                                                                                    ",
"                                                                                    "
};
