/* XPM */
static char *_[] = {
/* columns rows colors chars-per-pixel */
"42 42 229 2 ",
"   c None",
".  c #008E05",
"X  c #009504",
"o  c #009C03",
"O  c #06950A",
"+  c #00A302",
"@  c #01AB02",
"#  c #09AD05",
"$  c #0CAA0B",
"%  c #16AA04",
"&  c #01B302",
"*  c #0EB106",
"=  c #00BD02",
"-  c #0CBE05",
";  c #0CB50A",
":  c #11B406",
">  c #16B50B",
",  c #19B80B",
"<  c #16B809",
"1  c #14AE12",
"2  c #1DAE1B",
"3  c #16BC11",
"4  c #1CB916",
"5  c #1CB51A",
"6  c #1BB415",
"7  c #25B404",
"8  c #30B704",
"9  c #20AE1E",
"0  c #23BE13",
"q  c #22B31E",
"w  c #24BA1B",
"e  c #29BE10",
"r  c #26B321",
"t  c #2CB726",
"y  c #34BB2D",
"u  c #3BBC34",
"i  c #35B831",
"p  c #25A924",
"a  c #01C403",
"s  c #01CB03",
"d  c #09CD05",
"f  c #17C80F",
"g  c #01D303",
"h  c #0BD302",
"j  c #01DA04",
"k  c #06D208",
"l  c #0CDD0E",
"z  c #08D90A",
"x  c #16D70B",
"c  c #19D116",
"v  c #36C40D",
"b  c #37DC0B",
"n  c #2CC313",
"m  c #2CC21A",
"M  c #28C816",
"N  c #35CA16",
"B  c #3BCC12",
"V  c #3ACD1B",
"C  c #34C81A",
"Z  c #29D11E",
"A  c #3ED11B",
"S  c #24CA04",
"D  c #01E304",
"F  c #01EC03",
"G  c #07EC0A",
"H  c #0CEC0C",
"J  c #0BE508",
"K  c #01F104",
"L  c #03F509",
"P  c #0AF10D",
"I  c #0FEC11",
"U  c #13E414",
"Y  c #14EC15",
"T  c #1EE71A",
"R  c #0EF510",
"E  c #0AF912",
"W  c #13F414",
"Q  c #17F418",
"!  c #1BF51B",
"~  c #18F91A",
"^  c #39E70C",
"/  c #25ED15",
"(  c #28E605",
")  c #2AC723",
"_  c #3DCB24",
"`  c #3BC62E",
"'  c #35C729",
"]  c #2DD626",
"[  c #39D12C",
"{  c #35DA2E",
"}  c #3DC332",
"|  c #3FC835",
" . c #3DD832",
".. c #38ED23",
"X. c #24F923",
"o. c #2BFC2B",
"O. c #25F524",
"+. c #31FC2F",
"@. c #36F526",
"#. c #35FC32",
"$. c #3AFD36",
"%. c #3EFE3A",
"&. c #48CB0C",
"*. c #5BCD0A",
"=. c #5ACD07",
"-. c #46D30E",
";. c #41CC12",
":. c #59CC19",
">. c #44D41D",
",. c #4CD41C",
"<. c #46D415",
"1. c #57D20F",
"2. c #65D818",
"3. c #40EE19",
"4. c #55E71A",
"5. c #40F215",
"6. c #44E20D",
"7. c #64EB1B",
"8. c #43D423",
"9. c #46DA25",
"0. c #4ADC25",
"q. c #47DB29",
"w. c #4BDD2C",
"e. c #47D529",
"r. c #56DC27",
"t. c #41CB32",
"y. c #44CD39",
"u. c #46C43B",
"i. c #4CDE31",
"p. c #45DA3A",
"a. c #58D83B",
"s. c #67DA25",
"d. c #63D93F",
"f. c #79DE37",
"g. c #4DE22C",
"h. c #46ED24",
"j. c #55E625",
"k. c #56E929",
"l. c #4DE234",
"z. c #4EE63A",
"x. c #5CED33",
"c. c #52E93D",
"v. c #57E73A",
"b. c #40FE3C",
"n. c #44FE37",
"m. c #56F737",
"M. c #75E825",
"N. c #69E738",
"B. c #6EFD32",
"V. c #6EF42E",
"C. c #4FD146",
"Z. c #54D748",
"A. c #5FD351",
"S. c #53C84E",
"D. c #63D859",
"F. c #4DE040",
"G. c #52E642",
"H. c #55EC44",
"J. c #5BEB42",
"K. c #5CEB4B",
"L. c #59E648",
"P. c #5CF44C",
"I. c #5DF94E",
"U. c #57FB47",
"Y. c #5AF151",
"T. c #62F343",
"R. c #61F44E",
"E. c #6AF54B",
"W. c #60E853",
"Q. c #7DEC51",
"!. c #64F454",
"~. c #6BF15C",
"^. c #6CFB5B",
"/. c #68F754",
"(. c #74F65C",
"). c #75F659",
"_. c #6BED47",
"`. c #6ACD64",
"'. c #6CD661",
"]. c #73D662",
"[. c #73CC70",
"{. c #7AEA68",
"}. c #6FF561",
"|. c #72F364",
" X c #74FC63",
".X c #7DFE6D",
"XX c #78F867",
"oX c #7FFE70",
"OX c #7FF271",
"+X c #8AD83C",
"@X c #88F537",
"#X c #92F83F",
"$X c #87EA2C",
"%X c #A1FC3B",
"&X c #A5EC3E",
"*X c #8BDF51",
"=X c #9DE449",
"-X c #A7EA45",
";X c #ABF746",
":X c #B2F349",
">X c #B0F654",
",X c #84D87B",
"<X c #87EA67",
"1X c #80FE6E",
"2X c #87F36C",
"3X c #87EC7A",
"4X c #91EF70",
"5X c #83FD72",
"6X c #8BF675",
"7X c #A3E667",
"8X c #CDFD56",
"9X c #E1FC58",
"0X c #E8FD68",
"qX c #E6FB78",
"wX c #93DB8F",
"eX c #98DF91",
"rX c #91E183",
"tX c #90FD81",
"yX c #9DEF93",
"uX c #A3F794",
"iX c #B7E9AE",
"pX c #B4F1AB",
"aX c #F4FE85",
"sX c #F5FD8D",
"dX c #F6FE92",
"fX c #F9FE98",
"gX c #E9FC81",
"hX c #CFEECB",
"jX c #D1EFCC",
/* pixels */
"                                  5X5X5X5X5X                                        ",
"                              1X.X.XXX X X X.X1X                                    ",
"                            .X.X.X5XT.x.T.x.(..X.X                                  ",
"                          .X.X.XuXQ.4.Q.Q.j.4XN.XX.X.X1X                            ",
"                        .X.X/.x.N.4.2XU.h.g.J.z.{.XX X.X.X1X                        ",
"                      .XXX5X4Xj.k.@.m.M.-.-.-.-.,.w.G.!. X.X1X                      ",
"                    .XXX).k.J.g...I.@XN.R.J.K.v.8.N ;.q.z.|.XX1X                    ",
"                  1X.X/.j.v.<Xb ..3X).L.,.,.r._./.L.C N V i.|. X                    ",
"                  .X Xk.k.0.0.x  .L.C &.=.=.=.*.*.V K.[ l.9.i.~..X                  ",
"                1X.XT.j.0.B x ] K., 8 7 S ( ^ 6.=.7 6 G.< m _ a.(.                  ",
"                1X^.k.g.;.f U OX' % @ g ! #.%.%.@.^ % ) ' : t Z.v.5X                ",
"                1XT.v.,.n x |.{.o + D o.b.b.b.%.%.$./ & p.3 * m  .XX                ",
"                1Xx.l.;.x @.pXw + l #.b.b.b.b.%.b.%.$./ s 5 1 w y.~.5X              ",
"                .XJ.q.N H |.3X+ a #.b.#.X.Q Y ! +.%.m.%XJ & q w ` W.oX              ",
"                .XH.A M T uX} & Y %.o.L F g @ & a U +.n.+.D @ r w C.}..X            ",
"                .Xl.B 0 f yX$ k o.! F j = @ o o X + g +.W R a ; u ,XL..X            ",
"              1X Xg.V < 5 '.@ Y U = + + a j D j a @ @ G X.J j k Z.iXZ.|.            ",
"              1X^.q.N * 1 u = ! s o . = D = @ = j F a a V.:Xh z Y.,Xy.L.5X          ",
"              .X!.8.n # $ 2 s Q s & X s a o @ @ X a F = $XaXv s ] } y.p..X          ",
"              .XP.>.n # + o s P g = + g s @ j D + X g g 2.sX:.& r u eXD. X          ",
"            5X.XP.>.C * @ + s ! j s @ s = = g j z X & g S 8X&.o t u.D.p.|.          ",
"            1XXXP.0.N - s & g X.J a @ g @ @ @ k I X o = - ;X<.o i ' ` [ }.          ",
"            1X XP.l.C < j s s X.Q = + = D l U W a . o = ;.dX=Xo y { | [ }.          ",
"            5X XI.z.N < g j = Y o.j @ o & z l = X o & h -XaX+XO u 3X'. . X          ",
"            5X.XR.c.B , a D s j o.X.j & X X o X @ s j 4.sX0X:.O } Z 0 p.5X          ",
"              1X^.H.>.0 & j F D P #.o.H g s l U O.o.X.5.qXqXv p `.4 0 Z.            ",
"              1XXXP.0.n # a F F K E o.#.o.#.%.%.$.%.X.$.B.#X3 9 [.iX' L.            ",
"                .X Xz.B , = j K F K K P W ! ! I G o.%.$.W d S.`.hXjX'.W.            ",
"                .X.XP.<.n h s F F D F F D D D D Q $.o.P g # y 1 t } _ /.            ",
"                  .X^.l.B x 7.7.F K F F K L ~ ~ W P g & + i r $ # ].8. X            ",
"                  5XXXP.9.b ;XgXV.R L F F F D j j @ X o @ `.5 wX> _ w.XX            ",
"                    .X XH.>.:XfX8X#X@X:XM.g z j o . X @ q t & 4 e &.J..X            ",
"                      .X/.c.s.&X0XsXfXdX0XB.k + X . X 1 5 4 & , ;.r.^..X            ",
"                      .XXXR.{.f.qXaXaXdXaX>XH D @ X o r w & * n :.x..X              ",
"                        .X Xm.h.3.@X9X0XsXs.f C.; 5 t q ; : m iX<X X5X              ",
"                        1X.XU.U.{.r.-X7X*Xt.) ) ,Xr r S.` m >.N._.oX                ",
"                          1X1XtXI.H.w.Z.].A.A.[ ' : w t.e.9.v.x..X                  ",
"                            oX5X.X5XXXK.l.e.A 8.rXC a.8.c.P./. X                    ",
"                              .X.X.XXX6X!.H.c.z.K.c.c.P.^.XX.X                      ",
"                                  1X1X.X.X X^.^.^.^.^. X.X1X                        ",
"                                          1X.X.X.X.X.X.X1X                          ",
"                                                                                    "
};
