/* XPM */
static char *_4a2a462bd1d48b4e5fbbe59ff5dc985KzoBZpbIFm8brATU[] = {
/* columns rows colors chars-per-pixel */
"76 75 20 1 ",
"  c black",
". c None",
"X c #4A2724",
"o c #F3D79D",
"O c #2F1614",
"+ c #020000",
"@ c #5A0201",
"# c #281512",
"$ c #0D0605",
"% c #CBAC7D",
"& c #815C46",
"* c #F9C200",
"= c #3C2318",
"- c #DA9A03",
"; c #A98A5B",
": c #1B0F0B",
"> c #8C630C",
", c #554738",
"< c #C59070",
"1 c #674A35",
/* pixels */
"                                                                            ",
"                                                                            ",
"                                                                            ",
"                                                                            ",
"                                                                            ",
"                                                                            ",
"                        +++                                                 ",
"                      +:#==#:   $:+                                         ",
"                     :=....XX##=..=$                                        ",
"                    :X.......&.....=                                        ",
"                   :X.............&.#                                       ",
"                  $X..............&&.:                                      ",
"                 +=...............&&&=$                                     ",
"                 #................&&&.:                                     ",
"                +=................&&&&=+                                    ",
"                :.................&&&&X:                                    ",
"         +::####=OOXX..............&&&.:                                    ",
"       +:=......XXX.XXXX...............#                                    ",
"       #X.............&.O..............#+                                   ",
"      :X................X..............#+                                   ",
"      :X................OX.............#+                                   ",
"      :OX...............O@XXX..........#+                                   ",
"      $=OXX.............O@@@@OXX.......#                                    ",
"       +#OXXX...........X@@@@@@@OOX....#                                    ",
"         $:=OXXX.........X@@@@@@@@@OOXX:                                    ",
"          $=X.OOOXXX......X@@@@@@@@@@@O=#####+                              ",
"   +$    $=&%o%.XXOOXXX....XO@@@@@@@@@@XXXXOO$                              ",
"   :O   $O>;;;o***->OOXXX...XO@@@@@@@@OXXXOO#                               ",
"  +>->==>-&o;--******->XXXXX.XO@@@@@@@OXXOO#+                               ",
"  :=--***-&oo;;--*******>>>XOXXXOO@@@OOOXO#$                                ",
" +1>>-****&oooo%;;>-*****--->>XXXXXXXXXXO#+                                 ",
"  :---****-%ooooooo%>.>------***-.OOOOO#$+                                  ",
"  +>--*****-&;oooooo%&O.;;;;>*****-=$$+                                     ",
"   $>---****-&%oooo%%%%%o%;;------#+                                        ",
"    $=>--****->;%oo%ooooo%;;;;&&&&:                                         ",
"     :X--*****->&;oooooooooooo;&%1+                                         ",
"      #>----;%%%%&X%ooooo%%ooo%;%:                                          ",
"       :>--&&;%;%%&>&%ooooooooo%&+                                          ",
"         :.%%;;;&%&.XX&;%ooooooo#                                           ",
"         $.;;%%XX.&@XX.;&;%oo%;<<                                           ",
"         ,oo%&%OOO@X;X.%:,:==#,<<                                           ",
"         ,ooo&.OO@X&&XO=+                                                   ",
"         ,ooo&OOOO%%;XX:                                                    ",
"         ,oo%&OOOO%%&X&&                                                    ",
"         :&..XOOOO.;&O&;+                                                   ",
"         :XXXXO@OOO;.OOX:+$                                                 ",
"         :XOOOO@OOXo;OOOOOO:                                                ",
"         $OOXXOOOOX&.OOOXXO$                                                ",
"         :XXXXOXXOXXXOOOOOO#                                                ",
"         :XXXXXX&XXXXXXXO&%X+                                               ",
"         $OXXXXOXOXXXXXXO.&#                                                ",
"         +OXXOOOOOXXOX..&%1                                                 ",
"          :=OX&&=###X;%o%1+                                                 ",
"           $;%o%1  1&%ooo<                                                  ",
"           <ooo%+ +%%;ooo<,                                                 ",
"          ,<ooo%$ ,%1%ooo&$                                                 ",
"          $X&%%;$+$,$=...X$                                                 ",
"          :XXX.=$   $=XXXX$                                                 ",
"          #XXXX=+   $=XXXX$                                                 ",
"          $OOOO#     #OOO#+                                                 ",
"         $=XXXO:,$+ $=XXXX=##:+                                             ",
"        +=XXXXXXX=#+#XXXXX...X#+                                            ",
"        $XXXXXX...X#=XXXXXX...X:                                            ",
"        #XXXXXXX...XOXXXXXXXXXX#                                            ",
"        :OOOOXXXXXXXOOOOOOOOOOX#                                            ",
"         +$$::####==:$$$$$++++++                                            ",
"                ++$$+                                                       ",
"                                                                            ",
"                                                                            ",
"                                                                            ",
"                                                                            ",
"                                                                            ",
"                                                                            ",
"                                                                            ",
"                                                                            "
};
