/* XPM */
static char *c3ed3fa80aea47f29a45fc81fbedd749YckRrKjIoMyZDa13[] = {
/* columns rows colors chars-per-pixel */
"32 19 216 2 ",
"   c #3D4537",
".  c #584215",
"X  c #55440E",
"o  c #674E1F",
"O  c #7A5C19",
"+  c #41463F",
"@  c #5E4E34",
"#  c #514E28",
"$  c #694F2D",
"%  c #444944",
"&  c #494B47",
"*  c #464649",
"=  c #49534C",
"-  c #4F4F51",
";  c #575656",
":  c #6A5D4C",
">  c #6F6B52",
",  c #736E5A",
"<  c #5E5D62",
"1  c #656567",
"2  c #706E7C",
"3  c #727670",
"4  c #B6391D",
"5  c #BA3F2F",
"6  c #AD393C",
"7  c #BC3839",
"8  c #B92D38",
"9  c #E21A0F",
"0  c #E51B1C",
"q  c #CC2F00",
"w  c #DB270A",
"e  c #D9360B",
"r  c #D52C17",
"t  c #C23F13",
"y  c #D53115",
"u  c #CA2714",
"i  c #E4340B",
"p  c #E42214",
"a  c #E4241A",
"s  c #E32D1B",
"d  c #ED261B",
"f  c #E92C11",
"g  c #E31E23",
"h  c #F01E21",
"j  c #C82A2A",
"k  c #D52928",
"l  c #C2342B",
"z  c #D73327",
"x  c #CC2A36",
"c  c #DC2F35",
"v  c #C53A3C",
"b  c #C93737",
"n  c #D63938",
"m  c #E92429",
"M  c #E82725",
"N  c #F2272A",
"B  c #ED322C",
"V  c #E73324",
"C  c #E62F31",
"Z  c #E43233",
"A  c #EC3434",
"S  c #E23B32",
"D  c #E8383B",
"F  c #F13B3C",
"G  c #F53833",
"H  c #84590B",
"J  c #916419",
"K  c #BF5032",
"L  c #9E6D2B",
"P  c #BA7B2B",
"I  c #B37633",
"U  c #D34000",
"Y  c #D94F16",
"T  c #E85C1E",
"R  c #E1621D",
"E  c #E4701D",
"W  c #E14036",
"Q  c #FB403B",
"!  c #E8512B",
"~  c #DE753E",
"^  c #F56C2A",
"/  c #F36627",
"(  c #F17126",
")  c #E77C36",
"_  c #FC753A",
"`  c #F67232",
"'  c #EE6931",
"]  c #BB3944",
"[  c #BA3F4A",
"{  c #B63144",
"}  c #C83C44",
"|  c #EB3D42",
" . c #F53449",
".. c #B74144",
"X. c #B0424F",
"o. c #AE4645",
"O. c #9F7B41",
"+. c #8E7846",
"@. c #BD5860",
"#. c #887960",
"$. c #C54448",
"%. c #C15F56",
"&. c #D75050",
"*. c #F94A47",
"=. c #C86158",
"-. c #F2695F",
";. c #C25D6D",
":. c #D35363",
">. c #FF5C6F",
",. c #CE646B",
"<. c #D67477",
"1. c #E87C7B",
"2. c #FB7773",
"3. c #F26667",
"4. c #ED8417",
"5. c #FF8E3F",
"6. c #91896B",
"7. c #838270",
"8. c #C68B49",
"9. c #C59952",
"0. c #FC9757",
"q. c #F6944A",
"w. c #CDA755",
"e. c #F9A84D",
"r. c #F6B54C",
"t. c #EAA05F",
"y. c #F8A657",
"u. c #EAB858",
"i. c #FDB358",
"p. c #FAB959",
"a. c #D79564",
"s. c #FFAC67",
"d. c #ECBA67",
"f. c #F1C26C",
"g. c #87878C",
"h. c #8F8E93",
"j. c #98979A",
"k. c #96928A",
"l. c #AAACAD",
"z. c #A3A3A5",
"x. c #B2B4AF",
"c. c #B8B8BB",
"v. c #E68286",
"b. c #FF8C87",
"n. c #E89887",
"m. c #FF989C",
"M. c #F8A399",
"N. c #FBB98D",
"B. c #FF9DAB",
"V. c #FCA2A0",
"C. c #FFADAC",
"Z. c #FFB7A7",
"A. c #FEABB5",
"S. c #FFBBBD",
"D. c #FFB4B7",
"F. c #CCC382",
"G. c #FFC28C",
"H. c #FFD288",
"J. c #FFCD9D",
"K. c #FFE78C",
"L. c #FFEB90",
"P. c #FFEA9A",
"I. c #FFE69A",
"U. c #FFF79D",
"Y. c #C8C4B6",
"T. c #FFCDBE",
"R. c #FFD4BE",
"E. c #EADBA0",
"W. c #FFEDA4",
"Q. c #FFF2A4",
"!. c #FFBFC5",
"~. c #C7CAC8",
"^. c #D6D9D2",
"/. c #D5CCCD",
"(. c #FFCBCD",
"). c #FFC5C6",
"_. c #FFDCC8",
"`. c #FFCDD8",
"'. c #FFC3D4",
"]. c #FFD4D3",
"[. c #FFDDD9",
"{. c #D5E5DA",
"}. c #FFE4CA",
"|. c #FFE4DE",
" X c #FFEDDC",
".X c #F1EFDA",
"XX c #FFFCDE",
"oX c #E2E4D6",
"OX c #DBDAE0",
"+X c #FFDCE6",
"@X c #EDEDEF",
"#X c #FFE5E4",
"$X c #FFEBE5",
"%X c #FFE4EB",
"&X c #FFEBEB",
"*X c #E1F4EE",
"=X c #FFF2E6",
"-X c #FFFEE4",
";X c #FFF4ED",
":X c #FFFEE9",
">X c #F1F0EB",
",X c #FFEEF4",
"<X c #FFEEFE",
"1X c #FFE3F8",
"2X c #FEF4F4",
"3X c #F6FFF7",
"4X c #FEFCF4",
"5X c #FFF5FB",
"6X c #F5FFFD",
"7X c #FFFAFF",
"8X c #FFF9FE",
"9X c #F9FFFF",
"0X c #FEFEFE",
"qX c #FDFEFC",
"wX c #F2F2F4",
"eX c #E7ECF0",
/* pixels */
"3X6X9X9X6X6X8X8X0X0X9X8X<X1XA.2.*.M m m  .>.B.%X2X3XqX8X8X8X9X6X",
"4XqX0X9X6X9X0X8X0X8X8X5X'.;.6 7 l j k c x b ] @.].2X4X0X5X8X9X6X",
"5X4XqXqX3X6X0X0X3X4X#XV.] 7 %.M.T.].(.7 1.D.:.{ [ D.2X3X8X8XqXqX",
"8X8X4XqX3X3X3XqX4X=XC.6 $.V. X=X;X;X].o.n.#X+X:.x &.[.qX2X5XqX4X",
"8X0X8X0X3X3X0X8X5X(.[ ..].;X4X4X0X5X`.X.v.&X&XS.j j <.2X8X0XqX4X",
"6X0X0X8X4X4X5X,X%X,.8 D.&X;X,X5X5X,X`...1.#X$X|.S k 7 ].2X8X2X8X",
"6X9X9X8X5X;X|.(.m.8 3.S.(.!.).S.C.M.b.b &.2.2.-.k A z b v.+X5X8X",
"6XqX8X%XA.,...v c k n b v } } v b n n W z S S S F G G Q b <.<X8X",
"qX2XD.$.n D | | D F A G F Z | D Z F A A G B M B B M N M C b C.;X",
"4X).v Z V s r u z r s p 9 M m g m g m N 0 0 V r y y w V r l n. X",
" X=.k a e T ) y.y.) Y i p 0 h N M 0 N 0 N s e ` q.0.5.R t K n.}.",
"R.5 k s _ y.P H J 8.s.' y d 9 p p a d d w ! 0.q.I J P y.0.N.N._.",
"Z.4 y ! t.O $ 6.#.. L s.Y q i w i w w i U q.a.o @ #.@ o w.H.a.}.",
"G.~ ' 0.O.@ oX~.^.Y.X 9.e.E ^ / / ^ _ ( 4.r.o 7.>X^.eX, O f.8.J.",
"u.p.r.d.$ k.x.% & ^.> +.u.r.e.i.p.i.e.p.r.9.# {.3   g./.X w.d.f.",
"U.L.L.W.: j.l.% + ^.3 6.Q.K.P.P.I.Q.W.P.P.F.  *X= = 2 /.# E.I.Q.",
"-X-XXX:Xk.; @Xl.~.~.& Y.:XXX:X-X:X:X-X:X-X.X% l.~.h.OXj.; :X:X:X",
"0X0X0X8XwX; ; j.h.- 3 qX0X0X0X0X0X0X0X0X0X0Xj.& h.c.g.% c.0XwX0X",
"0X8X8X0X0XwXg.1 1 z.0X0X8X0X8X0XqX0X0X0X0X0X0Xl.< * 1 c.0XqX0XqX"
};
