/* XPM */
static char *_e9960d34e8c4b8cc8d9ce915f6ae49ddXPYsT23jz6sOhL6[] = {
/* columns rows colors chars-per-pixel */
"36 49 20 1 ",
"  c #F3F3F3",
". c #F8F8F8",
"X c #868686",
"o c #797979",
"O c gray63",
"+ c #909090",
"@ c gray67",
"# c #CACACA",
"$ c #B4B4B4",
"% c #989898",
"& c gray91",
"* c #DADADA",
"= c #585858",
"- c gray",
"; c #6F6F6F",
": c #656565",
"> c #4C4C4C",
", c gray24",
"< c #151515",
"1 c gray16",
/* pixels */
".. ..  . .. ..  .&&.  .. .. .. .. ..",
".. .. .. ..  *#@OOO@-*&  ..  . .. ..",
"  .  .  .  &@;::;;:==:X#   .  .  .  ",
".. ..  . .*o>>=;XXXX:==;- .  . .. ..",
" .  .    #o:XO@-#***#Oo=o*.    ..   ",
"  .. .  #:,=o$*&   ...*$;X .  .  .. ",
".. .. .*:11>o$*&&&  ....*X- .. ..  .",
".. .. &%1<<>o$*&*&&&     &;& . .. ..",
"  .  .#,<<1>;@#***&&&&   .##  .  .. ",
".  .. O<<<1,=X$###*&&&&  ..# . .. ..",
".. .. o<<1,>:o@-$-#&&&**&  *.. .. ..",
"  .  .=<<,,,=+$$@@###-##**&   .  .. ",
"...  &,<1,,>;O$$$O%O@%oX@@@#& ..... ",
".. ..&1<,>>=o%$$$%XXoX:o@;=+*. .. ..",
"  ..  1>:X+;X%@$-O%O%O%O#+;;#..  .. ",
"  .   =oo==oX+%@-#--#--#*##$& .  .  ",
".. .. +o@X>+oX++@-###-*##&#* . .. ..",
"  .  .$:OX;%;oXX+@-#**--#*#*& .  .  ",
"  .  .*:XOXo;;oXX+O-*-%O%@#*  .  .. ",
".. .. &OoO$X;oooX+%O@O:,1>o* . .. ..",
"  .. . #>:$o:;XoX%@O+@:111=#  .  .. ",
"  .. .  O111=;oXXOO@@@>11,=*  .  .. ",
".. ..  .#,<,=::oXOO@@X===>$* . .. ..",
".. . . .#=>:===:X%%O%oo++X-& .... ..",
"  .  .  #:=o====;XX+O@O%O@-   .  .  ",
".. ..  .#;=o;=>,=ooXO@@@@$* .. .. ..",
".. .. .&-+;Xo;=>,==:+$-###  .. .. ..",
"  .  .&$$#@+Xo;=,>>>=oX%@$&.  .  .. ",
"..  . *;;#&#@+Xo==>>>>>:X-.    ..   ",
".. .. @==X# &#$%o;:=>>>X# .    .. ..",
"  .  *;:==o#  &*$+oo::+*.  .  .  .. ",
".. .*:::;;=o#  . &@Xo+&. .. .. .. ..",
"..*@X;;;oo;;X#&    *@&&. .. .. .. ..",
"&#OXXXoooo;oo+#    &%##&.  .  .  .  ",
"#OXX+XooXooXXX%*   *OOO# ..  .... . ",
"O+X++Xo:oXXX+XXO* &@++%@&..  . ..  .",
"$O%%%XX::XXXXXX+@&&OoX%X$& .  .  .. ",
"$@O%+XXo>oXX+XXX+$&$XXO%%%$*&&   .  ",
"$@O%XXXX==XXXXXoX%-+oOOOO+O@-#* . ..",
"@O%%++XXo,;XXX+++++oo+%O@%OO@--*& . ",
"$%X+++++X=>XXXXX++XX;XX+@@OO@@$-##& ",
"$%XXX+++X;1;X;>;++XX+Xoo@$@@@@@$@O*.",
"+%ooX+%++X=<1,;o+X++%+o;O@@@OO@-@X- ",
":oo=;o+%%+;>=o;X%+++++o:%@$$O@@$$+$&",
"%=:==;X+%%+XXX::%%%+%%X:+-$$-$@@$X@*",
"OX=>>;o+%O%%XX;,=X%%OO+:+-$$--$$$O@#",
":Xo=,:;X+%O%XoX;:=o%%%%oX$$$$$$$$$$$",
">=o:,=:oX%O%+X%X++;o++OXX$-$$@$-$$$@",
"O;;=,>:;o+OOO%%O+%%+X%OX+$--@@--$$%O"
};
